<svg width="72" height="72" viewBox="0 0 72 72" fill="none" xmlns="http://www.w3.org/2000/svg">
<path d="M31.4407 41.0402C31.7707 41.2802 32.4007 42.8102 32.8207 43.8002C33.4207 45.2702 33.9907 46.6502 34.6807 47.4002L34.9507 47.7002H37.0207L37.2907 47.4002C37.9807 46.6502 38.5807 45.2702 39.2107 43.8002C39.6307 42.8102 40.2607 41.3102 40.5907 41.0402C44.3707 39.2702 46.8307 35.4302 46.8307 31.2602C46.8307 25.3202 42.0007 20.4602 36.0307 20.4602C30.0907 20.4602 25.2307 25.2902 25.2307 31.2602C25.2007 35.4602 27.6607 39.2702 31.4407 41.0402ZM27.0007 31.2602C27.0007 26.3102 31.0207 22.2602 36.0007 22.2602C40.9807 22.2602 45.0007 26.3102 45.0007 31.2602C45.0007 34.7402 42.9607 37.9502 39.7807 39.4202C38.9407 39.8102 38.4007 41.0102 37.5307 43.0802C37.1107 44.1002 36.6307 45.2402 36.2107 45.8702H35.8207C35.4007 45.2402 34.9207 44.1002 34.5007 43.0802C33.6307 41.0102 33.0907 39.8102 32.2507 39.3902C29.0407 37.9802 27.0007 34.7702 27.0007 31.2602Z" fill="#0066FF"/>
<path d="M42.4808 35.2802L42.3308 34.9202C42.2708 34.7702 41.0708 32.1002 38.5508 30.8102C39.0908 30.2102 39.4508 29.4302 39.4508 28.5602C39.4508 26.7002 37.9208 25.1702 36.0608 25.1702C34.2008 25.1702 32.6708 26.7002 32.6708 28.5602C32.6708 29.3702 33.0008 30.1202 33.4808 30.6902C30.8408 31.9202 29.7308 34.8302 29.6708 34.9802L29.5508 35.3102L30.2108 36.9002H41.8208L42.4808 35.2802ZM36.0608 27.0002C36.9308 27.0002 37.6508 27.7202 37.6508 28.5902C37.6508 29.4602 36.9308 30.1802 36.0608 30.1802C35.1908 30.1802 34.4708 29.4602 34.4708 28.5902C34.4708 27.6902 35.1608 27.0002 36.0608 27.0002ZM31.5908 35.1002C32.0708 34.1102 33.4208 31.9802 35.8508 31.9502C38.2508 31.9802 39.7808 34.0502 40.3808 35.1002H31.5908Z" fill="#0066FF"/>
<path d="M63 48.87V38.52H60.24V38.4C60.18 37.92 60.21 33.3 60.24 30.51V27.48C60.24 23.94 56.19 6 36.87 6H36.06H35.97H35.16C15.84 6 11.76 23.94 11.76 27.48V30.51C11.79 33.27 11.79 37.83 11.76 38.37L11.73 38.52H9V48.87H11.79C11.85 52.35 14.28 55.17 17.28 55.17H18.6C20.52 55.17 22.08 53.4 22.08 51.21V36.09C22.08 33.9 20.52 32.13 18.6 32.13H17.28C15.87 32.13 14.58 32.79 13.59 33.81C13.59 32.88 13.59 31.83 13.56 30.54V28.98C13.59 28.98 13.59 28.98 13.62 28.98C15.18 28.98 17.58 28.2 18.93 25.2C20.31 21.99 24.6 12.3 35.13 12.3H35.94H36.03H36.84C47.37 12.3 51.66 21.99 53.07 25.17C54.39 28.17 56.82 28.95 58.35 28.95C58.38 28.95 58.38 28.95 58.41 28.95V30.51C58.41 31.8 58.41 32.85 58.38 33.78C57.39 32.73 56.13 32.1 54.69 32.1H53.4C51.48 32.1 49.92 33.87 49.92 36.06V51.18C49.92 53.37 51.48 55.14 53.4 55.14H54.72C55.83 55.14 56.82 54.75 57.69 54.12V54.18C57.69 55.74 56.49 61.59 50.61 61.59H41.85C41.58 59.76 40.08 58.35 38.16 58.35H33.24C31.14 58.35 29.46 60.06 29.46 62.22C29.46 64.32 31.17 66 33.24 66H38.16C39.81 66 41.19 64.92 41.7 63.39H50.61C57.3 63.39 59.49 57.18 59.49 54.18V51.87C59.91 50.97 60.18 49.95 60.21 48.87H63ZM38.19 64.2H33.27C32.16 64.2 31.29 63.3 31.29 62.13C31.29 61.02 32.19 60.15 33.27 60.15H38.19C39.3 60.15 40.17 61.05 40.17 62.22C40.17 63.3 39.27 64.2 38.19 64.2ZM61.2 47.07H60.21V40.32H61.2V47.07ZM10.8 40.32H11.79V47.07H10.8V40.32ZM17.28 33.9H18.6C19.53 33.9 20.28 34.86 20.28 36.06V51.18C20.28 52.38 19.53 53.34 18.6 53.34H17.28C15.24 53.34 13.59 51.27 13.59 48.72V38.49C13.59 35.97 15.24 33.9 17.28 33.9ZM54.72 24.45C50.64 15.21 44.61 10.5 36.84 10.5H36.03H35.94H35.13C27.36 10.5 21.33 15.18 17.25 24.45C16.2 26.88 14.4 27.15 13.59 27.12C13.95 24.57 16.92 7.8 35.13 7.8H35.94H36.03H36.84C55.05 7.8 58.05 24.57 58.38 27.12C57.6 27.15 55.8 26.88 54.72 24.45ZM54.72 53.37H53.4C52.47 53.37 51.72 52.41 51.72 51.21V36.09C51.72 34.89 52.47 33.93 53.4 33.93H54.72C56.76 33.93 58.41 36 58.41 38.55V48.78C58.41 51.3 56.76 53.37 54.72 53.37Z" fill="#0066FF"/>
</svg>
