<svg width="72" height="72" viewBox="0 0 72 72" fill="none" xmlns="http://www.w3.org/2000/svg">
<path d="M36 6.23999L9.74701 19.8795V51.24L36 66.24L62.253 51.24V19.8795L36 6.23999ZM36 8.93699L58.482 20.6196L52.2618 23.91L29.8134 12.15L29.82 12.147L36 8.93699ZM46.74 29.5215L51.513 26.9919V35.5359L46.74 38.2644V29.5215ZM27.2292 13.4955L27.2343 13.4928L49.7019 25.2615L45.2892 27.5862L22.7892 15.7998L27.2292 13.4955ZM20.2005 17.1468L20.2086 17.1429L42.7275 28.9386L36 32.493L13.518 20.6196L20.2005 17.1468ZM12.1338 49.8558V22.59L34.8066 34.56V62.8179L12.1338 49.8558ZM59.8662 49.8558L37.1934 62.8032V34.5573L44.3532 30.7746V42.3783L53.8998 36.9204V25.74L59.8662 22.5777V49.8558Z" fill="#0066FF"/>
</svg>
