<svg width="72" height="72" viewBox="0 0 72 72" fill="none" xmlns="http://www.w3.org/2000/svg">
<path d="M35.34 51.2998H32.04V53.0698H35.34V51.2998Z" fill="#0066FF"/>
<path d="M37.95 54.3599H32.04V56.1299H37.95V54.3599Z" fill="#0066FF"/>
<path d="M19.2902 42.0898H15.9902V43.8598H19.2902V42.0898Z" fill="#0066FF"/>
<path d="M50.4001 32.04H47.1001V33.81H50.4001V32.04Z" fill="#0066FF"/>
<path d="M21.9002 45.1499H15.9902V46.9199H21.9002V45.1499Z" fill="#0066FF"/>
<path d="M66 28.92L60.15 24.6H49.74V16.32L43.71 12H18.21V28.2H6V47.28L12.27 51.54H23.01V55.74L28.95 60H59.61V49.17H66V28.92ZM62.4 28.47H55.65L52.77 26.37H59.58L62.4 28.47ZM29.76 42.06L26.73 39.96H39.21L42.12 42.06H29.76ZM12.6 32.04L9.69 29.97H18.54L21.42 32.04H12.6ZM24.45 32.04L21.57 29.97H29.52L32.49 32.04H24.45ZM25.17 15.9L22.23 13.77H32.19L35.1 15.9H25.17ZM45.18 42.06L42.27 39.96H53.01L55.95 42.09H45.18V42.06ZM39.93 38.16C39.9 36.78 39.9 31.41 39.93 27.18L43.62 29.79V38.13L39.93 38.16ZM44.82 28.47L41.85 26.37H49.74L52.62 28.47H44.82ZM38.16 24.6V25.47C38.1 32.43 38.1 36.63 38.16 38.16H36.24V32.46L30.09 28.2H25.77V17.67H47.97V24.6H38.16ZM46.08 15.9H38.13L35.22 13.77H43.11L46.08 15.9ZM20.01 14.37L23.97 17.22V28.2H20.01V14.37ZM7.8 30.81L11.4 33.39V48.78L7.8 46.32V30.81ZM13.2 49.74V33.81H34.41V38.16H23.01V49.71H13.2V49.74ZM24.81 40.77L28.59 43.38V57.51L24.81 54.78V40.77ZM30.39 58.23V43.83H57.81V58.23H30.39ZM59.61 47.37V42.48L53.61 38.13H45.45V30.21H64.23V47.34H59.61V47.37Z" fill="#0066FF"/>
<path d="M26.79 23.8498H33.39V18.7798H26.79V23.8498ZM28.59 20.5498H31.59V22.0798H28.59V20.5498Z" fill="#0066FF"/>
</svg>
