<svg width="72" height="72" viewBox="0 0 72 72" fill="none" xmlns="http://www.w3.org/2000/svg">
<path d="M42.5402 24.1497L41.2202 25.3797L45.3602 29.8497L46.7402 29.7897L52.8002 21.4797L51.3302 20.4297L45.9302 27.8397L42.5402 24.1497Z" fill="#0066FF"/>
<path d="M16.8898 28.1699H15.0898V33.4799H16.8898V28.1699Z" fill="#0066FF"/>
<path d="M27.12 43.41V11.01C26.97 9.3 25.53 6 21.12 6C16.68 6 15.24 9.3 15.12 11.1V25.77H16.92V11.19C16.92 10.83 17.31 7.8 21.12 7.8C24.93 7.8 25.32 10.83 25.35 11.1V12.81H20.1V14.61H25.35V20.22H21.78V22.02H25.35V27.63H20.1V29.43H25.35V35.04H21.78V36.84H25.35V44.52L25.83 44.76C29.28 46.53 31.44 50.04 31.44 53.91C31.44 59.58 26.82 64.2 21.12 64.2C15.42 64.2 10.8 59.58 10.8 53.91C10.8 50.04 12.96 46.53 16.41 44.76L16.89 44.52V36.3H15.09V43.44C11.31 45.57 9 49.53 9 53.91C9 60.57 14.43 66 21.12 66C27.81 66 33.24 60.57 33.24 53.91C33.21 49.53 30.9 45.57 27.12 43.41Z" fill="#0066FF"/>
<path d="M12.8398 53.8203C12.8398 58.3803 16.5598 62.0703 21.1198 62.0703C25.6798 62.0703 29.3998 58.3503 29.3998 53.8203C29.3998 49.2603 25.6798 45.5703 21.1198 45.5703C16.5598 45.5703 12.8398 49.2603 12.8398 53.8203ZM21.1198 47.3703C24.6898 47.3703 27.5998 50.2803 27.5998 53.8203C27.5998 57.3903 24.6898 60.3003 21.1198 60.3003C17.5498 60.3003 14.6398 57.3903 14.6398 53.8203C14.6398 50.2503 17.5498 47.3703 21.1198 47.3703Z" fill="#0066FF"/>
<path d="M62.7002 31.14L49.5002 8.48996C48.7502 7.19996 46.6202 7.19996 45.8702 8.48996L32.6402 31.14C32.2502 31.8 32.2502 32.58 32.6402 33.24C33.0302 33.9 33.6902 34.29 34.4702 34.29H51.1502V32.49H34.4702C34.3202 32.49 34.2302 32.4 34.2002 32.34C34.1702 32.28 34.1402 32.16 34.2002 32.04L47.4302 9.38996C47.5802 9.11996 47.7902 9.11996 47.9402 9.38996L61.1702 32.04C61.2602 32.16 61.2002 32.28 61.1702 32.34C61.1402 32.4 61.0502 32.49 60.9002 32.49H54.1502V34.29H60.9002C61.6502 34.29 62.3402 33.9 62.7302 33.24C63.0902 32.58 63.0902 31.8 62.7002 31.14Z" fill="#0066FF"/>
</svg>
