<svg width="73" height="72" viewBox="0 0 73 72" fill="none" xmlns="http://www.w3.org/2000/svg">
<path d="M48.9179 64.0626H8.27664V7.9374H34.4024V22.4529H48.9179V24.2481H50.855V21.0828L35.7725 6H6.33984V66H50.855V54.39H48.9179V64.0626ZM36.3392 9.3075L47.5478 20.5158H36.3392V9.3075Z" fill="white" fill-opacity="0.4"/>
<path d="M17.2646 28.5474L13.1192 32.6928L11.8673 31.44L10.4972 32.8101L13.1192 35.4321L18.6347 29.9055L17.2646 28.5474Z" fill="white" fill-opacity="0.4"/>
<path d="M17.2646 41.1258L13.1192 45.2715L11.8673 44.0196L10.4972 45.3897L13.1192 48.0117L18.6347 42.4959L17.2646 41.1258Z" fill="white" fill-opacity="0.4"/>
<path d="M11.8673 56.61L10.4972 57.9681L13.1192 60.5904L18.6347 55.0746L17.2646 53.7045L13.1192 57.8619L11.8673 56.61Z" fill="white" fill-opacity="0.4"/>
<path d="M20.8553 31.1574H43.1069V33.0945H20.8553V31.1574Z" fill="white" fill-opacity="0.4"/>
<path d="M17.2646 14.9115L13.1192 19.0572L11.8673 17.8053L10.4972 19.1754L13.1192 21.7974L18.6347 16.2699L17.2646 14.9115Z" fill="white" fill-opacity="0.4"/>
<path d="M20.8553 17.5326H31.1111V19.4589H20.8553V17.5326Z" fill="white" fill-opacity="0.4"/>
<path d="M20.8553 44.7045H38.2763V46.6416H20.8553V44.7045Z" fill="white" fill-opacity="0.4"/>
<path d="M20.8553 58.2516H35.3711V60.1887H20.8553V58.2516Z" fill="white" fill-opacity="0.4"/>
<path d="M66.2919 26.1024C66.2283 25.7256 66.09 25.3653 65.8851 25.0428C65.6802 24.7203 65.4128 24.442 65.0987 24.2244L61.9334 22.0044C61.621 21.7844 61.2682 21.6283 60.8952 21.5452C60.5222 21.4621 60.1365 21.4536 59.7603 21.5202C59.3835 21.5837 59.0233 21.7219 58.7008 21.9268C58.3783 22.1316 58.1001 22.399 57.8825 22.713L56.7726 24.3075L53.6072 22.0875L46.9457 31.5954L48.5285 32.7054L54.0785 24.7803L55.661 25.8903L38.8778 49.8663L37.295 60.567L46.8146 55.4175L65.8184 28.2759C66.0368 27.9628 66.1909 27.6095 66.272 27.2366C66.3531 26.8636 66.3605 26.4779 66.2919 26.1024ZM39.7763 57.0234L40.5311 51.921L44.3111 54.5667L39.7763 57.0234ZM45.9062 53.3265L41.1464 49.9965L45.5864 43.6539L50.3462 46.9839L45.9062 53.3265ZM51.4562 45.3897L46.6964 42.0597L57.2447 27L62.0046 30.33L51.4562 45.3897ZM64.2237 27.1653L63.1136 28.7481L58.3539 25.4181L59.4638 23.8353C59.5367 23.7314 59.6294 23.6428 59.7365 23.5747C59.8436 23.5066 59.9631 23.4602 60.0881 23.4383C60.2132 23.4164 60.3413 23.4193 60.4652 23.4469C60.5891 23.4745 60.7063 23.5263 60.8102 23.5992L63.9755 25.8192C64.1869 25.9667 64.3313 26.1917 64.3772 26.4453C64.4052 26.5693 64.4059 26.6978 64.3794 26.8221C64.3529 26.9464 64.2998 27.0635 64.2237 27.1653Z" fill="white" fill-opacity="0.4"/>
</svg>
