<svg width="72" height="72" viewBox="0 0 72 72" fill="none" xmlns="http://www.w3.org/2000/svg">
<path d="M13.59 33.48L12.3 32.22L10.68 33.84C11.79 20.94 22.71 10.77 36.03 10.77C47.94 10.77 58.11 18.78 60.81 30.24L62.55 29.82C59.67 17.58 48.75 9 36.03 9C21.78 9 10.05 19.89 8.88 33.72L7.26 32.13L6 33.39L9.84 37.2L13.59 33.48Z" fill="#0066FF"/>
<path d="M66.0013 38.3396L62.1613 34.5296L58.4113 38.2496L59.6713 39.5096L61.3513 37.8296C60.9013 44.1296 58.0813 49.8296 53.7913 53.9996V31.8596H53.7313L53.7613 31.8296L50.4013 27.3896H21.8713L18.1513 31.8296H18.1213V53.8796C14.8813 50.7296 12.4813 46.6796 11.3113 42.0596L9.57129 42.4796C12.6013 54.5996 23.4913 62.9996 36.0313 62.9996C50.3713 62.9996 62.1013 51.9896 63.1813 38.0696L64.7413 39.5996L66.0013 38.3396ZM51.5413 31.8596H40.6213L40.1113 29.1896H49.5313L51.5413 31.8596ZM39.0013 33.6596V37.3496L36.1813 36.5996L33.3613 37.3496V33.6596H39.0013ZM33.5413 31.8596L34.0813 29.1896H38.3113L38.8513 31.8596H33.5413ZM22.7113 29.1896H32.2513L31.7413 31.8596H20.4913L22.7113 29.1896ZM19.9213 55.5296V33.6596H31.5313V39.6896L36.1513 38.4596L40.7713 39.6896V33.6596H51.9913V55.5897C47.6113 59.0997 42.0613 61.1996 36.0013 61.1996C29.9713 61.2296 24.3313 59.0996 19.9213 55.5296Z" fill="#0066FF"/>
<path d="M45.3589 45H26.6689V46.77H45.3589V45Z" fill="#0066FF"/>
<path d="M45.3589 48.75H26.6689V50.52H45.3589V48.75Z" fill="#0066FF"/>
<path d="M40.7399 52.47H31.3799V54.24H40.7399V52.47Z" fill="#0066FF"/>
</svg>
