<svg width="72" height="72" viewBox="0 0 72 72" fill="none" xmlns="http://www.w3.org/2000/svg">
<path d="M37.8877 24.54L28.8677 37.44H33.063V47.49L43.0719 33.72L37.8877 33.66V24.54ZM39.5358 35.49L34.861 41.88V37.44V35.64H33.033H32.3138L36.0297 30.33V33.66V35.43L37.8277 35.46L39.5358 35.49Z" fill="#0066FF"/>
<path d="M58.8646 43.68V28.32C61.172 27.87 62.9401 25.89 62.9401 23.46C62.9401 20.73 60.6926 18.54 57.9356 18.54C56.4373 18.54 55.0888 19.2 54.1898 20.25L40.6748 12.54C40.8546 12.03 40.9745 11.49 40.9745 10.92C40.9745 8.22 38.727 6 35.97 6C33.2131 6 30.9656 8.22 30.9656 10.92C30.9656 11.49 31.0855 12.03 31.2653 12.54L17.7503 20.25C16.8513 19.2 15.5028 18.54 14.0044 18.54C11.2475 18.54 9 20.76 9 23.46C9 25.86 10.768 27.87 13.0755 28.29V43.68C10.768 44.13 9 46.11 9 48.54C9 51.27 11.2475 53.46 14.0044 53.46C15.5327 53.46 16.8513 52.77 17.7802 51.72L31.2952 59.43C31.1154 59.94 30.9956 60.51 30.9956 61.08C30.9956 63.81 33.2431 66 36 66C38.7569 66 41.0044 63.78 41.0044 61.08C41.0044 60.51 40.8846 59.97 40.7048 59.46L54.2198 51.75C55.1487 52.8 56.4673 53.49 57.9956 53.49C60.7525 53.49 63 51.27 63 48.57C62.9401 46.11 61.172 44.13 58.8646 43.68ZM54.1898 45.33L48.9756 42.36C49.9645 40.44 50.5638 38.28 50.5638 35.97C50.5638 33.66 49.9645 31.53 49.0055 29.61L54.1898 26.64C54.909 27.48 55.8979 28.08 57.0666 28.29V43.68C55.8979 43.89 54.909 44.49 54.1898 45.33ZM35.97 48.6C28.9279 48.6 23.2042 42.96 23.2042 36C23.2042 29.04 28.9279 23.4 35.97 23.4C43.0122 23.4 48.7358 29.04 48.7358 36C48.7358 42.96 43.0122 48.6 35.97 48.6ZM14.9034 43.68V28.32C16.0422 28.11 17.0311 27.51 17.7503 26.67L22.9645 29.64C22.0055 31.56 21.4062 33.69 21.4062 36C21.4062 38.31 22.0055 40.44 22.9645 42.36L17.7802 45.33C17.0311 44.49 16.0422 43.89 14.9034 43.68ZM57.9356 20.34C59.6737 20.34 61.1121 21.75 61.1121 23.46C61.1121 25.17 59.7037 26.58 57.9356 26.58C56.1976 26.58 54.7592 25.17 54.7592 23.46C54.7592 21.75 56.1976 20.34 57.9356 20.34ZM53.2608 21.81C53.081 22.32 52.9612 22.89 52.9612 23.46C52.9612 24.03 53.081 24.57 53.2608 25.08L48.1065 28.02C45.6493 24.39 41.5738 21.96 36.899 21.66V15.78C38.0377 15.57 39.0566 14.97 39.7758 14.1L53.2608 21.81ZM35.97 7.8C37.7081 7.8 39.1465 9.21 39.1465 10.92C39.1465 12.63 37.7081 14.07 35.97 14.07C34.232 14.07 32.7936 12.66 32.7936 10.95C32.7936 9.24 34.232 7.8 35.97 7.8ZM32.1942 14.13C32.9134 14.97 33.9023 15.57 35.071 15.78V21.69C30.3962 21.99 26.3208 24.39 23.8635 28.02L18.6792 25.11C18.859 24.6 18.9789 24.06 18.9789 23.46C18.9789 22.89 18.859 22.32 18.6792 21.81L32.1942 14.13ZM10.828 23.46C10.828 21.75 12.2364 20.34 14.0044 20.34C15.7425 20.34 17.1809 21.75 17.1809 23.46C17.1809 25.17 15.7425 26.61 14.0044 26.61C12.2364 26.61 10.828 25.2 10.828 23.46ZM14.0044 51.66C12.2664 51.66 10.828 50.25 10.828 48.54C10.828 46.83 12.2364 45.42 14.0044 45.42C15.7425 45.42 17.1809 46.83 17.1809 48.54C17.1509 50.25 15.7425 51.66 14.0044 51.66ZM18.6792 50.16C18.859 49.65 18.9789 49.11 18.9789 48.54C18.9789 47.97 18.859 47.43 18.6792 46.89L23.8335 43.95C26.2908 47.58 30.3663 50.01 35.0411 50.31V56.22C33.9023 56.43 32.9134 57.03 32.1942 57.87L18.6792 50.16ZM35.97 64.2C34.232 64.2 32.7936 62.79 32.7936 61.08C32.7936 59.37 34.202 57.96 35.97 57.96C37.7081 57.96 39.1465 59.37 39.1465 61.08C39.1465 62.79 37.7081 64.2 35.97 64.2ZM39.7458 57.87C39.0266 57.03 38.0377 56.43 36.869 56.22V50.31C41.5438 50.01 45.6193 47.61 48.0766 43.98L53.2309 46.92C53.0511 47.43 52.9312 47.97 52.9312 48.57C52.9312 49.14 53.0511 49.71 53.2309 50.22L39.7458 57.87ZM57.9356 51.66C56.1976 51.66 54.7592 50.25 54.7592 48.54C54.7592 46.83 56.1676 45.42 57.9356 45.42C59.6737 45.42 61.1121 46.83 61.1121 48.54C61.1121 50.25 59.7037 51.66 57.9356 51.66Z" fill="#0066FF"/>
</svg>
