<svg width="72" height="72" viewBox="0 0 72 72" fill="none" xmlns="http://www.w3.org/2000/svg">
<path d="M46.5899 12.7202H18.6899V14.5802H46.5899V12.7202Z" fill="#0066FF"/>
<path d="M40.0199 19.0498H18.6899V20.9098H40.0199V19.0498Z" fill="#0066FF"/>
<path d="M40.0199 44.1299H18.6899V45.9899H40.0199V44.1299Z" fill="#0066FF"/>
<path d="M40.0199 50.46H18.6899V52.32H40.0199V50.46Z" fill="#0066FF"/>
<path d="M51.96 24.3599C48.27 24.3599 45.27 27.4199 45.27 31.1999C45.27 34.9799 48.27 38.0399 51.96 38.0399C55.65 38.0399 58.65 34.9799 58.65 31.1999C58.65 27.4199 55.62 24.3599 51.96 24.3599ZM51.96 36.2099C49.26 36.2099 47.07 33.9599 47.07 31.1999C47.07 28.4399 49.26 26.1899 51.96 26.1899C54.66 26.1899 56.85 28.4399 56.85 31.1999C56.82 33.9599 54.63 36.2099 51.96 36.2099Z" fill="#0066FF"/>
<path d="M32.0099 39.72V25.29H18.6899V39.72H32.0099ZM20.4899 27.15H30.2099V37.89H20.4899V27.15Z" fill="#0066FF"/>
<path d="M66 31.2L63.09 27.48L63.33 22.71L58.86 21.48L56.31 17.49L53.55 18.6V14.55H61.44V13.62C61.44 10.74 60.78 8.61 59.46 7.29C58.2 6 56.82 6 56.76 6C56.7 6 56.37 6 55.98 6.06V6H11.46V57.45H6V62.04C6 63.39 6.93 65.97 10.47 65.97H47.61C47.7 65.97 47.76 65.97 47.79 65.97C47.88 65.97 47.88 65.97 47.97 65.97C48.42 65.97 49.62 65.85 50.76 64.77C52.14 63.48 52.83 61.32 52.83 58.32V52.29L57.48 54.63V42.99L58.83 40.86L63.3 39.63L63.06 34.86L66 31.2ZM59.61 12.72H53.58C53.7 10.8 54.18 9.39 54.99 8.58C55.77 7.83 56.61 7.86 56.67 7.86C56.79 7.86 59.31 7.98 59.61 12.72ZM10.47 64.14C7.98 64.14 7.8 62.4 7.8 62.04V59.28H43.17C43.29 61.35 43.77 62.97 44.64 64.14H10.47ZM49.59 63.42C48.9 64.08 48.18 64.14 47.97 64.14L47.76 64.11C47.16 64.02 44.97 63.33 44.97 58.35V57.42H13.26V7.86H53.28C52.29 9.18 51.75 11.1 51.75 13.65V14.58V19.17L47.61 17.55L45.06 21.54L40.56 22.77L40.8 27.54L37.89 31.26L40.8 34.98L40.56 39.75L45.06 40.98L46.59 43.38V54.75L51.03 52.41V58.41C51.03 60.75 50.52 62.49 49.59 63.42ZM51.93 49.8L48.42 51.66V44.58L51.96 43.2L55.68 44.67V51.69L51.93 49.8ZM57.69 39.33L55.56 42.66L51.93 41.25L48.3 42.66L46.17 39.33L42.42 38.28L42.6 34.32L40.2 31.2L42.63 28.11L42.45 24.15L46.2 23.1L48.33 19.77L51.96 21.18L55.59 19.77L57.72 23.1L61.47 24.15L61.29 28.11L63.72 31.2L61.29 34.29L61.47 38.25L57.69 39.33Z" fill="#0066FF"/>
</svg>
