<svg width="72" height="72" viewBox="0 0 72 72" fill="none" xmlns="http://www.w3.org/2000/svg">
<path d="M31.4702 47.0699C32.6702 47.0399 35.1902 46.9799 37.5302 45.8099C39.6302 44.7299 40.6802 43.4999 41.1002 42.8999C41.4902 42.8699 41.8802 42.7499 42.2402 42.5399L44.5502 41.0399C45.1202 40.6799 45.5102 40.1099 45.6602 39.4499C45.8102 38.7899 45.6902 38.1299 45.3002 37.5599C45.0902 37.2299 44.8202 36.9899 44.4902 36.8099C44.9102 36.0299 44.9402 35.0399 44.4302 34.2599C44.1002 33.7499 43.5902 33.3899 42.9902 33.2399C43.0802 32.6399 42.9602 32.0099 42.6302 31.4999C42.2702 30.9299 41.6702 30.5099 41.0102 30.3899C40.8302 30.3599 40.6802 30.3899 40.5302 30.3899C40.5002 30.0599 40.3802 29.7299 40.2002 29.4299L40.0502 29.0999C39.7202 28.5899 39.2102 28.2299 38.6102 28.1099C38.0102 27.9899 37.4102 28.0799 36.8702 28.4399L33.9002 30.2999C33.8702 30.2999 33.8702 30.3299 33.8402 30.3599L31.0802 31.8899C30.9902 31.6499 30.9002 31.3499 30.8102 31.0799C30.2402 29.3999 29.5502 27.2999 28.0802 26.0999C27.2402 25.4399 26.1902 25.4099 25.3502 26.0099C24.5702 26.5799 24.0602 27.7799 24.6302 29.0999C25.2602 30.5699 25.5602 34.1099 25.4102 36.3599C25.3502 37.3199 25.0502 38.0099 24.7502 38.4899L24.0602 37.4399L18.2402 41.1899L25.4102 52.1999L31.2302 48.4499L30.4202 47.2199C30.6002 47.1599 30.8102 47.0699 30.9902 47.0399C31.1102 47.0699 31.2602 47.0699 31.4702 47.0699ZM43.6202 39.5099L41.2802 41.0099C40.9502 41.2499 40.4702 41.1299 40.2602 40.7999C40.0502 40.4699 40.1402 39.9899 40.4702 39.7799L40.7102 39.6299L42.7802 38.3099C42.9002 38.2199 43.0502 38.1899 43.1702 38.1899C43.4102 38.1899 43.6502 38.3099 43.8002 38.5199C43.9202 38.6999 43.9502 38.8799 43.8902 39.0599C43.8902 39.2399 43.7702 39.3899 43.6202 39.5099ZM42.7502 36.1799L41.8502 36.7499L40.4702 37.6499L38.5202 38.9099C38.3402 38.9999 38.1602 39.0599 37.9502 38.9999C37.7702 38.9699 37.5902 38.8499 37.4702 38.6699C37.3502 38.4899 37.3202 38.3099 37.3802 38.1299C37.4102 37.9499 37.5302 37.7699 37.7102 37.6799L41.9702 34.9499C42.0902 34.8599 42.2402 34.8299 42.3602 34.8299C42.4202 34.8299 42.4502 34.8299 42.5102 34.8599C42.6902 34.8899 42.8702 35.0099 42.9902 35.1899C43.2002 35.5199 43.0802 35.9699 42.7502 36.1799ZM41.1602 32.3699C41.2802 32.5499 41.3102 32.7599 41.2802 32.9699C41.2502 33.1799 41.1002 33.3599 40.9202 33.4799L36.7502 36.1499C36.3902 36.3899 35.9102 36.2699 35.6702 35.9099C35.4302 35.5499 35.5502 35.0699 35.9102 34.8299L39.5402 32.4899L40.0802 32.1599C40.2002 32.0699 40.3502 32.0399 40.5002 32.0399C40.5602 32.0399 40.6202 32.0399 40.6802 32.0699C40.8602 32.0999 41.0402 32.2199 41.1602 32.3699ZM37.8602 29.9099C37.9502 29.8499 38.0402 29.8199 38.1302 29.8199C38.1602 29.8199 38.1902 29.8199 38.2502 29.8199C38.3702 29.8499 38.4902 29.9399 38.5802 30.0299L38.7302 30.2699C38.8802 30.5099 38.8202 30.8099 38.5802 30.9599L35.9102 32.6699L35.6102 32.8799C35.3702 33.0299 35.0702 32.9699 34.9202 32.7299L34.7702 32.4899C34.7102 32.3699 34.6802 32.2499 34.7102 32.0999C34.7402 31.9799 34.8002 31.8899 34.8902 31.8299C34.8902 31.8299 34.8902 31.7999 34.9202 31.7999L37.8602 29.9099ZM25.9202 49.7699L20.7002 41.7599L23.5202 39.9599L28.7402 47.9699L25.9202 49.7699ZM29.4302 45.6899L25.8002 40.0799C26.3402 39.4499 27.1202 38.2799 27.2402 36.4499C27.3902 33.9599 27.0602 30.1499 26.3102 28.3799C26.0702 27.9299 26.2202 27.5999 26.4302 27.4499C26.5802 27.3299 26.7602 27.3299 26.9402 27.4799C28.0202 28.3499 28.6202 30.1799 29.1002 31.6199C29.2802 32.1599 29.4302 32.6399 29.6102 33.0299C29.7602 33.3899 30.0902 33.6899 30.4502 33.8099C30.8402 33.9299 31.2302 33.8699 31.5302 33.6899L32.9402 32.9099C33.2402 33.9899 33.4202 36.3599 30.6002 38.8799L29.9402 39.4799L31.1402 40.7999L31.8002 40.1999C33.0002 39.1199 33.7202 38.0399 34.2002 36.9899C34.5602 37.4699 35.0402 37.7399 35.5502 37.8899C35.4302 38.5199 35.5502 39.1499 35.9102 39.6599C36.2702 40.2299 36.8402 40.6199 37.5002 40.7699C37.6802 40.7999 37.8602 40.8299 38.0402 40.8299C38.1302 40.8299 38.2502 40.7999 38.3402 40.7999C38.4002 41.1299 38.5202 41.4599 38.7002 41.7599C38.8502 41.9699 39.0602 42.1199 39.2702 42.2699C38.8502 42.7799 38.0702 43.4999 36.6902 44.2199C34.7102 45.2099 32.4602 45.2699 31.3802 45.2999C31.1102 45.2999 30.9302 45.2999 30.7802 45.3299C30.3302 45.3299 29.8202 45.5399 29.4302 45.6899Z" fill="#0066FF"/>
<path d="M63.3 13.68L45.63 9.89999L42.3 10.8L39.84 12.36L40.83 13.86L42.93 12.51L45.72 11.76L62.25 15.3L64.14 18.15L60.69 34.08L59.04 36.54L23.97 58.95L21.99 58.53L7.89 36.57L8.31 34.62L38.28 15.48C42 17.25 45.03 19.11 47.25 20.73C46.68 21.42 46.26 22.23 46.08 23.1C45.75 24.57 46.05 26.04 46.86 27.3C47.67 28.56 48.93 29.43 50.4 29.73C50.79 29.82 51.21 29.85 51.6 29.85C52.68 29.85 53.73 29.55 54.63 28.95C55.89 28.14 56.76 26.88 57.09 25.44C57.75 22.44 55.8 19.44 52.77 18.81L52.38 20.55C54.45 21 55.77 23.01 55.35 25.08C55.14 26.07 54.54 26.91 53.67 27.48C52.8 28.02 51.78 28.23 50.79 27.99C49.77 27.78 48.93 27.18 48.36 26.34C48.24 26.16 48.21 25.95 48.12 25.74C48.96 25.83 49.8 25.89 50.58 25.89C51.72 25.89 52.68 25.77 53.13 25.41L53.55 24.99L53.58 24.6C53.7 22.89 42.69 13.08 25.29 9.05999C24.12 8.81999 23.64 9.32999 23.49 9.65999C22.8 11.1 25.77 13.71 26.37 14.22C27.18 14.91 29.7 17.04 30.93 18.09L6.72 33.54L6 36.9L20.91 60.12L24.33 60.84L28.53 58.14L33.99 63L37.5 62.79L42.18 57.45L45.78 59.25L48.09 58.47L58.53 38.94L60.09 37.95L62.19 34.92L66 17.79L63.3 13.68ZM47.85 23.94C47.85 23.79 47.82 23.64 47.85 23.52C48 22.89 48.33 22.35 48.75 21.87C49.92 22.8 50.82 23.61 51.33 24.15C50.52 24.15 49.17 24.09 47.85 23.94ZM27.54 12.84C26.85 12.27 26.19 11.55 25.74 10.98C29.7 11.94 33.24 13.23 36.39 14.61L32.52 17.07C31.62 16.32 28.47 13.62 27.54 12.84ZM36.63 61.05L34.62 61.17L30.12 57.15L52.62 42.75L36.63 61.05ZM46.86 57L45.93 57.3L43.41 56.04L53.67 44.28L46.86 57Z" fill="#0066FF"/>
</svg>
