<svg width="72" height="72" viewBox="0 0 72 72" fill="none" xmlns="http://www.w3.org/2000/svg">
<path d="M62.2816 42.9299C63.2953 39.4468 63.6078 35.7971 63.201 32.1924C62.7942 28.5877 61.6761 25.0995 59.9116 21.9299L58.2016 22.8599C59.9097 25.9219 60.9672 29.3036 61.308 32.7933C61.6487 36.2829 61.2652 39.8053 60.1816 43.1399L59.9116 43.8899L62.0416 45.0599L54.9616 48.7199L54.2716 40.7699L56.1916 41.8199L56.4916 40.6199C56.9606 38.8484 57.1926 37.0224 57.1816 35.1899C57.166 29.5663 54.9333 24.1758 50.9681 20.1881C47.0028 16.2004 41.625 13.9373 36.0016 13.8899C31.3102 13.871 26.7477 15.4235 23.0416 18.2999H22.8616L20.3716 15.1799H20.5516C24.9612 11.7218 30.3977 9.83225 36.0016 9.8099C40.1484 9.82462 44.2289 10.8517 47.8887 12.8018C51.5484 14.7519 54.6766 17.5661 57.0016 20.9999L58.5016 19.9499C55.9922 16.2601 52.6202 13.2385 48.6783 11.1473C44.7365 9.05615 40.3438 7.95858 35.8816 7.9499C29.9197 7.92745 24.118 9.87893 19.3816 13.4999L17.7316 14.7599L22.4716 20.9999L24.1816 19.6799C27.3214 17.2536 31.1294 15.8478 35.0926 15.6521C39.0558 15.4564 42.9838 16.48 46.3475 18.5851C49.7111 20.6902 52.3487 23.7757 53.905 27.4258C55.4612 31.0759 55.8614 35.1154 55.0516 38.9999L52.0516 37.4399L53.2816 51.7499L66.0016 45.1799L62.2816 42.9299Z" fill="white" fill-opacity="0.4"/>
<path d="M49.5016 49.3199L47.7916 50.6399C44.237 53.3462 39.8576 54.7435 35.3924 54.596C30.9273 54.4484 26.6497 52.765 23.2816 49.8299L22.0816 51.2399C25.7952 54.4685 30.5085 56.318 35.4268 56.4765C40.3452 56.635 45.1678 55.0928 49.0816 52.1099L49.2316 51.9599L51.7516 55.2299H51.5716C47.277 58.5307 42.041 60.3747 36.6258 60.4934C31.2105 60.612 25.8988 58.9992 21.4637 55.8896C17.0287 52.7801 13.7019 48.3362 11.9676 43.2048C10.2334 38.0734 10.1822 32.5224 11.8216 27.3599L12.0016 26.6099L9.90156 25.4399L16.9516 21.9899L17.7016 29.6999L15.6916 28.5899L15.3916 29.7899C14.4775 33.2261 14.4407 36.8369 15.2846 40.291C16.1284 43.7452 17.826 46.9322 20.2216 49.5599L21.6616 48.2699C19.6336 46.0295 18.1549 43.3479 17.3426 40.4372C16.5303 37.5265 16.4067 34.4666 16.9816 31.4999L19.9816 33.0899L18.6016 19.1399L6.00156 25.2599H5.85156L9.78156 27.4199C8.11286 32.964 8.24591 38.8945 10.1616 44.3582C12.0772 49.8218 15.6768 54.5369 20.4422 57.825C25.2077 61.1132 30.8934 62.8048 36.6812 62.6565C42.4691 62.5082 48.0607 60.5277 52.6516 56.9999L54.3016 55.7399L49.5016 49.4699V49.3199Z" fill="white" fill-opacity="0.4"/>
<path d="M46.6216 39.5399C46.6216 33.9899 37.2016 21.2399 36.7816 20.6999L36.0016 19.6499L35.2516 20.6999C34.8316 21.2399 25.4116 33.9599 25.4116 39.5399C25.3349 40.98 25.5524 42.4207 26.0508 43.774C26.5491 45.1273 27.3179 46.3649 28.3102 47.4114C29.3025 48.4579 30.4975 49.2913 31.8224 49.8609C33.1474 50.4304 34.5744 50.7241 36.0166 50.7241C37.4587 50.7241 38.8858 50.4304 40.2107 49.8609C41.5356 49.2913 42.7307 48.4579 43.7229 47.4114C44.7152 46.3649 45.484 45.1273 45.9824 43.774C46.4807 42.4207 46.6982 40.98 46.6216 39.5399ZM27.3616 39.5399C27.3616 35.2499 34.8316 24.5399 36.0016 22.9199C37.2016 24.5699 44.6716 35.2199 44.6716 39.5399C44.741 40.7194 44.5687 41.9006 44.1652 43.011C43.7616 44.1214 43.1354 45.1377 42.3248 45.9973C41.5143 46.857 40.5367 47.5419 39.4519 48.0101C38.3671 48.4782 37.1981 48.7197 36.0166 48.7197C34.8351 48.7197 33.666 48.4782 32.5813 48.0101C31.4965 47.5419 30.5188 46.857 29.7083 45.9973C28.8978 45.1377 28.2715 44.1214 27.868 43.011C27.4644 41.9006 27.2921 40.7194 27.3616 39.5399Z" fill="white" fill-opacity="0.4"/>
<path d="M35.3416 38.9399H33.4216V40.8899H35.3416V38.9399Z" fill="white" fill-opacity="0.4"/>
<path d="M38.2516 38.9399H36.3316V40.8899H38.2516V38.9399Z" fill="white" fill-opacity="0.4"/>
</svg>
