<svg width="73" height="72" viewBox="0 0 73 72" fill="none" xmlns="http://www.w3.org/2000/svg">
<path d="M29.5536 21.9744C26.8741 21.9743 24.2548 22.7688 22.027 24.2574C19.7991 25.7459 18.0626 27.8617 17.0372 30.3372C16.0118 32.8126 15.7434 35.5366 16.2661 38.1645C16.7888 40.7925 18.0791 43.2064 19.9737 45.1011C21.8683 46.9958 24.2822 48.2861 26.9102 48.8088C29.5381 49.3316 32.2621 49.0633 34.7376 48.038C37.213 47.0126 39.3289 45.2762 40.8175 43.0483C42.3061 40.8205 43.1007 38.2012 43.1007 35.5218C43.0968 31.93 41.6683 28.4865 39.1285 25.9467C36.5888 23.4069 33.1453 21.9783 29.5536 21.9744ZM29.5536 47.1318C27.2573 47.1318 25.0127 46.4509 23.1034 45.1751C21.1941 43.8994 19.7061 42.0862 18.8273 39.9647C17.9486 37.8433 17.7187 35.5089 18.1666 33.2568C18.6146 31.0046 19.7204 28.9359 21.3441 27.3123C22.9677 25.6886 25.0364 24.5828 27.2886 24.1348C29.5407 23.6869 31.8751 23.9168 33.9965 24.7955C36.118 25.6743 37.9312 27.1623 39.2069 29.0716C40.4827 30.9808 41.1636 33.2255 41.1636 35.5218C41.1599 38.5998 39.9355 41.5507 37.759 43.7272C35.5825 45.9037 32.6316 47.1281 29.5536 47.1318Z" fill="white" fill-opacity="0.4"/>
<path d="M52.7864 49.0799V45.1949H54.239C54.6749 45.1987 55.1059 45.1037 55.4998 44.9169C55.8936 44.7301 56.24 44.4565 56.5128 44.1165C56.7856 43.7766 56.9779 43.3793 57.075 42.9543C57.1722 42.5294 57.1717 42.088 57.0737 41.6633L55.9988 36.8207C55.8355 36.0944 55.4043 35.4563 54.7914 35.0337C54.1785 34.6111 53.4288 34.4351 52.6919 34.5407C52.1901 28.5715 49.401 23.0272 44.9072 19.0664C40.4135 15.1055 34.5628 13.0345 28.5779 13.2861C22.593 13.5378 16.9369 16.0927 12.7916 20.4168C8.64621 24.741 6.33235 30.4999 6.3335 36.4901V51.0059C6.33532 52.2896 6.84612 53.5203 7.7539 54.428C8.66167 55.3357 9.89235 55.8464 11.1761 55.8482H59.5661V58.7537H66.3335V49.0799H52.7864ZM52.7864 36.4895C53.0616 36.4244 53.3513 36.4662 53.5969 36.6066C53.8424 36.7469 54.0255 36.9753 54.1091 37.2455L55.184 42.0878C55.2102 42.2289 55.2057 42.374 55.1708 42.5132C55.1359 42.6525 55.0715 42.7825 54.9818 42.8946C54.8921 43.0067 54.7794 43.0981 54.6512 43.1627C54.523 43.2273 54.3824 43.2635 54.239 43.2689H52.7864V36.4895ZM50.861 51.0053C50.8613 51.3869 50.7863 51.7649 50.6404 52.1175C50.4945 52.4701 50.2805 52.7905 50.0106 53.0604C49.7408 53.3303 49.4203 53.5443 49.0677 53.6902C48.7151 53.8361 48.3371 53.9111 47.9555 53.9108H11.1761C10.7945 53.9111 10.4165 53.8361 10.0639 53.6902C9.71125 53.5443 9.39084 53.3303 9.12098 53.0604C8.85113 52.7905 8.63712 52.4701 8.4912 52.1175C8.34528 51.7649 8.27032 51.3869 8.2706 51.0053V36.4901C8.2706 30.8423 10.5142 25.4257 14.5078 21.4321C18.5014 17.4385 23.918 15.1949 29.5658 15.1949C35.2136 15.1949 40.6302 17.4385 44.6238 21.4321C48.6174 25.4257 50.861 30.8423 50.861 36.4901V51.0053ZM61.4909 56.8163V53.9108H51.794C52.4344 53.0773 52.783 52.0564 52.7864 51.0053H64.3964V56.8163H61.4909Z" fill="white" fill-opacity="0.4"/>
<path d="M30.5343 34.5532H28.5972V36.4903H30.5343V34.5532Z" fill="white" fill-opacity="0.4"/>
<path d="M34.3966 34.5532H32.4595V36.4903H34.3966V34.5532Z" fill="white" fill-opacity="0.4"/>
<path d="M26.6602 34.5532H24.7231V36.4903H26.6602V34.5532Z" fill="white" fill-opacity="0.4"/>
</svg>
