<svg width="72" height="72" viewBox="0 0 72 72" fill="none" xmlns="http://www.w3.org/2000/svg">
<path d="M36 47.745L25.827 41.874V36.867H28.272V40.464L36 44.922L43.725 40.464V31.539L36 27.078L28.272 31.539V35.133H25.827V30.126L36 24.255L46.17 30.129V41.874L36 47.745Z" fill="#0066FF"/>
<path d="M36 37.413L26.439 31.893L27.663 29.775L36 34.587L44.334 29.775L45.561 31.893L36 37.413Z" fill="#0066FF"/>
<path d="M37.2225 36H34.7775V46.3335H37.2225V36Z" fill="#0066FF"/>
<path d="M58.6989 66C57.2545 66.0003 55.8424 65.5722 54.6412 64.7699C53.4401 63.9676 52.5039 62.8271 51.951 61.4927C51.3981 60.1582 51.2533 58.6898 51.535 57.2731C51.8168 55.8564 52.5123 54.5551 53.5337 53.5337C54.5551 52.5123 55.8564 51.8168 57.2731 51.535C58.6898 51.2533 60.1582 51.3981 61.4927 51.951C62.8271 52.5039 63.9676 53.4401 64.7699 54.6412C65.5722 55.8424 66.0003 57.2545 66 58.6989C65.9976 60.6345 65.2276 62.4902 63.8589 63.8589C62.4902 65.2276 60.6345 65.9976 58.6989 66ZM58.6989 53.8398C57.7382 53.8395 56.799 54.1241 56 54.6576C55.201 55.191 54.5782 55.9494 54.2102 56.8369C53.8423 57.7243 53.7457 58.701 53.9328 59.6433C54.1198 60.5856 54.5821 61.4513 55.2612 62.1309C55.9402 62.8105 56.8055 63.2734 57.7477 63.4613C58.6899 63.6491 59.6666 63.5533 60.5543 63.1861C61.4421 62.8188 62.201 62.1966 62.7351 61.398C63.2692 60.5995 63.5545 59.6605 63.555 58.6998C63.5535 57.412 63.0415 56.1773 62.1313 55.2663C61.221 54.3553 59.9867 53.8423 58.6989 53.8398ZM13.3026 66C11.8582 66 10.4463 65.5717 9.24534 64.7692C8.0444 63.9667 7.10841 62.8261 6.55574 61.4916C6.00306 60.1572 5.85854 58.6888 6.14043 57.2722C6.42232 55.8556 7.11798 54.5544 8.13942 53.5332C9.16085 52.5119 10.4622 51.8165 11.8789 51.5349C13.2955 51.2533 14.7639 51.3982 16.0982 51.9511C17.4326 52.5041 18.573 53.4403 19.3752 54.6414C20.1775 55.8425 20.6055 57.2545 20.6052 58.6989C20.6031 60.6349 19.833 62.491 18.4639 63.8598C17.0949 65.2286 15.2386 65.9983 13.3026 66ZM13.3026 53.8398C12.342 53.8398 11.4029 54.1246 10.6041 54.6583C9.80534 55.1919 9.18273 55.9505 8.815 56.8379C8.44727 57.7254 8.35093 58.702 8.53817 59.6442C8.7254 60.5864 9.18781 61.452 9.86691 62.1314C10.546 62.8108 11.4113 63.2737 12.3535 63.4614C13.2956 63.6491 14.2722 63.5532 15.1599 63.1859C16.0475 62.8186 16.8063 62.1964 17.3404 61.3979C17.8744 60.5994 18.1597 59.6604 18.1602 58.6998C18.1589 57.4117 17.6468 56.1766 16.7362 55.2655C15.8256 54.3544 14.5907 53.8417 13.3026 53.8398ZM36 62.5266C35.0707 62.527 34.1623 62.2517 33.3895 61.7357C32.6167 61.2196 32.0143 60.486 31.6585 59.6275C31.3027 58.7691 31.2095 57.8244 31.3907 56.913C31.5718 56.0016 32.0193 55.1643 32.6763 54.5072C33.3334 53.8501 34.1706 53.4027 35.082 53.2214C35.9934 53.0402 36.9381 53.1333 37.7966 53.4891C38.655 53.8448 39.3887 54.4471 39.9048 55.2199C40.4209 55.9927 40.6962 56.9011 40.6959 57.8304C40.6949 59.0755 40.1998 60.2694 39.3194 61.1499C38.439 62.0303 37.2451 62.5255 36 62.5266ZM36 55.5765C35.5544 55.576 35.1186 55.7076 34.7479 55.9548C34.3771 56.2019 34.0879 56.5535 33.917 56.965C33.746 57.3765 33.701 57.8295 33.7875 58.2666C33.874 58.7037 34.0882 59.1054 34.403 59.4207C34.7178 59.7361 35.1191 59.951 35.5561 60.0383C35.9931 60.1255 36.4461 60.0813 36.8579 59.911C37.2697 59.7408 37.6218 59.4522 37.8696 59.0819C38.1174 58.7115 38.2498 58.276 38.25 57.8304C38.2495 57.2335 38.0123 56.6611 37.5906 56.2386C37.1689 55.8162 36.5969 55.5781 36 55.5765ZM57.8304 40.6965C56.9017 40.6964 55.9938 40.421 55.2216 39.905C54.4495 39.389 53.8476 38.6556 53.4922 37.7976C53.1368 36.9395 53.0438 35.9954 53.225 35.0845C53.4062 34.1736 53.8534 33.3369 54.5101 32.6802C55.1668 32.0235 56.0035 31.5762 56.9143 31.395C57.8252 31.2137 58.7693 31.3067 59.6274 31.662C60.4855 32.0174 61.2189 32.6191 61.7349 33.3913C62.251 34.1634 62.5265 35.0713 62.5266 36C62.5251 37.245 62.0298 38.4386 61.1494 39.3189C60.2691 40.1993 59.0754 40.6951 57.8304 40.6965ZM57.8304 33.7494C57.3854 33.7494 56.9504 33.8814 56.5804 34.1286C56.2104 34.3758 55.922 34.7272 55.7517 35.1384C55.5814 35.5495 55.5368 36.0019 55.6236 36.4384C55.7105 36.8748 55.9247 37.2757 56.2394 37.5904C56.5541 37.9051 56.955 38.1194 57.3914 38.2062C57.8279 38.293 58.2803 38.2484 58.6914 38.0781C59.1026 37.9078 59.454 37.6194 59.7012 37.2494C59.9484 36.8794 60.0804 36.4444 60.0804 35.9994C60.0787 35.4033 59.841 34.832 59.4194 34.4105C58.9978 33.9891 58.4266 33.751 57.8304 33.7494ZM14.1711 40.6959C13.2423 40.6959 12.3344 40.4205 11.5622 39.9045C10.79 39.3885 10.1881 38.6551 9.83266 37.797C9.47724 36.939 9.38424 35.9948 9.56543 35.0839C9.74663 34.173 10.1939 33.3362 10.8506 32.6795C11.5073 32.0228 12.3441 31.5755 13.255 31.3943C14.1659 31.2131 15.1101 31.3061 15.9681 31.6616C16.8262 32.017 17.5596 32.6189 18.0756 33.3911C18.5916 34.1633 18.867 35.0712 18.867 36C18.8658 37.2451 18.3707 38.4388 17.4903 39.3192C16.6099 40.1996 15.4162 40.6947 14.1711 40.6959ZM14.1711 33.7488C13.7261 33.7488 13.2911 33.8808 12.9211 34.128C12.5511 34.3752 12.2627 34.7266 12.0924 35.1378C11.9221 35.5489 11.8775 36.0013 11.9643 36.4378C12.0512 36.8742 12.2654 37.2751 12.5801 37.5898C12.8948 37.9045 13.2957 38.1188 13.7322 38.2056C14.1686 38.2924 14.621 38.2478 15.0321 38.0775C15.4433 37.9072 15.7947 37.6188 16.0419 37.2488C16.2891 36.8788 16.4211 36.4438 16.4211 35.9988C16.4195 35.4027 16.1819 34.8314 15.7603 34.41C15.3386 33.9886 14.7672 33.7501 14.1711 33.7488ZM58.6989 20.6052C57.2545 20.6055 55.8425 20.1775 54.6414 19.3752C53.4403 18.573 52.5041 17.4326 51.9511 16.0982C51.3982 14.7639 51.2533 13.2955 51.5349 11.8789C51.8165 10.4622 52.5119 9.16085 53.5332 8.13942C54.5544 7.11798 55.8556 6.42232 57.2722 6.14043C58.6888 5.85854 60.1572 6.00306 61.4916 6.55574C62.8261 7.10841 63.9667 8.0444 64.7692 9.24534C65.5717 10.4463 66 11.8582 66 13.3026C65.9976 15.2384 65.2277 17.0942 63.859 18.4632C62.4904 19.8321 60.6347 20.6024 58.6989 20.6052ZM58.6989 8.445C57.7381 8.44471 56.7988 8.72935 55.9998 9.26293C55.2007 9.79651 54.5779 10.5551 54.21 11.4426C53.8421 12.3302 53.7457 13.307 53.933 14.2494C54.1202 15.1917 54.5827 16.0574 55.262 16.7369C55.9413 17.4164 56.8069 17.8792 57.7492 18.0668C58.6915 18.2543 59.6683 18.1582 60.556 17.7906C61.4437 17.423 62.2024 16.8004 62.7362 16.0015C63.2701 15.2026 63.555 14.2634 63.555 13.3026C63.5531 12.0151 63.0409 10.7809 62.1307 9.87039C61.2204 8.95987 59.9864 8.4473 58.6989 8.445ZM13.3026 20.6052C11.8583 20.6052 10.4464 20.1769 9.2455 19.3745C8.04459 18.5721 7.1086 17.4316 6.55588 16.0972C6.00316 14.7628 5.85855 13.2945 6.14032 11.8779C6.42209 10.4614 7.1176 9.16017 8.13889 8.13889C9.16017 7.1176 10.4614 6.42209 11.8779 6.14032C13.2945 5.85855 14.7628 6.00316 16.0972 6.55588C17.4316 7.1086 18.5721 8.04459 19.3745 9.2455C20.1769 10.4464 20.6052 11.8583 20.6052 13.3026C20.6032 15.2388 19.8332 17.0951 18.4641 18.4641C17.0951 19.8332 15.2388 20.6032 13.3026 20.6052ZM13.3026 8.445C12.3419 8.445 11.4027 8.7299 10.6039 9.26366C9.80504 9.79742 9.18243 10.5561 8.81477 11.4437C8.44711 12.3313 8.35091 13.308 8.53834 14.2503C8.72577 15.1926 9.18841 16.0581 9.86776 16.7374C10.5471 17.4168 11.4127 17.8794 12.3549 18.0669C13.2972 18.2543 14.2739 18.1581 15.1615 17.7904C16.0491 17.4228 16.8078 16.8002 17.3416 16.0013C17.8753 15.2025 18.1602 14.2633 18.1602 13.3026C18.1586 12.0148 17.6463 10.7801 16.7357 9.86952C15.8251 8.95888 14.5904 8.44659 13.3026 8.445ZM36 18.867C35.071 18.8672 34.1628 18.5918 33.3903 18.0758C32.6177 17.5598 32.0156 16.8263 31.66 15.968C31.3044 15.1097 31.2113 14.1653 31.3925 13.2541C31.5737 12.343 32.021 11.506 32.678 10.8491C33.3349 10.1922 34.1718 9.74481 35.083 9.56361C35.9942 9.38241 36.9386 9.4755 37.7969 9.8311C38.6552 10.1867 39.3887 10.7888 39.9047 11.5614C40.4207 12.3339 40.6961 13.2421 40.6959 14.1711C40.6946 15.4161 40.1994 16.6098 39.319 17.4901C38.4387 18.3705 37.245 18.8657 36 18.867ZM36 11.9184C35.5546 11.918 35.1191 12.0498 34.7486 12.297C34.378 12.5441 34.0891 12.8956 33.9184 13.307C33.7477 13.7184 33.7028 14.1712 33.7894 14.6081C33.876 15.045 34.0902 15.4464 34.405 15.7615C34.7197 16.0766 35.1209 16.2914 35.5577 16.3785C35.9945 16.4656 36.4473 16.4213 36.8589 16.251C37.2705 16.0808 37.6223 15.7923 37.8699 15.4221C38.1176 15.0519 38.2498 14.6165 38.25 14.1711C38.2494 13.5743 38.0123 13.002 37.5905 12.5798C37.1688 12.1575 36.5968 11.9197 36 11.9184Z" fill="#0066FF"/>
<path d="M18.465 55.2645L16.7367 53.5335L26.0418 44.2287L27.7701 45.9597L18.465 55.2645ZM45.96 27.7701L44.229 26.0418L53.5338 16.7367L55.2648 18.465L45.96 27.7701Z" fill="#0066FF"/>
<path d="M53.5335 55.2645L50.7231 52.4544L52.4544 50.7231L55.2645 53.5335L53.5335 55.2645ZM37.2225 54.354H34.7775V50.3466H37.2225V54.354ZM49.4952 51.2262L48.267 49.998L49.998 48.267L51.2262 49.4952L49.4952 51.2262ZM47.0388 48.7701L44.2287 45.9597L45.9597 44.2287L48.7701 47.0388L47.0388 48.7701ZM54.354 37.2225H48.4245V34.7775H54.354V37.2225ZM23.577 37.2225H17.6445V34.7775H23.577V37.2225ZM26.0418 27.7701L16.7367 18.465L18.465 16.7367L27.7701 26.0418L26.0418 27.7701ZM37.2225 21.6549H34.7775V17.6445H37.2225V21.6549Z" fill="#0066FF"/>
</svg>
