<svg width="73" height="72" viewBox="0 0 73 72" fill="none" xmlns="http://www.w3.org/2000/svg">
<path d="M36.6665 6C30.7331 6 24.9329 7.75947 19.9994 11.0559C15.0659 14.3524 11.2208 19.0377 8.95013 24.5195C6.6795 30.0013 6.0854 36.0333 7.24296 41.8527C8.40052 47.6721 11.2577 53.0176 15.4533 57.2132C19.6489 61.4088 24.9944 64.266 30.8138 65.4236C36.6332 66.5811 42.6652 65.987 48.147 63.7164C53.6288 61.4458 58.3142 57.6006 61.6106 52.6671C64.907 47.7336 66.6665 41.9334 66.6665 36C66.6577 28.0462 63.4942 20.4207 57.87 14.7965C52.2458 9.17235 44.6203 6.00881 36.6665 6ZM36.6665 64.0644C31.1159 64.0644 25.6899 62.4185 21.0748 59.3347C16.4596 56.2509 12.8625 51.8679 10.7384 46.7398C8.61426 41.6117 8.0585 35.9689 9.14137 30.5249C10.2242 25.0809 12.8971 20.0803 16.822 16.1555C20.7469 12.2306 25.7475 9.55772 31.1914 8.47485C36.6354 7.39198 42.2782 7.94775 47.4063 10.0719C52.5344 12.196 56.9175 15.7931 60.0012 20.4083C63.085 25.0234 64.7309 30.4494 64.7309 36C64.7223 43.4405 61.7628 50.5738 56.5016 55.8351C51.2403 61.0963 44.107 64.0558 36.6665 64.0644Z" fill="white" fill-opacity="0.4"/>
<path d="M36.6665 9.3348C31.3926 9.3348 26.2372 10.8987 21.8521 13.8287C17.4671 16.7587 14.0493 20.9232 12.0311 25.7957C10.0129 30.6681 9.4848 36.0296 10.5137 41.2021C11.5426 46.3747 14.0822 51.1259 17.8114 54.8551C21.5406 58.5843 26.2919 61.1239 31.4644 62.1528C36.6369 63.1817 41.9984 62.6537 46.8709 60.6354C51.7433 58.6172 55.9078 55.1995 58.8378 50.8144C61.7678 46.4293 63.3317 41.2739 63.3317 36C63.3239 28.9303 60.5121 22.1525 55.5131 17.1535C50.5141 12.1544 43.7362 9.34258 36.6665 9.3348ZM61.3478 36.9678C61.1224 42.8487 58.7965 48.4541 54.7922 52.767L51.7439 49.7187L50.3756 51.087L53.4239 54.1356C49.1104 58.1366 43.5057 60.459 37.6265 60.6813V56.37H35.6909V60.6822C29.8133 60.4546 24.2117 58.1289 19.9013 54.1266L22.94 51.087L21.5696 49.7187L18.5309 52.7556C14.5328 48.4441 12.2108 42.8434 11.9852 36.9678H16.2878V35.0322H11.9852C12.2098 29.1564 14.532 23.5554 18.5309 19.2444L21.5696 22.2813L22.9382 20.913L19.8995 17.8743C24.2097 13.8717 29.8114 11.5459 35.6891 11.3187V15.63H37.6247V11.3187C43.5039 11.541 49.1086 13.8634 53.4221 17.8644L50.3735 20.913L51.7421 22.2813L54.7904 19.233C58.7955 23.5455 61.1214 29.1511 61.346 35.0322H57.0239V36.9678H61.3478Z" fill="white" fill-opacity="0.4"/>
<path d="M37.6343 32.0865V23.6961H35.6987V32.0865C34.9343 32.2726 34.2411 32.6784 33.7047 33.254C33.1683 33.8295 32.8122 34.5495 32.6802 35.3251C32.5483 36.1007 32.6464 36.8979 32.9623 37.6184C33.2783 38.3389 33.7983 38.9511 34.4582 39.3795L28.3439 53.8005L30.1265 54.5574L36.2948 40.0074C36.4187 40.0191 36.5387 40.0443 36.6665 40.0443C37.654 40.0459 38.6079 39.6855 39.3477 39.0314C40.0874 38.3772 40.5618 37.4746 40.681 36.4943C40.8002 35.514 40.556 34.524 39.9945 33.7116C39.4331 32.8992 38.5934 32.3216 37.6343 32.0865ZM36.6665 38.1078C36.2496 38.1078 35.8421 37.9842 35.4955 37.7526C35.1489 37.521 34.8787 37.1918 34.7192 36.8066C34.5596 36.4215 34.5179 35.9977 34.5992 35.5888C34.6805 35.1799 34.8813 34.8043 35.1761 34.5096C35.4709 34.2148 35.8464 34.014 36.2553 33.9327C36.6642 33.8514 37.088 33.8931 37.4731 34.0526C37.8583 34.2122 38.1875 34.4823 38.4191 34.829C38.6507 35.1756 38.7743 35.5831 38.7743 36C38.7737 36.5588 38.5514 37.0946 38.1563 37.4897C37.7611 37.8849 37.2253 38.1072 36.6665 38.1078Z" fill="white" fill-opacity="0.4"/>
</svg>
