<svg width="72" height="72" viewBox="0 0 72 72" fill="none" xmlns="http://www.w3.org/2000/svg">
<path d="M35.9984 6.20996C35.9984 6.20996 10.9484 14.07 10.8284 14.22C10.7084 14.37 10.6484 35.22 10.6484 35.22C10.6618 42.4301 13.1792 49.4118 17.7702 54.9714C22.3613 60.531 28.7409 64.3233 35.8184 65.7H36.1784C43.256 64.3233 49.6356 60.531 54.2266 54.9714C58.8177 49.4118 61.3351 42.4301 61.3484 35.22C61.3484 35.22 61.3484 14.22 61.1384 14.22C60.9284 14.22 35.9984 6.20996 35.9984 6.20996ZM59.3984 35.31C59.3913 42.0358 57.057 48.552 52.7917 53.7524C48.5263 58.9528 42.5929 62.517 35.9984 63.84C29.404 62.517 23.4705 58.9528 19.2052 53.7524C14.9399 48.552 12.6056 42.0358 12.5984 35.31V15.51L35.9984 8.18996L59.3984 15.51V35.31Z" fill="white" fill-opacity="0.4"/>
<path d="M17.2184 18.9V35.28C17.2054 40.7435 19.0249 46.0537 22.386 50.3611C25.7471 54.6686 30.4556 57.7244 35.7584 59.04H36.2384C39.337 58.2676 42.2527 56.8913 44.8184 54.99C44.5784 54.69 43.7984 53.67 43.6484 53.43C41.3506 55.099 38.7536 56.3109 35.9984 57C31.1728 55.754 26.8993 52.937 23.8519 48.9934C20.8046 45.0497 19.1568 40.2038 19.1684 35.22V20.22L35.9984 15L52.8284 20.28V35.28C52.8291 38.9502 51.9331 42.5649 50.2184 45.81L51.9284 46.74C53.8481 43.2218 54.8781 39.2875 54.9284 35.28V18.9L35.9984 13.02L17.2184 18.9Z" fill="white" fill-opacity="0.4"/>
<path d="M41.9984 26.58L33.8684 34.32L29.9984 30.84L25.0484 35.79L33.8684 44.61L46.7384 31.53L41.9984 26.58ZM33.8684 42.27L27.3884 35.79L29.9984 33.21L33.8684 36.66L41.9984 28.95L44.5784 31.53L33.8684 42.27Z" fill="white" fill-opacity="0.4"/>
</svg>
