<svg width="72" height="72" viewBox="0 0 72 72" fill="none" xmlns="http://www.w3.org/2000/svg">
<path fill-rule="evenodd" clip-rule="evenodd" d="M65.0511 40.8576H59.25C59.0218 40.8525 58.8049 40.7572 58.6468 40.5925C58.4887 40.4278 58.4023 40.2072 58.4064 39.9789C58.4082 39.7524 58.4966 39.5352 58.6535 39.3718C58.8104 39.2084 59.0238 39.1113 59.25 39.1002H64.17V34.1442C60.3741 29.7504 49.6887 29.2935 49.5831 29.2935C49.3593 29.2937 49.1444 29.2052 48.9855 29.0475C45.8546 25.8894 41.7626 23.8616 37.3533 23.283H27.8628C24.8538 23.6899 21.9595 24.7065 19.3569 26.2707C18.4077 26.6925 17.5992 27.1494 16.7556 27.4656C16.7205 27.5361 16.6152 27.5361 16.5096 27.5361C8.63614 28.6608 7.75744 30.4533 7.68724 30.6291V39.1704H12.6783C12.9086 39.1747 13.128 39.2692 13.2894 39.4335C13.4507 39.5979 13.5411 39.819 13.5411 40.0493C13.5411 40.2796 13.4507 40.5007 13.2894 40.6651C13.128 40.8294 12.9086 40.9239 12.6783 40.9281H6.87874C6.76307 40.9293 6.64834 40.9074 6.54124 40.8637C6.43415 40.82 6.33685 40.7553 6.25503 40.6736C6.17321 40.5918 6.10851 40.4946 6.06473 40.3875C6.02095 40.2804 5.99896 40.1657 6.00004 40.05V30.6996C5.99853 30.2431 6.14669 29.7986 6.42184 29.4342C7.61704 27.8172 10.8858 26.6574 16.1229 25.884C16.8612 25.5324 17.6697 25.146 18.5484 24.6888C21.4069 23.0143 24.5758 21.9381 27.8628 21.5256H37.4928C42.2213 22.0643 46.6298 24.1819 50.0058 27.5361C52.0095 27.6765 61.9917 28.485 65.7528 33.2661C65.8628 33.4203 65.9241 33.6039 65.9286 33.7932V39.9795C65.919 40.2092 65.8235 40.4269 65.661 40.5895C65.4985 40.7522 65.2808 40.8478 65.0511 40.8576ZM50.007 40.8576H21.9228C21.8071 40.8588 21.6923 40.8369 21.5851 40.7932C21.4779 40.7495 21.3806 40.6848 21.2987 40.603C21.2169 40.5211 21.1521 40.4238 21.1084 40.3166C21.0646 40.2095 21.0427 40.0947 21.0438 39.9789C21.0475 39.747 21.1413 39.5255 21.3053 39.3615C21.4694 39.1975 21.6909 39.1038 21.9228 39.1002H50.007C50.2401 39.1002 50.4636 39.1928 50.6284 39.3576C50.7932 39.5224 50.8857 39.7459 50.8857 39.9789C50.8857 40.212 50.7932 40.4355 50.6284 40.6003C50.4636 40.7651 50.2401 40.8576 50.007 40.8576Z" fill="#0066FF"/>
<path fill-rule="evenodd" clip-rule="evenodd" d="M17.845 30.8049C17.6792 30.7995 17.5177 30.7513 17.3761 30.6651C17.2344 30.5789 17.1175 30.4576 17.0365 30.3129C16.99 30.2094 16.9651 30.0976 16.963 29.9841C16.961 29.8707 16.982 29.758 17.0247 29.6529C17.0674 29.5478 17.1309 29.4525 17.2115 29.3726C17.292 29.2927 17.3879 29.23 17.4934 29.1882C18.0205 28.9419 18.7588 28.5906 19.5334 28.2039C22.096 26.6768 24.9203 25.6399 27.8623 25.146H37.3528C40.7891 25.6367 44.0174 27.0864 46.6672 29.3286C46.8305 29.4877 46.9284 29.7022 46.9414 29.9299C46.9545 30.1576 46.8818 30.3819 46.7377 30.5586C46.5856 30.7215 46.3766 30.8197 46.1541 30.8328C45.9316 30.8458 45.7126 30.7728 45.5425 30.6288C43.1996 28.5652 40.3035 27.2333 37.2121 26.7975H27.8623C25.1976 27.3214 22.6419 28.2962 20.3053 29.6799C19.4968 30.0666 18.7939 30.453 18.2314 30.6999C18.1047 30.7425 17.9757 30.7775 17.845 30.8049Z" fill="#0066FF"/>
<path fill-rule="evenodd" clip-rule="evenodd" d="M46.0707 30.8051H17.8458C17.6139 30.8015 17.3924 30.7078 17.2283 30.5438C17.0643 30.3798 16.9705 30.1583 16.9668 29.9264C16.9657 29.8106 16.9876 29.6958 17.0314 29.5886C17.0752 29.4815 17.1399 29.3842 17.2217 29.3023C17.3036 29.2205 17.4009 29.1558 17.5081 29.1121C17.6153 29.0684 17.7301 29.0465 17.8458 29.0477H46.0707C46.1865 29.0465 46.3012 29.0684 46.4084 29.1122C46.5155 29.1559 46.6128 29.2206 46.6947 29.3024C46.7765 29.3843 46.8412 29.4816 46.8849 29.5887C46.9287 29.6959 46.9506 29.8106 46.9494 29.9264C46.9458 30.1583 46.8521 30.3797 46.6881 30.5437C46.524 30.7077 46.3027 30.8014 46.0707 30.8051Z" fill="#0066FF"/>
<path fill-rule="evenodd" clip-rule="evenodd" d="M17.2824 45.1107C16.196 45.1069 15.1351 44.7815 14.2334 44.1756C13.3317 43.5696 12.6296 42.7102 12.2157 41.7058C11.8018 40.7013 11.6945 39.5968 11.9075 38.5315C12.1205 37.4662 12.6442 36.4878 13.4125 35.7198C14.1808 34.9517 15.1593 34.4283 16.2246 34.2156C17.29 34.0029 18.3945 34.1104 19.3988 34.5246C20.4031 34.9388 21.2623 35.6411 21.868 36.543C22.4737 37.4448 22.7989 38.5058 22.8024 39.5922C22.8081 40.3186 22.6692 41.0389 22.3938 41.7111C22.1184 42.3833 21.712 42.994 21.1982 43.5076C20.6845 44.0212 20.0737 44.4275 19.4014 44.7027C18.7291 44.9779 18.0088 45.1166 17.2824 45.1107ZM17.2824 35.796C16.2755 35.796 15.31 36.196 14.598 36.9079C13.8861 37.6198 13.4862 38.5854 13.4862 39.5922C13.4862 40.599 13.8861 41.5646 14.598 42.2765C15.31 42.9884 16.2755 43.3884 17.2824 43.3884C18.2892 43.3884 19.2547 42.9884 19.9667 42.2765C20.6786 41.5646 21.0786 40.599 21.0786 39.5922C21.0786 38.5854 20.6786 37.6198 19.9667 36.9079C19.2547 36.196 18.2892 35.796 17.2824 35.796Z" fill="#0066FF"/>
<path fill-rule="evenodd" clip-rule="evenodd" d="M54.6471 45.1107C53.5591 45.1141 52.4946 44.7949 51.5881 44.1933C50.6816 43.5918 49.9739 42.7349 49.5543 41.7311C49.1348 40.7273 49.0224 39.6217 49.2312 38.554C49.4401 37.4863 49.9608 36.5044 50.7277 35.7327C51.4945 34.961 52.473 34.4339 53.5393 34.2183C54.6057 34.0026 55.712 34.108 56.7185 34.5211C57.7249 34.9342 58.5863 35.6365 59.1936 36.5392C59.8009 37.4418 60.127 38.5043 60.1305 39.5922C60.134 41.0508 59.5585 42.4512 58.5304 43.4858C57.5023 44.5205 56.1057 45.1049 54.6471 45.1107ZM54.6471 35.796C53.8963 35.796 53.1623 36.0186 52.538 36.4358C51.9137 36.8529 51.4272 37.4458 51.1398 38.1395C50.8525 38.8331 50.7773 39.5964 50.9238 40.3328C51.0703 41.0692 51.4319 41.7456 51.9628 42.2765C52.4937 42.8074 53.1701 43.169 53.9065 43.3155C54.6429 43.4619 55.4062 43.3868 56.0998 43.0994C56.7935 42.8121 57.3864 42.3255 57.8035 41.7013C58.2206 41.077 58.4433 40.343 58.4433 39.5922C58.4236 38.5916 58.0173 37.6374 57.3096 36.9297C56.6019 36.222 55.6477 35.8157 54.6471 35.796Z" fill="#0066FF"/>
<path fill-rule="evenodd" clip-rule="evenodd" d="M17.2833 42.2286C16.604 42.2249 15.9535 41.9534 15.4731 41.473C14.9927 40.9926 14.7211 40.3421 14.7174 39.6627C14.7098 39.322 14.7706 38.9832 14.8964 38.6664C15.0222 38.3497 15.2103 38.0614 15.4496 37.8188C15.689 37.5761 15.9746 37.3841 16.2896 37.254C16.6046 37.1238 16.9425 37.0584 17.2833 37.0614C17.9719 37.0658 18.6309 37.3413 19.1178 37.8282C19.6046 38.3151 19.88 38.9742 19.8843 39.6627C19.8844 40.0026 19.8169 40.3392 19.6858 40.6528C19.5547 40.9665 19.3625 41.2509 19.1205 41.4897C18.8785 41.7284 18.5915 41.9167 18.2761 42.0435C17.9607 42.1704 17.6233 42.2333 17.2833 42.2286ZM17.2833 38.7135C17.1668 38.7093 17.0507 38.7292 16.9422 38.7719C16.8337 38.8146 16.7352 38.8792 16.6528 38.9616C16.5703 39.044 16.5058 39.1426 16.4631 39.2511C16.4204 39.3596 16.4005 39.4757 16.4046 39.5922C16.4046 39.8252 16.4972 40.0487 16.662 40.2135C16.8268 40.3783 17.0503 40.4709 17.2833 40.4709C17.5164 40.4709 17.7399 40.3783 17.9047 40.2135C18.0695 40.0487 18.162 39.8252 18.162 39.5922C18.1692 39.4749 18.1513 39.3575 18.1097 39.2477C18.0681 39.1378 18.0036 39.0381 17.9205 38.955C17.8375 38.8719 17.7377 38.8074 17.6279 38.7658C17.518 38.7242 17.4006 38.7063 17.2833 38.7135Z" fill="#0066FF"/>
<path fill-rule="evenodd" clip-rule="evenodd" d="M54.6461 42.2287C53.9609 42.2287 53.3037 41.9565 52.8192 41.472C52.3347 40.9875 52.0625 40.3303 52.0625 39.6451C52.0625 38.9599 52.3347 38.3028 52.8192 37.8182C53.3037 37.3337 53.9609 37.0615 54.6461 37.0615C55.3291 37.0731 55.9804 37.3519 56.4602 37.8383C56.9399 38.3246 57.2098 38.9797 57.212 39.6628C57.2083 40.3422 56.9368 40.9927 56.4564 41.4731C55.976 41.9535 55.3255 42.225 54.6461 42.2287ZM54.6461 38.7136C54.5296 38.7095 54.4135 38.7294 54.305 38.772C54.1965 38.8147 54.098 38.8793 54.0155 38.9618C53.9331 39.0442 53.8685 39.1427 53.8258 39.2512C53.7831 39.3597 53.7632 39.4758 53.7674 39.5923C53.7662 39.708 53.7882 39.8228 53.8319 39.93C53.8757 40.0371 53.9403 40.1344 54.0222 40.2162C54.104 40.2981 54.2013 40.3628 54.3085 40.4065C54.4156 40.4503 54.5304 40.4722 54.6461 40.471C54.878 40.4674 55.0994 40.3736 55.2634 40.2096C55.4274 40.0456 55.5212 39.8242 55.5248 39.5923C55.526 39.4766 55.504 39.3618 55.4603 39.2547C55.4165 39.1476 55.3519 39.0502 55.27 38.9684C55.1882 38.8866 55.0909 38.8219 54.9837 38.7781C54.8766 38.7344 54.7618 38.7125 54.6461 38.7136Z" fill="#0066FF"/>
<path fill-rule="evenodd" clip-rule="evenodd" d="M35.3489 33.6519H33.5213C33.4056 33.6531 33.2908 33.6312 33.1837 33.5874C33.0766 33.5437 32.9792 33.479 32.8974 33.3972C32.8156 33.3153 32.7509 33.218 32.7071 33.1109C32.6634 33.0037 32.6415 32.8889 32.6426 32.7732C32.6463 32.5413 32.74 32.3199 32.904 32.1559C33.068 31.9919 33.2894 31.8982 33.5213 31.8945H35.3489C35.582 31.8945 35.8055 31.9871 35.9703 32.1519C36.135 32.3167 36.2276 32.5402 36.2276 32.7732C36.2276 33.0063 36.135 33.2298 35.9703 33.3946C35.8055 33.5594 35.582 33.6519 35.3489 33.6519Z" fill="#0066FF"/>
<path fill-rule="evenodd" clip-rule="evenodd" d="M8.10904 36.2883H6.87904C6.64599 36.2883 6.42249 36.1958 6.2577 36.031C6.09291 35.8662 6.00034 35.6427 6.00034 35.4096C6.00034 35.1766 6.09291 34.9531 6.2577 34.7883C6.42249 34.6235 6.64599 34.5309 6.87904 34.5309H8.10904C8.50901 34.528 8.89176 34.3677 9.17456 34.0849C9.45737 33.802 9.61753 33.4192 9.62044 33.0192C9.6115 32.6212 9.44939 32.2419 9.16787 31.9604C8.88634 31.6789 8.50708 31.5168 8.10904 31.5078H6.87904C6.76337 31.509 6.64863 31.4872 6.54152 31.4435C6.43441 31.3998 6.33708 31.3352 6.25524 31.2535C6.17339 31.1718 6.10866 31.0745 6.06484 30.9675C6.02102 30.8604 5.99899 30.7457 6.00004 30.63C6.00367 30.3981 6.09741 30.1767 6.26142 30.0127C6.42543 29.8487 6.64682 29.755 6.87874 29.7513H8.10874C8.9578 29.7683 9.76681 30.1156 10.364 30.7193C10.9612 31.3231 11.2996 32.1358 11.3073 32.985C11.3019 33.8415 10.9665 34.6629 10.3707 35.2782C9.77496 35.8935 8.96486 36.2553 8.10904 36.2883Z" fill="#0066FF"/>
<path fill-rule="evenodd" clip-rule="evenodd" d="M65.0516 37.0263H63.1535C62.5648 37.0245 61.9822 36.9066 61.439 36.6794C60.8959 36.4522 60.4029 36.1201 59.9883 35.7021C59.5736 35.2841 59.2455 34.7885 59.0227 34.2436C58.7998 33.6986 58.6866 33.1151 58.6895 32.5263V30.312C58.6895 30.079 58.7821 29.8555 58.9469 29.6907C59.1117 29.5259 59.3352 29.4333 59.5682 29.4333C59.8013 29.4333 60.0248 29.5259 60.1895 29.6907C60.3543 29.8555 60.4469 30.079 60.4469 30.312V32.5263C60.4447 32.8916 60.515 33.2537 60.6537 33.5916C60.7925 33.9295 60.9969 34.2365 61.2552 34.4948C61.5135 34.7531 61.8205 34.9576 62.1584 35.0963C62.4963 35.2351 62.8584 35.3054 63.2237 35.3031H65.1218C65.2376 35.302 65.3525 35.3239 65.4597 35.3677C65.5668 35.4116 65.6642 35.4763 65.7461 35.5582C65.8279 35.6402 65.8926 35.7376 65.9363 35.8448C65.9799 35.9521 66.0018 36.067 66.0005 36.1827C65.9636 36.4111 65.849 36.6197 65.6761 36.7734C65.5033 36.9271 65.2827 37.0164 65.0516 37.0263Z" fill="#0066FF"/>
<path fill-rule="evenodd" clip-rule="evenodd" d="M62.0279 45.1107H9.8312C9.60377 45.1023 9.38846 45.0061 9.23054 44.8422C9.07261 44.6783 8.98438 44.4596 8.98438 44.232C8.98438 44.0044 9.07261 43.7857 9.23054 43.6218C9.38846 43.458 9.60377 43.3617 9.8312 43.3533H62.0279C62.1436 43.3521 62.2585 43.374 62.3656 43.4177C62.4728 43.4615 62.5702 43.5262 62.652 43.608C62.7339 43.6898 62.7986 43.7872 62.8424 43.8943C62.8861 44.0015 62.9081 44.1163 62.9069 44.232C62.9033 44.464 62.8095 44.6854 62.6454 44.8494C62.4813 45.0135 62.2599 45.1072 62.0279 45.1107Z" fill="#0066FF"/>
<path fill-rule="evenodd" clip-rule="evenodd" d="M56.6861 49.5748H15.2108C15.0951 49.5759 14.9803 49.554 14.8731 49.5103C14.766 49.4665 14.6687 49.4018 14.5868 49.32C14.505 49.2382 14.4403 49.1409 14.3966 49.0337C14.3528 48.9266 14.3309 48.8118 14.3321 48.6961C14.3357 48.4642 14.4295 48.2428 14.5935 48.0788C14.7575 47.9148 14.9789 47.821 15.2108 47.8174H56.6861C56.918 47.8209 57.1395 47.9146 57.3036 48.0787C57.4677 48.2427 57.5614 48.4641 57.5651 48.6961C57.5662 48.8118 57.5443 48.9266 57.5005 49.0338C57.4568 49.1409 57.3921 49.2383 57.3102 49.3201C57.2283 49.4019 57.131 49.4666 57.0238 49.5104C56.9166 49.5541 56.8018 49.576 56.6861 49.5748Z" fill="#0066FF"/>
<path fill-rule="evenodd" clip-rule="evenodd" d="M32.5369 30.8048C32.305 30.8012 32.0836 30.7074 31.9196 30.5434C31.7556 30.3794 31.6618 30.158 31.6582 29.9261V25.9199C31.6894 25.7092 31.7954 25.5167 31.9567 25.3776C32.1179 25.2384 32.3239 25.1619 32.5369 25.1619C32.7499 25.1619 32.9559 25.2384 33.1172 25.3776C33.2784 25.5167 33.3844 25.7092 33.4156 25.9199V29.9261C33.412 30.1581 33.3183 30.3795 33.1543 30.5435C32.9903 30.7075 32.7688 30.8013 32.5369 30.8048Z" fill="#0066FF"/>
</svg>
