<svg width="73" height="72" viewBox="0 0 73 72" fill="none" xmlns="http://www.w3.org/2000/svg">
<path d="M21.2413 24.2656C18.0992 27.4079 16.1437 31.5424 15.7082 35.9648C15.2727 40.3872 16.3841 44.8238 18.853 48.5186C21.3219 52.2134 24.9955 54.9379 29.248 56.2278C33.5004 57.5176 38.0686 57.2931 42.174 55.5925C46.2795 53.8918 49.6683 50.8203 51.763 46.9012C53.8577 42.9821 54.5286 38.4579 53.6616 34.0995C52.7945 29.7412 50.4431 25.8183 47.0079 22.9993C43.5728 20.1803 39.2664 18.6396 34.8226 18.6397C32.2993 18.6324 29.7995 19.1259 27.4682 20.0916C25.1369 21.0573 23.0204 22.4761 21.2413 24.2656ZM47.0455 25.6222C49.8734 28.4502 51.6332 32.1713 52.025 36.1513C52.4169 40.1313 51.4166 44.1241 49.1946 47.4494C46.9727 50.7746 43.6664 53.2265 39.8393 54.3873C36.0122 55.5481 31.901 55.3459 28.2062 53.8154C24.5114 52.2848 21.4616 49.5204 19.5765 45.9933C17.6913 42.4661 17.0875 38.3945 17.8679 34.4721C18.6483 30.5497 20.7646 27.0192 23.8561 24.4822C26.9477 21.9452 30.8234 20.5587 34.8226 20.5588C37.0938 20.5525 39.3436 20.9968 41.4418 21.8659C43.54 22.7351 45.4441 24.0118 47.0455 25.6222Z" fill="white" fill-opacity="0.4"/>
<path d="M19.0931 42.0623C19.3784 43.1183 20.0706 44.0181 21.018 44.5647C21.9654 45.1113 23.0909 45.2602 24.1478 44.9786L27.1355 44.1785C28.6729 46.0235 30.8167 47.2612 33.1832 47.6699L33.9833 50.6588C34.2195 51.5359 34.7379 52.3108 35.4584 52.8638C36.1789 53.4169 37.0614 53.7174 37.9697 53.7188C38.3301 53.719 38.6888 53.6713 39.0365 53.5769C40.093 53.2926 40.9935 52.6009 41.5405 51.6536C42.0876 50.7062 42.2365 49.5805 41.9546 48.5234L41.1545 45.5375C43.0006 43.9988 44.2385 41.8531 44.6465 39.4847L47.6357 38.6846C48.6853 38.3946 49.5777 37.7014 50.1184 36.7562C50.6591 35.8111 50.8043 34.6905 50.5224 33.6387C50.2404 32.5869 49.5542 31.6892 48.6132 31.1413C47.6722 30.5933 46.5528 30.4395 45.4988 30.7133L42.5126 31.5149C40.975 29.6692 38.8309 28.4308 36.4637 28.0214L35.6621 25.0352C35.3718 23.9864 34.6788 23.0948 33.7341 22.5545C32.7894 22.0143 31.6695 21.8692 30.6183 22.1508C29.5672 22.4325 28.6698 23.1181 28.1218 24.0583C27.5737 24.9985 27.4194 26.1171 27.6923 27.1706L28.4924 30.158C26.6471 31.6951 25.4092 33.839 25.0004 36.2057L22.0112 37.0073C20.9547 37.2919 20.0542 37.9839 19.5071 38.9315C18.9601 39.8792 18.8112 41.0051 19.0931 42.0623ZM30.1418 31.3091C30.3006 31.195 30.4208 31.0352 30.4866 30.8511C30.5524 30.667 30.5607 30.4672 30.5102 30.2783L29.5445 26.6747C29.3997 26.1117 29.4829 25.5144 29.776 25.0124C30.0692 24.5104 30.5486 24.1444 31.1101 23.9939C31.6716 23.8435 32.2697 23.9207 32.7746 24.2088C33.2795 24.4969 33.6503 24.9726 33.8063 25.5326L34.772 29.1362C34.8232 29.3245 34.9302 29.4929 35.079 29.6192C35.2278 29.7455 35.4113 29.8237 35.6054 29.8436C36.7445 29.9618 37.8458 30.3189 38.8374 30.8916C39.8291 31.4643 40.6887 32.2398 41.3603 33.1673C41.4741 33.3261 41.6335 33.4465 41.8174 33.5123C42.0013 33.5782 42.201 33.5863 42.3896 33.5357L45.9962 32.5688C46.2767 32.4917 46.5696 32.4709 46.8581 32.5074C47.1466 32.544 47.425 32.6373 47.6773 32.782C47.9297 32.9266 48.1509 33.1197 48.3282 33.3502C48.5056 33.5807 48.6356 33.844 48.7108 34.1249C48.786 34.4059 48.8048 34.6989 48.7663 34.9872C48.7277 35.2754 48.6326 35.5532 48.4862 35.8045C48.3399 36.0558 48.1452 36.2757 47.9135 36.4515C47.6819 36.6273 47.4177 36.7555 47.1362 36.8288L43.5326 37.7957C43.344 37.8467 43.1752 37.9538 43.0489 38.103C42.9225 38.2521 42.8445 38.4361 42.8252 38.6306C42.708 39.7695 42.3514 40.8709 41.7788 41.8624C41.2062 42.8539 40.4306 43.7132 39.5027 44.384C39.3433 44.4972 39.2225 44.6566 39.1566 44.8407C39.0908 45.0248 39.0831 45.2247 39.1346 45.4133L40.1 49.0199C40.2125 49.4411 40.1976 49.8861 40.0572 50.2988C39.9168 50.7115 39.6573 51.0733 39.3114 51.3385C38.9655 51.6038 38.5487 51.7605 38.1137 51.789C37.6787 51.8175 37.2451 51.7164 36.8675 51.4985C36.6163 51.3541 36.3962 51.1614 36.2198 50.9315C36.0434 50.7016 35.9142 50.4391 35.8397 50.159L34.8728 46.5554C34.8222 46.3668 34.7153 46.1981 34.5665 46.0718C34.4176 45.9454 34.2338 45.8673 34.0394 45.848C32.9005 45.731 31.7991 45.3745 30.8076 44.802C29.8161 44.2294 28.9568 43.4538 28.286 42.5258C28.1733 42.3654 28.0137 42.2439 27.8291 42.1779C27.6446 42.112 27.4441 42.1048 27.2552 42.1574L23.6501 43.1231C23.0891 43.2626 22.4958 43.1762 21.9979 42.8825C21.5 42.5889 21.1372 42.1114 20.9878 41.553C20.8384 40.9946 20.9142 40.3998 21.1989 39.8968C21.4836 39.3937 21.9545 39.0225 22.5101 38.8631L26.114 37.8962C26.3025 37.8451 26.4711 37.7382 26.5976 37.5894C26.7241 37.4406 26.8025 37.257 26.8226 37.0628C26.94 35.9242 27.2962 34.8232 27.8682 33.8317C28.4402 32.8403 29.2149 31.9807 30.1418 31.3091Z" fill="white" fill-opacity="0.4"/>
<path d="M34.823 44.5174C36.3658 44.517 37.8606 43.9816 39.053 43.0025C40.2453 42.0235 41.0613 40.6614 41.362 39.1482C41.6627 37.635 41.4294 36.0643 40.7019 34.7038C39.9745 33.3433 38.7978 32.2771 37.3724 31.6869C35.947 31.0966 34.361 31.0188 32.8847 31.4667C31.4084 31.9146 30.133 32.8605 29.2759 34.1433C28.4187 35.426 28.0328 36.9663 28.1839 38.5017C28.335 40.037 29.0138 41.4725 30.1046 42.5635C30.7228 43.185 31.4582 43.6776 32.2681 44.013C33.078 44.3484 33.9464 44.5199 34.823 44.5174ZM30.0713 37.8466C30.0717 36.7473 30.4533 35.6821 31.1511 34.8326C31.8489 33.983 32.8197 33.4017 33.898 33.1877C34.9763 32.9737 36.0955 33.1402 37.0648 33.6589C38.0341 34.1776 38.7936 35.0163 39.2138 36.0322C39.6341 37.0481 39.689 38.1782 39.3694 39.2301C39.0497 40.282 38.3753 41.1905 37.4609 41.8008C36.5465 42.4111 35.4487 42.6854 34.3547 42.5771C33.2607 42.4688 32.2381 41.9844 31.4612 41.2066C31.0188 40.7664 30.6681 40.2427 30.4295 39.6659C30.1909 39.0892 30.0692 38.4708 30.0713 37.8466Z" fill="white" fill-opacity="0.4"/>
<path d="M34.823 41.0156C35.5573 41.0168 36.2693 40.7632 36.8375 40.2981C37.4058 39.8331 37.7951 39.1854 37.9393 38.4654C38.0834 37.7454 37.9733 36.9977 37.6279 36.3497C37.2824 35.7018 36.723 35.1937 36.0448 34.9121C35.3667 34.6305 34.6119 34.5928 33.9091 34.8054C33.2062 35.018 32.5989 35.4678 32.1906 36.0781C31.7823 36.6884 31.5983 37.4214 31.6699 38.1522C31.7416 38.883 32.0645 39.5663 32.5835 40.0856C32.8764 40.3815 33.2253 40.6161 33.6098 40.7758C33.9943 40.9355 34.4067 41.017 34.823 41.0156ZM33.5768 37.8467C33.5767 37.6416 33.6272 37.4397 33.7238 37.2587C33.8204 37.0778 33.9602 36.9235 34.1307 36.8095C34.3012 36.6955 34.4971 36.6253 34.7013 36.6052C34.9054 36.5851 35.1113 36.6156 35.3008 36.6941C35.4903 36.7726 35.6575 36.8966 35.7875 37.0552C35.9176 37.2137 36.0066 37.4019 36.0466 37.6031C36.0865 37.8043 36.0762 38.0122 36.0166 38.2084C35.957 38.4047 35.8499 38.5832 35.7047 38.7281C35.467 38.9542 35.1515 39.0802 34.8235 39.0802C34.4955 39.0802 34.18 38.9542 33.9422 38.7281C33.8258 38.6129 33.7336 38.4755 33.6708 38.3242C33.6081 38.1729 33.5761 38.0106 33.5768 37.8467Z" fill="white" fill-opacity="0.4"/>
<path d="M58.8916 13.7765C54.9246 9.78311 49.8449 7.07969 44.3167 6.01971C44.1779 5.99322 44.035 5.99769 43.8982 6.03278C43.7614 6.06788 43.6339 6.13274 43.5251 6.22274C43.4162 6.31274 43.3285 6.42567 43.2683 6.55345C43.2081 6.68124 43.1768 6.82075 43.1767 6.96201L43.1791 11.0216C37.146 9.12218 30.6501 9.30175 24.7312 11.5316C18.8123 13.7614 13.8126 17.9125 10.5325 23.3205C7.25232 28.7285 5.88138 35.0806 6.63909 41.3601C7.39679 47.6395 10.2393 53.4832 14.7117 57.9558C19.1841 62.4283 25.0277 65.271 31.3071 66.0289C37.5866 66.7868 43.9387 65.4161 49.3468 62.1361C54.7549 58.8562 58.9062 53.8566 61.1362 47.9378C63.3662 42.0189 63.546 35.523 61.6468 29.4899H65.7067C65.8481 29.4903 65.9879 29.4593 66.1159 29.3993C66.2439 29.3392 66.3571 29.2515 66.4472 29.1425C66.5373 29.0335 66.6021 28.9059 66.637 28.7689C66.6719 28.6318 66.676 28.4887 66.649 28.3499C65.5871 22.8227 62.8837 17.744 58.8916 13.7765ZM55.6516 27.5633C53.3831 22.9897 49.6778 19.2858 45.1033 17.0189L45.1003 8.15061C49.81 9.28834 54.1147 11.7031 57.5407 15.1292C60.9668 18.5554 63.3814 22.8601 64.519 27.5699L55.6516 27.5633ZM43.1839 17.1641L43.1869 17.6336C43.1902 17.8153 43.2443 17.9925 43.3432 18.1449C43.4421 18.2974 43.5818 18.4191 43.7464 18.4961C48.3529 20.6224 52.0504 24.3214 54.1747 28.9289C54.2522 29.095 54.3755 29.2357 54.53 29.3343C54.6846 29.4329 54.8641 29.4854 55.0474 29.4857L55.5085 29.4842L59.6536 29.4869C60.9892 33.4296 61.3658 37.6339 60.752 41.7512C60.1383 45.8685 58.552 49.7802 56.1245 53.162C53.6971 56.5437 50.4985 59.2982 46.794 61.1969C43.0895 63.0956 38.9857 64.0839 34.8229 64.0799C31.0194 64.0833 27.2606 63.2591 23.8075 61.6645C20.3543 60.07 17.2894 57.7432 14.8254 54.8457C12.3615 51.9482 10.5574 48.5493 9.53831 44.8848C8.51927 41.2203 8.30969 37.378 8.92411 33.6244C9.53852 29.8708 10.9622 26.2958 13.0964 23.1475C15.2307 19.9992 18.0243 17.3529 21.2835 15.3922C24.5427 13.4315 28.1895 12.2033 31.9709 11.793C35.7522 11.3826 39.5775 11.7998 43.1815 13.0157L43.1839 17.1641Z" fill="white" fill-opacity="0.4"/>
<path d="M47.2949 12.1311C46.9391 12.4869 46.6968 12.9402 46.5987 13.4337C46.5005 13.9272 46.5509 14.4387 46.7435 14.9035C46.936 15.3684 47.2621 15.7657 47.6805 16.0452C48.0988 16.3247 48.5907 16.4739 49.0938 16.4739C49.597 16.4739 50.0888 16.3247 50.5072 16.0452C50.9255 15.7657 51.2516 15.3684 51.4441 14.9035C51.6367 14.4387 51.6871 13.9272 51.5889 13.4337C51.4908 12.9402 51.2485 12.4869 50.8928 12.1311C50.4076 11.6695 49.7635 11.4121 49.0938 11.4121C48.4241 11.4121 47.7801 11.6695 47.2949 12.1311ZM49.5359 14.3709C49.4166 14.4843 49.2583 14.5475 49.0938 14.5475C48.9293 14.5475 48.771 14.4843 48.6518 14.3709C48.5644 14.2835 48.5049 14.1721 48.4809 14.0508C48.4569 13.9295 48.4695 13.8039 48.517 13.6898C48.5644 13.5756 48.6447 13.4782 48.7477 13.4097C48.8506 13.3413 48.9715 13.305 49.0952 13.3053C49.2184 13.3055 49.3388 13.3423 49.4412 13.4108C49.5437 13.4794 49.6235 13.5767 49.6707 13.6906C49.7179 13.8044 49.7303 13.9297 49.7064 14.0506C49.6825 14.1715 49.6228 14.2836 49.5359 14.3709Z" fill="white" fill-opacity="0.4"/>
<path d="M57.1987 18.015C57.1985 17.4265 56.9942 16.8564 56.6207 16.4016C56.2472 15.9469 55.7277 15.6357 55.1505 15.5211C54.5733 15.4065 53.9743 15.4956 53.4554 15.7731C52.9365 16.0506 52.5299 16.4994 52.3048 17.0431C52.0797 17.5868 52.0501 18.1917 52.2209 18.7548C52.3918 19.3179 52.7526 19.8043 53.2419 20.1312C53.7312 20.4581 54.3187 20.6052 54.9043 20.5476C55.4899 20.4899 56.0374 20.231 56.4535 19.815C56.6901 19.5788 56.8778 19.2982 57.0056 18.9893C57.1335 18.6804 57.1991 18.3493 57.1987 18.015ZM55.2763 18.015C55.2767 18.0971 55.2608 18.1784 55.2295 18.2543C55.1982 18.3302 55.1521 18.3992 55.0939 18.4572C54.9751 18.5702 54.8173 18.6333 54.6532 18.6333C54.4892 18.6333 54.3314 18.5702 54.2125 18.4572C54.1253 18.3699 54.0659 18.2587 54.0418 18.1377C54.0177 18.0167 54.0301 17.8913 54.0772 17.7773C54.1244 17.6632 54.2042 17.5658 54.3068 17.4971C54.4093 17.4285 54.5299 17.3917 54.6532 17.3916C54.7352 17.3908 54.8165 17.4066 54.8922 17.438C54.9679 17.4694 55.0365 17.5157 55.0939 17.5743C55.1519 17.632 55.1979 17.7007 55.2292 17.7763C55.2606 17.852 55.2766 17.9331 55.2763 18.015Z" fill="white" fill-opacity="0.4"/>
<path d="M60.5388 21.7765C60.0536 21.3148 59.4095 21.0574 58.7397 21.0574C58.07 21.0574 57.4258 21.3148 56.9406 21.7765C56.5846 22.1324 56.3421 22.5858 56.2438 23.0795C56.1455 23.5732 56.1958 24.085 56.3884 24.5501C56.581 25.0152 56.9072 25.4127 57.3257 25.6924C57.7443 25.9721 58.2363 26.1213 58.7397 26.1213C59.2431 26.1213 59.7352 25.9721 60.1537 25.6924C60.5723 25.4127 60.8984 25.0152 61.091 24.5501C61.2836 24.085 61.3339 23.5732 61.2356 23.0795C61.1373 22.5858 60.8949 22.1324 60.5388 21.7765ZM59.1819 24.016C59.0627 24.1295 58.9043 24.1928 58.7397 24.1928C58.5751 24.1928 58.4168 24.1295 58.2975 24.016C58.1807 23.8989 58.1151 23.7402 58.1151 23.5747C58.1151 23.4093 58.1807 23.2506 58.2975 23.1334C58.4146 23.0161 58.5734 22.9502 58.7391 22.95C58.9048 22.9498 59.0637 23.0155 59.181 23.1325C59.2983 23.2496 59.3643 23.4084 59.3645 23.5741C59.3646 23.7398 59.299 23.8987 59.1819 24.016Z" fill="white" fill-opacity="0.4"/>
<path d="M35.4651 12.6994C35.3436 12.7318 35.2297 12.7879 35.1299 12.8645C35.0302 12.9411 34.9466 13.0367 34.884 13.1458L33.0969 16.2376C32.9733 16.4579 32.9415 16.718 33.0084 16.9615C33.0752 17.2051 33.2354 17.4124 33.4541 17.5387C33.6728 17.665 33.9325 17.7 34.1768 17.6362C34.4212 17.5723 34.6305 17.4148 34.7595 17.1976L36.5439 14.1076C36.607 13.9985 36.6481 13.8779 36.6646 13.7529C36.6812 13.6279 36.6729 13.5008 36.6403 13.379C36.6078 13.2572 36.5515 13.143 36.4748 13.0429C36.3981 12.9428 36.3024 12.8588 36.1932 12.7957C36.0843 12.732 35.9639 12.6907 35.8389 12.6742C35.7138 12.6577 35.5868 12.6662 35.4651 12.6994Z" fill="white" fill-opacity="0.4"/>
<path d="M19.2471 24.4958H19.263C19.3428 24.4958 19.4222 24.4852 19.4991 24.464C19.7447 24.3972 19.954 24.236 20.0811 24.0155C20.2082 23.795 20.243 23.5331 20.1777 23.2871L19.2543 19.8398C19.1873 19.5943 19.0259 19.3853 18.8054 19.2582C18.5849 19.1311 18.3231 19.0964 18.0771 19.1615C17.8313 19.2278 17.6219 19.3891 17.495 19.6098C17.3681 19.8305 17.334 20.0926 17.4003 20.3384L18.3237 23.7842C18.3782 23.9877 18.4982 24.1676 18.665 24.2962C18.8319 24.4248 19.0365 24.4949 19.2471 24.4958Z" fill="white" fill-opacity="0.4"/>
<path d="M11.0813 36.1233C10.9719 36.0553 10.85 36.0101 10.7228 35.9903C10.5956 35.9704 10.4658 35.9763 10.3409 36.0077C10.216 36.039 10.0988 36.0952 9.99605 36.1728C9.89333 36.2504 9.80728 36.3479 9.74299 36.4594C9.67871 36.5709 9.63752 36.6943 9.62187 36.822C9.60622 36.9498 9.61643 37.0794 9.65189 37.2032C9.68735 37.327 9.74734 37.4423 9.82829 37.5424C9.90924 37.6425 10.0095 37.7253 10.1231 37.7859L13.208 39.5661C13.3542 39.6538 13.5217 39.6999 13.6922 39.6993C13.9036 39.6994 14.1091 39.6297 14.2768 39.501C14.4446 39.3723 14.5652 39.1919 14.6199 38.9877C14.6746 38.7835 14.6603 38.567 14.5794 38.3717C14.4985 38.1764 14.3553 38.0133 14.1722 37.9077L11.0813 36.1233Z" fill="black"/>
<path d="M20.2646 52.4904L16.8146 53.4153C16.5896 53.4756 16.3941 53.6157 16.2647 53.8094C16.1353 54.0032 16.0808 54.2374 16.1113 54.4684C16.1418 54.6993 16.2553 54.9113 16.4305 55.0648C16.6058 55.2183 16.8309 55.3028 17.0639 55.3026C17.1481 55.3024 17.2319 55.2917 17.3135 55.2708L20.762 54.3459C21.0081 54.2798 21.2178 54.1187 21.345 53.8979C21.4722 53.6772 21.5066 53.4149 21.4405 53.1689C21.3743 52.9228 21.2132 52.7131 20.9924 52.5859C20.7717 52.4586 20.5107 52.4243 20.2646 52.4904Z" fill="black"/>
<path d="M34.885 58.4944L33.0994 61.5844C33.0362 61.6936 32.9952 61.8141 32.9786 61.9392C32.962 62.0642 32.9702 62.1913 33.0027 62.3132C33.0352 62.4351 33.0914 62.5493 33.168 62.6495C33.2447 62.7497 33.3404 62.8337 33.4495 62.8969C33.5587 62.9601 33.6793 63.0012 33.8043 63.0178C33.9293 63.0344 34.0564 63.0262 34.1783 62.9937C34.3002 62.9612 34.4145 62.905 34.5146 62.8283C34.6148 62.7517 34.6989 62.656 34.762 62.5468L36.5464 59.4568C36.6741 59.2365 36.7089 58.9745 36.6434 58.7285C36.5779 58.4825 36.4173 58.2726 36.1969 58.1449C35.9766 58.0173 35.7146 57.9824 35.4686 58.048C35.2226 58.1135 35.0127 58.2741 34.885 58.4944Z" fill="black"/>
<path d="M50.1448 51.2293C49.8996 51.2958 49.6907 51.4565 49.5636 51.6764C49.4365 51.8964 49.4016 52.1576 49.4665 52.4032L50.3914 55.8505C50.4463 56.0547 50.567 56.2352 50.7347 56.3641C50.9023 56.4929 51.1078 56.5631 51.3193 56.5636C51.4016 56.5641 51.4836 56.5524 51.5626 56.5288C51.6847 56.4968 51.7992 56.4409 51.8997 56.3646C52.0002 56.2882 52.0847 56.1927 52.1482 56.0836C52.2118 55.9746 52.2532 55.854 52.2702 55.7289C52.2871 55.6038 52.2792 55.4766 52.2469 55.3546L51.322 51.9076C51.252 51.664 51.0901 51.457 50.8705 51.3305C50.6508 51.2039 50.3906 51.1676 50.1448 51.2293Z" fill="black"/>
<path d="M58.5665 39.5717C58.7873 39.6986 59.0496 39.7325 59.2955 39.666C59.5413 39.5995 59.7507 39.4381 59.8776 39.2172C60.0045 38.9964 60.0384 38.7341 59.9719 38.4883C59.9055 38.2424 59.744 38.033 59.5232 37.9061L56.4332 36.1217C56.3239 36.0568 56.2029 36.0142 56.0771 35.9965C55.9512 35.9787 55.8231 35.9861 55.7002 36.0182C55.5773 36.0504 55.4619 36.1066 55.3609 36.1836C55.2598 36.2607 55.1751 36.357 55.1115 36.467C55.048 36.5771 55.0069 36.6986 54.9907 36.8247C54.9745 36.9507 54.9835 37.0787 55.0172 37.2012C55.0508 37.3237 55.1084 37.4384 55.1867 37.5385C55.265 37.6386 55.3624 37.7221 55.4732 37.7843L58.5665 39.5717Z" fill="black"/>
</svg>
