<svg width="72" height="72" viewBox="0 0 72 72" fill="none" xmlns="http://www.w3.org/2000/svg">
<path d="M65.5766 19.7998L62.9654 18.3598C62.6953 18.2098 62.3651 18.2098 62.095 18.3598L57.9231 20.6698L38.5945 15.4498C38.1443 15.3298 37.6941 15.5698 37.514 15.9898L36.7037 17.9698H34.4827L33.5523 15.9598C33.3722 15.5698 32.922 15.3298 32.4718 15.4798L14.3437 20.6698L10.1719 18.3298C9.87173 18.1798 9.51156 18.1798 9.24144 18.3598L6.42019 20.1598C6.15007 20.3398 6 20.6098 6 20.9398V29.9398C6 30.4498 6.39017 30.8398 6.9004 30.8398L12.2728 30.8698V32.1898C12.2728 32.3398 12.3028 32.5198 12.3928 32.6398L17.195 40.7098C17.255 40.8298 17.3451 40.9198 17.4651 40.9798L19.6561 42.5098C19.8062 42.6298 19.9862 42.6598 20.1663 42.6598H38.5945C38.9247 46.5898 40.6054 53.8498 48.4389 56.5498C48.529 56.5798 48.619 56.6098 48.739 56.6098H49.1892C49.2793 56.6098 49.3993 56.5798 49.4894 56.5498C60.4142 52.7998 59.3938 40.1698 59.3938 40.0198C59.3638 39.7198 59.1837 39.4198 58.8836 39.2998L54.9818 37.3798L58.8536 32.7298C58.9736 32.5798 59.0636 32.3698 59.0636 32.1598V30.8098H65.0963C65.6066 30.8098 65.9967 30.4198 65.9967 29.9098V20.5798C66.0267 20.2498 65.8467 19.9498 65.5766 19.7998ZM31.5114 21.5698L32.4418 23.1898C32.5919 23.4598 32.892 23.6398 33.2221 23.6398H38.1443C38.4745 23.6398 38.7746 23.4598 38.9247 23.1898L39.8551 21.5698L42.5563 22.2598L44.5072 26.5198L39.3148 25.4698C38.9247 25.4098 38.5645 25.5598 38.3544 25.8898L37.334 27.5398H33.8824L32.862 25.8898C32.6519 25.5598 32.2917 25.4098 31.9015 25.4698L26.4991 26.5498L28.45 22.3198L31.5114 21.5698ZM57.593 29.1298L53.9614 28.4098L52.2806 24.7798L56.9027 25.9798C57.1728 26.3098 57.7731 27.2998 57.593 29.1298ZM50.0296 24.2098L51.7704 27.9898L46.7281 26.9698H46.7582L44.8673 22.8898L50.0296 24.2098ZM24.4282 26.9998L20.4064 27.8098L22.1772 23.9998L26.3191 22.9198L24.4282 26.9998ZM18.2455 28.2598L13.9836 29.0998L14.7639 25.9198L19.9262 24.5698L18.2455 28.2598ZM49.0692 54.8098H48.9191C40.5154 51.8098 40.2753 42.8998 40.3353 40.6798L48.7691 36.3598L57.653 40.7098C57.713 42.9298 57.4729 51.8098 49.0692 54.8098ZM57.2929 31.8598L53.3311 36.5998L49.1592 34.5598C48.8891 34.4398 48.619 34.4398 48.3489 34.5598L39.0447 39.3298C38.7746 39.4798 38.5945 39.7498 38.5645 40.0498C38.5645 40.0798 38.5345 40.3798 38.5345 40.8898H20.4664L18.6656 39.6298L14.0736 31.9498V30.9298L31.7515 27.3898L32.7119 28.9198C32.862 29.1898 33.1621 29.3398 33.4923 29.3398H37.9342C38.2344 29.3398 38.5345 29.1898 38.7146 28.9198L39.675 27.3898L57.3529 30.9298V31.8598H57.2929ZM64.2259 29.0098H59.4238C59.6339 25.9198 57.9832 24.5098 57.9231 24.4498C57.8331 24.3598 57.713 24.3298 57.593 24.2698L39.705 19.6198C39.3449 19.5298 38.8947 19.6798 38.6846 20.0398L37.6641 21.8098H33.7624L32.7119 20.0698C32.5018 19.7098 32.0816 19.5598 31.6915 19.6498L27.3395 20.7898H27.3095V20.8198L13.8035 24.2998C13.5033 24.3898 13.2332 24.6298 13.1732 24.9598L12.1527 29.0398L7.8008 29.0098V21.4198L9.75167 20.1898L13.8035 22.4098C14.0136 22.5298 14.2537 22.5598 14.4638 22.4998L32.2017 17.3998L33.0421 19.2298C33.1921 19.5598 33.5223 19.7398 33.8524 19.7398H37.2739C37.6341 19.7398 37.9642 19.5298 38.1143 19.1698L38.8346 17.3698L57.7431 22.4698C57.9532 22.5298 58.1933 22.4998 58.4034 22.4098L62.4852 20.1598L64.1959 21.1198V29.0098H64.2259Z" fill="#0066FF"/>
<path d="M44.9573 44.8799L43.6367 46.0799L47.7786 50.5799L49.1592 50.5199L55.2219 42.1799L53.7512 41.1299L48.3488 48.5699L44.9573 44.8799Z" fill="#0066FF"/>
</svg>
