<svg width="72" height="72" viewBox="0 0 72 72" fill="none" xmlns="http://www.w3.org/2000/svg">
<path d="M16.44 15.81L15.18 14.52C9.27 20.22 6 27.9 6 36.12C6 44.34 9.27 52.02 15.18 57.72L16.44 56.43C10.86 51.06 7.8 43.86 7.8 36.12C7.8 28.38 10.86 21.18 16.44 15.81Z" fill="#0066FF"/>
<path d="M56.8201 14.52L55.5601 15.81C61.1401 21.18 64.2001 28.38 64.2001 36.12C64.2001 43.86 61.1401 51.06 55.5601 56.43L56.8201 57.72C62.7601 52.02 66.0001 44.34 66.0001 36.12C66.0001 27.9 62.7301 20.22 56.8201 14.52Z" fill="#0066FF"/>
<path d="M36 13.98C23.85 13.98 13.98 23.85 13.98 36C13.98 48.15 23.85 58.02 36 58.02C48.15 58.02 58.02 48.15 58.02 36C58.02 23.85 48.15 13.98 36 13.98ZM36 56.22C24.84 56.22 15.78 47.16 15.78 36C15.78 24.84 24.84 15.78 36 15.78C47.16 15.78 56.22 24.84 56.22 36C56.22 47.16 47.16 56.22 36 56.22Z" fill="#0066FF"/>
<path d="M35.9998 32.3398C33.9898 32.3398 32.3398 33.9898 32.3398 35.9998C32.3398 38.0098 33.9898 39.6598 35.9998 39.6598C38.0098 39.6598 39.6598 38.0098 39.6598 35.9998C39.6598 33.9898 38.0098 32.3398 35.9998 32.3398ZM35.9998 37.8598C34.9798 37.8598 34.1398 37.0198 34.1398 35.9998C34.1398 34.9798 34.9798 34.1398 35.9998 34.1398C37.0198 34.1398 37.8598 34.9798 37.8598 35.9998C37.8598 37.0198 37.0198 37.8598 35.9998 37.8598Z" fill="#0066FF"/>
<path d="M23.8199 31.6502L27.4499 35.6402H20.6699V37.4402H27.5399L23.8199 41.4302L25.1399 42.6602L30.7799 36.6302L25.1399 30.4502L23.8199 31.6502Z" fill="#0066FF"/>
<path d="M44.4299 35.6402L48.1499 31.6802L46.8299 30.4502L41.1899 36.4802L46.8299 42.6602L48.1499 41.4602L44.5199 37.4402H51.2999V35.6402H44.4299Z" fill="#0066FF"/>
</svg>
