<svg width="72" height="72" viewBox="0 0 72 72" fill="none" xmlns="http://www.w3.org/2000/svg">
<path d="M6.54004 61.4399H49.86V59.6399H46.8L49.38 54.7499H63.54V59.6399H60.66V61.4399H65.34V52.9199H6.54004V61.4399ZM27.42 59.6399H20.82L23.4 54.7499H30L27.42 59.6399ZM32.07 54.7199H38.67L36.09 59.6099H29.49L32.07 54.7199ZM18.75 59.6399H12.15L14.73 54.7499H21.33L18.75 59.6399ZM44.73 59.6399H38.13L40.71 54.7499H47.31L44.73 59.6399ZM8.37004 54.7199H12.69L10.11 59.6099H8.37004V54.7199Z" fill="#0066FF"/>
<path d="M64.5898 22.35L60.8098 22.05L59.3098 18.51L61.7698 15.6L61.6798 13.5L58.4398 10.29L56.3398 10.2L53.4598 12.66H53.4298L49.8898 11.19L49.5898 7.41L48.0298 6H43.4698L41.9398 7.41L41.6398 11.19L38.0698 12.66L35.1598 10.2L33.0598 10.29L29.8198 13.5L29.7598 15.6L32.2198 18.48V18.51L30.7498 22.05L26.9398 22.35L25.5298 23.88V28.44L26.9398 29.97L30.7198 30.27L32.2198 33.81L29.7598 36.72L29.8498 38.79L33.0598 42L35.1598 42.09L38.0698 39.63H38.0998L41.6398 41.1L41.9398 44.88L43.4698 46.29H48.0298L49.5598 44.88L49.8598 41.1L53.4298 39.63L56.3398 42.09L58.4398 42L61.6798 38.79L61.7698 36.72L59.3098 33.84V33.81L60.7798 30.27L64.5898 29.97L65.9998 28.41V23.88L64.5898 22.35ZM64.1698 27.72L63.7198 28.2L60.0598 28.5L59.4298 29.04L57.4498 33.54L57.5398 34.59L59.9098 37.38L59.8798 38.04L57.6598 40.26H56.9998L54.2098 37.89L53.1598 37.8L48.9898 39.51L48.1198 40.38L47.8198 44.01L47.3398 44.46H44.1898L43.7098 44.01L43.4098 40.38L42.8998 39.75L38.3698 37.77L37.3198 37.86L34.5298 40.23L33.8698 40.2L31.6498 37.98L31.6198 37.32L33.9898 34.53L34.0798 33.48L32.3398 29.34L31.4698 28.5L27.8098 28.2L27.3298 27.72V24.57L27.7798 24.09L31.4398 23.79L32.0698 23.25L34.0498 18.75L33.9598 17.7L31.5898 14.91L31.6198 14.25L33.8398 12.03L34.4998 12L37.2898 14.37L38.3398 14.46L42.5098 12.75L43.3798 11.88L43.6798 8.25L44.1598 7.8H47.3098L47.7898 8.25L48.0898 11.88L48.5998 12.51L53.1298 14.49L54.1798 14.4L56.9998 12.06L57.6598 12.09L59.8798 14.31L59.9098 14.97L57.5398 17.76L57.4498 18.81L59.1898 22.95L60.0598 23.82L63.7198 24.12L64.1698 24.6V27.72Z" fill="#0066FF"/>
<path d="M50.0702 26.1601C50.0702 23.7901 48.1202 21.8701 45.7502 21.8701C43.3802 21.8701 41.4302 23.7901 41.4302 26.1601C41.4302 28.5301 43.3802 30.4501 45.7502 30.4501C48.1202 30.4501 50.0702 28.5301 50.0702 26.1601ZM43.2602 26.1601C43.2602 24.7801 44.3702 23.6701 45.7502 23.6701C47.1302 23.6701 48.2402 24.7801 48.2402 26.1601C48.2402 27.5401 47.1302 28.6501 45.7502 28.6501C44.3702 28.6501 43.2602 27.5101 43.2602 26.1601Z" fill="#0066FF"/>
<path d="M45.7499 15.3604C44.1599 15.3604 42.6299 15.6904 41.2199 16.3504L41.9699 18.0004C43.1699 17.4604 44.4299 17.1904 45.7499 17.1904C50.6999 17.1904 54.7499 21.2104 54.7499 26.1604C54.7499 31.1104 50.6999 35.1304 45.7499 35.1304C40.7999 35.1304 36.7499 31.1104 36.7499 26.1604C36.7499 24.0004 37.5299 21.9304 38.9399 20.3104L37.5599 19.1404C35.8799 21.0904 34.9199 23.6103 34.9199 26.1903C34.9199 32.1303 39.7799 36.9603 45.7499 36.9603C51.7199 36.9603 56.5799 32.1303 56.5799 26.1903C56.5799 20.2504 51.7199 15.3604 45.7499 15.3604Z" fill="#0066FF"/>
<path d="M6.42 41.3705L6 43.3805L7.95 46.7405L9.93 47.4005L12.39 46.3205L13.83 47.1305L14.13 49.8005L15.69 51.1805H19.59L21.15 49.8005L21.45 47.1305L22.89 46.3205L25.35 47.4005L27.33 46.7405L29.28 43.3805L28.8 41.3705L26.64 39.7805V38.1305L28.8 36.5405L29.22 34.5305L27.27 31.1705L25.29 30.5105L22.83 31.5905L21.39 30.7805L21.09 28.1105L19.56 26.7305H15.66L14.1 28.1105L13.8 30.7805L12.36 31.5905L9.9 30.5105L7.92 31.1705L6 34.5305L6.42 36.5405L8.58 38.1305V39.7805L6.42 41.3705ZM8.07 35.4905L7.92 34.8305L9.18 32.6705L9.84 32.4605L12.51 33.6305L15.54 31.8905L15.87 29.0105L16.38 28.5605H18.87L19.38 29.0105L19.71 31.8905L22.74 33.6305L25.41 32.4605L26.07 32.6705L27.33 34.8305L27.18 35.4905L24.81 37.2005V40.6805L27.15 42.3905L27.3 43.0505L26.04 45.2105L25.38 45.4205L22.71 44.2505L19.68 45.9905L19.38 48.9005L18.87 49.3505H16.35L15.84 48.9005L15.51 46.0205L12.48 44.2805L9.81 45.4505L9.15 45.2405L7.89 43.0805L8.04 42.4205L10.38 40.7105V37.2005L8.07 35.4905Z" fill="#0066FF"/>
<path d="M14.8202 39.5703C14.7902 39.3603 14.7602 39.1803 14.7602 38.9703C14.7602 37.4103 16.0502 36.1203 17.6402 36.1203C19.2302 36.1203 20.4902 37.4103 20.4902 38.9703C20.4902 40.5303 19.2002 41.8203 17.6402 41.8203C17.4302 41.8203 17.1902 41.7903 17.0102 41.7603L16.5602 43.5003C16.8902 43.5903 17.2502 43.6203 17.6102 43.6203C20.1902 43.6203 22.2902 41.5203 22.2902 38.9703C22.2902 36.4203 20.1902 34.3203 17.6102 34.3203C15.0302 34.3203 12.9302 36.4203 12.9302 38.9703C12.9302 39.3003 12.9602 39.6303 13.0502 39.9603L14.8202 39.5703Z" fill="#0066FF"/>
<path d="M56.1299 56.79H54.2999V59.58H52.4399V61.38H54.2999V63.24C54.2999 64.35 54.9899 66 56.9099 66H57.9899V64.2H56.9099C56.2499 64.2 56.1299 63.6 56.1299 63.27V61.41H57.9899V59.61H56.1299V56.79Z" fill="#0066FF"/>
</svg>
