<svg width="73" height="72" viewBox="0 0 73 72" fill="none" xmlns="http://www.w3.org/2000/svg">
<path d="M36.8165 42.27H33.8165L28.8365 36.06L31.1765 33.6L35.0465 36.87L41.7365 28.98L45.3965 32.22L36.8165 42.27ZM34.6865 40.5H36.0065L42.8765 32.46L41.9165 31.62L35.2565 39.48L31.3265 36.12L31.2365 36.21L34.6865 40.5Z" fill="white" fill-opacity="0.4"/>
<path d="M41.1365 66H32.1965L29.8265 59.37L24.9665 57.36L18.6065 60.39L12.2765 54.06L15.3065 47.7L13.2965 42.84L6.6665 40.47V31.53L13.2965 29.16L15.3065 24.3L12.2765 17.94L18.6065 11.61L24.9665 14.64L29.8265 12.63L32.1965 6H41.1365L43.5065 12.63L48.3665 14.64L54.7265 11.61L61.0565 17.94L58.0265 24.3L60.0365 29.16L66.6665 31.53V40.47L60.0365 42.84L58.0265 47.7L61.0565 54.06L54.7265 60.39L48.3665 57.36L43.5065 59.37L41.1365 66ZM33.4565 64.2H39.8765L42.0965 57.99L48.4265 55.38L54.3665 58.2L58.8965 53.67L56.0765 47.73L58.6865 41.4L64.8965 39.21V32.79L58.6865 30.6L56.0765 24.27L58.8965 18.33L54.3365 13.8L48.3965 16.62L42.0665 14.01L39.8765 7.8H33.4565L31.2665 14.01L24.9365 16.62L18.9965 13.8L14.4665 18.33L17.2865 24.27L14.6765 30.6L8.4665 32.79V39.21L14.6765 41.43L17.2865 47.76L14.4665 53.67L18.9965 58.2L24.9365 55.38L31.2665 57.99L33.4565 64.2Z" fill="white" fill-opacity="0.4"/>
<path d="M36.6665 48.66C29.4065 48.66 23.4965 42.75 23.4965 35.49C23.4965 28.23 29.4065 22.32 36.6665 22.32C43.9265 22.32 49.8365 28.23 49.8365 35.49C49.8365 42.75 43.9265 48.66 36.6665 48.66ZM36.6665 24.12C30.3965 24.12 25.2965 29.22 25.2965 35.49C25.2965 41.76 30.3965 46.86 36.6665 46.86C42.9365 46.86 48.0365 41.76 48.0365 35.49C48.0365 29.22 42.9365 24.12 36.6665 24.12Z" fill="white" fill-opacity="0.4"/>
<path d="M53.8865 30.51C52.7765 26.61 50.3165 23.19 46.9865 20.85L48.0065 19.38C51.6665 21.96 54.3665 25.74 55.5965 30.03L53.8865 30.51Z" fill="white" fill-opacity="0.4"/>
<path d="M22.8065 24.12L21.3965 22.98C25.1765 18.39 30.7265 15.75 36.6665 15.75C39.7865 15.75 42.7565 16.44 45.5165 17.85L44.7065 19.44C42.2165 18.21 39.4865 17.55 36.6665 17.55C31.2665 17.55 26.2265 19.95 22.8065 24.12Z" fill="white" fill-opacity="0.4"/>
<path d="M18.8465 43.98C17.5865 41.31 16.9265 38.46 16.9265 35.49H18.7265C18.7265 38.19 19.2965 40.77 20.4665 43.2L18.8465 43.98Z" fill="white" fill-opacity="0.4"/>
<path d="M36.6665 55.23C30.2765 55.23 24.2465 52.11 20.5565 46.89L22.0265 45.84C25.8665 51.27 32.5565 54.18 39.1865 53.25L39.4265 55.02C38.4965 55.17 37.5965 55.23 36.6665 55.23Z" fill="white" fill-opacity="0.4"/>
<path d="M43.9565 53.82L43.2965 52.14C50.1665 49.41 54.6065 42.87 54.6065 35.46H56.4065C56.4065 43.62 51.5165 50.82 43.9565 53.82Z" fill="white" fill-opacity="0.4"/>
</svg>
