<svg width="73" height="72" viewBox="0 0 73 72" fill="none" xmlns="http://www.w3.org/2000/svg">
<path d="M53.3166 26.4051C51.7211 26.4052 50.1649 26.9006 48.8628 27.8229L42.9444 25.4601C43.0839 25.0383 43.0757 24.5816 42.9211 24.1651C42.7665 23.7486 42.4748 23.3971 42.0939 23.1684L49.3119 10.6698L40.9713 5.84998L33.7533 18.3486C33.5351 18.221 33.2937 18.1381 33.0431 18.1047C32.7925 18.0713 32.5378 18.088 32.2937 18.154C32.0497 18.2199 31.8212 18.3337 31.6215 18.4888C31.4219 18.6438 31.255 18.8371 31.1307 19.0572L23.9127 31.5558C23.7824 31.7743 23.6972 32.0167 23.6623 32.2688C23.6275 32.5208 23.6435 32.7773 23.7097 33.023C23.7758 33.2687 23.8906 33.4986 24.0472 33.699C24.2039 33.8995 24.3992 34.0665 24.6216 34.1901L22.6962 37.5216L31.0245 42.33L32.9499 39C33.1679 39.1287 33.4094 39.2124 33.6602 39.2464C33.911 39.2804 34.1661 39.2639 34.4104 39.1979C34.6548 39.1319 34.8835 39.0177 35.083 38.862C35.2826 38.7063 35.449 38.5123 35.5725 38.2914L39.7074 31.1325L45.6375 33.5304C45.5444 34.5557 45.6654 35.5891 45.9929 36.5652C46.3203 37.5413 46.847 38.4386 47.5395 39.2004L40.5459 57.2037H27.327V54.3213H31.1781C31.6888 54.3212 32.1784 54.1183 32.5395 53.7573C32.9006 53.3962 33.1035 52.9065 33.1035 52.3959V48.5433H15.7866V52.3947C15.7868 52.9053 15.9897 53.395 16.3509 53.7561C16.712 54.1171 17.2017 54.32 17.7123 54.3201H21.5619V57.2025H12.9027V62.01C12.9855 63.63 14.0127 65.1525 16.7538 64.8924V65.8494H18.6795V64.8924H47.5512V65.8494H49.4766V64.8924C52.1109 65.1879 53.3277 63.5931 53.3277 62.01V57.2025H48.4137L54.4857 41.7153C56.4068 41.424 58.1467 40.4171 59.3563 38.8966C60.566 37.3761 61.156 35.4544 61.0079 33.517C60.8599 31.5797 59.9848 29.77 58.5581 28.4509C57.1314 27.1319 55.2596 26.401 53.3166 26.4051ZM17.7108 52.3947V50.469H31.1781V52.3947H25.4013V57.2025H23.4876V52.3947H17.7108ZM41.6682 8.48428L46.6653 11.3667L45.2253 13.8714L40.2282 10.9887L41.6682 8.48428ZM39.2703 12.6426L44.2671 15.537L40.4166 22.2L36.8727 20.1564L35.4195 19.3164L39.2703 12.6426ZM31.2726 38.0295L30.3156 39.6951L25.3185 36.8127L26.2755 35.1471L31.2726 38.0295ZM33.9069 37.3326L25.5786 32.5245L32.7966 20.0259L41.1249 24.834L33.9069 37.3326ZM51.3906 59.1282V62.01C51.3899 62.2635 51.2888 62.5064 51.1096 62.6857C50.9303 62.865 50.6875 62.9661 50.4339 62.967H15.7866C15.5331 62.9662 15.2901 62.8651 15.1108 62.6858C14.9315 62.5065 14.8304 62.2635 14.8296 62.01V59.1276L51.3906 59.1282ZM53.1036 39.8961L46.3236 57.2025H42.6135L49.7835 38.7147C48.8404 37.9729 48.143 36.9639 47.7826 35.8194C47.4221 34.675 47.4154 33.4484 47.7633 32.3001L40.7109 29.4531L41.9985 27.1494L49.1685 30.0201C50.2835 28.9617 51.7544 28.359 53.2914 28.3308C54.0579 28.3325 54.8164 28.4865 55.5228 28.7838C56.2292 29.0812 56.8694 29.516 57.4063 30.063C57.9433 30.6099 58.3661 31.2581 58.6503 31.9699C58.9345 32.6817 59.0744 33.4429 59.0619 34.2093C59.0494 34.9756 58.8847 35.7318 58.5774 36.434C58.27 37.1361 57.8262 37.7702 57.2717 38.2993C56.7172 38.8284 56.0631 39.242 55.3474 39.5162C54.6316 39.7903 53.8697 39.9194 53.1036 39.8961Z" fill="white" fill-opacity="0.4"/>
<path d="M53.3166 30.2565C52.555 30.2565 51.8104 30.4823 51.1771 30.9055C50.5438 31.3287 50.0502 31.9301 49.7587 32.6338C49.4672 33.3375 49.3909 34.1118 49.5395 34.8589C49.6881 35.6059 50.0549 36.2921 50.5935 36.8307C51.1321 37.3693 51.8183 37.7361 52.5653 37.8847C53.3124 38.0333 54.0867 37.957 54.7904 37.6655C55.4941 37.374 56.0956 36.8804 56.5187 36.2471C56.9419 35.6138 57.1677 34.8692 57.1677 34.1076C57.1676 33.0862 56.7618 32.1068 56.0396 31.3846C55.3174 30.6624 54.338 30.2566 53.3166 30.2565ZM53.3166 36.033C52.9358 36.033 52.5634 35.9201 52.2467 35.7086C51.9299 35.497 51.6831 35.1962 51.5373 34.8443C51.3915 34.4925 51.3533 34.1052 51.4276 33.7317C51.5019 33.3581 51.6853 33.0149 51.9547 32.7456C52.224 32.4763 52.5672 32.2929 52.9407 32.2186C53.3143 32.1443 53.7015 32.1824 54.0534 32.3282C54.4053 32.474 54.7061 32.7209 54.9176 33.0376C55.1292 33.3543 55.2421 33.7267 55.242 34.1076C55.2419 34.6182 55.039 35.1078 54.6779 35.4689C54.3169 35.8299 53.8272 36.0328 53.3166 36.033Z" fill="white" fill-opacity="0.4"/>
<path d="M33.9525 25.6892L34.9152 24.0219L36.5826 24.9846L35.6199 26.6522L33.9525 25.6892Z" fill="white" fill-opacity="0.4"/>
<path d="M33.6858 29.9958L32.0181 29.0331L32.9808 27.3654L34.6485 28.3281L33.6858 29.9958Z" fill="white" fill-opacity="0.4"/>
<path d="M31.7665 33.32L30.0988 32.3573L31.0618 30.6899L32.7292 31.6526L31.7665 33.32Z" fill="white" fill-opacity="0.4"/>
</svg>
