<svg width="73" height="72" viewBox="0 0 73 72" fill="none" xmlns="http://www.w3.org/2000/svg">
<path d="M56.9176 32.61L50.6776 21C50.6072 20.8451 50.493 20.7142 50.349 20.6236C50.205 20.5329 50.0376 20.4865 49.8676 20.49H23.7376C23.5726 20.4923 23.4116 20.5415 23.2735 20.6318C23.1354 20.7221 23.0258 20.8498 22.9576 21L16.4176 32.61C16.3302 32.7549 16.2841 32.9208 16.2841 33.09C16.2841 33.2592 16.3302 33.4251 16.4176 33.57V33.72L36.6676 59.13L56.8276 33.72V33.57C56.9149 33.4251 56.961 33.2592 56.961 33.09C56.961 32.9208 56.9149 32.7549 56.8276 32.61H56.9176ZM54.5176 32.13H44.8576L49.8076 23.37L54.6676 32.13H54.5176ZM36.6676 23.46L41.5576 32.13H31.8676L36.6676 23.46ZM30.2176 31.17L25.3276 22.5H35.1376L30.2176 31.17ZM38.3476 22.5H48.1576L43.2376 31.17L38.3476 22.5ZM41.9176 34.05L36.6676 54L31.4176 34.08L41.9176 34.05ZM34.6276 53.52L19.1776 34.05H29.4976L34.6276 53.52ZM43.8376 34.05H54.1576L38.7076 53.52L43.8376 34.05ZM23.7376 23.46L28.5976 32.13H18.8476L23.7376 23.46ZM36.6676 6C28.8828 6.18107 21.487 9.43998 16.1002 15.063C10.7134 20.6859 7.77464 28.2146 7.92756 36C7.77464 43.7854 10.7134 51.3141 16.1002 56.937C21.487 62.56 28.8828 65.8189 36.6676 66C44.4523 65.8189 51.8481 62.56 57.2349 56.937C62.6217 51.3141 65.5605 43.7854 65.4076 36C65.5605 28.2146 62.6217 20.6859 57.2349 15.063C51.8481 9.43998 44.4523 6.18107 36.6676 6ZM36.6676 64.05C29.3683 63.9081 22.4241 60.8738 17.3612 55.614C12.2983 50.3542 9.53098 43.2993 9.66756 36C9.53098 28.7007 12.2983 21.6458 17.3612 16.386C22.4241 11.1262 29.3683 8.09187 36.6676 7.95C43.9668 8.09187 50.911 11.1262 55.9739 16.386C61.0368 21.6458 63.8041 28.7007 63.6676 36C63.8041 43.2993 61.0368 50.3542 55.9739 55.614C50.911 60.8738 43.9668 63.9081 36.6676 64.05Z" fill="white" fill-opacity="0.4"/>
</svg>
