<svg width="73" height="72" viewBox="0 0 73 72" fill="none" xmlns="http://www.w3.org/2000/svg">
<path d="M49.2534 64.0626H8.61212V7.9374H34.7379V22.4529H49.2534V24.2481H51.1905V21.0828L36.108 6H6.67532V66H51.1905V54.39H49.2534V64.0626ZM36.6747 9.3075L47.8833 20.5158H36.6747V9.3075Z" fill="white" fill-opacity="0.4"/>
<path d="M17.6001 28.5474L13.4547 32.6928L12.2028 31.44L10.8327 32.8101L13.4547 35.4321L18.9702 29.9055L17.6001 28.5474Z" fill="white" fill-opacity="0.4"/>
<path d="M17.6001 41.1258L13.4547 45.2715L12.2028 44.0196L10.8327 45.3897L13.4547 48.0117L18.9702 42.4959L17.6001 41.1258Z" fill="white" fill-opacity="0.4"/>
<path d="M12.2028 56.61L10.8327 57.9681L13.4547 60.5904L18.9702 55.0746L17.6001 53.7045L13.4547 57.8619L12.2028 56.61Z" fill="white" fill-opacity="0.4"/>
<path d="M21.1908 31.1574H43.4424V33.0945H21.1908V31.1574Z" fill="white" fill-opacity="0.4"/>
<path d="M17.6001 14.9115L13.4547 19.0572L12.2028 17.8053L10.8327 19.1754L13.4547 21.7974L18.9702 16.2699L17.6001 14.9115Z" fill="white" fill-opacity="0.4"/>
<path d="M21.1908 17.5326H31.4466V19.4589H21.1908V17.5326Z" fill="white" fill-opacity="0.4"/>
<path d="M21.1908 44.7045H38.6118V46.6416H21.1908V44.7045Z" fill="white" fill-opacity="0.4"/>
<path d="M21.1908 58.2516H35.7066V60.1887H21.1908V58.2516Z" fill="white" fill-opacity="0.4"/>
<path d="M66.6273 26.1024C66.5638 25.7256 66.4255 25.3653 66.2206 25.0428C66.0157 24.7203 65.7483 24.442 65.4342 24.2244L62.2689 22.0044C61.9565 21.7844 61.6037 21.6283 61.2307 21.5452C60.8577 21.4621 60.472 21.4536 60.0957 21.5202C59.719 21.5837 59.3588 21.7219 59.0363 21.9268C58.7138 22.1316 58.4356 22.399 58.218 22.713L57.108 24.3075L53.9427 22.0875L47.2812 31.5954L48.864 32.7054L54.414 24.7803L55.9965 25.8903L39.2133 49.8663L37.6305 60.567L47.1501 55.4175L66.1539 28.2759C66.3722 27.9628 66.5264 27.6095 66.6075 27.2366C66.6886 26.8636 66.6959 26.4779 66.6273 26.1024ZM40.1118 57.0234L40.8666 51.921L44.6466 54.5667L40.1118 57.0234ZM46.2417 53.3265L41.4819 49.9965L45.9219 43.6539L50.6817 46.9839L46.2417 53.3265ZM51.7917 45.3897L47.0319 42.0597L57.5802 27L62.34 30.33L51.7917 45.3897ZM64.5591 27.1653L63.4491 28.7481L58.6893 25.4181L59.7993 23.8353C59.8722 23.7314 59.9649 23.6428 60.072 23.5747C60.1791 23.5066 60.2986 23.4602 60.4236 23.4383C60.5487 23.4164 60.6768 23.4193 60.8007 23.4469C60.9246 23.4745 61.0418 23.5263 61.1457 23.5992L64.311 25.8192C64.5224 25.9667 64.6668 26.1917 64.7127 26.4453C64.7407 26.5693 64.7414 26.6978 64.7149 26.8221C64.6884 26.9464 64.6352 27.0635 64.5591 27.1653Z" fill="white" fill-opacity="0.4"/>
</svg>
