<svg width="72" height="72" viewBox="0 0 72 72" fill="none" xmlns="http://www.w3.org/2000/svg">
<path d="M34.4708 27C34.6289 27.2738 34.8563 27.5011 35.1301 27.6591C35.404 27.8171 35.7146 27.9002 36.0308 27.9C36.3459 27.8951 36.655 27.8127 36.9308 27.66C37.2068 27.5042 37.435 27.276 37.5908 27L41.5208 20.22C41.6837 19.8306 41.7069 19.3969 41.5867 18.9923C41.4664 18.5877 41.2099 18.2372 40.8608 18C40.5794 17.8343 40.2572 17.7512 39.9308 17.76H39.4508V6H32.5808V17.61H32.1008C31.6234 17.61 31.1656 17.7996 30.828 18.1372C30.4904 18.4748 30.3008 18.9326 30.3008 19.41C30.3057 19.7252 30.3881 20.0342 30.5408 20.31L34.4708 27ZM38.4908 19.44H39.7208L36.0008 25.95L32.3108 19.53H33.5708C33.823 19.5225 34.0628 19.4189 34.2413 19.2405C34.4197 19.062 34.5232 18.8222 34.5308 18.57V7.92H37.5308V18.57C37.5383 18.8222 37.6419 19.062 37.8203 19.2405C37.9987 19.4189 38.2386 19.5225 38.4908 19.53V19.44Z" fill="#0066FF"/>
<path d="M64.7689 38.52C64.6132 38.2441 64.3863 38.0151 64.1119 37.8568C63.8375 37.6985 63.5257 37.6167 63.2089 37.62H62.7289V26.01H55.8589V37.62H55.3789C55.1425 37.62 54.9085 37.6666 54.6901 37.757C54.4717 37.8475 54.2733 37.9801 54.1061 38.1472C53.939 38.3144 53.8064 38.5128 53.7159 38.7312C53.6255 38.9496 53.5789 39.1836 53.5789 39.42C53.5691 39.737 53.6525 40.05 53.8189 40.32L57.7189 47.1C57.8841 47.3742 58.1172 47.601 58.3958 47.7587C58.6743 47.9164 58.9888 47.9995 59.3089 48C59.6236 47.9916 59.9318 47.9094 60.2089 47.76C60.4784 47.5957 60.7046 47.3695 60.8689 47.1L64.7689 40.32C64.9299 40.0474 65.0148 39.7366 65.0148 39.42C65.0148 39.1034 64.9299 38.7926 64.7689 38.52ZM57.7789 38.52V27.93H60.7789V38.58C60.7789 38.8346 60.88 39.0788 61.0601 39.2588C61.2401 39.4389 61.4843 39.54 61.7389 39.54H62.9989L59.2789 45.96L55.5889 39.54H56.8189C57.0735 39.54 57.3177 39.4389 57.4977 39.2588C57.6778 39.0788 57.7789 38.8346 57.7789 38.58V38.52Z" fill="#0066FF"/>
<path d="M40.92 38.34C38.9601 37.3415 36.7337 36.9915 34.562 37.3403C32.3903 37.6891 30.3856 38.7188 28.8369 40.2807C27.2883 41.8427 26.2759 43.8562 25.9457 46.0309C25.6156 48.2055 25.9847 50.4288 27 52.38C27.8788 54.2261 29.3601 55.718 31.2 56.61C33.1637 57.6319 35.402 58.0012 37.5898 57.6643C39.7777 57.3274 41.8012 56.3019 43.3665 54.7366C44.9318 53.1713 45.9574 51.1477 46.2943 48.9599C46.6312 46.772 46.2619 44.5337 45.24 42.57C44.3308 40.704 42.8047 39.2096 40.92 38.34ZM43.41 43.44C44.2532 45.0383 44.5624 46.8646 44.2924 48.6515C44.0223 50.4383 43.1873 52.0917 41.9095 53.3695C40.6316 54.6473 38.9782 55.4823 37.1914 55.7524C35.4046 56.0224 33.5783 55.7132 31.98 54.87C30.5246 54.1551 29.3518 52.9717 28.65 51.51C27.8068 49.9117 27.4976 48.0853 27.7676 46.2985C28.0376 44.5117 28.8727 42.8583 30.1505 41.5805C31.4283 40.3027 33.0817 39.4676 34.8685 39.1976C36.6553 38.9276 38.4816 39.2368 40.08 40.08C41.5353 40.7949 42.7082 41.9783 43.41 43.44Z" fill="#0066FF"/>
<path d="M17.58 37.86C17.31 37.6936 16.997 37.6102 16.68 37.62H16.2V26.01H9.33V37.62H9C8.52261 37.62 8.06477 37.8097 7.72721 38.1472C7.38964 38.4848 7.2 38.9426 7.2 39.42C7.19017 39.737 7.27362 40.05 7.44 40.32L11.34 47.1C11.5298 47.5141 11.8745 47.8372 12.3 48H12.75C13.0695 47.9966 13.3829 47.9123 13.661 47.7549C13.939 47.5975 14.1727 47.3722 14.34 47.1L18.24 40.32C18.3624 40.1162 18.4425 39.8899 18.4755 39.6545C18.5086 39.4191 18.4939 39.1795 18.4323 38.9499C18.3707 38.7203 18.2635 38.5055 18.117 38.3182C17.9706 38.131 17.788 37.9751 17.58 37.86ZM15.24 39.54H16.47L12.75 45.96L9 39.54H10.23C10.4846 39.54 10.7288 39.4389 10.9088 39.2588C11.0889 39.0788 11.19 38.8346 11.19 38.58V27.93H14.19V38.58C14.1894 38.714 14.2169 38.8467 14.2707 38.9694C14.3244 39.0922 14.4033 39.2023 14.5022 39.2927C14.6011 39.3832 14.7179 39.4519 14.8449 39.4945C14.972 39.5371 15.1066 39.5526 15.24 39.54Z" fill="#0066FF"/>
<path d="M53.1883 44.25L51.5383 43.74C51.1676 42.1157 50.5288 40.5644 49.6483 39.15L50.4283 37.62C50.6236 37.2523 50.6941 36.8311 50.6292 36.4199C50.5642 36.0086 50.3674 35.6296 50.0683 35.34L48.1783 33.42C47.8789 33.1266 47.4952 32.9342 47.081 32.8696C46.6668 32.8051 46.2428 32.8716 45.8683 33.06L44.3683 33.87C42.9525 32.9853 41.4023 32.3368 39.7783 31.95L39.2383 30.33C39.1252 29.9263 38.8811 29.5716 38.5444 29.3217C38.2077 29.0719 37.7975 28.9411 37.3783 28.95H34.6783C34.2591 28.9411 33.8489 29.0719 33.5121 29.3217C33.1754 29.5716 32.9313 29.9263 32.8183 30.33L32.3083 31.95C30.6787 32.3338 29.1196 32.9716 27.6883 33.84L26.1583 33C25.7894 32.8095 25.3694 32.7417 24.9593 32.8064C24.5492 32.8712 24.1705 33.0651 23.8783 33.36L21.9883 35.28C21.6803 35.564 21.4772 35.9436 21.4118 36.3574C21.3465 36.7712 21.4228 37.195 21.6283 37.56L22.4083 39.09C21.5255 40.5067 20.8771 42.0567 20.4883 43.68L18.8683 44.19C18.4697 44.3215 18.1224 44.5745 17.8749 44.9135C17.6274 45.2524 17.4922 45.6603 17.4883 46.08V48.75C17.4922 49.1697 17.6274 49.5776 17.8749 49.9165C18.1224 50.2555 18.4697 50.5085 18.8683 50.64L20.4883 51.15C20.8825 52.7716 21.5305 54.3207 22.4083 55.74L21.6283 57.27C21.4293 57.6346 21.3538 58.0539 21.4133 58.465C21.4728 58.8761 21.664 59.2568 21.9583 59.55L23.8783 61.47C24.1777 61.7634 24.5614 61.9558 24.9756 62.0204C25.3898 62.0849 25.8138 62.0184 26.1883 61.83L27.6883 61.02C29.104 61.9047 30.6543 62.5532 32.2783 62.94L32.8183 64.56C32.9313 64.9638 33.1754 65.3185 33.5121 65.5683C33.8489 65.8181 34.2591 65.9489 34.6783 65.94H37.3783C37.7975 65.9489 38.2077 65.8181 38.5444 65.5683C38.8811 65.3185 39.1252 64.9638 39.2383 64.56L39.7483 62.94C41.3779 62.5562 42.9369 61.9184 44.3683 61.05L45.8683 61.83C46.2428 62.0184 46.6668 62.0849 47.081 62.0204C47.4952 61.9558 47.8789 61.7634 48.1783 61.47L50.0683 59.55C50.3674 59.2604 50.5642 58.8814 50.6292 58.4701C50.6941 58.0589 50.6236 57.6377 50.4283 57.27L49.6483 55.74C50.5165 54.3193 51.1544 52.7701 51.5383 51.15L53.1883 50.64C53.5813 50.5129 53.9238 50.2643 54.1664 49.93C54.409 49.5957 54.5393 49.1931 54.5383 48.78V46.08C54.5286 45.6732 54.3938 45.2793 54.1522 44.9519C53.9106 44.6244 53.5741 44.3794 53.1883 44.25ZM49.7983 50.25C49.4178 52.013 48.7161 53.691 47.7283 55.2C47.6469 55.3523 47.6043 55.5223 47.6043 55.695C47.6043 55.8677 47.6469 56.0377 47.7283 56.19L48.7783 58.23L46.8283 60.15L44.8183 59.1C44.6678 59.0131 44.4971 58.9674 44.3233 58.9674C44.1495 58.9674 43.9788 59.0131 43.8283 59.1C42.3241 60.0906 40.6436 60.7831 38.8783 61.14C38.7102 61.1755 38.5547 61.2555 38.4281 61.3716C38.3014 61.4877 38.2083 61.6356 38.1583 61.8L37.4383 63.99H34.7083L34.0183 61.83C33.9656 61.6671 33.8715 61.5207 33.7453 61.405C33.6191 61.2894 33.4651 61.2084 33.2983 61.17C31.5236 60.8132 29.8333 60.1208 28.3183 59.13C28.1739 59.0133 27.9939 58.9498 27.8083 58.95C27.6621 58.9019 27.5044 58.9019 27.3583 58.95L25.3183 59.97L23.3983 58.05L24.4183 56.01C24.5056 55.8651 24.5517 55.6992 24.5517 55.53C24.5517 55.3608 24.5056 55.1949 24.4183 55.05C23.4061 53.5431 22.7025 51.8505 22.3483 50.07C22.3159 49.9006 22.237 49.7435 22.1204 49.6164C22.0039 49.4892 21.8542 49.397 21.6883 49.35L19.5283 48.63V45.9L21.6583 45.21C21.8277 45.1698 21.9812 45.0797 22.0989 44.9514C22.2165 44.823 22.293 44.6623 22.3183 44.49C22.6725 42.7188 23.3762 41.0361 24.3883 39.54C24.4697 39.3877 24.5123 39.2177 24.5123 39.045C24.5123 38.8723 24.4697 38.7023 24.3883 38.55L23.3383 36.51L25.2883 34.59L27.2983 35.64C27.4488 35.7269 27.6195 35.7726 27.7933 35.7726C27.9671 35.7726 28.1378 35.7269 28.2883 35.64C29.7925 34.6495 31.4729 33.9569 33.2383 33.6C33.4064 33.5645 33.5618 33.4845 33.6885 33.3684C33.8151 33.2523 33.9083 33.1044 33.9583 32.94L34.6783 30.75H37.4083L38.0983 32.91C38.1483 33.0744 38.2414 33.2223 38.3681 33.3384C38.4947 33.4545 38.6502 33.5345 38.8183 33.57C40.5836 33.9269 42.2641 34.6195 43.7683 35.61C43.9188 35.6969 44.0895 35.7426 44.2633 35.7426C44.4371 35.7426 44.6078 35.6969 44.7583 35.61L46.7983 34.59L48.7183 36.54L47.6683 38.55C47.5869 38.6969 47.5441 38.8621 47.5441 39.03C47.5441 39.1979 47.5869 39.3631 47.6683 39.51C48.6755 41.0087 49.3788 42.6905 49.7383 44.46C49.7663 44.6301 49.8396 44.7894 49.9504 44.9214C50.0613 45.0534 50.2056 45.1531 50.3683 45.21L52.5583 45.93V48.63L50.3683 49.35C50.1815 49.4168 50.0231 49.5454 49.9194 49.7146C49.8158 49.8837 49.773 50.0832 49.7983 50.28V50.25Z" fill="#0066FF"/>
</svg>
