<svg width="72" height="72" viewBox="0 0 72 72" fill="none" xmlns="http://www.w3.org/2000/svg">
<path d="M38.1603 63.6H37.7403L21.4203 56.25C21.2438 56.1744 21.0931 56.049 20.9865 55.8892C20.88 55.7294 20.8222 55.5421 20.8203 55.35V52.35C20.8203 52.0875 20.9246 51.8356 21.1103 51.65C21.2959 51.4643 21.5477 51.36 21.8103 51.36C22.0729 51.36 22.3247 51.4643 22.5103 51.65C22.696 51.8356 22.8003 52.0875 22.8003 52.35V54.72L37.1703 61.11V10.89L22.8003 17.28V19.65C22.8003 19.9126 22.696 20.1644 22.5103 20.3501C22.3247 20.5357 22.0729 20.64 21.8103 20.64C21.5477 20.64 21.2959 20.5357 21.1103 20.3501C20.9246 20.1644 20.8203 19.9126 20.8203 19.65V16.65C20.8242 16.4622 20.8832 16.2797 20.9898 16.125C21.0965 15.9704 21.2461 15.8504 21.4203 15.78L37.7403 8.49003C37.8842 8.41631 38.0436 8.37787 38.2053 8.37787C38.367 8.37787 38.5264 8.41631 38.6703 8.49003C38.8096 8.57393 38.9244 8.69287 39.0034 8.83499C39.0823 8.97712 39.1227 9.13746 39.1203 9.30003V62.64C39.1227 62.8026 39.0823 62.9629 39.0034 63.1051C38.9244 63.2472 38.8096 63.3661 38.6703 63.45C38.5231 63.5582 38.3426 63.6113 38.1603 63.6Z" fill="white" fill-opacity="0.4"/>
<path d="M27.2383 52.35H27.2683" stroke="white" stroke-opacity="0.4" stroke-miterlimit="10"/>
<path d="M65.0106 37.89C63.9168 37.8824 62.8584 37.5013 62.0106 36.81C61.5113 36.351 60.8589 36.0944 60.1806 36.09C59.4931 36.0927 58.8307 36.349 58.3206 36.81C57.479 37.513 56.4172 37.898 55.3206 37.898C54.224 37.898 53.1623 37.513 52.3206 36.81C51.8105 36.349 51.1482 36.0927 50.4606 36.09C49.7824 36.0944 49.13 36.351 48.6306 36.81C47.7829 37.5013 46.7245 37.8824 45.6306 37.89C45.3681 37.89 45.1163 37.7857 44.9306 37.6001C44.7449 37.4144 44.6406 37.1626 44.6406 36.9C44.6406 36.6375 44.7449 36.3857 44.9306 36.2C45.1163 36.0143 45.3681 35.91 45.6306 35.91C46.3089 35.9057 46.9612 35.649 47.4606 35.19C48.3047 34.4922 49.3655 34.1103 50.4606 34.11C51.5567 34.1052 52.6192 34.4877 53.4606 35.19C53.9642 35.6517 54.6225 35.9078 55.3056 35.9078C55.9888 35.9078 56.6471 35.6517 57.1506 35.19C57.9921 34.4877 59.0546 34.1052 60.1506 34.11C61.2445 34.1177 62.3029 34.4987 63.1506 35.19C63.65 35.649 64.3024 35.9057 64.9806 35.91C65.2432 35.91 65.495 36.0143 65.6807 36.2C65.8663 36.3857 65.9706 36.6375 65.9706 36.9C65.9706 37.1626 65.8663 37.4144 65.6807 37.6001C65.495 37.7857 65.2432 37.89 64.9806 37.89H65.0106Z" fill="white" fill-opacity="0.4"/>
<path d="M62.3388 26.1C61.2385 26.0991 60.1747 25.7054 59.3388 24.99C58.819 24.5449 58.1627 24.2909 57.4788 24.27C56.8005 24.2744 56.1481 24.531 55.6487 24.99C54.8051 25.6921 53.7462 26.0839 52.6487 26.1C51.5489 26.0964 50.486 25.7032 49.6487 24.99C49.1452 24.5283 48.4869 24.2722 47.8038 24.2722C47.1206 24.2722 46.4623 24.5283 45.9587 24.99C45.1215 25.7032 44.0586 26.0964 42.9587 26.1C42.6962 26.1 42.4444 25.9957 42.2587 25.8101C42.0731 25.6244 41.9687 25.3726 41.9688 25.11C41.9687 24.8475 42.0731 24.5956 42.2587 24.41C42.4444 24.2243 42.6962 24.12 42.9587 24.12C43.7046 24.1421 44.432 23.8854 44.9988 23.4C45.8404 22.6971 46.9022 22.312 47.9988 22.312C49.0953 22.312 50.1571 22.6971 50.9988 23.4C51.5089 23.861 52.1712 24.1174 52.8588 24.12C53.537 24.1157 54.1894 23.859 54.6887 23.4C55.5328 22.7022 56.5936 22.3203 57.6887 22.32C58.7848 22.3152 59.8473 22.6977 60.6887 23.4C61.1881 23.859 61.8405 24.1157 62.5188 24.12C62.7813 24.12 63.0331 24.2243 63.2188 24.41C63.4044 24.5956 63.5088 24.8475 63.5088 25.11C63.5088 25.3726 63.4044 25.6244 63.2188 25.8101C63.0331 25.9957 62.7813 26.1 62.5188 26.1H62.3388Z" fill="white" fill-opacity="0.4"/>
<path d="M62.3388 49.68C61.2423 49.6874 60.1789 49.3046 59.3388 48.6C58.819 48.1549 58.1627 47.9009 57.4788 47.88C56.8005 47.8844 56.1481 48.141 55.6487 48.6C54.801 49.2913 53.7426 49.6724 52.6487 49.68C51.5527 49.6848 50.4902 49.3023 49.6487 48.6C49.1452 48.1383 48.4869 47.8822 47.8038 47.8822C47.1206 47.8822 46.4623 48.1383 45.9587 48.6C45.1173 49.3023 44.0548 49.6848 42.9587 49.68C42.8302 49.684 42.7021 49.6622 42.5822 49.6157C42.4622 49.5693 42.3528 49.4992 42.2605 49.4097C42.1681 49.3201 42.0947 49.2129 42.0446 49.0945C41.9945 48.976 41.9687 48.8487 41.9688 48.72C41.9688 48.4575 42.0731 48.2056 42.2587 48.02C42.4444 47.8343 42.6962 47.73 42.9587 47.73C43.637 47.7257 44.2894 47.469 44.7888 47.01C45.6324 46.3079 46.6913 45.9161 47.7888 45.9C48.8886 45.9036 49.9515 46.2969 50.7888 47.01C51.2989 47.471 51.9612 47.7274 52.6487 47.73C53.327 47.7257 53.9794 47.469 54.4788 47.01C55.3186 46.3014 56.3799 45.9087 57.4788 45.9C58.5786 45.9036 59.6415 46.2969 60.4788 47.01C60.9781 47.469 61.6305 47.7257 62.3088 47.73C62.5713 47.73 62.8231 47.8343 63.0088 48.02C63.1944 48.2056 63.2988 48.4575 63.2988 48.72C63.2988 48.9746 63.1976 49.2188 63.0176 49.3988C62.8375 49.5789 62.5934 49.68 62.3388 49.68Z" fill="white" fill-opacity="0.4"/>
<path d="M21.8093 26.07C21.6628 26.0862 21.5145 26.0704 21.3747 26.0238C21.2348 25.9772 21.1068 25.9008 20.9993 25.8C20.8264 25.6118 20.7305 25.3655 20.7305 25.11C20.7305 24.8544 20.8264 24.6082 20.9993 24.42C21.1404 24.2854 21.3171 24.1941 21.5085 24.1569C21.6999 24.1197 21.898 24.1381 22.0793 24.21C22.2053 24.2508 22.3189 24.3231 22.4093 24.42C22.5058 24.5072 22.5829 24.6136 22.6357 24.7325C22.6885 24.8513 22.7157 24.9799 22.7157 25.11C22.7157 25.24 22.6885 25.3686 22.6357 25.4875C22.5829 25.6063 22.5058 25.7128 22.4093 25.8C22.3207 25.9059 22.2073 25.9883 22.0793 26.04L21.8093 26.07Z" fill="white" fill-opacity="0.4"/>
<path d="M21.8107 36.99C21.6766 36.9914 21.5437 36.9655 21.4199 36.9139C21.2961 36.8623 21.1841 36.7862 21.0907 36.69C21.0041 36.6027 20.9331 36.5012 20.8807 36.39C20.8002 36.1362 20.8002 35.8638 20.8807 35.61C20.9331 35.4988 21.0041 35.3973 21.0907 35.31C21.2305 35.1735 21.4057 35.0786 21.5965 35.0362C21.7873 34.9938 21.9862 35.0055 22.1707 35.07L22.5007 35.31C22.5872 35.3973 22.6583 35.4988 22.7107 35.61C22.7692 35.7317 22.7996 35.865 22.7996 36C22.7996 36.135 22.7692 36.2683 22.7107 36.39C22.6583 36.5012 22.5872 36.6027 22.5007 36.69C22.4141 36.7868 22.3076 36.8638 22.1885 36.9156C22.0694 36.9674 21.9405 36.9928 21.8107 36.99Z" fill="white" fill-opacity="0.4"/>
<path d="M21.8105 48C21.6823 48.0306 21.5487 48.0306 21.4205 48C21.242 47.9047 21.0958 47.7585 21.0005 47.58C20.8246 47.3936 20.7278 47.1463 20.7305 46.89C20.7291 46.625 20.8252 46.3687 21.0005 46.17C21.0986 46.0828 21.21 46.0119 21.3305 45.96C21.5118 45.8881 21.7099 45.8697 21.9013 45.9069C22.0927 45.9441 22.2694 46.0354 22.4105 46.17C22.5943 46.3658 22.7009 46.6216 22.7105 46.89C22.703 47.1502 22.5963 47.3976 22.4122 47.5817C22.2282 47.7657 21.9807 47.8724 21.7205 47.88L21.8105 48Z" fill="white" fill-opacity="0.4"/>
<path d="M29.2193 26.07C28.9532 26.0774 28.6949 25.9805 28.4993 25.8C28.3264 25.6118 28.2305 25.3655 28.2305 25.11C28.2305 24.8544 28.3264 24.6082 28.4993 24.42C28.6404 24.2854 28.8171 24.1941 29.0085 24.1569C29.1999 24.1197 29.398 24.1381 29.5793 24.21C29.7053 24.2508 29.8189 24.3231 29.9093 24.42C30.0058 24.5072 30.0829 24.6136 30.1357 24.7325C30.1885 24.8513 30.2157 24.9799 30.2157 25.11C30.2157 25.24 30.1885 25.3686 30.1357 25.4875C30.0829 25.6063 30.0058 25.7128 29.9093 25.8C29.8207 25.9059 29.7073 25.9883 29.5793 26.04L29.2193 26.07Z" fill="white" fill-opacity="0.4"/>
<path d="M29.2208 36.99C29.0868 36.9914 28.9538 36.9655 28.83 36.9139C28.7063 36.8623 28.5943 36.7862 28.5008 36.69C28.4143 36.6027 28.3432 36.5012 28.2908 36.39C28.2103 36.1362 28.2103 35.8638 28.2908 35.61C28.3432 35.4988 28.4143 35.3973 28.5008 35.31C28.6407 35.1735 28.8159 35.0786 29.0067 35.0362C29.1975 34.9938 29.3963 35.0055 29.5808 35.07L29.9108 35.31C29.9974 35.3973 30.0684 35.4988 30.1208 35.61C30.1793 35.7317 30.2097 35.865 30.2097 36C30.2097 36.135 30.1793 36.2683 30.1208 36.39C30.0684 36.5012 29.9974 36.6027 29.9108 36.69C29.8243 36.7868 29.7178 36.8638 29.5987 36.9156C29.4796 36.9674 29.3507 36.9928 29.2208 36.99Z" fill="white" fill-opacity="0.4"/>
<path d="M29.2205 48C29.0923 48.0306 28.9587 48.0306 28.8305 48C28.708 47.9519 28.5959 47.8806 28.5005 47.79C28.3246 47.6036 28.2278 47.3563 28.2305 47.1C28.2291 46.835 28.3252 46.5787 28.5005 46.38C28.5986 46.2928 28.71 46.2219 28.8305 46.17C29.0118 46.0981 29.2099 46.0797 29.4013 46.1169C29.5927 46.1541 29.7694 46.2454 29.9105 46.38C30.0943 46.5758 30.2009 46.8316 30.2105 47.1C30.203 47.3602 30.0963 47.6076 29.9122 47.7917C29.7281 47.9757 29.4807 48.0825 29.2205 48.09V48Z" fill="white" fill-opacity="0.4"/>
<path d="M14.6697 26.07C14.5422 26.0766 14.4146 26.0559 14.2957 26.0093C14.1767 25.9628 14.069 25.8914 13.9797 25.8C13.8069 25.6118 13.7109 25.3656 13.7109 25.11C13.7109 24.8545 13.8069 24.6082 13.9797 24.42C14.1115 24.2906 14.2779 24.2019 14.4588 24.1647C14.6397 24.1274 14.8275 24.1432 14.9997 24.21C15.1258 24.2508 15.2394 24.3231 15.3297 24.42C15.4262 24.5072 15.5034 24.6137 15.5561 24.7325C15.6089 24.8514 15.6362 24.98 15.6362 25.11C15.6362 25.2401 15.6089 25.3687 15.5561 25.4875C15.5034 25.6064 15.4262 25.7128 15.3297 25.8C15.2411 25.9059 15.1278 25.9883 14.9997 26.04L14.6697 26.07Z" fill="white" fill-opacity="0.4"/>
<path d="M14.6713 36.99C14.5412 36.9949 14.4116 36.9704 14.2922 36.9185C14.1728 36.8666 14.0665 36.7885 13.9813 36.69C13.8947 36.6027 13.8237 36.5013 13.7713 36.39C13.6908 36.1363 13.6908 35.8638 13.7713 35.61C13.8237 35.4988 13.8947 35.3973 13.9813 35.31C14.1118 35.1786 14.2766 35.0864 14.4569 35.044C14.6373 35.0016 14.8259 35.0106 15.0013 35.07L15.3313 35.31C15.4179 35.3973 15.4889 35.4988 15.5413 35.61C15.5998 35.7317 15.6302 35.865 15.6302 36C15.6302 36.1351 15.5998 36.2683 15.5413 36.39C15.4889 36.5013 15.4179 36.6027 15.3313 36.69C15.2481 36.7831 15.1465 36.8578 15.0328 36.9094C14.9192 36.9611 14.7961 36.9885 14.6713 36.99Z" fill="white" fill-opacity="0.4"/>
<path d="M14.671 48C14.5428 48.0306 14.4092 48.0306 14.281 48C14.281 48 14.101 48 13.981 47.79C13.8051 47.6036 13.7083 47.3563 13.711 47.1C13.7096 46.835 13.8057 46.5787 13.981 46.38C14.0629 46.2872 14.1657 46.2152 14.281 46.17C14.4623 46.0981 14.6603 46.0797 14.8517 46.1169C15.0431 46.1541 15.2199 46.2454 15.361 46.38C15.5448 46.5758 15.6514 46.8316 15.661 47.1C15.6534 47.3602 15.5467 47.6076 15.3627 47.7917C15.1786 47.9757 14.9312 48.0825 14.671 48.09V48Z" fill="white" fill-opacity="0.4"/>
<path d="M6.9888 26.07C6.72277 26.0774 6.46439 25.9805 6.2688 25.8C6.09593 25.6118 6 25.3655 6 25.11C6 24.8544 6.09593 24.6082 6.2688 24.42C6.40991 24.2854 6.58665 24.1941 6.77806 24.1569C6.96947 24.1197 7.16754 24.1381 7.3488 24.21C7.47485 24.2508 7.58842 24.3231 7.6788 24.42C7.77529 24.5072 7.85241 24.6136 7.9052 24.7325C7.95799 24.8513 7.98526 24.9799 7.98526 25.11C7.98526 25.24 7.95799 25.3686 7.9052 25.4875C7.85241 25.6063 7.77529 25.7128 7.6788 25.8C7.5902 25.9059 7.47686 25.9883 7.3488 26.04L6.9888 26.07Z" fill="white" fill-opacity="0.4"/>
<path d="M6.99105 16.38C6.85647 16.3851 6.72239 16.3609 6.59808 16.3091C6.47377 16.2573 6.36219 16.1791 6.27105 16.08C6.18039 15.9965 6.1092 15.8941 6.06254 15.78C6.01588 15.666 5.99489 15.5431 6.00105 15.42C5.9981 15.2928 6.02045 15.1663 6.0668 15.0479C6.11315 14.9294 6.18258 14.8214 6.27105 14.73C6.41217 14.5954 6.5889 14.5041 6.78031 14.4669C6.97172 14.4297 7.16979 14.4481 7.35105 14.52C7.4771 14.5608 7.59067 14.6331 7.68105 14.73C7.86796 14.9115 7.97575 15.1595 7.98105 15.42C7.98144 15.5451 7.95485 15.6688 7.90307 15.7827C7.8513 15.8966 7.77557 15.998 7.68105 16.08C7.59245 16.1859 7.47911 16.2683 7.35105 16.32L6.99105 16.38Z" fill="white" fill-opacity="0.4"/>
<path d="M6.99037 36.99C6.85629 36.9914 6.72334 36.9655 6.59958 36.9139C6.47581 36.8623 6.36381 36.7862 6.27037 36.69C6.1838 36.6027 6.11278 36.5012 6.06037 36.39C5.97988 36.1362 5.97988 35.8638 6.06037 35.61C6.11278 35.4988 6.1838 35.3973 6.27037 35.31C6.41021 35.1735 6.58539 35.0786 6.77619 35.0362C6.967 34.9938 7.16585 35.0055 7.35037 35.07L7.68037 35.31C7.76693 35.3973 7.83795 35.4988 7.89037 35.61C7.94888 35.7317 7.97926 35.865 7.97926 36C7.97926 36.135 7.94888 36.2683 7.89037 36.39C7.83795 36.5012 7.76693 36.6027 7.68037 36.69C7.59381 36.7868 7.48732 36.8638 7.36822 36.9156C7.24911 36.9674 7.12021 36.9928 6.99037 36.99Z" fill="white" fill-opacity="0.4"/>
<path d="M6.9908 48C6.8626 48.0306 6.729 48.0306 6.6008 48C6.47828 47.9519 6.36622 47.8806 6.2708 47.79C6.15477 47.6741 6.06935 47.5311 6.02222 47.374C5.97509 47.217 5.96773 47.0506 6.0008 46.89C5.99942 46.625 6.09551 46.3687 6.2708 46.17C6.36889 46.0828 6.4803 46.0119 6.6008 45.96C6.78206 45.8881 6.98013 45.8697 7.17154 45.9069C7.36295 45.9441 7.53968 46.0354 7.6808 46.17C7.86461 46.3658 7.97119 46.6216 7.9808 46.89C7.97325 47.1502 7.86653 47.3976 7.68248 47.5817C7.49843 47.7657 7.25098 47.8724 6.9908 47.88V48Z" fill="white" fill-opacity="0.4"/>
<path d="M6.99005 57.3C6.86186 57.3306 6.72826 57.3306 6.60006 57.3C6.46927 57.2256 6.35658 57.1231 6.27006 57C6.09413 56.8136 5.99735 56.5663 6.00006 56.31C5.99867 56.045 6.09477 55.7888 6.27006 55.59C6.36815 55.5029 6.47956 55.432 6.60006 55.38C6.78132 55.3081 6.97939 55.2897 7.1708 55.3269C7.36221 55.3641 7.53894 55.4554 7.68005 55.59C7.86386 55.7858 7.97045 56.0416 7.98006 56.31C7.97251 56.5702 7.86578 56.8176 7.68173 57.0017C7.49768 57.1857 7.25023 57.2925 6.99005 57.3Z" fill="white" fill-opacity="0.4"/>
</svg>
