<svg width="72" height="72" viewBox="0 0 72 72" fill="none" xmlns="http://www.w3.org/2000/svg">
<path d="M42.3614 24.99L41.1914 26.37L43.4714 28.29L46.7714 24.39L45.3914 23.22L43.2614 25.77L42.3614 24.99Z" fill="white" fill-opacity="0.4"/>
<path d="M59.25 46.0499C57.84 45.1199 55.44 46.2299 54.48 46.7699C53.01 47.5799 48.42 49.1699 46.2 49.9199C46.02 49.9799 45.93 50.0099 45.78 50.0699C45.51 48.8699 44.58 48.0599 43.44 48.0599C43.41 48.0599 43.41 48.0599 43.38 48.0599H43.05C41.94 48.1199 38.55 48.2999 36.3 47.2199C33.33 45.8099 27.33 44.2799 24.24 44.4899C21.78 44.6699 18 48.2399 15.06 51.4799L13.95 50.3999L9 55.8899L20.01 65.9999L24.78 60.6899L23.94 59.8799C25.35 59.3999 28.5 58.6799 33.87 59.1599C34.71 59.2499 35.49 59.3099 36.18 59.3999C41.1 59.9099 43.38 60.1499 49.08 56.9999C58.59 51.8099 59.97 49.4699 60.09 47.9999C60.18 46.8599 59.61 46.2899 59.25 46.0499ZM19.89 63.4199L11.55 55.7399L14.07 52.9499L22.29 60.7499L19.89 63.4199ZM48.21 55.4099C42.96 58.2899 41.16 58.0799 36.36 57.5999C35.64 57.5399 34.89 57.4499 34.02 57.3599C27.12 56.7299 23.58 57.9899 22.5 58.4999L16.41 52.7099C20.58 48.1199 23.28 46.3799 24.42 46.2899C27.09 46.1099 32.91 47.5499 35.58 48.8399C38.22 50.0999 41.94 49.9199 43.2 49.8599H43.5C43.86 49.8599 44.04 50.2799 44.1 50.5199C44.13 50.6999 44.19 51.2999 43.62 51.5099C37.29 53.8199 32.76 51.5699 32.73 51.5699L31.89 53.1599C32.04 53.2199 34.29 54.3899 37.86 54.3899C39.69 54.3899 41.85 54.0899 44.22 53.2199C44.82 53.0099 45.27 52.5899 45.57 52.0799C45.78 51.9899 46.2 51.8399 46.83 51.6299C49.26 50.7899 53.79 49.2299 55.38 48.3599C57.06 47.4599 58.14 47.4299 58.29 47.5799C58.29 47.5799 58.32 47.6399 58.32 47.8799C58.23 48.5099 57.12 50.5499 48.21 55.4099Z" fill="white" fill-opacity="0.4"/>
<path d="M59.76 21.36L58.53 18.42L60.57 14.13L56.07 9.63L51.81 11.7L48.87 10.47L47.28 6H40.92L39.33 10.47L36.39 11.7L32.1 9.66L27.6 14.16L29.64 18.45L28.44 21.36L24 22.95V29.31L28.47 30.9L29.7 33.84L27.63 38.1L32.13 42.6L36.42 40.56L39.36 41.79L40.95 46.26H47.31L48.9 41.79L51.84 40.56L56.13 42.6L60.63 38.1L58.59 33.81L59.82 30.87L64.29 29.28V22.95L59.76 21.36ZM62.43 28.02L58.41 29.46L56.58 33.9L58.41 37.74L55.74 40.41L51.9 38.58L47.46 40.41L46.02 44.43H42.24L40.8 40.41L36.36 38.58L32.52 40.41L29.85 37.74L31.68 33.9L29.82 29.46L25.8 28.02V24.24L29.82 22.8L31.65 18.36L29.82 14.52L32.49 11.85L36.33 13.68L40.8 11.82L42.24 7.8H46.02L47.46 11.82L51.9 13.65L55.74 11.82L58.41 14.49L56.58 18.33L58.41 22.77L62.43 24.21V28.02Z" fill="white" fill-opacity="0.4"/>
<path d="M38.0098 25.8002C38.0098 29.1602 40.7398 31.8902 44.0998 31.8902C47.4598 31.8902 50.1898 29.1602 50.1898 25.8002C50.1898 22.4402 47.4598 19.7102 44.0998 19.7102C40.7398 19.7102 38.0098 22.4402 38.0098 25.8002ZM48.3898 25.8002C48.3898 28.1702 46.4698 30.0902 44.0998 30.0902C41.7298 30.0902 39.8098 28.1702 39.8098 25.8002C39.8098 23.4302 41.7298 21.5102 44.0998 21.5102C46.4698 21.5102 48.3898 23.4302 48.3898 25.8002Z" fill="white" fill-opacity="0.4"/>
<path d="M36.7511 21.81L35.0411 22.29C36.4811 18.57 40.0811 16.02 44.2211 16.02C48.9911 16.02 53.0711 19.44 53.9111 24.12L55.6811 23.79C54.6911 18.24 49.8611 14.22 44.1911 14.22C39.3611 14.22 35.1911 17.16 33.4211 21.45L32.6411 20.04L31.0811 20.91L33.1511 24.72L37.2311 23.55L36.7511 21.81Z" fill="white" fill-opacity="0.4"/>
<path d="M50.5506 29.6099L51.0606 31.3499L52.7106 30.8699C50.9406 33.8399 47.7306 35.7599 44.2206 35.7599C40.3806 35.7599 36.8706 33.5099 35.2506 30.0299L33.6006 30.7799C35.4906 34.8899 39.6606 37.5599 44.1906 37.5599C48.3906 37.5599 52.2606 35.2499 54.3006 31.6499L55.1106 33.1199L56.7006 32.2499L54.6306 28.4399L50.5506 29.6099Z" fill="white" fill-opacity="0.4"/>
</svg>
