<svg width="72" height="72" viewBox="0 0 72 72" fill="none" xmlns="http://www.w3.org/2000/svg">
<path d="M44.9698 33.1201H27.0898V34.9201H44.9698V33.1201Z" fill="#0066FF"/>
<path d="M42.3905 37.1399H29.7305V38.9399H42.3905V37.1399Z" fill="#0066FF"/>
<path d="M30.6586 21.27L29.3086 22.5L33.4786 27.03L34.8286 27L42.8086 17.37L41.4286 16.2L34.1086 25.05L30.6586 21.27Z" fill="#0066FF"/>
<path d="M63.45 41.01L66 35.1H59.73V29.1H57.81V11.1L57 11.01C42.21 9.39 36.84 6.15 36.81 6.12L36.6 6H35.34L35.13 6.12C35.07 6.15 29.73 9.39 14.94 11.01L14.13 11.13V29.13H12.33V35.13H6L8.55 41.04L6 46.92H14.61C15.9 51.9 20.31 59.82 34.89 65.91L36.9 66L37.08 65.94C51.66 59.85 56.07 51.93 57.36 46.95H66L63.45 41.01ZM14.13 41.1V30.93H57.93V41.1H14.13ZM36.39 59.37H35.55C21.15 53.28 20.25 45.03 20.28 42.9H51.63C51.69 45.06 50.79 53.28 36.39 59.37ZM52.08 29.13H19.89V16.29C30.33 15.06 34.86 12.87 35.91 12.3H36.03C37.08 12.87 41.61 15.06 52.05 16.29V29.13H52.08ZM15.93 12.75C29.07 11.22 34.68 8.46 35.85 7.83H36.12C37.29 8.49 42.87 11.22 56.04 12.75V29.13H53.88V14.67L53.07 14.58C41.13 13.26 36.81 10.65 36.75 10.62L36.54 10.5H35.43L35.22 10.62C35.19 10.65 30.84 13.26 18.9 14.58L18.09 14.67V29.1H15.93V12.75ZM8.76 45.12L10.53 41.01L8.76 36.9H12.36V42.9H14.1C14.1 43.41 14.13 44.16 14.25 45.09H8.76V45.12ZM36.54 64.2H35.4C16.5 56.22 15.78 45.36 15.87 42.93H18.48C18.45 45.6 19.59 54.69 35.01 61.14L36.72 61.2L36.9 61.14C52.32 54.69 53.46 45.6 53.43 42.93H56.04C56.16 45.33 55.44 56.22 36.54 64.2ZM63.24 45.12H57.72C57.84 44.19 57.87 43.44 57.87 42.93H59.73V36.93H63.24L61.47 41.04L63.24 45.12Z" fill="#0066FF"/>
</svg>
