<svg width="72" height="72" viewBox="0 0 72 72" fill="none" xmlns="http://www.w3.org/2000/svg">
<path fill-rule="evenodd" clip-rule="evenodd" d="M65.0511 40.8576H59.25C59.0218 40.8525 58.8049 40.7571 58.6468 40.5924C58.4886 40.4277 58.4022 40.2071 58.4064 39.9789C58.4082 39.7524 58.4966 39.5352 58.6535 39.3718C58.8103 39.2084 59.0238 39.1112 59.25 39.1002H64.17V34.1442C60.3741 29.7504 49.6887 29.2935 49.5831 29.2935C49.3592 29.2936 49.1444 29.2052 48.9855 29.0475C45.8545 25.8894 41.7626 23.8616 37.3533 23.283H27.8628C24.8538 23.6898 21.9594 24.7065 19.3569 26.2707C18.4077 26.6925 17.5992 27.1494 16.7556 27.4656C16.7205 27.5361 16.6152 27.5361 16.5096 27.5361C8.63611 28.6608 7.75741 30.4533 7.68721 30.6291V39.1704H12.6783C12.9086 39.1746 13.128 39.2691 13.2893 39.4334C13.4507 39.5978 13.5411 39.8189 13.5411 40.0492C13.5411 40.2795 13.4507 40.5007 13.2893 40.665C13.128 40.8294 12.9086 40.9238 12.6783 40.9281H6.87871C6.76304 40.9292 6.64831 40.9073 6.54121 40.8636C6.43412 40.8199 6.33682 40.7553 6.255 40.6735C6.17318 40.5917 6.10848 40.4945 6.0647 40.3874C6.02092 40.2804 5.99892 40.1656 6.00001 40.05V30.6996C5.9985 30.243 6.14666 29.7985 6.42181 29.4342C7.61701 27.8172 10.8858 26.6574 16.1229 25.884C16.8612 25.5324 17.6697 25.146 18.5484 24.6888C21.4068 23.0142 24.5758 21.9381 27.8628 21.5256H37.4928C42.2212 22.0642 46.6298 24.1818 50.0058 27.5361C52.0095 27.6765 61.9917 28.485 65.7528 33.2661C65.8628 33.4202 65.924 33.6038 65.9286 33.7932V39.9795C65.919 40.2092 65.8234 40.4269 65.6609 40.5895C65.4984 40.7521 65.2808 40.8478 65.0511 40.8576ZM50.007 40.8576H21.9228C21.8071 40.8588 21.6922 40.8369 21.5851 40.7931C21.4779 40.7494 21.3805 40.6847 21.2987 40.6029C21.2168 40.5211 21.1521 40.4237 21.1084 40.3166C21.0646 40.2094 21.0426 40.0946 21.0438 39.9789C21.0474 39.7469 21.1412 39.5255 21.3053 39.3615C21.4694 39.1974 21.6908 39.1037 21.9228 39.1002H50.007C50.2401 39.1002 50.4636 39.1928 50.6283 39.3575C50.7931 39.5223 50.8857 39.7458 50.8857 39.9789C50.8857 40.2119 50.7931 40.4354 50.6283 40.6002C50.4636 40.765 50.2401 40.8576 50.007 40.8576Z" fill="#0066FF"/>
<path fill-rule="evenodd" clip-rule="evenodd" d="M17.8449 30.8048C17.6792 30.7994 17.5177 30.7512 17.3761 30.665C17.2344 30.5789 17.1174 30.4575 17.0364 30.3128C16.99 30.2093 16.965 30.0975 16.963 29.9841C16.961 29.8706 16.9819 29.758 17.0246 29.6529C17.0673 29.5478 17.1309 29.4524 17.2114 29.3725C17.292 29.2927 17.3879 29.2299 17.4933 29.1881C18.0204 28.9418 18.7587 28.5905 19.5333 28.2038C22.0959 26.6768 24.9203 25.6398 27.8622 25.1459H37.3527C40.789 25.6366 44.0174 27.0863 46.6671 29.3285C46.8305 29.4877 46.9283 29.7022 46.9414 29.9298C46.9544 30.1575 46.8817 30.3818 46.7376 30.5585C46.5855 30.7215 46.3766 30.8196 46.1541 30.8327C45.9316 30.8458 45.7126 30.7727 45.5424 30.6287C43.1996 28.5652 40.3035 27.2332 37.212 26.7974H27.8622C25.1976 27.3213 22.6419 28.2961 20.3052 29.6798C19.4967 30.0665 18.7938 30.4529 18.2313 30.6998C18.1047 30.7424 17.9757 30.7775 17.8449 30.8048Z" fill="#0066FF"/>
<path fill-rule="evenodd" clip-rule="evenodd" d="M46.0707 30.805H17.8458C17.6138 30.8014 17.3924 30.7077 17.2283 30.5437C17.0642 30.3797 16.9704 30.1583 16.9668 29.9263C16.9656 29.8106 16.9876 29.6957 17.0314 29.5886C17.0751 29.4814 17.1398 29.3841 17.2217 29.3023C17.3035 29.2204 17.4009 29.1558 17.5081 29.112C17.6153 29.0683 17.7301 29.0464 17.8458 29.0476H46.0707C46.1864 29.0464 46.3012 29.0684 46.4083 29.1121C46.5155 29.1559 46.6128 29.2205 46.6946 29.3024C46.7765 29.3842 46.8411 29.4815 46.8849 29.5887C46.9286 29.6958 46.9506 29.8106 46.9494 29.9263C46.9458 30.1582 46.852 30.3796 46.688 30.5436C46.524 30.7076 46.3026 30.8014 46.0707 30.805Z" fill="#0066FF"/>
<path fill-rule="evenodd" clip-rule="evenodd" d="M17.2823 45.1106C16.196 45.1068 15.135 44.7814 14.2333 44.1755C13.3317 43.5695 12.6296 42.7101 12.2157 41.7057C11.8017 40.7013 11.6945 39.5968 11.9075 38.5315C12.1205 37.4662 12.6441 36.4878 13.4124 35.7197C14.1807 34.9516 15.1592 34.4282 16.2246 34.2155C17.29 34.0028 18.3944 34.1104 19.3988 34.5246C20.4031 34.9387 21.2623 35.641 21.868 36.5429C22.4737 37.4448 22.7988 38.5058 22.8023 39.5921C22.808 40.3186 22.6692 41.0389 22.3938 41.7111C22.1184 42.3833 21.7119 42.994 21.1982 43.5076C20.6845 44.0212 20.0737 44.4274 19.4014 44.7026C18.7291 44.9779 18.0087 45.1166 17.2823 45.1106ZM17.2823 35.7959C16.2755 35.7959 15.3099 36.1959 14.598 36.9078C13.8861 37.6197 13.4861 38.5853 13.4861 39.5921C13.4861 40.599 13.8861 41.5645 14.598 42.2765C15.3099 42.9884 16.2755 43.3883 17.2823 43.3883C18.2891 43.3883 19.2547 42.9884 19.9666 42.2765C20.6786 41.5645 21.0785 40.599 21.0785 39.5921C21.0785 38.5853 20.6786 37.6197 19.9666 36.9078C19.2547 36.1959 18.2891 35.7959 17.2823 35.7959Z" fill="#0066FF"/>
<path fill-rule="evenodd" clip-rule="evenodd" d="M54.6468 45.1106C53.5589 45.1141 52.4943 44.7948 51.5878 44.1933C50.6813 43.5917 49.9736 42.7349 49.5541 41.7311C49.1345 40.7273 49.0221 39.6216 49.2309 38.5539C49.4398 37.4862 49.9606 36.5044 50.7274 35.7326C51.4942 34.9609 52.4727 34.4339 53.539 34.2182C54.6054 34.0026 55.7117 34.108 56.7182 34.5211C57.7246 34.9342 58.586 35.6365 59.1933 36.5391C59.8007 37.4417 60.1267 38.5042 60.1302 39.5921C60.1337 41.0507 59.5582 42.4511 58.5302 43.4858C57.5021 44.5205 56.1054 45.1048 54.6468 45.1106ZM54.6468 35.7959C53.896 35.7959 53.162 36.0186 52.5377 36.4357C51.9135 36.8529 51.4269 37.4457 51.1396 38.1394C50.8522 38.8331 50.7771 39.5964 50.9235 40.3327C51.07 41.0691 51.4316 41.7456 51.9625 42.2765C52.4934 42.8074 53.1698 43.1689 53.9062 43.3154C54.6426 43.4619 55.4059 43.3867 56.0995 43.0994C56.7932 42.8121 57.3861 42.3255 57.8032 41.7012C58.2204 41.0769 58.443 40.343 58.443 39.5921C58.4233 38.5915 58.017 37.6373 57.3093 36.9297C56.6016 36.222 55.6474 35.8157 54.6468 35.7959Z" fill="#0066FF"/>
<path fill-rule="evenodd" clip-rule="evenodd" d="M17.2833 42.2285C16.6039 42.2248 15.9534 41.9533 15.473 41.4729C14.9926 40.9925 14.7211 40.342 14.7174 39.6626C14.7097 39.3219 14.7706 38.9831 14.8964 38.6663C15.0221 38.3496 15.2103 38.0613 15.4496 37.8187C15.6889 37.5761 15.9746 37.384 16.2896 37.2539C16.6046 37.1238 16.9425 37.0583 17.2833 37.0613C17.9718 37.0657 18.6309 37.3412 19.1177 37.8281C19.6046 38.315 19.88 38.9741 19.8843 39.6626C19.8844 40.0026 19.8169 40.3391 19.6858 40.6528C19.5546 40.9664 19.3625 41.2509 19.1205 41.4896C18.8785 41.7283 18.5915 41.9166 18.2761 42.0435C17.9607 42.1703 17.6232 42.2332 17.2833 42.2285ZM17.2833 38.7134C17.1668 38.7093 17.0507 38.7292 16.9422 38.7718C16.8337 38.8145 16.7352 38.8791 16.6527 38.9615C16.5703 39.044 16.5057 39.1425 16.463 39.251C16.4203 39.3595 16.4005 39.4756 16.4046 39.5921C16.4046 39.8252 16.4972 40.0487 16.662 40.2135C16.8268 40.3782 17.0503 40.4708 17.2833 40.4708C17.5164 40.4708 17.7399 40.3782 17.9046 40.2135C18.0694 40.0487 18.162 39.8252 18.162 39.5921C18.1692 39.4749 18.1513 39.3574 18.1097 39.2476C18.068 39.1377 18.0036 39.038 17.9205 38.9549C17.8374 38.8719 17.7377 38.8074 17.6278 38.7658C17.518 38.7241 17.4006 38.7063 17.2833 38.7134Z" fill="#0066FF"/>
<path fill-rule="evenodd" clip-rule="evenodd" d="M54.6461 42.2287C53.9609 42.2287 53.3037 41.9565 52.8192 41.4719C52.3347 40.9874 52.0625 40.3303 52.0625 39.6451C52.0625 38.9598 52.3347 38.3027 52.8192 37.8182C53.3037 37.3337 53.9609 37.0615 54.6461 37.0615C55.3291 37.073 55.9804 37.3519 56.4601 37.8382C56.9399 38.3246 57.2098 38.9796 57.212 39.6628C57.2083 40.3421 56.9367 40.9926 56.4563 41.473C55.9759 41.9534 55.3254 42.225 54.6461 42.2287ZM54.6461 38.7136C54.5296 38.7094 54.4134 38.7293 54.305 38.772C54.1965 38.8147 54.0979 38.8793 54.0155 38.9617C53.9331 39.0441 53.8685 39.1427 53.8258 39.2511C53.7831 39.3596 53.7632 39.4758 53.7674 39.5923C53.7662 39.708 53.7881 39.8228 53.8319 39.9299C53.8756 40.037 53.9403 40.1344 54.0221 40.2162C54.104 40.298 54.2013 40.3627 54.3084 40.4064C54.4156 40.4502 54.5303 40.4721 54.6461 40.471C54.878 40.4673 55.0994 40.3736 55.2634 40.2096C55.4274 40.0456 55.5211 39.8242 55.5248 39.5923C55.5259 39.4765 55.504 39.3618 55.4602 39.2546C55.4165 39.1475 55.3518 39.0502 55.27 38.9683C55.1882 38.8865 55.0908 38.8218 54.9837 38.7781C54.8766 38.7343 54.7618 38.7124 54.6461 38.7136Z" fill="#0066FF"/>
<path fill-rule="evenodd" clip-rule="evenodd" d="M35.3489 33.6519H33.5213C33.4056 33.653 33.2908 33.6311 33.1837 33.5874C33.0765 33.5436 32.9792 33.4789 32.8974 33.3971C32.8155 33.3153 32.7509 33.2179 32.7071 33.1108C32.6634 33.0037 32.6414 32.8889 32.6426 32.7732C32.6462 32.5413 32.74 32.3199 32.904 32.1559C33.068 31.9918 33.2894 31.8981 33.5213 31.8945H35.3489C35.5819 31.8945 35.8054 31.987 35.9702 32.1518C36.135 32.3166 36.2276 32.5401 36.2276 32.7732C36.2276 33.0062 36.135 33.2297 35.9702 33.3945C35.8054 33.5593 35.5819 33.6519 35.3489 33.6519Z" fill="#0066FF"/>
<path fill-rule="evenodd" clip-rule="evenodd" d="M8.109 36.2883H6.879C6.64596 36.2883 6.42246 36.1957 6.25767 36.0309C6.09288 35.8661 6.0003 35.6426 6.0003 35.4096C6.0003 35.1765 6.09288 34.953 6.25767 34.7882C6.42246 34.6235 6.64596 34.5309 6.879 34.5309H8.109C8.50898 34.5279 8.89173 34.3677 9.17453 34.0848C9.45734 33.8019 9.6175 33.4192 9.6204 33.0192C9.61147 32.6211 9.44936 32.2419 9.16783 31.9604C8.88631 31.6788 8.50705 31.5167 8.109 31.5078H6.879C6.76334 31.509 6.6486 31.4871 6.54149 31.4434C6.43438 31.3998 6.33705 31.3352 6.25521 31.2534C6.17336 31.1717 6.10863 31.0745 6.06481 30.9674C6.02099 30.8604 5.99896 30.7456 6 30.63C6.00364 30.3981 6.09738 30.1767 6.26139 30.0127C6.4254 29.8487 6.64679 29.7549 6.87871 29.7513H8.1087C8.95777 29.7683 9.76678 30.1155 10.364 30.7193C10.9612 31.323 11.2996 32.1358 11.3073 32.985C11.3019 33.8414 10.9664 34.6628 10.3707 35.2781C9.77493 35.8934 8.96483 36.2552 8.109 36.2883Z" fill="#0066FF"/>
<path fill-rule="evenodd" clip-rule="evenodd" d="M65.0516 37.0263H63.1535C62.5647 37.0245 61.9821 36.9066 61.439 36.6794C60.8959 36.4521 60.4029 36.12 59.9883 35.702C59.5736 35.2841 59.2455 34.7884 59.0226 34.2435C58.7998 33.6986 58.6866 33.115 58.6895 32.5263V30.312C58.6895 30.0789 58.7821 29.8554 58.9468 29.6907C59.1116 29.5259 59.3351 29.4333 59.5682 29.4333C59.8012 29.4333 60.0247 29.5259 60.1895 29.6907C60.3543 29.8554 60.4469 30.0789 60.4469 30.312V32.5263C60.4446 32.8916 60.5149 33.2537 60.6537 33.5916C60.7925 33.9295 60.9969 34.2365 61.2552 34.4948C61.5135 34.753 61.8205 34.9575 62.1584 35.0963C62.4963 35.235 62.8584 35.3053 63.2237 35.3031H65.1218C65.2376 35.3019 65.3524 35.3239 65.4596 35.3677C65.5668 35.4115 65.6642 35.4763 65.746 35.5582C65.8279 35.6401 65.8925 35.7375 65.9362 35.8448C65.9799 35.952 66.0018 36.0669 66.0005 36.1827C65.9635 36.411 65.849 36.6196 65.6761 36.7733C65.5033 36.927 65.2827 37.0163 65.0516 37.0263Z" fill="#0066FF"/>
<path fill-rule="evenodd" clip-rule="evenodd" d="M62.028 45.1107H9.83132C9.60389 45.1023 9.38858 45.006 9.23066 44.8421C9.07273 44.6783 8.9845 44.4595 8.9845 44.232C8.9845 44.0044 9.07273 43.7857 9.23066 43.6218C9.38858 43.4579 9.60389 43.3617 9.83132 43.3533H62.028C62.1438 43.3521 62.2586 43.374 62.3657 43.4177C62.4729 43.4614 62.5703 43.5261 62.6521 43.6079C62.734 43.6898 62.7987 43.7871 62.8425 43.8943C62.8862 44.0014 62.9082 44.1162 62.907 44.232C62.9034 44.4639 62.8096 44.6854 62.6455 44.8494C62.4815 45.0134 62.26 45.1071 62.028 45.1107Z" fill="#0066FF"/>
<path fill-rule="evenodd" clip-rule="evenodd" d="M56.686 49.5747H15.2107C15.095 49.5759 14.9802 49.5539 14.8731 49.5102C14.766 49.4665 14.6686 49.4018 14.5868 49.3199C14.505 49.2381 14.4403 49.1408 14.3966 49.0337C14.3528 48.9265 14.3309 48.8117 14.332 48.696C14.3357 48.4641 14.4294 48.2427 14.5934 48.0787C14.7574 47.9147 14.9788 47.821 15.2107 47.8173H56.686C56.918 47.8209 57.1395 47.9146 57.3036 48.0786C57.4676 48.2426 57.5614 48.4641 57.565 48.696C57.5662 48.8118 57.5443 48.9266 57.5005 49.0337C57.4567 49.1409 57.392 49.2382 57.3102 49.3201C57.2283 49.4019 57.1309 49.4666 57.0238 49.5103C56.9166 49.554 56.8018 49.5759 56.686 49.5747Z" fill="#0066FF"/>
<path fill-rule="evenodd" clip-rule="evenodd" d="M32.5369 30.8048C32.305 30.8011 32.0836 30.7074 31.9196 30.5434C31.7555 30.3794 31.6618 30.158 31.6582 29.9261V25.9199C31.6894 25.7091 31.7953 25.5167 31.9566 25.3775C32.1179 25.2384 32.3238 25.1618 32.5369 25.1618C32.7499 25.1618 32.9558 25.2384 33.1171 25.3775C33.2784 25.5167 33.3843 25.7091 33.4156 25.9199V29.9261C33.412 30.158 33.3183 30.3794 33.1543 30.5435C32.9902 30.7075 32.7688 30.8012 32.5369 30.8048Z" fill="#0066FF"/>
</svg>
