<svg width="72" height="72" viewBox="0 0 72 72" fill="none" xmlns="http://www.w3.org/2000/svg">
<path d="M36.0012 20.5959C32.9546 20.596 29.9765 21.4995 27.4434 23.1921C24.9103 24.8847 22.936 27.2904 21.7702 30.1051C20.6043 32.9198 20.2993 36.0169 20.8937 39.005C21.488 41.993 22.9551 44.7376 25.1093 46.8919C27.2636 49.0461 30.0082 50.5132 32.9963 51.1076C35.9843 51.7019 39.0814 51.3969 41.8961 50.2311C44.7108 49.0652 47.1165 47.0909 48.8091 44.5578C50.5017 42.0247 51.4052 39.0466 51.4053 36C51.4006 31.9161 49.7761 28.0007 46.8883 25.1129C44.0005 22.2251 40.0851 20.6006 36.0012 20.5959ZM36.0012 48.8499C33.4596 48.8499 30.9751 48.0962 28.8618 46.6841C26.7486 45.272 25.1016 43.2649 24.129 40.9168C23.1564 38.5686 22.902 35.9848 23.398 33.492C23.8939 30.9993 25.1179 28.7096 26.9151 26.9125C28.7124 25.1153 31.0021 23.8915 33.4949 23.3958C35.9877 22.9 38.5715 23.1546 40.9196 24.1273C43.2677 25.1001 45.2746 26.7472 46.6866 28.8606C48.0985 30.9739 48.8521 33.4584 48.852 36C48.848 39.407 47.4928 42.6732 45.0836 45.0822C42.6745 47.4912 39.4081 48.8462 36.0012 48.8499Z" fill="#0066FF"/>
<path d="M38.935 26.9126L37.3318 28.901C37.6752 29.1767 37.9246 29.5522 38.0454 29.9756C38.1663 30.3991 38.1527 30.8496 38.0066 31.2651C37.8605 31.6805 37.589 32.0403 37.2297 32.2948C36.8703 32.5494 36.4408 32.6861 36.0004 32.6861C35.56 32.6861 35.1305 32.5494 34.7712 32.2948C34.4118 32.0403 34.1403 31.6805 33.9942 31.2651C33.8481 30.8496 33.8345 30.3991 33.9554 29.9756C34.0763 29.5522 34.3256 29.1767 34.669 28.901L33.0658 26.9126C32.3971 27.4507 31.8892 28.1623 31.5979 28.9697C31.3066 29.7771 31.2431 30.6491 31.4143 31.4902C31.5855 32.3313 31.9848 33.1091 32.5685 33.7384C33.1522 34.3677 33.8978 34.8243 34.7236 35.0582V45.0866H37.2769V35.0582C38.1028 34.8244 38.8484 34.3678 39.4322 33.7385C40.0159 33.1092 40.4152 32.3314 40.5864 31.4903C40.7576 30.6492 40.6941 29.7772 40.4029 28.9698C40.1116 28.1624 39.6038 27.4507 38.935 26.9126Z" fill="#0066FF"/>
<path d="M66 42.054V29.9454H59.3964C58.8318 27.7678 57.9633 25.6806 56.8164 23.7453L61.494 19.0677L52.9323 10.506L48.2559 15.183C46.3204 14.0361 44.233 13.1676 42.0552 12.603V6H29.946V12.6042C27.7681 13.1684 25.6806 14.037 23.7453 15.1842L19.0677 10.5054L10.5066 19.0671L15.1842 23.7447C14.0368 25.6799 13.1682 27.7674 12.6042 29.9454H6V42.054H12.6051C13.1689 44.232 14.0375 46.3195 15.1851 48.2547L10.5069 52.9323L19.0677 61.494L23.7453 56.8164C25.6807 57.9635 27.7681 58.832 29.946 59.3964V66H42.0552V59.3952C44.2331 58.8306 46.3206 57.9621 48.2562 56.8152L52.9326 61.4928L61.4946 52.9311L56.8173 48.2535C57.9642 46.318 58.8327 44.2306 59.3973 42.0528L66 42.054ZM57.1362 40.5117C56.5874 43.0879 55.5675 45.5405 54.1278 47.7462L53.5644 48.6132L57.8844 52.9332L52.9326 57.8832L48.6156 53.5632L47.7477 54.126C45.5419 55.5653 43.0894 56.5851 40.5135 57.1341L39.5022 57.3486V63.4455H32.4993V57.3498L31.4883 57.1353C28.9124 56.5864 26.4599 55.5668 24.2541 54.1278L23.3865 53.5644L19.068 57.8844L14.118 52.9344L18.438 48.6144L17.8743 47.7471C16.4344 45.5419 15.4145 43.0895 14.8662 40.5135L14.6505 39.5019H8.5533V32.4999H14.6493L14.8653 31.488C15.4134 28.9116 16.4333 26.4587 17.8734 24.2532L18.4368 23.3859L14.1168 19.0659L19.0668 14.1159L23.3853 18.4359L24.2532 17.8725C26.459 16.4333 28.9115 15.4137 31.4874 14.8647L32.4984 14.6505V8.5533H39.501V14.6493L40.5123 14.8638C43.0882 15.4131 45.5406 16.4328 47.7465 17.8719L48.6144 18.435L52.9314 14.1165L57.8832 19.0665L53.5632 23.385L54.1266 24.2523C55.5663 26.458 56.5862 28.9106 57.135 31.4868L57.3507 32.4978H63.4455V39.4998H57.3519L57.1362 40.5117Z" fill="#0066FF"/>
</svg>
