<svg width="72" height="72" viewBox="0 0 72 72" fill="none" xmlns="http://www.w3.org/2000/svg">
<path d="M63.5343 59.784V34.518H60.4803C60.4144 33.2461 59.9225 32.0333 59.0839 31.0747C58.2453 30.1162 57.1086 29.4675 55.8568 29.2331C54.6049 28.9988 53.3106 29.1922 52.1819 29.7825C51.0533 30.3727 50.1561 31.3254 49.6344 32.4873C49.1128 31.3254 48.2155 30.3727 47.0869 29.7825C45.9583 29.1922 44.664 28.9988 43.4121 29.2331C42.1602 29.4675 41.0236 30.1162 40.1849 31.0747C39.3463 32.0333 38.8545 33.2461 38.7885 34.518H36.7413L34.3578 6H26.3952L24.4095 34.518H23.6193L21.2355 6H13.2732L11.2869 34.518H8.62772V59.784H6.15332V66H66.009V59.784H63.5343ZM54.8148 31.2087C55.7151 31.214 56.5807 31.5569 57.2403 32.1697C57.8999 32.7825 58.3056 33.6205 58.377 34.518H51.2529C51.3243 33.6205 51.7299 32.7825 52.3894 32.1697C53.049 31.5569 53.9145 31.214 54.8148 31.2087ZM44.4549 31.2087C45.3553 31.2139 46.2209 31.5568 46.8805 32.1696C47.5401 32.7824 47.9457 33.6205 48.0171 34.518H40.893C40.9645 33.6206 41.3701 32.7826 42.0296 32.1698C42.6892 31.557 43.5547 31.2141 44.4549 31.2087ZM28.3278 8.0721H32.4516L34.6623 34.518H26.487L28.3278 8.0721ZM15.2055 8.0721H19.3293L21.5403 34.518H13.3647L15.2055 8.0721ZM10.6998 36.5901H61.4622V59.784H59.304V45.3669H46.1817V59.784H10.6998V36.5901ZM57.2322 52.8201H48.2538V51.4962H57.2322V52.8201ZM48.2538 54.8919H57.2322V56.2719H48.2538V54.8919ZM57.2322 49.4241H48.2538V47.4384H57.2322V49.4241ZM48.2538 58.3452H57.2322V59.7852H48.2538V58.3452ZM63.9369 63.9276H8.22512V61.8558H63.9369V63.9276Z" fill="white" fill-opacity="0.4"/>
<path d="M21.2322 44.5899H13.6641C13.5281 44.5899 13.3933 44.6166 13.2676 44.6687C13.1419 44.7207 13.0277 44.797 12.9314 44.8932C12.8352 44.9894 12.7589 45.1036 12.7068 45.2293C12.6547 45.355 12.6279 45.4897 12.6279 45.6258V53.1939C12.6279 53.33 12.6547 53.4648 12.7067 53.5905C12.7588 53.7162 12.8351 53.8305 12.9313 53.9267C13.0276 54.0229 13.1418 54.0992 13.2675 54.1513C13.3933 54.2034 13.528 54.2301 13.6641 54.2301H21.2322C21.3683 54.2301 21.503 54.2033 21.6287 54.1512C21.7544 54.0991 21.8686 54.0228 21.9648 53.9266C22.061 53.8304 22.1373 53.7161 22.1894 53.5904C22.2414 53.4647 22.2682 53.33 22.2681 53.1939V45.6258C22.2681 45.3511 22.159 45.0876 21.9647 44.8933C21.7705 44.699 21.507 44.5899 21.2322 44.5899ZM20.196 52.158H14.7003V46.662H20.1963L20.196 52.158Z" fill="white" fill-opacity="0.4"/>
<path d="M32.2827 44.5899H24.7146C24.4399 44.5899 24.1764 44.699 23.9821 44.8933C23.7878 45.0876 23.6787 45.3511 23.6787 45.6258V53.1939C23.6787 53.33 23.7054 53.4647 23.7575 53.5904C23.8095 53.7161 23.8858 53.8304 23.982 53.9266C24.0782 54.0228 24.1924 54.0991 24.3181 54.1512C24.4438 54.2033 24.5785 54.2301 24.7146 54.2301H32.2827C32.4188 54.2301 32.5535 54.2033 32.6792 54.1512C32.8049 54.0991 32.9191 54.0228 33.0153 53.9266C33.1115 53.8304 33.1878 53.7161 33.2398 53.5904C33.2919 53.4647 33.3187 53.33 33.3186 53.1939V45.6258C33.3186 45.3511 33.2095 45.0876 33.0152 44.8933C32.8209 44.699 32.5574 44.5899 32.2827 44.5899ZM31.2468 52.158H25.7505V46.662H31.2468V52.158Z" fill="white" fill-opacity="0.4"/>
<path d="M43.3328 44.5899H35.7644C35.4897 44.59 35.2263 44.6991 35.032 44.8934C34.8378 45.0877 34.7286 45.3511 34.7285 45.6258V53.1939C34.7285 53.4687 34.8376 53.7322 35.0319 53.9265C35.2262 54.1208 35.4896 54.23 35.7644 54.2301H43.3328C43.4689 54.2301 43.6036 54.2033 43.7293 54.1512C43.855 54.0991 43.9692 54.0228 44.0654 53.9266C44.1616 53.8304 44.2379 53.7161 44.29 53.5904C44.342 53.4647 44.3688 53.33 44.3687 53.1939V45.6258C44.3687 45.3511 44.2596 45.0876 44.0653 44.8933C43.871 44.699 43.6076 44.5899 43.3328 44.5899ZM42.2966 52.158H36.8006V46.662H42.2966V52.158Z" fill="white" fill-opacity="0.4"/>
</svg>
