<svg width="72" height="72" viewBox="0 0 72 72" fill="none" xmlns="http://www.w3.org/2000/svg">
<path d="M59.6289 60.5481H48.2124V58.0107H57.0924V12.345H46.9443V9.80823H59.6289V60.5481Z" fill="#0066FF"/>
<path d="M36.7959 60.5481H13.9632V9.80823H26.6481V12.345H16.5V58.0107H36.7956L36.7959 60.5481Z" fill="#0066FF"/>
<path d="M44.4069 16.1505H29.1852C28.1769 16.1474 27.2108 15.7455 26.4978 15.0325C25.7849 14.3194 25.383 13.3533 25.38 12.345V9.80819C25.383 8.79988 25.7849 7.83373 26.4978 7.12072C27.2108 6.40771 28.1769 6.00577 29.1852 6.00269H44.4069C45.4153 6.00554 46.3816 6.40739 47.0946 7.12044C47.8077 7.83349 48.2096 8.79978 48.2124 9.80819V12.345C48.2096 13.3534 47.8077 14.3197 47.0946 15.0327C46.3816 15.7458 45.4153 16.1476 44.4069 16.1505ZM29.1852 8.53949C28.8491 8.54051 28.527 8.67452 28.2893 8.91223C28.0517 9.14995 27.9178 9.47205 27.9168 9.80819V12.345C27.9178 12.6811 28.0517 13.0032 28.2893 13.2409C28.527 13.4787 28.8491 13.6127 29.1852 13.6137H44.4069C44.7431 13.6127 45.0652 13.4788 45.303 13.241C45.5407 13.0033 45.6746 12.6812 45.6756 12.345V9.80819C45.6746 9.472 45.5407 9.14985 45.303 8.91213C45.0652 8.67441 44.7431 8.54044 44.4069 8.53949H29.1852Z" fill="#0066FF"/>
<path d="M42.5043 54.2055C40.3718 54.2055 38.2871 53.5731 36.5139 52.3883C34.7408 51.2036 33.3588 49.5196 32.5427 47.5493C31.7266 45.5791 31.5131 43.4111 31.9292 41.3196C32.3453 39.228 33.3722 37.3068 34.8802 35.7989C36.3881 34.2909 38.3094 33.2641 40.401 32.848C42.4925 32.432 44.6605 32.6456 46.6307 33.4617C48.6009 34.2779 50.2849 35.6599 51.4696 37.4331C52.6543 39.2063 53.2867 41.291 53.2866 43.4235C53.2837 46.2822 52.1467 49.023 50.1253 51.0444C48.1038 53.0658 45.363 54.2026 42.5043 54.2055ZM42.5043 35.178C40.8736 35.1781 39.2795 35.6617 37.9236 36.5677C36.5678 37.4737 35.511 38.7614 34.887 40.268C34.2629 41.7746 34.0997 43.4325 34.4178 45.0318C34.736 46.6312 35.5213 48.1003 36.6744 49.2534C37.8275 50.4065 39.2966 51.1918 40.896 51.51C42.4954 51.8281 44.1532 51.6649 45.6598 51.0408C47.1664 50.4168 48.4541 49.3601 49.3601 48.0042C50.2661 46.6483 50.7497 45.0542 50.7498 43.4235C50.7486 41.237 49.8795 39.1404 48.3334 37.5944C46.7874 36.0483 44.6908 35.1792 42.5043 35.178Z" fill="#0066FF"/>
<path d="M49.4811 66.0027L42.5043 62.91L35.5278 66.0018V51.0345H38.0646V62.1021L42.5046 60.1356L46.9446 62.1021V51.0345H49.4814L49.4811 66.0027Z" fill="#0066FF"/>
<path d="M20.3058 19.956H53.2866V22.4934H20.3058V19.956Z" fill="#0066FF"/>
<path d="M20.3058 26.2989H53.2866V28.8357H20.3058V26.2989Z" fill="#0066FF"/>
</svg>
