<svg width="72" height="72" viewBox="0 0 72 72" fill="none" xmlns="http://www.w3.org/2000/svg">
<path d="M66 53.7V12H6V53.7H28.8V58.2H22.11V60H49.83V58.2H43.2V53.7H66ZM64.2 44.85H7.8V17.61H64.2V44.85ZM64.2 13.8V15.81H7.8V13.8H64.2ZM7.8 46.65H64.2V51.93H7.8V46.65ZM41.4 58.2H30.6V53.7H41.4V58.2Z" fill="#0066FF"/>
<path d="M61.9498 48.3003H57.5098V50.1003H61.9498V48.3003Z" fill="#0066FF"/>
<path d="M58.1387 25.8003H42.1787V27.6003H58.1387V25.8003Z" fill="#0066FF"/>
<path d="M58.1387 29.97H42.1787V31.77H58.1387V29.97Z" fill="#0066FF"/>
<path d="M58.1387 34.1396H42.1787V35.9396H58.1387V34.1396Z" fill="#0066FF"/>
<path d="M30.0604 29.3404L25.7104 25.8604L21.3604 29.4304V34.7704H30.0604V29.3404ZM28.2604 32.9704H23.1604V30.2704L25.7104 28.1704L28.2304 30.2104V32.9704H28.2604Z" fill="#0066FF"/>
<path d="M12.6299 25.8597L14.6999 29.6397L18.7499 28.4997L18.2699 26.7597L16.5599 27.2397C17.9999 23.5197 21.5999 20.9997 25.7099 20.9997C30.4799 20.9997 34.5299 24.3897 35.3999 29.0697L37.1699 28.7397C36.1799 23.2197 31.3499 19.1997 25.7099 19.1997C20.9099 19.1997 16.7099 22.1397 14.9699 26.4297L14.2199 25.0197L12.6299 25.8597Z" fill="#0066FF"/>
<path d="M32.0394 34.5304L32.5494 36.2704L34.1994 35.7904C32.4294 38.7604 29.2194 40.6504 25.7394 40.6504C21.8994 40.6504 18.4194 38.4004 16.7994 34.9504L15.1494 35.7004C17.0394 39.8104 21.1794 42.4504 25.7094 42.4504C29.9094 42.4504 33.7494 40.1704 35.8194 36.5404L36.5994 38.0104L38.1894 37.1404L36.1194 33.3604L32.0394 34.5304Z" fill="#0066FF"/>
</svg>
