<svg width="72" height="72" viewBox="0 0 72 72" fill="none" xmlns="http://www.w3.org/2000/svg">
<path d="M36 6.24329C29.0185 6.24041 22.3129 8.96875 17.3166 13.845C12.3203 18.7213 9.42983 25.3587 9.26303 32.3382C9.09622 39.3176 11.6663 46.0855 16.424 51.1949C21.1816 56.3043 27.7492 59.3498 34.7229 59.6805V66.2433L42.2829 58.6806L42.5244 58.4421L34.722 50.6421V57.1272C30.0015 56.8779 25.4577 55.2503 21.6526 52.4456C17.8475 49.6408 14.9481 45.7821 13.3132 41.3468C11.6783 36.9114 11.3795 32.0941 12.4539 27.4908C13.5282 22.8874 15.9286 18.7 19.3579 15.4466C22.7873 12.1932 27.0952 10.0166 31.7487 9.18596C36.4023 8.35535 41.1972 8.90722 45.5403 10.7733C49.8835 12.6394 53.5843 15.7378 56.1848 19.6852C58.7854 23.6326 60.1717 28.2558 60.1722 32.9829V33.3219H62.7378V32.9829C62.7297 25.8939 59.9101 19.0976 54.8976 14.0847C49.8851 9.07187 43.089 6.25186 36 6.24329ZM38.8935 58.4307L37.2786 60.0456V56.8158L38.8935 58.4307Z" fill="#0066FF"/>
<path d="M21.5172 47.4633H50.4813V18.4992H21.5172V47.4633ZM33.5133 24.1623V21.0651H38.4882V24.1623H33.5133ZM41.0541 26.7183V21.0651H47.9154V44.8974H24.0831V21.0651H30.9459V26.7183H41.0541Z" fill="#0066FF"/>
<path d="M42.264 40.11V43.689H44.829V40.119L45.33 40.686L47.253 38.988L43.542 34.824L39.831 38.988L41.751 40.686L42.264 40.11Z" fill="#0066FF"/>
<path d="M34.41 40.119V43.689H36.978V40.11L37.491 40.686L39.396 38.988L35.697 34.824L31.989 38.988L33.909 40.686L34.41 40.119Z" fill="#0066FF"/>
</svg>
