<svg width="73" height="72" viewBox="0 0 73 72" fill="none" xmlns="http://www.w3.org/2000/svg">
<path d="M32.2503 50.5759C28.5601 50.5758 24.9527 49.4814 21.8845 47.4312C18.8162 45.3809 16.4248 42.4669 15.0127 39.0576C13.6006 35.6483 13.2311 31.8967 13.951 28.2774C14.671 24.6581 16.448 21.3336 19.0573 18.7242C21.6667 16.1148 24.9912 14.3377 28.6105 13.6177C32.2298 12.8978 35.9813 13.2672 39.3906 14.6792C42.8 16.0913 45.7141 18.4827 47.7644 21.5509C49.8146 24.6191 50.9091 28.2264 50.9093 31.9166C50.9034 36.8635 48.9356 41.6061 45.4377 45.1041C41.9397 48.6021 37.1972 50.5699 32.2503 50.5759ZM32.2503 15.2736C28.9584 15.2737 25.7405 16.25 23.0035 18.079C20.2664 19.908 18.1332 22.5075 16.8736 25.5488C15.614 28.5902 15.2845 31.9367 15.9269 35.1653C16.5693 38.3939 18.1546 41.3595 20.4824 43.6871C22.8102 46.0147 25.776 47.5998 29.0046 48.2418C32.2333 48.8839 35.5798 48.5541 38.621 47.2942C41.6623 46.0343 44.2616 43.9009 46.0903 41.1637C47.919 38.4265 48.895 35.2085 48.8948 31.9166C48.8895 27.504 47.1341 23.2736 44.0138 20.1536C40.8934 17.0335 36.6629 15.2785 32.2503 15.2736Z" fill="white" fill-opacity="0.4"/>
<path d="M32.2501 57.8348C27.1242 57.8346 22.1134 56.3145 17.8515 53.4667C13.5895 50.6188 10.2677 46.5711 8.30611 41.8353C6.34455 37.0996 5.83134 31.8885 6.83136 26.8611C7.83138 21.8337 10.2997 17.2157 13.9243 13.5911C17.5488 9.96656 22.1668 7.49816 27.1942 6.49807C32.2216 5.49799 37.4326 6.01115 42.1684 7.97265C46.9041 9.93415 50.9519 13.2559 53.7998 17.5179C56.6477 21.7798 58.1679 26.7905 58.1681 31.9165C58.1605 38.788 55.4274 45.376 50.5685 50.2349C45.7096 55.0939 39.1217 57.827 32.2501 57.8348ZM32.2501 8.01445C27.5225 8.01458 22.9012 9.41659 18.9704 12.0432C15.0397 14.6698 11.9761 18.403 10.167 22.7708C8.358 27.1385 7.88478 31.9446 8.80723 36.5813C9.72967 41.218 12.0063 45.4771 15.3494 48.8199C18.6924 52.1626 22.9515 54.439 27.5883 55.3612C32.2251 56.2833 37.0311 55.8098 41.3988 54.0005C45.7664 52.1912 49.4994 49.1273 52.1258 45.1964C54.7521 41.2655 56.1538 36.644 56.1537 31.9165C56.1465 25.5792 53.6258 19.5035 49.1445 15.0225C44.6632 10.5415 38.5874 8.02118 32.2501 8.01445Z" fill="white" fill-opacity="0.4"/>
<path d="M58.9196 65.9999L45.8957 52.973L47.3174 51.5513L58.9196 63.1536L63.488 58.5852L51.8858 46.9829L53.3074 45.5613L66.3344 58.5852L58.9196 65.9999Z" fill="white" fill-opacity="0.4"/>
<path d="M30.0204 39.0417L22.3609 31.3822L23.7857 29.9575L30.0204 36.1922L40.7152 25.5037L42.1368 26.9284L30.0204 39.0417Z" fill="white" fill-opacity="0.4"/>
</svg>
