<svg width="72" height="72" viewBox="0 0 72 72" fill="none" xmlns="http://www.w3.org/2000/svg">
<path fill-rule="evenodd" clip-rule="evenodd" d="M65.0511 40.8576H59.25C59.0218 40.8525 58.8049 40.7572 58.6468 40.5925C58.4887 40.4278 58.4023 40.2072 58.4064 39.9789C58.4082 39.7524 58.4966 39.5352 58.6535 39.3718C58.8104 39.2084 59.0238 39.1112 59.25 39.1002H64.17V34.1442C60.3741 29.7504 49.6887 29.2935 49.5831 29.2935C49.3593 29.2936 49.1444 29.2052 48.9855 29.0475C45.8546 25.8894 41.7626 23.8616 37.3533 23.283H27.8628C24.8538 23.6899 21.9595 24.7065 19.3569 26.2707C18.4077 26.6925 17.5992 27.1494 16.7556 27.4656C16.7205 27.5361 16.6152 27.5361 16.5096 27.5361C8.63614 28.6608 7.75744 30.4533 7.68724 30.6291V39.1704H12.6783C12.9086 39.1747 13.128 39.2691 13.2894 39.4335C13.4507 39.5978 13.5411 39.8189 13.5411 40.0493C13.5411 40.2796 13.4507 40.5007 13.2894 40.665C13.128 40.8294 12.9086 40.9239 12.6783 40.9281H6.87874C6.76307 40.9293 6.64834 40.9074 6.54124 40.8636C6.43415 40.8199 6.33685 40.7553 6.25503 40.6735C6.17321 40.5918 6.10851 40.4945 6.06473 40.3875C6.02095 40.2804 5.99896 40.1657 6.00004 40.05V30.6996C5.99853 30.243 6.14669 29.7986 6.42184 29.4342C7.61704 27.8172 10.8858 26.6574 16.1229 25.884C16.8612 25.5324 17.6697 25.146 18.5484 24.6888C21.4069 23.0143 24.5758 21.9381 27.8628 21.5256H37.4928C42.2213 22.0643 46.6298 24.1819 50.0058 27.5361C52.0095 27.6765 61.9917 28.485 65.7528 33.2661C65.8628 33.4203 65.9241 33.6039 65.9286 33.7932V39.9795C65.919 40.2092 65.8235 40.4269 65.661 40.5895C65.4985 40.7521 65.2808 40.8478 65.0511 40.8576ZM50.007 40.8576H21.9228C21.8071 40.8588 21.6923 40.8369 21.5851 40.7932C21.4779 40.7494 21.3806 40.6848 21.2987 40.6029C21.2169 40.5211 21.1522 40.4238 21.1084 40.3166C21.0646 40.2095 21.0427 40.0946 21.0438 39.9789C21.0475 39.7469 21.1413 39.5255 21.3053 39.3615C21.4694 39.1975 21.6909 39.1038 21.9228 39.1002H50.007C50.2401 39.1002 50.4636 39.1928 50.6284 39.3576C50.7932 39.5224 50.8857 39.7459 50.8857 39.9789C50.8857 40.212 50.7932 40.4355 50.6284 40.6002C50.4636 40.765 50.2401 40.8576 50.007 40.8576Z" fill="#0066FF"/>
<path fill-rule="evenodd" clip-rule="evenodd" d="M17.843 30.8049C17.6773 30.7994 17.5158 30.7513 17.3741 30.6651C17.2325 30.5789 17.1155 30.4576 17.0345 30.3129C16.9881 30.2094 16.9631 30.0975 16.9611 29.9841C16.959 29.8707 16.98 29.758 17.0227 29.6529C17.0654 29.5478 17.1289 29.4524 17.2095 29.3726C17.2901 29.2927 17.386 29.23 17.4914 29.1882C18.0185 28.9419 18.7568 28.5906 19.5314 28.2039C22.094 26.6768 24.9184 25.6398 27.8603 25.146H37.3508C40.7871 25.6367 44.0154 27.0863 46.6652 29.3286C46.8286 29.4877 46.9264 29.7022 46.9395 29.9299C46.9525 30.1575 46.8798 30.3818 46.7357 30.5586C46.5836 30.7215 46.3747 30.8197 46.1522 30.8327C45.9296 30.8458 45.7106 30.7728 45.5405 30.6288C43.1977 28.5652 40.3016 27.2333 37.2101 26.7975H27.8603C25.1957 27.3213 22.64 28.2961 20.3033 29.6799C19.4948 30.0666 18.7919 30.453 18.2294 30.6999C18.1028 30.7424 17.9738 30.7775 17.843 30.8049Z" fill="#0066FF"/>
<path fill-rule="evenodd" clip-rule="evenodd" d="M46.0727 30.805H17.8478C17.6158 30.8015 17.3944 30.7078 17.2303 30.5437C17.0662 30.3797 16.9724 30.1583 16.9688 29.9263C16.9676 29.8106 16.9896 29.6958 17.0333 29.5886C17.0771 29.4815 17.1418 29.3841 17.2237 29.3023C17.3055 29.2205 17.4029 29.1558 17.5101 29.1121C17.6172 29.0683 17.7321 29.0464 17.8478 29.0476H46.0727C46.1884 29.0465 46.3032 29.0684 46.4103 29.1121C46.5175 29.1559 46.6148 29.2206 46.6966 29.3024C46.7784 29.3842 46.8431 29.4816 46.8869 29.5887C46.9306 29.6958 46.9526 29.8106 46.9514 29.9263C46.9478 30.1582 46.854 30.3796 46.69 30.5436C46.526 30.7076 46.3046 30.8014 46.0727 30.805Z" fill="#0066FF"/>
<path fill-rule="evenodd" clip-rule="evenodd" d="M17.2824 45.1107C16.196 45.1069 15.1351 44.7815 14.2334 44.1755C13.3317 43.5696 12.6296 42.7102 12.2157 41.7057C11.8018 40.7013 11.6945 39.5968 11.9075 38.5315C12.1205 37.4662 12.6442 36.4878 13.4125 35.7197C14.1808 34.9516 15.1593 34.4282 16.2246 34.2156C17.29 34.0029 18.3945 34.1104 19.3988 34.5246C20.4031 34.9388 21.2623 35.6411 21.868 36.5429C22.4737 37.4448 22.7989 38.5058 22.8024 39.5922C22.8081 40.3186 22.6692 41.0389 22.3938 41.7111C22.1184 42.3833 21.712 42.994 21.1982 43.5076C20.6845 44.0212 20.0737 44.4275 19.4014 44.7027C18.7291 44.9779 18.0088 45.1166 17.2824 45.1107ZM17.2824 35.796C16.2755 35.796 15.31 36.1959 14.598 36.9079C13.8861 37.6198 13.4862 38.5854 13.4862 39.5922C13.4862 40.599 13.8861 41.5646 14.598 42.2765C15.31 42.9884 16.2755 43.3884 17.2824 43.3884C18.2892 43.3884 19.2547 42.9884 19.9667 42.2765C20.6786 41.5646 21.0786 40.599 21.0786 39.5922C21.0786 38.5854 20.6786 37.6198 19.9667 36.9079C19.2547 36.1959 18.2892 35.796 17.2824 35.796Z" fill="#0066FF"/>
<path fill-rule="evenodd" clip-rule="evenodd" d="M54.6471 45.1107C53.5591 45.1141 52.4946 44.7949 51.5881 44.1933C50.6816 43.5918 49.9739 42.7349 49.5543 41.7311C49.1348 40.7273 49.0224 39.6217 49.2312 38.554C49.4401 37.4863 49.9608 36.5044 50.7277 35.7327C51.4945 34.961 52.473 34.4339 53.5393 34.2183C54.6057 34.0026 55.712 34.108 56.7185 34.5211C57.7249 34.9342 58.5863 35.6365 59.1936 36.5392C59.8009 37.4418 60.127 38.5043 60.1305 39.5922C60.134 41.0508 59.5585 42.4512 58.5304 43.4858C57.5023 44.5205 56.1057 45.1049 54.6471 45.1107ZM54.6471 35.796C53.8963 35.796 53.1623 36.0186 52.538 36.4358C51.9137 36.8529 51.4272 37.4458 51.1398 38.1395C50.8525 38.8331 50.7773 39.5964 50.9238 40.3328C51.0703 41.0692 51.4319 41.7456 51.9628 42.2765C52.4937 42.8074 53.1701 43.169 53.9065 43.3155C54.6429 43.4619 55.4062 43.3868 56.0998 43.0994C56.7935 42.8121 57.3864 42.3255 57.8035 41.7013C58.2206 41.077 58.4433 40.343 58.4433 39.5922C58.4236 38.5916 58.0173 37.6374 57.3096 36.9297C56.6019 36.222 55.6477 35.8157 54.6471 35.796Z" fill="#0066FF"/>
<path fill-rule="evenodd" clip-rule="evenodd" d="M17.2853 42.2285C16.6059 42.2248 15.9554 41.9533 15.475 41.4729C14.9946 40.9925 14.7231 40.342 14.7194 39.6626C14.7117 39.3219 14.7726 38.9831 14.8983 38.6664C15.0241 38.3496 15.2123 38.0614 15.4516 37.8187C15.6909 37.5761 15.9766 37.384 16.2916 37.2539C16.6066 37.1238 16.9445 37.0583 17.2853 37.0613C17.9738 37.0658 18.6329 37.3412 19.1197 37.8281C19.6066 38.315 19.882 38.9741 19.8863 39.6626C19.8864 40.0026 19.8189 40.3392 19.6878 40.6528C19.5566 40.9664 19.3645 41.2509 19.1225 41.4896C18.8805 41.7284 18.5934 41.9166 18.2781 42.0435C17.9627 42.1703 17.6252 42.2332 17.2853 42.2285ZM17.2853 38.7134C17.1688 38.7093 17.0527 38.7292 16.9442 38.7719C16.8357 38.8146 16.7372 38.8791 16.6547 38.9616C16.5723 39.044 16.5077 39.1425 16.465 39.251C16.4223 39.3595 16.4024 39.4756 16.4066 39.5922C16.4066 39.8252 16.4992 40.0487 16.664 40.2135C16.8287 40.3783 17.0523 40.4709 17.2853 40.4709C17.5183 40.4709 17.7418 40.3783 17.9066 40.2135C18.0714 40.0487 18.164 39.8252 18.164 39.5922C18.1711 39.4749 18.1533 39.3575 18.1117 39.2476C18.07 39.1378 18.0056 39.038 17.9225 38.955C17.8394 38.8719 17.7397 38.8074 17.6298 38.7658C17.52 38.7241 17.4025 38.7063 17.2853 38.7134Z" fill="#0066FF"/>
<path fill-rule="evenodd" clip-rule="evenodd" d="M54.6461 42.2287C53.9609 42.2287 53.3037 41.9565 52.8192 41.472C52.3347 40.9875 52.0625 40.3303 52.0625 39.6451C52.0625 38.9599 52.3347 38.3027 52.8192 37.8182C53.3037 37.3337 53.9609 37.0615 54.6461 37.0615C55.3291 37.073 55.9804 37.3519 56.4602 37.8383C56.9399 38.3246 57.2098 38.9797 57.212 39.6628C57.2083 40.3422 56.9368 40.9927 56.4564 41.4731C55.976 41.9535 55.3255 42.225 54.6461 42.2287ZM54.6461 38.7136C54.5296 38.7094 54.4135 38.7293 54.305 38.772C54.1965 38.8147 54.098 38.8793 54.0155 38.9617C53.9331 39.0442 53.8685 39.1427 53.8258 39.2512C53.7831 39.3597 53.7632 39.4758 53.7674 39.5923C53.7662 39.708 53.7882 39.8228 53.8319 39.9299C53.8757 40.0371 53.9403 40.1344 54.0222 40.2162C54.104 40.298 54.2013 40.3627 54.3085 40.4065C54.4156 40.4502 54.5304 40.4722 54.6461 40.471C54.878 40.4674 55.0994 40.3736 55.2634 40.2096C55.4274 40.0456 55.5212 39.8242 55.5248 39.5923C55.526 39.4766 55.504 39.3618 55.4603 39.2547C55.4165 39.1475 55.3519 39.0502 55.27 38.9684C55.1882 38.8865 55.0909 38.8219 54.9837 38.7781C54.8766 38.7344 54.7618 38.7124 54.6461 38.7136Z" fill="#0066FF"/>
<path fill-rule="evenodd" clip-rule="evenodd" d="M35.347 33.6519H33.5194C33.4037 33.6531 33.2889 33.6311 33.1817 33.5874C33.0746 33.5436 32.9773 33.479 32.8954 33.3971C32.8136 33.3153 32.7489 33.218 32.7052 33.1108C32.6614 33.0037 32.6395 32.8889 32.6407 32.7732C32.6443 32.5413 32.738 32.3199 32.9021 32.1559C33.0661 31.9919 33.2875 31.8981 33.5194 31.8945H35.347C35.58 31.8945 35.8035 31.9871 35.9683 32.1519C36.1331 32.3167 36.2257 32.5402 36.2257 32.7732C36.2257 33.0062 36.1331 33.2297 35.9683 33.3945C35.8035 33.5593 35.58 33.6519 35.347 33.6519Z" fill="#0066FF"/>
<path fill-rule="evenodd" clip-rule="evenodd" d="M8.10904 36.2883H6.87904C6.64599 36.2883 6.42249 36.1957 6.2577 36.0309C6.09291 35.8662 6.00034 35.6427 6.00034 35.4096C6.00034 35.1766 6.09291 34.9531 6.2577 34.7883C6.42249 34.6235 6.64599 34.5309 6.87904 34.5309H8.10904C8.50901 34.5279 8.89176 34.3677 9.17456 34.0848C9.45737 33.802 9.61753 33.4192 9.62043 33.0192C9.6115 32.6212 9.44939 32.2419 9.16787 31.9604C8.88634 31.6789 8.50708 31.5167 8.10904 31.5078H6.87904C6.76337 31.509 6.64863 31.4871 6.54152 31.4435C6.43441 31.3998 6.33708 31.3352 6.25524 31.2535C6.17339 31.1717 6.10866 31.0745 6.06484 30.9674C6.02102 30.8604 5.99899 30.7457 6.00004 30.63C6.00367 30.3981 6.09741 30.1767 6.26142 30.0127C6.42543 29.8487 6.64682 29.7549 6.87874 29.7513H8.10874C8.9578 29.7683 9.76681 30.1155 10.364 30.7193C10.9612 31.3231 11.2996 32.1358 11.3073 32.985C11.3019 33.8415 10.9665 34.6628 10.3707 35.2781C9.77496 35.8934 8.96486 36.2553 8.10904 36.2883Z" fill="#0066FF"/>
<path fill-rule="evenodd" clip-rule="evenodd" d="M65.0497 37.0263H63.1516C62.5628 37.0245 61.9802 36.9066 61.4371 36.6794C60.8939 36.4522 60.401 36.1201 59.9863 35.7021C59.5717 35.2841 59.2436 34.7885 59.0207 34.2435C58.7978 33.6986 58.6846 33.1151 58.6876 32.5263V30.312C58.6876 30.079 58.7801 29.8555 58.9449 29.6907C59.1097 29.5259 59.3332 29.4333 59.5663 29.4333C59.7993 29.4333 60.0228 29.5259 60.1876 29.6907C60.3524 29.8555 60.445 30.079 60.445 30.312V32.5263C60.4427 32.8916 60.513 33.2537 60.6518 33.5916C60.7905 33.9295 60.995 34.2365 61.2533 34.4948C61.5116 34.7531 61.8186 34.9575 62.1565 35.0963C62.4944 35.235 62.8565 35.3053 63.2218 35.3031H65.1199C65.2356 35.302 65.3505 35.3239 65.4577 35.3677C65.5649 35.4115 65.6623 35.4763 65.7441 35.5582C65.8259 35.6401 65.8906 35.7376 65.9343 35.8448C65.978 35.952 65.9998 36.0669 65.9986 36.1827C65.9616 36.4111 65.8471 36.6197 65.6742 36.7733C65.5013 36.927 65.2807 37.0164 65.0497 37.0263Z" fill="#0066FF"/>
<path fill-rule="evenodd" clip-rule="evenodd" d="M62.0279 45.1107H9.8312C9.60377 45.1023 9.38846 45.0061 9.23054 44.8422C9.07261 44.6783 8.98438 44.4596 8.98438 44.232C8.98438 44.0044 9.07261 43.7857 9.23054 43.6218C9.38846 43.458 9.60377 43.3617 9.8312 43.3533H62.0279C62.1436 43.3521 62.2585 43.374 62.3656 43.4177C62.4728 43.4615 62.5702 43.5262 62.652 43.608C62.7339 43.6898 62.7986 43.7872 62.8424 43.8943C62.8861 44.0015 62.9081 44.1163 62.9069 44.232C62.9033 44.464 62.8095 44.6854 62.6454 44.8494C62.4813 45.0135 62.2599 45.1072 62.0279 45.1107Z" fill="#0066FF"/>
<path fill-rule="evenodd" clip-rule="evenodd" d="M56.6861 49.5748H15.2108C15.0951 49.5759 14.9803 49.554 14.8731 49.5102C14.766 49.4665 14.6687 49.4018 14.5868 49.32C14.505 49.2382 14.4403 49.1408 14.3966 49.0337C14.3528 48.9266 14.3309 48.8118 14.3321 48.6961C14.3357 48.4641 14.4295 48.2427 14.5935 48.0787C14.7575 47.9147 14.9789 47.821 15.2108 47.8174H56.6861C56.918 47.8209 57.1395 47.9146 57.3036 48.0786C57.4677 48.2426 57.5614 48.4641 57.5651 48.6961C57.5662 48.8118 57.5443 48.9266 57.5005 49.0338C57.4568 49.1409 57.3921 49.2383 57.3102 49.3201C57.2283 49.4019 57.131 49.4666 57.0238 49.5103C56.9166 49.5541 56.8018 49.576 56.6861 49.5748Z" fill="#0066FF"/>
<path fill-rule="evenodd" clip-rule="evenodd" d="M32.5349 30.8048C32.303 30.8012 32.0816 30.7074 31.9176 30.5434C31.7536 30.3794 31.6599 30.158 31.6562 29.9261V25.9199C31.6875 25.7092 31.7934 25.5167 31.9547 25.3775C32.116 25.2384 32.3219 25.1618 32.5349 25.1618C32.748 25.1618 32.9539 25.2384 33.1152 25.3775C33.2765 25.5167 33.3824 25.7092 33.4136 25.9199V29.9261C33.4101 30.158 33.3164 30.3795 33.1523 30.5435C32.9883 30.7075 32.7669 30.8012 32.5349 30.8048Z" fill="#0066FF"/>
</svg>
