<svg width="72" height="72" viewBox="0 0 72 72" fill="none" xmlns="http://www.w3.org/2000/svg">
<path d="M28.8302 37.1748C28.8296 36.4985 28.6286 35.8376 28.2524 35.2756C27.8762 34.7136 27.3419 34.2757 26.7169 34.0173C26.092 33.7589 25.4044 33.6916 24.7412 33.8239C24.078 33.9562 23.4689 34.2822 22.9909 34.7606C22.5129 35.239 22.1874 35.8484 22.0557 36.5117C21.924 37.175 21.9919 37.8625 22.2509 38.4873C22.5098 39.112 22.9481 39.646 23.5105 40.0216C24.0728 40.3973 24.734 40.5978 25.4102 40.5978C26.3176 40.597 27.1874 40.236 27.8287 39.5942C28.47 38.9523 28.8302 38.0821 28.8302 37.1748ZM25.4102 38.7876C25.092 38.788 24.7808 38.6941 24.516 38.5177C24.2512 38.3413 24.0446 38.0903 23.9224 37.7965C23.8002 37.5027 23.7678 37.1793 23.8293 36.8671C23.8909 36.5549 24.0436 36.268 24.2682 36.0426C24.4929 35.8172 24.7792 35.6634 25.0912 35.6007C25.4032 35.5381 25.7267 35.5693 26.021 35.6905C26.3152 35.8117 26.5669 36.0174 26.7442 36.2816C26.9216 36.5458 27.0166 36.8566 27.0173 37.1748C27.0173 37.6016 26.8482 38.0109 26.547 38.3132C26.2457 38.6155 25.837 38.7861 25.4102 38.7876Z" fill="white" fill-opacity="0.4"/>
<path d="M41.4431 19.8776H47.4431L49.7666 23.8994H61.1465L57.9662 18.3902H52.9418L50.9519 14.9471L52.9418 11.501H57.9662L61.1462 5.99658H49.7654L48.1904 8.72328H34.5203C32.8394 8.72922 31.2059 9.28075 29.8654 10.2949C28.525 11.3091 27.55 12.7311 27.0872 14.3471L20.1542 31.5242C19.3735 32.2441 18.7503 33.1179 18.324 34.0906C17.8977 35.0633 17.6775 36.1137 17.6772 37.1757C17.6769 38.2377 17.8966 39.2882 18.3224 40.2611C18.7482 41.234 19.3709 42.1081 20.1512 42.8285L24.0812 52.8539H21.8339C18.9813 52.8569 16.2463 53.9913 14.2289 56.0083C12.2116 58.0253 11.0767 60.7601 11.0732 63.6128V63.7463C11.0733 64.2373 11.1067 64.7277 11.1734 65.2142L11.2808 65.9972H60.2708L60.3779 65.2142C60.4463 64.7279 60.4803 64.2374 60.4796 63.7463V63.6128C60.4762 60.7603 59.3416 58.0257 57.3246 56.0088C55.3075 53.9918 52.5729 52.8572 49.7204 52.8539H38.6381L31.9865 41.2304C32.5946 40.253 32.9745 39.1512 33.0981 38.0068C33.2217 36.8623 33.0857 35.7048 32.7002 34.6202L35.2442 24.1469C36.5559 24.0231 37.814 23.5658 38.899 22.8185C39.984 22.0713 40.8598 21.0589 41.4431 19.8776ZM58.6709 63.7463C58.6709 63.8912 58.6652 64.0391 58.6565 64.19H12.8978C12.8891 64.0421 12.8864 63.8942 12.8864 63.7463V63.6128C12.8889 61.2404 13.8323 58.9658 15.5097 57.2881C17.1871 55.6104 19.4615 54.6666 21.8339 54.6638H49.7219C52.0945 54.6666 54.3691 55.6103 56.0468 57.288C57.7244 58.9656 58.6682 61.2402 58.6709 63.6128V63.7463ZM19.4909 37.175C19.4912 36.0044 19.8386 34.8602 20.4892 33.887C21.1397 32.9138 22.0642 32.1554 23.1458 31.7076C24.2274 31.2599 25.4174 31.1428 26.5655 31.3714C27.7136 31.5999 28.7681 32.1637 29.5957 32.9915C30.4234 33.8194 30.987 34.874 31.2153 36.0221C31.4436 37.1702 31.3263 38.3602 30.8783 39.4417C30.4303 40.5232 29.6717 41.4476 28.6984 42.0979C27.7251 42.7483 26.5808 43.0954 25.4102 43.0955C23.8403 43.0945 22.335 42.4704 21.225 41.3603C20.1149 40.2502 19.4918 38.7449 19.4909 37.175ZM22.7564 29.9246L27.1946 18.9302C27.6464 20.2819 28.4646 21.4816 29.5581 22.3956C30.6516 23.3096 31.9774 23.902 33.3878 24.1067L31.3964 32.294C30.672 31.4055 29.7591 30.6892 28.7238 30.1969C27.6884 29.7045 26.5566 29.4485 25.4102 29.4473C24.5043 29.4472 23.6056 29.6088 22.7564 29.9246ZM30.7664 42.7388L36.5537 52.8539H26.0285L22.7213 44.4182C23.581 44.7414 24.4921 44.9066 25.4105 44.9057C27.408 44.9004 29.3275 44.1241 30.7664 42.7388ZM28.601 16.4588C28.6006 15.2879 28.9473 14.1431 29.5975 13.1693C30.2477 12.1954 31.172 11.4363 32.2537 10.9879C33.3353 10.5394 34.5257 10.4218 35.6742 10.6499C36.8227 10.878 37.8777 11.4416 38.7059 12.2693C39.5341 13.0971 40.0982 14.1518 40.3268 15.3002C40.5555 16.4486 40.4385 17.639 39.9906 18.7209C39.5427 19.8027 38.784 20.7275 37.8105 21.3781C36.8371 22.0288 35.6925 22.3762 34.5215 22.3763C32.9523 22.3745 31.4478 21.7507 30.3378 20.6415C29.2278 19.5323 28.604 18.028 28.601 16.4588ZM44.5976 14.9474L46.3976 18.0644H42.0755C42.3727 16.6925 42.2881 15.2654 41.8309 13.9382C41.3737 12.611 40.5614 11.4346 39.4823 10.5368H47.1431L44.5976 14.9474ZM58.0076 7.81008L56.9228 9.68808H51.8948L48.8606 14.9477L51.8948 20.204H56.9219L58.0067 22.0865H50.8127L46.6877 14.9465L50.8127 7.80918L58.0076 7.81008Z" fill="white" fill-opacity="0.4"/>
<path d="M37.9391 16.4591C37.9391 15.7827 37.7385 15.1214 37.3627 14.559C36.987 13.9966 36.4528 13.5582 35.8279 13.2994C35.203 13.0405 34.5153 12.9728 33.8519 13.1048C33.1885 13.2367 32.5791 13.5625 32.1008 14.0408C31.6225 14.5191 31.2968 15.1284 31.1648 15.7919C31.0329 16.4553 31.1006 17.1429 31.3595 17.7678C31.6183 18.3928 32.0567 18.9269 32.6191 19.3027C33.1815 19.6785 33.8427 19.8791 34.5191 19.8791C35.4258 19.878 36.2951 19.5174 36.9363 18.8762C37.5774 18.2351 37.9381 17.3658 37.9391 16.4591ZM36.1289 16.4591C36.1287 16.7773 36.0342 17.0884 35.8572 17.3529C35.6803 17.6174 35.4289 17.8235 35.1348 17.9452C34.8407 18.0668 34.5171 18.0985 34.205 18.0363C33.8929 17.974 33.6063 17.8207 33.3813 17.5955C33.1564 17.3704 33.0033 17.0836 32.9413 16.7714C32.8794 16.4592 32.9114 16.1357 33.0333 15.8417C33.1552 15.5477 33.3615 15.2965 33.6262 15.1198C33.8909 14.9431 34.2021 14.8488 34.5203 14.849C34.7317 14.849 34.941 14.8907 35.1362 14.9716C35.3315 15.0526 35.5088 15.1712 35.6582 15.3207C35.8076 15.4703 35.9261 15.6477 36.0068 15.8431C36.0876 16.0384 36.1291 16.2477 36.1289 16.4591Z" fill="white" fill-opacity="0.4"/>
</svg>
