<svg width="72" height="72" viewBox="0 0 72 72" fill="none" xmlns="http://www.w3.org/2000/svg">
<path d="M40.7419 27C39.4425 27 38.1722 27.3853 37.0918 28.1072C36.0114 28.8292 35.1693 29.8553 34.672 31.0558C34.1747 32.2563 34.0446 33.5773 34.2981 34.8517C34.5516 36.1262 35.1774 37.2969 36.0962 38.2157C37.015 39.1345 38.1857 39.7603 39.4601 40.0138C40.7346 40.2673 42.0556 40.1372 43.2561 39.6399C44.4566 39.1426 45.4827 38.3005 46.2046 37.2201C46.9266 36.1397 47.3119 34.8694 47.3119 33.57C47.3119 31.8275 46.6197 30.1564 45.3876 28.9243C44.1555 27.6922 42.4844 27 40.7419 27ZM45.4219 33.57C45.4219 34.4956 45.1474 35.4004 44.6332 36.1701C44.1189 36.9397 43.388 37.5395 42.5328 37.8938C41.6777 38.248 40.7367 38.3407 39.8289 38.1601C38.921 37.9795 38.0871 37.5338 37.4326 36.8793C36.7781 36.2248 36.3324 35.3909 36.1518 34.483C35.9712 33.5752 36.0639 32.6342 36.4181 31.779C36.7723 30.9239 37.3722 30.193 38.1418 29.6787C38.9114 29.1645 39.8163 28.89 40.7419 28.89C41.359 28.89 41.97 29.012 42.5398 29.2491C43.1096 29.4862 43.6268 29.8336 44.0618 30.2713C44.4968 30.7091 44.8409 31.2286 45.0743 31.7998C45.3077 32.3711 45.4258 32.9829 45.4219 33.6V33.57Z" fill="#0066FF"/>
<path d="M24.8086 33.6C24.8086 34.1578 24.974 34.703 25.2838 35.1667C25.5937 35.6305 26.0341 35.9919 26.5494 36.2054C27.0647 36.4188 27.6317 36.4747 28.1787 36.3658C28.7258 36.257 29.2283 35.9885 29.6226 35.5941C30.017 35.1997 30.2856 34.6972 30.3944 34.1502C30.5032 33.6032 30.4474 33.0361 30.2339 32.5209C30.0205 32.0056 29.659 31.5652 29.1953 31.2553C28.7316 30.9454 28.1863 30.78 27.6286 30.78C26.8807 30.78 26.1634 31.0771 25.6346 31.606C25.1057 32.1348 24.8086 32.8521 24.8086 33.6ZM28.5586 33.6C28.5586 33.784 28.504 33.9638 28.4019 34.1167C28.2997 34.2696 28.1544 34.3888 27.9845 34.4592C27.8146 34.5296 27.6276 34.548 27.4472 34.5122C27.2668 34.4763 27.101 34.3877 26.971 34.2576C26.8409 34.1276 26.7523 33.9619 26.7165 33.7815C26.6806 33.6011 26.699 33.4141 26.7694 33.2441C26.8398 33.0742 26.959 32.929 27.1119 32.8268C27.2648 32.7246 27.4447 32.67 27.6286 32.67C27.7507 32.67 27.8717 32.6941 27.9845 32.7408C28.0973 32.7876 28.1998 32.8561 28.2862 32.9424C28.3726 33.0288 28.4411 33.1313 28.4878 33.2441C28.5345 33.357 28.5586 33.4779 28.5586 33.6Z" fill="#0066FF"/>
<path d="M51.0002 33.6C50.9942 34.1662 51.1571 34.7213 51.468 35.1946C51.7788 35.6678 52.2236 36.0377 52.7456 36.2572C53.2676 36.4766 53.8431 36.5355 54.3987 36.4265C54.9543 36.3175 55.4649 36.0455 55.8653 35.6451C56.2656 35.2447 56.5377 34.7342 56.6467 34.1785C56.7557 33.6229 56.6967 33.0474 56.4773 32.5254C56.2579 32.0035 55.888 31.5587 55.4147 31.2478C54.9415 30.9369 54.3863 30.7741 53.8202 30.78C53.4498 30.78 53.0831 30.8529 52.741 30.9947C52.3989 31.1364 52.088 31.3441 51.8261 31.606C51.5643 31.8678 51.3565 32.1787 51.2148 32.5208C51.0731 32.863 51.0002 33.2297 51.0002 33.6ZM54.7502 33.6C54.7502 33.8467 54.6522 34.0832 54.4778 34.2576C54.3034 34.432 54.0668 34.53 53.8202 34.53C53.5735 34.53 53.337 34.432 53.1625 34.2576C52.9881 34.0832 52.8902 33.8467 52.8902 33.6C52.8902 33.3534 52.9881 33.1168 53.1625 32.9424C53.337 32.768 53.5735 32.67 53.8202 32.67C53.9448 32.666 54.0689 32.6871 54.1853 32.732C54.3016 32.7769 54.4077 32.8448 54.4972 32.9316C54.5868 33.0183 54.658 33.1222 54.7066 33.237C54.7552 33.3519 54.7802 33.4753 54.7802 33.6H54.7502Z" fill="#0066FF"/>
<path d="M58.62 22.41H21V23.28C21.0244 23.6602 20.9715 24.0413 20.8445 24.4005C20.7175 24.7597 20.519 25.0894 20.2611 25.3698C20.0032 25.6502 19.6911 25.8754 19.3437 26.0318C18.9964 26.1882 18.6209 26.2727 18.24 26.28H17.25V41.28H18.24C18.6036 41.276 18.9643 41.3446 19.3009 41.4819C19.6376 41.6192 19.9435 41.8223 20.2006 42.0794C20.4577 42.3365 20.6608 42.6424 20.7981 42.979C20.9354 43.3157 21.004 43.6764 21 44.04V45H34.26V43.11H22.86C22.6816 42.1802 22.2338 41.3234 21.5725 40.646C20.9111 39.9687 20.0652 39.5006 19.14 39.3V27.9C20.0363 27.7114 20.861 27.2734 21.5192 26.6365C22.1774 25.9995 22.6422 25.1896 22.86 24.3H58.62V22.41Z" fill="#0066FF"/>
<path d="M61.35 15H60.33V41.25H61.35C62.0439 41.3218 62.6866 41.6483 63.1538 42.1664C63.6209 42.6845 63.8795 43.3573 63.8795 44.055C63.8795 44.7526 63.6209 45.4254 63.1538 45.9435C62.6866 46.4616 62.0439 46.7881 61.35 46.86H15.39V20.55H58.62V18.66H13.5V22.41H9.75V26.16H6V56.16H60.39V52.41H64.14V47.67C64.7216 47.2338 65.1928 46.6674 65.5158 46.0161C65.8389 45.3648 66.0047 44.6469 66 43.92V19.53C65.9922 18.9272 65.8657 18.3319 65.6278 17.778C65.3898 17.2241 65.0451 16.7225 64.6133 16.3018C64.1815 15.8811 63.6711 15.5497 63.1111 15.3263C62.5512 15.1029 61.9528 14.992 61.35 15ZM64.08 19.62V40.2C63.5494 39.7777 62.9193 39.4988 62.25 39.39V16.92C62.7875 17.1123 63.2521 17.4666 63.5799 17.9341C63.9076 18.4015 64.0824 18.9591 64.08 19.53V19.62ZM58.47 52.62V54.45H7.92V28.05H9.75V52.41L58.47 52.62ZM61.47 48.87C61.7582 48.9155 62.0518 48.9155 62.34 48.87V50.88H11.64V24.3H13.5V48.66L61.47 48.87Z" fill="#0066FF"/>
<path d="M37.9787 43.02H35.9688V44.94H37.9787V43.02Z" fill="#0066FF"/>
<path d="M41.7588 43.02H39.7188V44.94H41.7588V43.02Z" fill="#0066FF"/>
<path d="M45.5088 43.02H43.4688V44.94H45.5088V43.02Z" fill="#0066FF"/>
</svg>
