<svg width="72" height="72" viewBox="0 0 72 72" fill="none" xmlns="http://www.w3.org/2000/svg">
<path d="M50.558 32.0959C54.7859 32.0959 58.2342 28.642 58.2342 24.4073C58.2342 20.1726 54.7859 16.7188 50.558 16.7188C46.3301 16.7188 42.8818 20.1726 42.8818 24.4073C42.8818 28.642 46.3301 32.0959 50.558 32.0959ZM50.558 18.5208C53.7964 18.5208 56.4351 21.1637 56.4351 24.4073C56.4351 27.6509 53.7964 30.2939 50.558 30.2939C47.3196 30.2939 44.6809 27.6509 44.6809 24.4073C44.6809 21.1637 47.3196 18.5208 50.558 18.5208Z" fill="#0066FF"/>
<path d="M62.1919 54.921V34.5584L63.2414 33.5072L61.6822 30.2336L62.5217 28.1913L65.97 26.96V21.8543L62.5517 20.6229L61.7121 18.5806L63.2714 15.307L59.6732 11.703L56.3748 13.2647L54.3358 12.4238L53.1064 9H48.009L46.7796 12.3938L44.7406 13.2347L41.4723 11.673L37.8741 15.277L39.4333 18.5506L38.5937 20.5929L36.8546 21.2236H9.77811V54.891H6V59.3359L10.5277 63H61.5922L66 59.3359V54.921H62.1919ZM39.913 22.0645L41.3823 18.5506L40.033 15.6974L41.8321 13.8954L44.6807 15.2469L48.2189 13.7753L49.2684 10.802H51.8171L52.8666 13.7753L56.3748 15.2469L59.2234 13.8954L61.0225 15.6974L59.6732 18.5506L61.1424 22.0946L64.1109 23.1457V25.6986L61.1424 26.7497L59.6732 30.2937L61.0225 33.1468L59.2234 34.9488L56.3748 33.5973L52.8666 35.069L51.8171 38.0423H49.2684L48.2189 35.069L44.6807 33.5973L41.8321 34.9488L40.033 33.1468L41.3823 30.2937L39.913 26.7497L36.9145 25.6986V23.1157L39.913 22.0645ZM38.5637 28.1913L39.4033 30.2336L37.8441 33.5072L41.4423 37.1112L44.7106 35.5495L46.7496 36.3904L47.979 39.8142H53.0765L54.3059 36.3904L56.3448 35.5495L56.9445 35.8498V51.6774H15.1754V26.4194H35.1454V26.96L38.5637 28.1913ZM11.5772 23.0556H35.1454V24.6174H13.3763V53.4794H58.7736V36.7208L59.6732 37.1413L60.4228 36.3904V54.9511H11.5772V23.0556ZM27.4993 56.723H44.5008V57.5039L43.991 58.0745H27.949L27.4993 57.5339V56.723ZM64.2009 58.525L60.9325 61.228H11.1574L7.7991 58.495V56.723H25.7001V58.1947L27.1094 59.8765H44.7706L46.2699 58.2247V56.7531H64.2009V58.525Z" fill="#0066FF"/>
<path d="M30.7969 35.7596H35.8969V30.6539H30.7969V35.7596ZM32.5969 32.4259H34.0969V33.9276H32.5969V32.4259Z" fill="#0066FF"/>
<path d="M29.1482 32.9666H17.7539V48.9744H33.496V37.3815H29.1482V32.9666ZM31.6969 39.1835V47.2024H19.553V34.7986H27.3491V39.2135H31.6969V39.1835Z" fill="#0066FF"/>
</svg>
