<svg width="73" height="72" viewBox="0 0 73 72" fill="none" xmlns="http://www.w3.org/2000/svg">
<path d="M37.1016 66C31.1681 66 25.3679 64.2405 20.4345 60.9441C15.501 57.6477 11.6558 52.9623 9.38519 47.4805C7.11456 41.9987 6.52046 35.9667 7.67802 30.1473C8.83557 24.3279 11.6928 18.9824 15.8884 14.7868C20.0839 10.5912 25.4294 7.73401 31.2489 6.57646C37.0683 5.4189 43.1003 6.013 48.5821 8.28363C54.0639 10.5543 58.7492 14.3994 62.0457 19.3329C65.3421 24.2664 67.1016 30.0666 67.1016 36C67.0926 43.9538 63.929 51.5792 58.3049 57.2033C52.6807 62.8275 45.0553 65.991 37.1016 66ZM37.1016 8.00011C31.5637 8.00011 26.1502 9.64228 21.5457 12.7189C16.9411 15.7956 13.3523 20.1686 11.233 25.2849C9.11379 30.4012 8.5593 36.0311 9.63969 41.4625C10.7201 46.894 13.3868 51.8831 17.3027 55.7989C21.2185 59.7148 26.2076 62.3815 31.6391 63.4619C37.0705 64.5423 42.7004 63.9878 47.8167 61.8685C52.933 59.7493 57.306 56.1605 60.3826 51.5559C63.4593 46.9514 65.1015 41.5379 65.1015 36C65.093 28.5766 62.1403 21.4596 56.8911 16.2105C51.642 10.9613 44.525 8.00861 37.1016 8.00011ZM37.1016 60.9999C31.497 61.0154 26.0535 59.1261 21.6636 55.6419C21.5527 55.5546 21.4615 55.4448 21.3961 55.3197C21.3306 55.1946 21.2924 55.0571 21.2839 54.9162C21.2754 54.7752 21.2968 54.6341 21.3468 54.5021C21.3967 54.37 21.474 54.2501 21.5736 54.15L55.2507 20.4729C55.3506 20.3731 55.4705 20.2955 55.6026 20.2453C55.7347 20.1952 55.8759 20.1736 56.0169 20.1819C56.1579 20.1902 56.2956 20.2283 56.4208 20.2937C56.546 20.359 56.656 20.4502 56.7435 20.5611C60.2279 24.9513 62.1172 30.3951 62.1015 36C62.094 42.6281 59.4577 48.9826 54.7709 53.6694C50.0842 58.3561 43.7297 60.9925 37.1016 60.9999ZM23.8026 54.7479C27.6786 57.5269 32.3314 59.0146 37.1007 59.0001C43.1985 58.9931 49.0445 56.5676 53.3563 52.2557C57.6681 47.9439 60.0935 42.0978 60.1005 36C60.115 31.2308 58.6274 26.578 55.8486 22.7019L23.8026 54.7479ZM18.6906 52.3749H18.6465C18.5078 52.3685 18.372 52.3335 18.2476 52.2721C18.1232 52.2106 18.0128 52.1241 17.9235 52.0179C13.916 47.2297 11.8467 41.1145 12.123 34.8767C12.3992 28.6389 15.0011 22.7306 19.4162 18.3155C23.8312 13.9003 29.7395 11.2983 35.9772 11.0218C42.215 10.7454 48.3303 12.8146 53.1186 16.8219C53.225 16.911 53.3116 17.0213 53.3731 17.1458C53.4345 17.2702 53.4694 17.406 53.4756 17.5447C53.4817 17.6833 53.4589 17.8217 53.4087 17.9511C53.3584 18.0805 53.2818 18.198 53.1837 18.2961L19.3977 52.0821C19.2101 52.2696 18.9558 52.3749 18.6906 52.3749ZM37.1016 12.9999C32.8209 12.9968 28.6245 14.1891 24.985 16.4427C21.3456 18.6962 18.4079 21.9214 16.5028 25.7548C14.5978 29.5881 13.8011 33.8773 14.2027 38.1391C14.6042 42.4009 16.188 46.4658 18.7755 49.8759L50.9787 17.673C46.985 14.6462 42.1126 13.0055 37.1016 12.9999Z" fill="white" fill-opacity="0.4"/>
</svg>
