<svg width="72" height="72" viewBox="0 0 72 72" fill="none" xmlns="http://www.w3.org/2000/svg">
<path d="M64.23 58.68V45.66H56.94V47.46H62.43V58.68H46.65V47.46H54.69V45.66H46.65V26.28H42.36V22.17H38.97V18.69C39.42 18.12 40.23 17.07 40.98 15.99C44.52 15.96 46.35 13.32 47.37 11.85L47.67 11.43C48.27 10.62 48.48 9.84 48.3 9.15C48.09 8.34 47.46 7.98 47.34 7.92L43.77 7.86C43.83 7.41 43.89 7.08 43.89 6.96L44.01 6H28.11L28.23 7.02C28.23 7.14 28.29 7.47 28.35 7.89H25.17L24.78 7.95C24.66 8.01 24.03 8.37 23.82 9.18C23.64 9.87 23.85 10.65 24.45 11.46L24.75 11.88C25.77 13.32 27.6 15.96 31.14 16.02C31.89 17.1 32.7 18.15 33.15 18.72V22.17H30.12V26.31H25.08V40.23H7.74V56.22H9.54V42H25.08V58.68H6V66H66V58.71H64.23V58.68ZM43.44 9.66H46.53C46.53 9.78 46.44 10.02 46.2 10.38L45.9 10.83C45.15 11.94 44.1 13.44 42.27 13.98C42.3 13.92 42.36 13.83 42.39 13.74C42.81 12.84 43.2 11.16 43.44 9.66ZM41.94 7.8C41.7 9.45 41.22 12 40.74 12.99C40.2 14.13 38.4 16.5 37.5 17.67H34.59C33.69 16.5 31.89 14.16 31.35 12.99C30.87 12 30.42 9.42 30.15 7.8H41.94ZM26.22 10.83L25.92 10.38C25.65 9.99 25.59 9.78 25.59 9.66H28.65C28.92 11.13 29.28 12.84 29.73 13.77C29.76 13.83 29.82 13.92 29.85 14.01C28.05 13.44 26.97 11.94 26.22 10.83ZM34.92 19.47H37.14V22.17H34.92V19.47ZM31.89 23.97H40.56V26.31H31.89V23.97ZM26.88 28.08H44.85V58.68H26.88V28.08ZM64.2 64.2H7.8V60.51H64.2V64.2Z" fill="#0066FF"/>
<path d="M33.1201 39.03V40.83H35.3401V48.21H37.1401V39.03H33.1201Z" fill="#0066FF"/>
<path d="M19.5597 47.04C19.0497 46.44 18.2997 46.14 17.3097 46.14C15.2997 46.14 14.3997 47.91 14.2197 48.87L15.9897 49.23C16.0197 49.11 16.2897 47.94 17.3397 47.94C17.6397 47.94 18.0297 48 18.2397 48.21C18.4197 48.39 18.4497 48.78 18.3897 49.26C18.2697 49.77 16.7697 51.6 15.1197 53.19L14.8497 53.46V55.47H20.3997V53.67H17.1597C18.3597 52.44 19.9497 50.61 20.1297 49.56C20.2797 48.51 20.0697 47.64 19.5597 47.04Z" fill="#0066FF"/>
<path d="M51.8701 51.21L53.6701 51.45C53.7001 51.15 53.8501 50.43 54.7801 50.49C55.0501 50.49 55.2301 50.55 55.3201 50.67C55.4701 50.85 55.4701 51.18 55.4401 51.33C55.3801 51.63 55.2001 52.11 54.3001 52.05L54.1801 53.85C54.2701 53.85 54.3901 53.85 54.4801 53.85C54.7801 53.85 55.0201 53.76 55.2901 53.7C55.5901 53.85 56.0101 54.15 55.8901 54.75C55.8001 55.23 55.2001 55.65 54.8101 55.65H54.7801C54.4201 55.62 53.7601 55.35 53.7001 54.48L51.9001 54.6C51.9901 56.34 53.3401 57.36 54.6301 57.48C54.6901 57.48 54.7501 57.48 54.8101 57.48C56.0701 57.48 57.3901 56.43 57.6601 55.14C57.9001 53.97 57.4501 53.16 56.8501 52.62C57.0601 52.29 57.2101 51.93 57.2701 51.63C57.3001 51.51 57.4501 50.4 56.7601 49.56C56.4601 49.2 55.8901 48.75 54.9001 48.72C52.8001 48.66 51.9901 50.16 51.8701 51.21Z" fill="#0066FF"/>
</svg>
