<svg width="72" height="72" viewBox="0 0 72 72" fill="none" xmlns="http://www.w3.org/2000/svg">
<path d="M29.3719 9.27C29.3719 8.904 29.5173 8.55299 29.7761 8.29419C30.0349 8.03539 30.3859 7.89 30.7519 7.89H41.3119C41.6779 7.89 42.0289 8.03539 42.2877 8.29419C42.5465 8.55299 42.6919 8.904 42.6919 9.27V18.93H44.6119V9.27C44.5963 8.40244 44.2427 7.57523 43.6263 6.96448C43.0099 6.35373 42.1795 6.00768 41.3119 6H30.7519C29.879 5.99986 29.041 6.34245 28.4182 6.95403C27.7954 7.5656 27.4376 8.39727 27.4219 9.27V13.5H29.3719V9.27Z" fill="#0066FF"/>
<path d="M42.6889 62.7299C42.6889 62.9112 42.6532 63.0906 42.5839 63.258C42.5145 63.4255 42.4129 63.5776 42.2847 63.7058C42.1566 63.8339 42.0044 63.9355 41.837 64.0049C41.6696 64.0742 41.4901 64.1099 41.3089 64.1099H40.3789V65.9999H41.3089C42.1869 65.992 43.0262 65.6377 43.6442 65.0141C44.2622 64.3904 44.6089 63.5479 44.6089 62.6699V57.6899H42.6889V62.7299Z" fill="#0066FF"/>
<path d="M29.3686 62.7299V42.6299H27.4186V51.4799H25.5886H23.3086V53.3099H27.4186V62.6099C27.4106 63.0522 27.4909 63.4917 27.6546 63.9026C27.8184 64.3136 28.0624 64.6878 28.3725 65.0034C28.6825 65.319 29.0523 65.5697 29.4602 65.7408C29.8682 65.9119 30.3062 66 30.7486 65.9999H38.7886V64.0499H30.7486C30.3928 64.0502 30.0505 63.9131 29.7934 63.6671C29.5363 63.4212 29.3841 63.0854 29.3686 62.7299Z" fill="#0066FF"/>
<path d="M44.6414 24.8701H42.6914V35.3701H44.6414V24.8701Z" fill="#0066FF"/>
<path d="M44.6414 41.28H42.6914V51.78H44.6414V41.28Z" fill="#0066FF"/>
<path d="M21.5083 51.6001L19.7383 51.8101L20.0083 53.7601C20.5643 53.6673 21.1252 53.6072 21.6883 53.5801L21.5983 51.6001H21.5083Z" fill="#0066FF"/>
<path d="M18.0005 52.1101L16.2305 52.5001L16.6505 54.3901L18.3905 54.0001L18.0005 52.0801V52.1101Z" fill="#0066FF"/>
<path d="M14.5811 52.8899L12.8711 53.2499L13.2311 55.1699L15.0311 54.8099H15.0011L14.5811 52.9199V52.8899Z" fill="#0066FF"/>
<path d="M11.2491 53.49L9.53906 53.64V55.47L11.3391 55.29L11.0991 53.46L11.2491 53.49Z" fill="#0066FF"/>
<path d="M7.74 53.76H6V55.71H7.98V53.76H7.74Z" fill="#0066FF"/>
<path d="M60.6889 46.98L59.3689 48.27L62.5189 51.42C59.9154 51.5213 57.3304 51.9035 54.8089 52.56C51.6977 53.3835 48.4865 53.7672 45.2689 53.7H43.7689C41.2607 53.6612 38.7648 53.3392 36.3289 52.74L35.8789 54.63C38.4432 55.2582 41.0692 55.6003 43.7089 55.65H45.2689C48.6383 55.7118 52 55.308 55.2589 54.45C57.602 53.8232 60.0059 53.451 62.4289 53.34L59.4289 56.34L60.7489 57.66L65.9989 52.47L60.6289 47.1L60.6889 46.98Z" fill="#0066FF"/>
<path d="M25.5887 35.04H23.2188V36.9C24.5087 36.9 25.8888 36.9 27.2388 36.9V40.95H29.1887V15H27.4188V18.63H25.5887H23.3088V20.49H27.4188V34.98L25.5887 35.04Z" fill="#0066FF"/>
<path d="M21.5083 35.1901L19.7383 35.4001L20.0083 37.2301L21.6883 37.0201L21.5083 35.1001V35.1901Z" fill="#0066FF"/>
<path d="M18.0005 35.6699L16.2305 35.9999L16.6505 37.8899L18.3905 37.5299L18.0005 35.6699Z" fill="#0066FF"/>
<path d="M14.5811 36.45L12.8711 36.84L13.2311 38.76C13.8379 38.6638 14.4389 38.5336 15.0311 38.37H15.0011L14.5811 36.48V36.45Z" fill="#0066FF"/>
<path d="M11.1592 37.0801C10.5929 37.1713 10.0221 37.2314 9.44922 37.2601V39.1201C10.101 39.1184 10.7521 39.0783 11.3992 39.0001L11.1592 37.0801Z" fill="#0066FF"/>
<path d="M7.74 37.3501H6V39.3001H7.98V37.3801L7.74 37.3501Z" fill="#0066FF"/>
<path d="M59.3716 31.8601L62.5216 34.8601C59.9057 34.9565 57.3091 35.349 54.7816 36.0301C51.6675 36.8382 48.4584 37.2217 45.2416 37.1701H43.7416C41.2333 37.1313 38.7375 36.8093 36.3016 36.2101L35.8516 38.1001C38.4159 38.7283 41.0419 39.0704 43.6816 39.1201H45.2416C48.62 39.1661 51.9895 38.7626 55.2616 37.9201C57.6016 37.2785 60.0071 36.9061 62.4316 36.8101L59.4316 39.8101L60.7516 41.1001L66.0016 36.0001L60.5716 30.5701L59.3716 31.8601Z" fill="#0066FF"/>
<path d="M36.2391 19.9499L35.7891 21.8399C38.3506 22.4829 40.9783 22.8252 43.6191 22.8599H45.1791C48.5584 22.9233 51.9303 22.5195 55.1991 21.6599C57.5437 21.0453 59.9474 20.6832 62.3691 20.5799L59.3691 23.5799L60.7491 24.9599L65.9991 19.6499L60.6891 14.1299L59.3691 15.4499L62.5191 18.4499C59.9059 18.5541 57.3113 18.9362 54.7791 19.5899C51.6622 20.5133 48.4298 20.9881 45.1791 20.9999H43.6791C41.1661 20.9471 38.6685 20.5946 36.2391 19.9499Z" fill="#0066FF"/>
<path d="M21.5083 18.78L19.7383 18.96L20.0083 20.79V21L21.6883 20.82L21.5983 18.78H21.5083Z" fill="#0066FF"/>
<path d="M18.0005 19.26L16.2305 19.65L16.6505 21.54L18.3905 21.18L18.0005 19.26Z" fill="#0066FF"/>
<path d="M14.5811 20.04L12.8711 20.4L13.2311 22.29L15.0011 21.93L14.5811 20.04Z" fill="#0066FF"/>
<path d="M11.1592 20.6699L9.44922 20.9999V22.8299C10.0519 22.8012 10.6527 22.7411 11.2492 22.6499L11.0092 20.7299L11.1592 20.6699Z" fill="#0066FF"/>
<path d="M7.74 21H6V22.92H7.98V21H7.74Z" fill="#0066FF"/>
<path d="M40.9188 9.44995H38.9688V11.4H40.9188V9.44995Z" fill="#0066FF"/>
<path d="M40.9188 12.99H38.9688V14.94H40.9188V12.99Z" fill="#0066FF"/>
<path d="M33.0906 60.6001H31.1406V62.5501H33.0906V60.6001Z" fill="#0066FF"/>
<path d="M33.0906 57.0901H31.1406V59.0401H33.0906V57.0901Z" fill="#0066FF"/>
</svg>
