<svg width="72" height="72" viewBox="0 0 72 72" fill="none" xmlns="http://www.w3.org/2000/svg">
<path d="M32.4582 44.397L19.3629 31.317L21.1728 29.5071L32.4582 40.8087L48.8082 24.4587L50.6016 26.2524L32.4582 44.397Z" fill="#0066FF"/>
<path d="M34.9983 66L19.9347 56.667C17.1758 55.0081 14.8919 52.6651 13.3041 49.8648C11.7162 47.0644 10.8782 43.9016 10.8711 40.6824V14.6667H12.141C21.3948 14.6667 29.9982 11.6826 34.0458 7.0794L34.9983 6L35.9508 7.08C39.9984 11.6832 48.5856 14.6673 57.8553 14.6673H59.1249V40.683C59.1164 43.9058 58.2762 47.0719 56.6857 49.875C55.0951 52.678 52.808 55.023 50.0457 56.6832L34.9983 66ZM13.41 17.19V40.6977C13.4164 43.4802 14.1418 46.2138 15.5158 48.6334C16.8898 51.053 18.8657 53.0765 21.252 54.5076L34.9983 63.0159L48.7284 54.5076C51.118 53.0751 53.0969 51.0496 54.4735 48.6274C55.85 46.2052 56.5775 43.4684 56.5854 40.6824V17.19C48.7372 17.3477 41.0877 14.7156 34.9983 9.762C28.9085 14.7157 21.2585 17.3479 13.41 17.19Z" fill="#0066FF"/>
</svg>
