<svg width="73" height="72" viewBox="0 0 73 72" fill="none" xmlns="http://www.w3.org/2000/svg">
<path d="M29.1633 37.1748C29.1627 36.4985 28.9617 35.8376 28.5855 35.2756C28.2093 34.7136 27.675 34.2757 27.05 34.0173C26.4251 33.7589 25.7375 33.6916 25.0743 33.8239C24.4111 33.9562 23.802 34.2822 23.324 34.7606C22.846 35.239 22.5205 35.8484 22.3888 36.5117C22.2571 37.175 22.325 37.8625 22.584 38.4873C22.8429 39.112 23.2812 39.646 23.8436 40.0216C24.4059 40.3973 25.067 40.5978 25.7433 40.5978C26.6507 40.597 27.5205 40.236 28.1618 39.5942C28.8031 38.9523 29.1633 38.0821 29.1633 37.1748ZM25.7433 38.7876C25.4251 38.788 25.1139 38.6941 24.8491 38.5177C24.5843 38.3413 24.3777 38.0903 24.2555 37.7965C24.1333 37.5027 24.1009 37.1793 24.1624 36.8671C24.224 36.5549 24.3767 36.268 24.6013 36.0426C24.826 35.8172 25.1123 35.6634 25.4243 35.6007C25.7363 35.5381 26.0598 35.5693 26.3541 35.6905C26.6483 35.8117 26.9 36.0174 27.0773 36.2816C27.2547 36.5458 27.3497 36.8566 27.3504 37.1748C27.3504 37.6016 27.1813 38.0109 26.8801 38.3132C26.5788 38.6155 26.1701 38.7861 25.7433 38.7876Z" fill="white" fill-opacity="0.4"/>
<path d="M41.7762 19.8775H47.7762L50.0997 23.8993H61.4796L58.2993 18.3901H53.2749L51.285 14.947L53.2749 11.5009H58.2993L61.4793 5.99646H50.0985L48.5235 8.72316H34.8534C33.1725 8.72909 31.539 9.28063 30.1985 10.2948C28.8581 11.309 27.8831 12.731 27.4203 14.347L20.4873 31.5241C19.7066 32.244 19.0834 33.1178 18.6571 34.0905C18.2308 35.0631 18.0106 36.1136 18.0103 37.1756C18.01 38.2375 18.2297 39.2881 18.6555 40.261C19.0813 41.2339 19.704 42.108 20.4843 42.8284L24.4143 52.8538H22.167C19.3144 52.8568 16.5794 53.9912 14.562 56.0082C12.5447 58.0252 11.4098 60.76 11.4063 63.6127V63.7462C11.4064 64.2372 11.4398 64.7276 11.5065 65.2141L11.6139 65.9971H60.6039L60.711 65.2141C60.7794 64.7278 60.8134 64.2372 60.8127 63.7462V63.6127C60.8093 60.7602 59.6747 58.0256 57.6577 56.0086C55.6406 53.9917 52.906 52.8571 50.0535 52.8538H38.9712L32.3196 41.2303C32.9277 40.2529 33.3076 39.1511 33.4312 38.0066C33.5548 36.8622 33.4188 35.7047 33.0333 34.6201L35.5773 24.1468C36.889 24.023 38.1471 23.5657 39.2321 22.8184C40.3171 22.0711 41.1929 21.0587 41.7762 19.8775ZM59.004 63.7462C59.004 63.8911 58.9983 64.039 58.9896 64.1899H13.2309C13.2222 64.042 13.2195 63.8941 13.2195 63.7462V63.6127C13.222 61.2403 14.1654 58.9657 15.8428 57.288C17.5202 55.6103 19.7946 54.6665 22.167 54.6637H50.055C52.4276 54.6664 54.7022 55.6102 56.3799 57.2878C58.0575 58.9655 59.0013 61.2401 59.004 63.6127V63.7462ZM19.824 37.1749C19.8243 36.0043 20.1717 34.86 20.8223 33.8869C21.4728 32.9137 22.3973 32.1553 23.4789 31.7075C24.5605 31.2597 25.7505 31.1427 26.8986 31.3713C28.0467 31.5998 29.1012 32.1636 29.9288 32.9914C30.7565 33.8192 31.3201 34.8739 31.5484 36.022C31.7767 37.1701 31.6594 38.3601 31.2114 39.4416C30.7634 40.5231 30.0048 41.4474 29.0315 42.0978C28.0582 42.7481 26.9139 43.0953 25.7433 43.0954C24.1734 43.0944 22.6681 42.4703 21.5581 41.3602C20.448 40.2501 19.8249 38.7448 19.824 37.1749ZM23.0895 29.9245L27.5277 18.9301C27.9795 20.2818 28.7977 21.4815 29.8912 22.3955C30.9847 23.3095 32.3105 23.9018 33.7209 24.1066L31.7295 32.2939C31.0051 31.4054 30.0922 30.6891 29.0569 30.1967C28.0215 29.7044 26.8897 29.4484 25.7433 29.4472C24.8374 29.4471 23.9387 29.6087 23.0895 29.9245ZM31.0995 42.7387L36.8868 52.8538H26.3616L23.0544 44.4181C23.9141 44.7413 24.8252 44.9065 25.7436 44.9056C27.7411 44.9002 29.6606 44.124 31.0995 42.7387ZM28.9341 16.4587C28.9337 15.2877 29.2804 14.143 29.9306 13.1691C30.5808 12.1953 31.5051 11.4362 32.5868 10.9877C33.6684 10.5393 34.8588 10.4217 36.0073 10.6498C37.1558 10.8779 38.2108 11.4414 39.039 12.2692C39.8672 13.097 40.4313 14.1517 40.6599 15.3001C40.8886 16.4485 40.7716 17.6389 40.3237 18.7207C39.8758 19.8026 39.1171 20.7274 38.1436 21.378C37.1702 22.0287 36.0256 22.376 34.8546 22.3762C33.2854 22.3744 31.7809 21.7506 30.6709 20.6414C29.5609 19.5322 28.9371 18.0279 28.9341 16.4587ZM44.9307 14.9473L46.7307 18.0643H42.4086C42.7058 16.6924 42.6212 15.2652 42.164 13.9381C41.7068 12.6109 40.8945 11.4345 39.8154 10.5367H47.4762L44.9307 14.9473ZM58.3407 7.80996L57.2559 9.68796H52.2279L49.1937 14.9476L52.2279 20.2039H57.255L58.3398 22.0864H51.1458L47.0208 14.9464L51.1458 7.80906L58.3407 7.80996Z" fill="white" fill-opacity="0.4"/>
<path d="M38.2722 16.4589C38.2722 15.7825 38.0717 15.1213 37.6959 14.5589C37.3201 13.9965 36.7859 13.5581 36.161 13.2993C35.5361 13.0404 34.8484 12.9727 34.185 13.1047C33.5216 13.2366 32.9122 13.5623 32.4339 14.0406C31.9556 14.5189 31.6299 15.1283 31.498 15.7917C31.366 16.4551 31.4337 17.1428 31.6926 17.7677C31.9514 18.3926 32.3898 18.9268 32.9522 19.3026C33.5146 19.6784 34.1758 19.8789 34.8522 19.8789C35.759 19.8779 36.6282 19.5173 37.2694 18.8761C37.9105 18.235 38.2712 17.3657 38.2722 16.4589ZM36.462 16.4589C36.4619 16.7772 36.3673 17.0883 36.1904 17.3528C36.0134 17.6173 35.762 17.8234 35.4679 17.9451C35.1738 18.0667 34.8502 18.0984 34.5381 18.0362C34.226 17.9739 33.9394 17.8205 33.7144 17.5954C33.4895 17.3702 33.3364 17.0835 33.2744 16.7713C33.2125 16.4591 33.2445 16.1356 33.3664 15.8416C33.4883 15.5476 33.6947 15.2964 33.9593 15.1197C34.224 14.943 34.5352 14.8487 34.8534 14.8488C35.0648 14.8489 35.2741 14.8906 35.4693 14.9715C35.6646 15.0525 35.8419 15.1711 35.9913 15.3206C36.1407 15.4701 36.2592 15.6476 36.3399 15.8429C36.4207 16.0383 36.4622 16.2476 36.462 16.4589Z" fill="white" fill-opacity="0.4"/>
</svg>
