<svg width="72" height="72" viewBox="0 0 72 72" fill="none" xmlns="http://www.w3.org/2000/svg">
<path d="M18.1373 40.251L16.8009 41.5875L18.1797 42.9663L19.5162 41.6299L18.1373 40.251Z" fill="white" fill-opacity="0.4"/>
<path d="M56.1306 41.6099L54.8106 40.2899L53.4306 41.6699L54.7506 42.9899L56.1306 41.6099Z" fill="white" fill-opacity="0.4"/>
<path d="M63.3906 33.8399C58.9315 32.1554 54.2072 31.2817 49.4406 31.2599L42.3306 26.7599C40.2174 25.4066 37.7601 24.6881 35.2506 24.6899H27.0006C24.8123 24.6911 22.6546 25.2048 20.7006 26.1899L16.2306 28.4099C14.9043 29.0775 13.4737 29.5137 12.0006 29.6999L8.40061 29.9999C7.71278 30.1402 7.09592 30.5172 6.65739 31.0654C6.21887 31.6135 5.98646 32.2981 6.00061 32.9999V38.6099C6.00571 39.4279 6.27391 40.2225 6.76556 40.8762C7.2572 41.53 7.94619 42.0081 8.73061 42.2399L12.8706 43.4399C13.2425 44.5717 13.9614 45.5577 14.9254 46.2577C15.8893 46.9578 17.0493 47.3364 18.2406 47.3399C19.2271 47.3387 20.1958 47.0774 21.0491 46.5823C21.9024 46.0872 22.61 45.3758 23.1006 44.5199H50.1006C50.8038 45.6822 51.9049 46.5497 53.1993 46.9616C54.4938 47.3735 55.8937 47.3017 57.1393 46.7596C58.3848 46.2174 59.3913 45.2418 59.972 44.0137C60.5526 42.7857 60.668 41.3887 60.2966 40.082C59.9253 38.7754 59.0924 37.6478 57.9527 36.9088C56.8129 36.1697 55.4437 35.8692 54.0992 36.0632C52.7548 36.2572 51.5263 36.9324 50.642 37.9635C49.7576 38.9946 49.2775 40.3116 49.2906 41.6699C49.2906 41.9699 49.2906 42.2699 49.2906 42.5699H23.7306C23.7601 42.2707 23.7601 41.9692 23.7306 41.6699C23.6822 40.2312 23.0884 38.8647 22.0695 37.8476C21.0506 36.8306 19.6831 36.2392 18.2442 36.1934C16.8053 36.1476 15.4029 36.6508 14.3214 37.601C13.24 38.5512 12.5604 39.8772 12.4206 41.3099L9.09061 40.3799C8.71039 40.2646 8.37709 40.0305 8.13956 39.712C7.90202 39.3935 7.77272 39.0073 7.77061 38.6099V35.9999H9.63061V34.0499H7.86061V32.9999C7.85865 32.7807 7.93683 32.5682 8.08045 32.4025C8.22408 32.2368 8.42327 32.1292 8.64061 32.0999L12.0006 31.6199C13.6945 31.4198 15.3398 30.9222 16.8606 30.1499L17.4006 29.9999C17.4006 29.9999 17.4006 29.9999 17.4006 30.1799L18.8406 31.6199C19.912 32.6764 21.3559 33.2691 22.8606 33.2699H24.6606V31.3199H22.5306L23.4306 27.2999C24.5803 26.9002 25.784 26.6776 27.0006 26.6399H31.3806V31.2599H27.5106V33.2099H49.1406C53.7237 33.2198 58.2706 34.0216 62.5806 35.5799C62.7369 35.7027 62.8779 35.8437 63.0006 35.9999H61.2306V37.9499H63.9906C63.9906 37.9499 63.9906 37.9499 63.9906 38.1299V41.1299C63.9906 41.7599 63.7506 42.4499 63.0906 42.4499H62.1006V44.3999H63.0906C63.5084 44.4016 63.9219 44.3161 64.3046 44.1487C64.6874 43.9814 65.031 43.7359 65.3134 43.4281C65.5958 43.1202 65.8108 42.7568 65.9447 42.3611C66.0785 41.9653 66.1282 41.546 66.0906 41.1299V38.1299C66.1001 37.2311 65.8505 36.3485 65.3717 35.5878C64.8929 34.827 64.2051 34.2202 63.3906 33.8399ZM54.7806 37.9199C55.7672 37.9199 56.7134 38.3119 57.411 39.0095C58.1087 39.7071 58.5006 40.6533 58.5006 41.6399C58.5006 42.6266 58.1087 43.5727 57.411 44.2704C56.7134 44.968 55.7672 45.3599 54.7806 45.3599C53.794 45.3599 52.8478 44.968 52.1502 44.2704C51.4525 43.5727 51.0606 42.6266 51.0606 41.6399C51.0606 40.6533 51.4525 39.7071 52.1502 39.0095C52.8478 38.3119 53.794 37.9199 54.7806 37.9199ZM18.1506 37.9199C18.8864 37.9199 19.6056 38.1381 20.2173 38.5469C20.8291 38.9556 21.3059 39.5366 21.5874 40.2164C21.869 40.8961 21.9427 41.6441 21.7991 42.3657C21.6556 43.0873 21.3013 43.7501 20.781 44.2704C20.2608 44.7906 19.598 45.1449 18.8763 45.2885C18.1547 45.432 17.4068 45.3583 16.727 45.0768C16.0473 44.7952 15.4663 44.3184 15.0575 43.7067C14.6488 43.0949 14.4306 42.3757 14.4306 41.6399C14.4306 40.6533 14.8225 39.7071 15.5202 39.0095C16.2178 38.3119 17.164 37.9199 18.1506 37.9199ZM20.2806 30.1799L19.1706 29.0699L21.3306 27.9899L20.7606 30.4799L20.2806 30.1799ZM33.2106 26.6399H35.2506C37.3799 26.6357 39.4645 27.2506 41.2506 28.4099L45.7806 31.2599H33.1806L33.2106 26.6399Z" fill="white" fill-opacity="0.4"/>
<path d="M46.3506 38.7899H26.6106V40.7399H46.3506V38.7899Z" fill="white" fill-opacity="0.4"/>
</svg>
