<svg width="72" height="72" viewBox="0 0 72 72" fill="none" xmlns="http://www.w3.org/2000/svg">
<path d="M33.0969 58.2581H31.1613V60.1937H33.0969V58.2581Z" fill="white" fill-opacity="0.4"/>
<path d="M29.226 58.2581H27.2904V60.1937H29.226V58.2581Z" fill="white" fill-opacity="0.4"/>
<path d="M46.6452 31.1612H44.7096V33.0968H46.6452V31.1612Z" fill="white" fill-opacity="0.4"/>
<path d="M42.7743 31.1612H40.8387V33.0968H42.7743V31.1612Z" fill="white" fill-opacity="0.4"/>
<path d="M60.1938 58.2581H58.2582V60.1937H60.1938V58.2581Z" fill="white" fill-opacity="0.4"/>
<path d="M56.3226 58.2581H54.387V60.1937H56.3226V58.2581Z" fill="white" fill-opacity="0.4"/>
<path d="M64.0644 62.1299V35.0321H50.5161V7.93555H21.4839V35.0321H7.9356V62.1299H6V64.0652H66V62.1299H64.0644ZM52.4517 36.9686V42.503L49.5483 41.7773L46.6452 42.503V36.9677L52.4517 36.9686ZM38.9031 9.86995V15.4055L36 14.6795L33.0969 15.4055V9.86995H38.9031ZM23.4195 9.86995H31.1613V17.8847L36 16.6751L40.8387 17.8847V9.86995H48.5805V35.0312H23.4195V9.86995ZM25.3539 36.9668V42.5012L22.4508 41.7755L19.5474 42.5012V36.9677L25.3539 36.9668ZM9.87 62.1299V36.9677H17.613V44.9816L22.4517 43.7717L27.2904 44.9816V36.9677H35.0322V62.1299H9.87ZM36.9669 62.1299V36.9677H44.7087V44.9816L49.5474 43.7717L54.3861 44.9816V36.9677H62.13V62.1299H36.9669Z" fill="white" fill-opacity="0.4"/>
</svg>
