<svg width="72" height="72" viewBox="0 0 72 72" fill="none" xmlns="http://www.w3.org/2000/svg">
<path d="M46.8591 32.2502C46.8591 23.2502 39.5091 15.9302 30.4491 15.9302C21.3891 15.9302 14.0391 23.2502 14.0391 32.2502C14.0391 41.2502 21.3891 48.5702 30.4491 48.5702C39.5091 48.6002 46.8591 41.2502 46.8591 32.2502ZM15.8391 32.2502C15.8391 24.2402 22.3791 17.7302 30.4491 17.7302C38.4891 17.7302 45.0591 24.2402 45.0591 32.2502C45.0591 40.2602 38.5191 46.7702 30.4491 46.7702C22.4091 46.8002 15.8391 40.2602 15.8391 32.2502Z" fill="#0066FF"/>
<path d="M36.3895 38.9999L37.0195 37.4699L44.1295 37.4999L44.8195 35.8199L44.6695 35.4599C44.6095 35.3099 43.3495 32.5499 40.7995 31.2299C41.3695 30.5999 41.7295 29.8199 41.7295 28.9199C41.7295 26.9999 40.1695 25.4399 38.2195 25.4399C36.2695 25.4399 34.7095 26.9999 34.7095 28.9199C34.7095 29.7599 35.0395 30.5099 35.5495 31.1099C34.7095 31.4999 33.9595 32.0699 33.2695 32.8499C33.2095 32.8199 33.1195 32.7899 33.0595 32.7299C33.6295 32.0999 33.9895 31.3199 33.9895 30.4199C33.9895 28.4999 32.4295 26.9399 30.4795 26.9399C28.5295 26.9399 26.9695 28.4999 26.9695 30.4199C26.9695 31.2599 27.2995 32.0099 27.8095 32.6099C27.6895 32.6699 27.5695 32.6999 27.4795 32.7599C26.8195 32.0399 26.0995 31.4699 25.2895 31.1099C25.7995 30.5099 26.1295 29.7599 26.1295 28.9199C26.1295 26.9999 24.5695 25.4399 22.6195 25.4399C20.6695 25.4399 19.1095 26.9699 19.1095 28.8899C19.1095 29.7899 19.4695 30.5999 20.0395 31.1999C17.4595 32.5199 16.2295 35.2799 16.1695 35.4299L16.0195 35.7899L16.7095 37.4699L23.8195 37.4399L24.4195 38.9999H36.3895ZM25.8595 37.1099C26.3695 36.0899 27.7495 33.8999 30.2395 33.8699C32.6995 33.8999 34.2595 36.0299 34.8895 37.1099H25.8595ZM38.1895 27.2699C39.0895 27.2699 39.8395 27.9899 39.8395 28.8899C39.8395 29.7899 39.1195 30.5099 38.1895 30.5099C37.2595 30.5099 36.5395 29.7899 36.5395 28.8899C36.5395 27.9899 37.2895 27.2699 38.1895 27.2699ZM37.9795 32.3699C40.4395 32.3999 41.9995 34.5299 42.6295 35.5799L36.1195 35.5499C35.7895 35.0399 35.3095 34.4699 34.7395 33.9299C35.6695 32.9399 36.7495 32.3999 37.9795 32.3699ZM30.4495 28.7699C31.3495 28.7699 32.0995 29.4899 32.0995 30.3899C32.0995 31.2899 31.3795 32.0099 30.4495 32.0099C29.5195 32.0099 28.7995 31.2899 28.7995 30.3899C28.7995 29.4899 29.5495 28.7699 30.4495 28.7699ZM22.6195 27.2699C23.5195 27.2699 24.2695 27.9899 24.2695 28.8899C24.2695 29.7899 23.5495 30.5099 22.6195 30.5099C21.7195 30.5099 20.9695 29.7899 20.9695 28.8899C20.9695 27.9899 21.7195 27.2699 22.6195 27.2699ZM22.8295 32.3699C23.9995 32.3699 25.0495 32.8799 25.9795 33.8399C25.3795 34.4099 24.9295 35.0399 24.5995 35.5799L18.2095 35.6099C18.8095 34.5299 20.3695 32.3999 22.8295 32.3699Z" fill="#0066FF"/>
<path d="M52.9493 46.3799L51.7493 47.5799L47.2793 43.1099C49.0493 40.4099 50.1593 37.2599 50.4293 33.8399H54.2693V32.0399H50.4893C50.3693 21.4499 41.9093 12.8399 31.3493 12.3899V8.93994H29.5493V12.3599C18.9893 12.8399 10.5593 21.4499 10.4393 32.0099H6.7793V33.8099H10.4993C11.2793 43.7699 19.4393 51.6899 29.5493 52.1399V55.9199H31.3493V52.1399C35.6693 51.9599 39.5993 50.3999 42.8093 47.9099L47.0993 52.1999L46.3793 52.9199L59.4293 65.9999L65.9993 59.4299L52.9493 46.3799ZM12.2093 32.2499C12.2093 22.2599 20.3993 14.1299 30.4493 14.1299C40.4993 14.1299 48.6893 22.2599 48.6893 32.2499C48.6893 42.2399 40.4993 50.3699 30.4493 50.3699C20.3993 50.3699 12.2093 42.2699 12.2093 32.2499ZM44.1893 46.7399C44.9093 46.0499 45.5693 45.3299 46.1993 44.5499L50.4893 48.8399L48.3893 50.9399L44.1893 46.7399ZM48.9293 52.9499L52.9493 48.9299L63.4493 59.4299L59.4293 63.4499L48.9293 52.9499Z" fill="#0066FF"/>
<path d="M7.8 7.8H12.27V6H6V12.81H7.8V7.8Z" fill="#0066FF"/>
<path d="M51.9895 12.81H53.7895V6H47.5195V7.8H51.9895V12.81Z" fill="#0066FF"/>
<path d="M7.8 51.3003H6V58.1103H12.27V56.3103H7.8V51.3003Z" fill="#0066FF"/>
</svg>
