<svg width="72" height="72" viewBox="0 0 72 72" fill="none" xmlns="http://www.w3.org/2000/svg">
<path d="M46.5914 12.72H18.6914V14.58H46.5914V12.72Z" fill="#0066FF"/>
<path d="M40.0214 19.05H18.6914V20.91H40.0214V19.05Z" fill="#0066FF"/>
<path d="M40.0214 44.13H18.6914V45.99H40.0214V44.13Z" fill="#0066FF"/>
<path d="M40.0214 50.46H18.6914V52.32H40.0214V50.46Z" fill="#0066FF"/>
<path d="M51.9595 24.36C48.2695 24.36 45.2695 27.42 45.2695 31.2C45.2695 34.98 48.2695 38.04 51.9595 38.04C55.6495 38.04 58.6495 34.98 58.6495 31.2C58.6495 27.42 55.6195 24.36 51.9595 24.36ZM51.9595 36.21C49.2595 36.21 47.0695 33.96 47.0695 31.2C47.0695 28.44 49.2595 26.19 51.9595 26.19C54.6595 26.19 56.8495 28.44 56.8495 31.2C56.8195 33.96 54.6295 36.21 51.9595 36.21Z" fill="#0066FF"/>
<path d="M32.0114 39.72V25.29H18.6914V39.72H32.0114ZM20.4914 27.15H30.2114V37.89H20.4914V27.15Z" fill="#0066FF"/>
<path d="M66 31.2L63.09 27.48L63.33 22.71L58.86 21.48L56.31 17.49L53.55 18.6V14.55H61.44V13.62C61.44 10.74 60.78 8.61 59.46 7.29C58.2 6 56.82 6 56.76 6C56.7 6 56.37 6 55.98 6.06V6H11.46V57.45H6V62.04C6 63.39 6.93 65.97 10.47 65.97H47.61C47.7 65.97 47.76 65.97 47.79 65.97C47.88 65.97 47.88 65.97 47.97 65.97C48.42 65.97 49.62 65.85 50.76 64.77C52.14 63.48 52.83 61.32 52.83 58.32V52.29L57.48 54.63V42.99L58.83 40.86L63.3 39.63L63.06 34.86L66 31.2ZM59.61 12.72H53.58C53.7 10.8 54.18 9.39 54.99 8.58C55.77 7.83 56.61 7.86 56.67 7.86C56.79 7.86 59.31 7.98 59.61 12.72ZM10.47 64.14C7.98 64.14 7.8 62.4 7.8 62.04V59.28H43.17C43.29 61.35 43.77 62.97 44.64 64.14H10.47ZM49.59 63.42C48.9 64.08 48.18 64.14 47.97 64.14L47.76 64.11C47.16 64.02 44.97 63.33 44.97 58.35V57.42H13.26V7.86H53.28C52.29 9.18 51.75 11.1 51.75 13.65V14.58V19.17L47.61 17.55L45.06 21.54L40.56 22.77L40.8 27.54L37.89 31.26L40.8 34.98L40.56 39.75L45.06 40.98L46.59 43.38V54.75L51.03 52.41V58.41C51.03 60.75 50.52 62.49 49.59 63.42ZM51.93 49.8L48.42 51.66V44.58L51.96 43.2L55.68 44.67V51.69L51.93 49.8ZM57.69 39.33L55.56 42.66L51.93 41.25L48.3 42.66L46.17 39.33L42.42 38.28L42.6 34.32L40.2 31.2L42.63 28.11L42.45 24.15L46.2 23.1L48.33 19.77L51.96 21.18L55.59 19.77L57.72 23.1L61.47 24.15L61.29 28.11L63.72 31.2L61.29 34.29L61.47 38.25L57.69 39.33Z" fill="#0066FF"/>
</svg>
