<svg width="72" height="72" viewBox="0 0 72 72" fill="none" xmlns="http://www.w3.org/2000/svg">
<path d="M33.3307 44.7L25.2607 36.6V35.34L29.3707 31.17L30.6607 31.2L33.8407 34.68L41.0407 27.24L42.3007 27.21L46.4707 31.08L46.5007 32.37L34.5907 44.73L33.3307 44.7ZM27.1807 35.97L33.9607 42.78L44.6107 31.74L41.7607 29.1L34.5307 36.6L33.2107 36.57L30.0007 33.09L27.1807 35.97Z" fill="#0066FF"/>
<path d="M37.0811 66L34.7711 65.94C8.55112 56.79 8.97112 42.81 9.00112 42.24V13.41L9.81112 13.35C27.9311 11.73 31.7111 6.45 31.7711 6.39L32.0411 6H32.5211H39.9611L40.2311 6.42C40.2611 6.45 44.0711 11.76 62.1611 13.35L62.9711 13.41V42.27C63.0311 42.75 64.0811 56.52 37.2311 65.94L37.0811 66ZM35.2211 64.2H36.7811C62.0411 55.29 61.2011 42.51 61.2011 42.36V15.06C45.3611 13.53 40.2911 9.18 39.0611 7.8H32.9711C31.7411 9.18 26.6711 13.53 10.8311 15.06V42.27C10.8011 42.45 10.5311 55.53 35.2211 64.2Z" fill="#0066FF"/>
<path d="M55.4426 37.6501H53.6426V40.9501H55.4426V37.6501Z" fill="#0066FF"/>
<path d="M48.5416 52.4702L47.4316 51.0602L48.1516 50.4902C49.0216 49.8002 49.8016 49.0802 50.4916 48.3602L51.0916 47.7002L52.4116 48.9302L51.8116 49.5902C51.0616 50.3702 50.2216 51.1502 49.2616 51.9002L48.5416 52.4702ZM53.4016 47.5802L51.8416 46.6502L52.2916 45.8702C52.8316 44.9402 53.2216 44.0102 53.4316 43.0802L53.6416 42.2102L55.3816 42.6002L55.1716 43.4702C54.9316 44.5802 54.4516 45.6902 53.8216 46.7702L53.4016 47.5802Z" fill="#0066FF"/>
<path d="M44.2821 55.0501L43.4121 53.4601L44.1921 53.0401C44.6421 52.8001 45.0621 52.5601 45.4521 52.3201L46.2321 51.8401L47.1621 53.3701L46.3821 53.8501C45.9621 54.1201 45.5121 54.3601 45.0621 54.6301L44.2821 55.0501Z" fill="#0066FF"/>
<path d="M36.7813 58.14L35.0413 58.08C15.5713 51.54 16.5013 41.76 16.5313 41.34V19.29L17.3413 19.23C29.8813 18.12 31.7713 13.95 31.8013 13.89L32.0413 13.35L32.6413 13.32H39.9313L40.1413 13.92C40.1413 13.95 42.0313 18.12 54.5713 19.23L55.3813 19.29V36.03H53.5813V20.97C42.8713 19.86 39.6313 16.56 38.7313 15.15H33.1513C32.2513 16.56 29.0113 19.86 18.3013 20.97V41.49C18.3013 41.67 17.6113 50.34 35.4313 56.37H36.4213C38.7913 55.56 40.8613 54.66 40.8913 54.63L41.7313 54.27L42.4513 55.92L41.6413 56.28C41.5513 56.31 39.3913 57.27 36.8713 58.11L36.7813 58.14Z" fill="#0066FF"/>
</svg>
