<svg width="72" height="72" viewBox="0 0 72 72" fill="none" xmlns="http://www.w3.org/2000/svg">
<path d="M56.2496 32.61L50.0096 21C49.9392 20.8451 49.825 20.7142 49.681 20.6236C49.5371 20.5329 49.3697 20.4865 49.1996 20.49H23.0696C22.9046 20.4923 22.7437 20.5415 22.6055 20.6318C22.4674 20.7221 22.3579 20.8498 22.2896 21L15.7496 32.61C15.6623 32.7549 15.6161 32.9208 15.6161 33.09C15.6161 33.2592 15.6623 33.4251 15.7496 33.57V33.72L35.9996 59.13L56.1596 33.72V33.57C56.2469 33.4251 56.293 33.2592 56.293 33.09C56.293 32.9208 56.2469 32.7549 56.1596 32.61H56.2496ZM53.8496 32.13H44.1896L49.1396 23.37L53.9996 32.13H53.8496ZM35.9996 23.46L40.8896 32.13H31.1996L35.9996 23.46ZM29.5496 31.17L24.6596 22.5H34.4696L29.5496 31.17ZM37.6796 22.5H47.4896L42.5696 31.17L37.6796 22.5ZM41.2496 34.05L35.9996 54L30.7496 34.08L41.2496 34.05ZM33.9596 53.52L18.5096 34.05H28.8296L33.9596 53.52ZM43.1696 34.05H53.4896L38.0396 53.52L43.1696 34.05ZM23.0696 23.46L27.9296 32.13H18.1796L23.0696 23.46ZM35.9996 6C28.2148 6.18107 20.8191 9.43998 15.4323 15.063C10.0454 20.6859 7.10667 28.2146 7.25959 36C7.10667 43.7854 10.0454 51.3141 15.4323 56.937C20.8191 62.56 28.2148 65.8189 35.9996 66C43.7844 65.8189 51.1801 62.56 56.5669 56.937C61.9537 51.3141 64.8925 43.7854 64.7396 36C64.8925 28.2146 61.9537 20.6859 56.5669 15.063C51.1801 9.43998 43.7844 6.18107 35.9996 6ZM35.9996 64.05C28.7004 63.9081 21.7561 60.8738 16.6932 55.614C11.6303 50.3542 8.86301 43.2993 8.99959 36C8.86301 28.7007 11.6303 21.6458 16.6932 16.386C21.7561 11.1262 28.7004 8.09187 35.9996 7.95C43.2988 8.09187 50.243 11.1262 55.306 16.386C60.3689 21.6458 63.1362 28.7007 62.9996 36C63.1362 43.2993 60.3689 50.3542 55.306 55.614C50.243 60.8738 43.2988 63.9081 35.9996 64.05Z" fill="white" fill-opacity="0.4"/>
</svg>
