<svg width="72" height="72" viewBox="0 0 72 72" fill="none" xmlns="http://www.w3.org/2000/svg">
<path d="M64.0794 35.7C64.0494 35.19 63.9894 34.65 63.9294 34.14L62.1294 34.38C62.1894 34.86 62.2494 35.34 62.2794 35.82C62.3394 36.48 62.3394 37.14 62.3394 37.83C62.3394 52.38 50.5194 64.2 35.9994 64.2C21.4794 64.2 9.65938 52.38 9.65938 37.83C9.65938 23.85 20.2794 12.54 34.0494 11.55L31.5894 14.19L32.9094 15.42L37.2594 10.77L32.9094 6L31.5894 7.2L33.8994 9.75C19.1994 10.83 7.85938 22.89 7.85938 37.83C7.85937 53.37 20.4894 66 35.9994 66C51.5094 66 64.1394 53.37 64.1394 37.83C64.1394 37.11 64.1094 36.39 64.0794 35.7Z" fill="#0066FF"/>
<path d="M52.8877 15.3C52.0477 14.67 51.1477 14.07 50.2477 13.53L49.3477 15.09C50.2177 15.6 51.0277 16.14 51.8377 16.74L52.8877 15.3Z" fill="#0066FF"/>
<path d="M61.0497 24.99C60.5697 24.03 60.0297 23.1 59.4297 22.23L57.9297 23.22C58.4697 24.03 58.9797 24.9 59.4297 25.8L61.0497 24.99Z" fill="#0066FF"/>
<path d="M57.5411 19.6801C56.8511 18.8701 56.1311 18.0901 55.3511 17.3701L54.1211 18.6901C54.8411 19.3801 55.5311 20.1001 56.1611 20.8501L57.5411 19.6801Z" fill="#0066FF"/>
<path d="M47.3994 12.0599C46.4394 11.6399 45.4194 11.2499 44.3994 10.9199L43.8594 12.6299C44.8194 12.9299 45.7494 13.2899 46.6494 13.6799L47.3994 12.0599Z" fill="#0066FF"/>
<path d="M61.5602 31.3801L63.3002 30.9301C63.0302 29.9101 62.7302 28.8601 62.3402 27.8701L60.6602 28.5001C61.0202 29.4601 61.3202 30.4201 61.5602 31.3801Z" fill="#0066FF"/>
<path d="M39.6583 10.8001L39.5383 11.7001C40.0183 11.7601 40.4983 11.8501 40.9783 11.9401L41.3083 10.1701C40.7983 10.0801 40.2883 9.99006 39.7783 9.93006C39.4183 9.87006 39.0283 9.84006 38.6683 9.81006L38.4883 11.6101C38.8483 11.6401 39.1783 11.6701 39.5383 11.7301L39.6583 10.8001Z" fill="#0066FF"/>
<path d="M47.3105 31.17V25.35H49.4705V19.47H22.9805V25.38H25.2905V31.17L33.4205 38.01V39.09L25.2905 46.47V51.75H22.9805V57.66H49.5005V51.75H47.3405V46.47L39.2105 39.09V38.01L47.3105 31.17ZM24.7805 21.27H47.7005V23.58H24.7805V21.27ZM45.5105 25.35V30.03H27.0605V25.35H45.5105ZM47.7005 55.86H24.7805V53.55H47.7005V55.86ZM45.5105 47.28V51.75H27.0605V47.28L35.1905 39.9V37.17L28.8905 31.86H43.6805L37.3805 37.17V39.9L45.5105 47.28Z" fill="#0066FF"/>
<path d="M37.1398 41.8799H35.3398V44.7299H37.1398V41.8799Z" fill="#0066FF"/>
<path d="M37.1398 46.0801H35.3398V48.9301H37.1398V46.0801Z" fill="#0066FF"/>
</svg>
