<svg width="72" height="72" viewBox="0 0 72 72" fill="none" xmlns="http://www.w3.org/2000/svg">
<path d="M47.25 32.3104L53.7 24.5404L52.32 23.4004L46.53 30.3604L43.8 27.3904L42.48 28.6204L45.9 32.3404L47.25 32.3104Z" fill="#0066FF"/>
<path d="M48.0901 38.7002C53.8801 38.7002 58.5601 33.9902 58.5601 28.2002C58.5601 22.4102 53.8501 17.7002 48.0901 17.7002C42.3301 17.7002 37.6201 22.4102 37.6201 28.2002C37.6201 33.9902 42.3001 38.7002 48.0901 38.7002ZM48.0901 19.4702C52.8901 19.4702 56.7601 23.3702 56.7601 28.1702C56.7601 32.9702 52.8601 36.8702 48.0901 36.8702C43.2901 36.8702 39.4201 32.9702 39.4201 28.1702C39.4201 23.3702 43.2901 19.4702 48.0901 19.4702Z" fill="#0066FF"/>
<path d="M65.9999 27.99V15.54L65.2199 15.42C53.3699 13.8 49.1099 6.51 49.0499 6.45L48.7799 6H47.1299L46.8599 6.45C46.8299 6.51 42.5399 13.8 30.6899 15.42L29.9399 15.54V27.93H31.7399V17.1C41.8499 15.48 46.5599 10.08 47.9699 8.07C49.3799 10.05 54.0899 15.48 64.1999 17.1V28.05C64.1999 28.14 64.5899 36.33 58.7999 40.65C52.6799 45.24 50.3099 46.59 50.2799 46.59L49.4999 47.04L50.3699 48.6L51.1499 48.15C51.2399 48.09 53.6099 46.74 59.8499 42.09C66.4499 37.14 65.9999 28.29 65.9999 27.99Z" fill="#0066FF"/>
<path d="M48.27 51.5703C48.27 50.1603 47.43 48.9603 46.23 48.3603C46.56 47.8503 46.8 47.3103 46.8 46.6503V46.2003C46.8 44.4903 45.39 43.0803 43.68 43.0803H38.1C37.95 43.0803 37.8 43.1403 37.65 43.1703V43.0803L32.34 42.7503C32.46 42.1803 32.61 41.5203 32.79 40.8003C33.48 38.1303 34.32 34.8003 33.45 32.0703C33 30.6903 31.86 29.8503 30.42 29.9703C29.1 30.0603 27.63 31.0503 27.27 33.0603C26.82 35.6403 24.09 40.7403 21.96 43.6803C20.7 45.4203 19.2 46.1403 18.27 46.4403V44.2203H6V64.0803H18.27V61.6203C18.81 61.6803 19.47 61.8003 19.95 62.0703C20.13 62.1603 20.34 62.3103 20.64 62.4903C22.26 63.4803 25.59 65.5203 29.61 65.9103C30.3 65.9703 30.93 66.0003 31.53 66.0003C34.44 66.0003 36.27 65.2803 36.9 64.9803C37.44 65.3103 38.01 65.5503 38.67 65.5503H43.05C44.97 65.5503 46.56 63.9903 46.56 62.0403C46.56 61.3203 46.29 60.6603 45.9 60.1203C47.28 59.6403 48.27 58.3803 48.27 56.8503C48.27 55.8003 47.76 54.8703 47.04 54.2403C47.76 53.5803 48.27 52.6503 48.27 51.5703ZM35.04 51.5703C35.04 50.5803 35.85 49.8003 36.81 49.8003H38.1H43.68H44.7C45.69 49.8003 46.47 50.6103 46.47 51.5703C46.47 52.5603 45.66 53.3403 44.7 53.3403H36.81C35.82 53.3403 35.04 52.5603 35.04 51.5703ZM43.68 44.8803C44.4 44.8803 45 45.4803 45 46.2003V46.6503C45 47.4003 44.4 48.0003 43.68 48.0003H38.1C37.38 48.0003 36.78 47.4003 36.78 46.6803V46.2003C36.78 45.4803 37.38 44.8803 38.1 44.8803H43.68ZM32.31 42.9003L32.34 42.9303H32.31V42.9003ZM16.47 62.2803H7.8V46.0203H16.47V62.2803ZM29.79 64.1103C26.19 63.7503 23.07 61.8303 21.57 60.9303C21.24 60.7203 20.97 60.5703 20.76 60.4503C19.92 60.0003 18.93 59.8503 18.24 59.7903V48.3003C19.35 48.0303 21.6 47.1903 23.37 44.7303C25.68 41.5503 28.5 36.2403 29.01 33.3603C29.22 32.2503 29.94 31.8003 30.51 31.7703C30.78 31.7403 31.41 31.8003 31.71 32.6403C32.43 34.8603 31.65 37.9203 31.02 40.3503C30.81 41.1903 30.6 41.9703 30.48 42.6303C30.39 43.1103 30.51 43.5903 30.84 43.9503C31.14 44.3103 31.59 44.5203 32.01 44.5203L35.22 44.7303C35.19 44.8203 35.19 44.8803 35.16 44.9703C35.16 45.0003 35.16 45.0303 35.13 45.0303C34.68 46.7703 32.94 50.6103 26.34 51.7203L25.44 51.8703L25.74 53.6403L26.64 53.4903C29.67 52.9803 31.8 51.9303 33.33 50.7303C33.27 51.0003 33.15 51.2703 33.15 51.5403C33.15 52.6203 33.66 53.5503 34.38 54.2103C33.63 54.8403 33.15 55.7703 33.15 56.8203C33.15 58.4103 34.26 59.7303 35.73 60.1203C35.37 60.6603 35.1 61.2903 35.1 62.0103C35.1 62.5803 35.25 63.0603 35.49 63.5403C34.62 63.9003 32.67 64.4103 29.79 64.1103ZM43.05 63.7503H38.67C37.74 63.7503 36.96 63.0003 36.96 62.0403C36.96 61.0803 37.71 60.3303 38.67 60.3303H43.05C43.98 60.3303 44.76 61.0803 44.76 62.0403C44.76 63.0003 43.98 63.7503 43.05 63.7503ZM44.76 55.1403C45.69 55.1403 46.47 55.8903 46.47 56.8503C46.47 57.7803 45.72 58.5603 44.76 58.5603H43.05H38.67H36.72C35.79 58.5603 35.01 57.8103 35.01 56.8503C35.01 55.9203 35.76 55.1403 36.72 55.1403H36.81H44.7H44.76Z" fill="#0066FF"/>
<path d="M13.5002 53.5498H11.7002V59.3098H13.5002V53.5498Z" fill="#0066FF"/>
</svg>
