<svg width="72" height="72" viewBox="0 0 72 72" fill="none" xmlns="http://www.w3.org/2000/svg">
<path d="M64.0799 35.7C64.0499 35.19 63.9899 34.65 63.9299 34.14L62.1299 34.38C62.1899 34.86 62.2499 35.34 62.2799 35.82C62.3399 36.48 62.3399 37.14 62.3399 37.83C62.3399 52.38 50.5199 64.2 35.9999 64.2C21.4799 64.2 9.65986 52.38 9.65986 37.83C9.65986 23.85 20.2799 12.54 34.0499 11.55L31.5899 14.19L32.9099 15.42L37.2599 10.77L32.9099 6L31.5899 7.2L33.8999 9.75C19.1999 10.83 7.85986 22.89 7.85986 37.83C7.85986 53.37 20.4899 66 35.9999 66C51.5099 66 64.1399 53.37 64.1399 37.83C64.1399 37.11 64.1099 36.39 64.0799 35.7Z" fill="#0066FF"/>
<path d="M52.8901 15.2998C52.0501 14.6698 51.1501 14.0698 50.2501 13.5298L49.3501 15.0898C50.2201 15.5998 51.0301 16.1398 51.8401 16.7398L52.8901 15.2998Z" fill="#0066FF"/>
<path d="M61.0497 24.99C60.5697 24.03 60.0297 23.1 59.4297 22.23L57.9297 23.22C58.4697 24.03 58.9797 24.9 59.4297 25.8L61.0497 24.99Z" fill="#0066FF"/>
<path d="M57.5396 19.6801C56.8496 18.8701 56.1296 18.0901 55.3496 17.3701L54.1196 18.6901C54.8396 19.3801 55.5296 20.1001 56.1596 20.8501L57.5396 19.6801Z" fill="#0066FF"/>
<path d="M47.3999 12.0599C46.4399 11.6399 45.4199 11.2499 44.3999 10.9199L43.8599 12.6299C44.8199 12.9299 45.7499 13.2899 46.6499 13.6799L47.3999 12.0599Z" fill="#0066FF"/>
<path d="M61.5597 31.3801L63.2997 30.9301C63.0297 29.9101 62.7297 28.8601 62.3397 27.8701L60.6597 28.5001C61.0197 29.4601 61.3197 30.4201 61.5597 31.3801Z" fill="#0066FF"/>
<path d="M39.6597 10.8001L39.5397 11.7001C40.0197 11.7601 40.4997 11.8501 40.9797 11.9401L41.3097 10.1701C40.7997 10.0801 40.2897 9.99006 39.7797 9.93006C39.4197 9.87006 39.0297 9.84006 38.6697 9.81006L38.4897 11.6101C38.8497 11.6401 39.1797 11.6701 39.5397 11.7301L39.6597 10.8001Z" fill="#0066FF"/>
<path d="M47.31 31.1702V25.3502H49.47V19.4702H22.98V25.3802H25.29V31.1702L33.42 38.0102V39.0902L25.29 46.4702V51.7502H22.98V57.6602H49.5V51.7502H47.34V46.4702L39.21 39.0902V38.0102L47.31 31.1702ZM24.78 21.2702H47.7V23.5802H24.78V21.2702ZM45.51 25.3502V30.0302H27.06V25.3502H45.51ZM47.7 55.8602H24.78V53.5502H47.7V55.8602ZM45.51 47.2802V51.7502H27.06V47.2802L35.19 39.9002V37.1702L28.89 31.8602H43.68L37.38 37.1702V39.9002L45.51 47.2802Z" fill="#0066FF"/>
<path d="M37.1398 41.8799H35.3398V44.7299H37.1398V41.8799Z" fill="#0066FF"/>
<path d="M37.1398 46.0801H35.3398V48.9301H37.1398V46.0801Z" fill="#0066FF"/>
</svg>
