<svg width="72" height="72" viewBox="0 0 72 72" fill="none" xmlns="http://www.w3.org/2000/svg">
<path d="M45.0513 64.8027H26.9487C26.7489 64.8032 26.5543 64.7391 26.394 64.62L11.7486 53.9808C11.5838 53.8614 11.4616 53.6923 11.4 53.4984L6.04259 36.2808C5.98589 36.0978 5.98589 35.9021 6.04259 35.7192L11.4 18.5031C11.461 18.309 11.5829 18.1398 11.7477 18.0207L26.394 7.37995C26.5551 7.26253 26.7494 7.19948 26.9487 7.19995H45.0513C45.2512 7.20036 45.4458 7.26388 45.6075 7.38145L60.2514 18.0219C60.4154 18.1415 60.5367 18.3106 60.5976 18.5043L65.9574 35.7204C66.0141 35.9033 66.0141 36.099 65.9574 36.282L60.5976 53.4996C60.5364 53.693 60.4151 53.862 60.2514 53.982L45.6075 64.62C45.4464 64.7387 45.2514 64.8027 45.0513 64.8027ZM27.255 62.9127H44.745L58.8867 52.6383L64.065 36L58.8867 19.3644L44.745 9.08995H27.255L13.1121 19.3644L7.93379 36L13.1121 52.6386L27.255 62.9127Z" fill="white" fill-opacity="0.4"/>
<path d="M43.5105 60.0599H28.4907C28.2911 60.0606 28.0966 59.997 27.936 59.8784L15.81 51.0665C15.6455 50.947 15.5238 50.778 15.4626 50.5841L11.01 36.2807C10.9533 36.0978 10.9533 35.902 11.01 35.7191L15.462 21.4157C15.523 21.2216 15.6451 21.0524 15.81 20.9333L27.936 12.1232C28.0968 12.0051 28.2911 11.9414 28.4907 11.9414H43.5105C43.7104 11.9417 43.9052 12.0054 44.0667 12.1232L56.19 20.9333C56.3538 21.0531 56.4751 21.2221 56.5359 21.4157L60.9879 35.7191C61.0446 35.902 61.0446 36.0978 60.9879 36.2807L56.5359 50.5841C56.4748 50.7776 56.3536 50.9465 56.19 51.0665L44.0667 59.8769C43.9056 59.9957 43.7107 60.0598 43.5105 60.0599ZM28.7973 58.1699H43.2042L54.8262 49.7258L59.0967 35.9999L54.8262 22.2767L43.2042 13.8299H28.7973L17.1738 22.2767L12.9021 35.9999L17.1738 49.7246L28.7973 58.1699Z" fill="white" fill-opacity="0.4"/>
<path d="M44.3022 42.9458C42.9282 42.946 41.585 42.5386 40.4425 41.7753C39.3 41.012 38.4095 39.9271 37.8837 38.6577C37.3578 37.3883 37.2202 35.9914 37.4883 34.6438C37.7563 33.2962 38.418 32.0584 39.3896 31.0868C40.3612 30.1153 41.5991 29.4537 42.9467 29.1857C44.2943 28.9177 45.6911 29.0553 46.9605 29.5812C48.2299 30.1072 49.3148 30.9977 50.078 32.1402C50.8413 33.2827 51.2486 34.6259 51.2484 35.9999C51.2458 37.8414 50.5131 39.6066 49.211 40.9087C47.9089 42.2107 46.1436 42.9433 44.3022 42.9458ZM44.3022 30.9422C43.302 30.9421 42.3242 31.2386 41.4925 31.7942C40.6608 32.3498 40.0125 33.1395 39.6297 34.0635C39.2468 34.9875 39.1465 36.0043 39.3416 36.9854C39.5366 37.9664 40.0181 38.8675 40.7253 39.5748C41.4324 40.2822 42.3335 40.7639 43.3144 40.9592C44.2954 41.1544 45.3122 41.0544 46.2363 40.6717C47.1604 40.2891 47.9503 39.641 48.5061 38.8094C49.0619 37.9779 49.3586 37.0001 49.3587 35.9999C49.357 34.6593 48.8238 33.374 47.8759 32.4259C46.928 31.4778 45.6429 30.9442 44.3022 30.9422Z" fill="white" fill-opacity="0.4"/>
<path d="M30.6231 42.9458C29.0781 42.693 27.6357 42.0099 26.4612 40.9748L27.7101 39.5894C28.5117 40.3599 29.5268 40.871 30.6231 41.0561C31.206 41.1022 31.7871 40.9464 32.2686 40.6146C32.7502 40.2829 33.1029 39.7956 33.2676 39.2345C33.432 38.3153 32.7276 37.4924 31.338 36.9788C29.4711 36.2921 27.7884 35.5418 27.7884 35.5418C27.227 35.2095 26.7767 34.7183 26.4944 34.1302C26.2121 33.5421 26.1105 32.8835 26.2023 32.2376C26.316 31.5404 26.6284 30.8908 27.1019 30.3666C27.5755 29.8425 28.1902 29.466 28.8723 29.2823C29.8338 29.0536 30.8345 29.0451 31.7997 29.2574C32.7649 29.4696 33.6697 29.8972 34.4466 30.5081L33.2349 31.958C32.7017 31.5411 32.0831 31.247 31.4231 31.0969C30.7631 30.9468 30.0781 30.9444 29.4171 31.0898C29.0797 31.1698 28.7728 31.3462 28.534 31.5976C28.2952 31.849 28.1347 32.1645 28.0722 32.5055C28.0286 32.77 28.0632 33.0414 28.1715 33.2865C28.2799 33.5316 28.4575 33.7398 28.6824 33.8855C28.7094 33.8855 30.2697 34.5737 31.992 35.2079C34.6989 36.2081 35.3856 38.1146 35.1261 39.5675C34.8795 40.5631 34.2967 41.4431 33.4763 42.0587C32.6558 42.6742 31.6479 42.9876 30.6231 42.9458Z" fill="white" fill-opacity="0.4"/>
<path d="M22.6413 29.0526H20.7516V42.9459H22.6413V29.0526Z" fill="white" fill-opacity="0.4"/>
</svg>
