<svg width="72" height="72" viewBox="0 0 72 72" fill="none" xmlns="http://www.w3.org/2000/svg">
<path d="M52.5601 56.7899L53.5801 58.2899C54.2701 57.8099 54.9301 57.3299 55.5601 56.7899L54.4201 55.3799C53.8201 55.8899 53.1901 56.3699 52.5601 56.7899Z" fill="#0066FF"/>
<path d="M37.68 6C22.38 6 9.87 18.33 9.39 33.69L6.78 33.66L6 35.04L13.2 46.83H14.73L21.9 35.07L21.15 33.69H17.1C17.58 22.62 26.64 13.74 37.71 13.74C49.08 13.74 58.32 23.1 58.32 34.59C58.32 45.57 49.89 54.66 39.06 55.38C38.04 54.54 36.75 54 35.31 54C32.04 54 29.37 56.67 29.37 60C29.37 63.33 32.04 66 35.31 66C37.47 66 39.36 64.8 40.38 63.06C44.1 62.7 47.67 61.65 50.97 59.88L50.13 58.29C47.31 59.82 44.28 60.75 41.13 61.17C41.19 60.81 41.25 60.42 41.25 60.03C41.25 58.95 40.95 57.96 40.47 57.09C51.6 55.71 60.12 46.14 60.12 34.65C60.12 22.17 50.07 12 37.71 12C25.35 12 15.3 22.17 15.3 34.65L16.2 35.55H19.56L13.98 44.7L8.4 35.55L10.29 35.58L11.19 34.68C11.19 19.89 23.1 7.89 37.71 7.89C52.32 7.89 64.23 19.92 64.23 34.68C64.23 41.07 61.98 47.25 57.87 52.08L59.25 53.25C63.6 48.03 66 41.43 66 34.62C66 18.84 53.31 6 37.68 6ZM35.31 64.2C33.03 64.2 31.17 62.31 31.17 60C31.17 57.69 33.03 55.8 35.31 55.8C37.59 55.8 39.45 57.69 39.45 60C39.45 62.31 37.59 64.2 35.31 64.2Z" fill="#0066FF"/>
<path d="M47.55 27.1499C45.99 27.1499 44.73 28.4399 44.73 29.9999C44.73 31.5599 45.99 32.8499 47.55 32.8499C49.11 32.8499 50.37 31.5599 50.37 29.9999C50.37 28.4399 49.11 27.1499 47.55 27.1499ZM47.55 31.0499C46.98 31.0499 46.5 30.5699 46.5 29.9999C46.5 29.4299 46.98 28.9499 47.55 28.9499C48.12 28.9499 48.6 29.4299 48.6 29.9999C48.6 30.5999 48.12 31.0499 47.55 31.0499Z" fill="#0066FF"/>
<path d="M28.1099 32.7598H26.0099L22.1699 39.8098L22.9499 41.2198H26.3099V44.0398H28.1099V41.2198H29.0099V39.4198H28.1099V32.7598ZM26.3399 39.4198H24.4499L26.3399 35.9098V39.4198Z" fill="#0066FF"/>
<path d="M34.4999 43.9798C35.5799 43.9798 36.4499 43.1098 36.4499 41.9998V34.7398C36.4499 33.6598 35.5799 32.7598 34.4999 32.7598H32.3699C31.2899 32.7598 30.4199 33.6298 30.4199 34.7398V41.9998C30.4199 43.0798 31.2899 43.9798 32.3699 43.9798H34.4999ZM32.1899 34.7398C32.1899 34.6498 32.2499 34.5898 32.3399 34.5898H34.4699C34.5599 34.5898 34.6199 34.6498 34.6199 34.7398V41.9998C34.6199 42.0898 34.5599 42.1498 34.4699 42.1498H32.3399C32.2499 42.1498 32.1899 42.0898 32.1899 41.9998V34.7398Z" fill="#0066FF"/>
<path d="M42.1498 43.9798C43.2298 43.9798 44.0998 43.1098 44.0998 41.9998V34.7398C44.0998 33.6598 43.2298 32.7598 42.1498 32.7598H40.0198C38.9398 32.7598 38.0698 33.6298 38.0698 34.7398V41.9998C38.0698 43.0798 38.9398 43.9798 40.0198 43.9798H42.1498ZM39.8398 34.7398C39.8398 34.6498 39.8998 34.5898 39.9898 34.5898H42.1198C42.2098 34.5898 42.2698 34.6498 42.2698 34.7398V41.9998C42.2698 42.0898 42.2098 42.1498 42.1198 42.1498H39.9898C39.8998 42.1498 39.8398 42.0898 39.8398 41.9998V34.7398Z" fill="#0066FF"/>
<path d="M54.1798 34.5598V32.7598H50.9998C49.9198 32.7598 49.0498 33.6298 49.0498 34.7398V41.9998C49.0498 43.0798 49.9198 43.9798 50.9998 43.9798H54.1798V42.1798L50.8498 41.9998L50.9998 34.5598H54.1798Z" fill="#0066FF"/>
</svg>
