<svg width="73" height="72" viewBox="0 0 73 72" fill="none" xmlns="http://www.w3.org/2000/svg">
<path d="M36.3266 6.21002C36.3266 6.21002 11.2766 14.07 11.1566 14.22C11.0366 14.37 10.9766 35.22 10.9766 35.22C10.9899 42.4302 13.5073 49.4119 18.0984 54.9715C22.6894 60.5311 29.069 64.3234 36.1466 65.7H36.5066C43.5841 64.3234 49.9637 60.5311 54.5548 54.9715C59.1458 49.4119 61.6632 42.4302 61.6766 35.22C61.6766 35.22 61.6766 14.22 61.4666 14.22C61.2566 14.22 36.3266 6.21002 36.3266 6.21002ZM59.7266 35.31C59.7194 42.0359 57.3851 48.552 53.1198 53.7524C48.8545 58.9528 42.921 62.517 36.3266 63.84C29.7321 62.517 23.7987 58.9528 19.5333 53.7524C15.268 48.552 12.9337 42.0359 12.9266 35.31V15.51L36.3266 8.19002L59.7266 15.51V35.31Z" fill="white" fill-opacity="0.4"/>
<path d="M17.5466 18.9V35.28C17.5335 40.7436 19.353 46.0538 22.7141 50.3612C26.0752 54.6686 30.7837 57.7245 36.0866 59.04H36.5666C39.6652 58.2676 42.5809 56.8913 45.1466 54.99C44.9066 54.69 44.1266 53.67 43.9766 53.43C41.6788 55.099 39.0817 56.311 36.3266 57C31.501 55.7541 27.2274 52.9371 24.1801 48.9935C21.1327 45.0498 19.4849 40.2039 19.4966 35.22V20.22L36.3266 15L53.1566 20.28V35.28C53.1572 38.9502 52.2613 42.565 50.5466 45.81L52.2566 46.74C54.1763 43.2219 55.2062 39.2875 55.2566 35.28V18.9L36.3266 13.02L17.5466 18.9Z" fill="white" fill-opacity="0.4"/>
<path d="M42.3266 26.58L34.1966 34.32L30.3266 30.84L25.3766 35.79L34.1966 44.61L47.0666 31.53L42.3266 26.58ZM34.1966 42.27L27.7166 35.79L30.3266 33.21L34.1966 36.66L42.3266 28.95L44.9066 31.53L34.1966 42.27Z" fill="white" fill-opacity="0.4"/>
</svg>
