<svg width="72" height="72" viewBox="0 0 72 72" fill="none" xmlns="http://www.w3.org/2000/svg">
<path d="M35.13 16.14C34.35 16.59 30.87 18.24 30.3 18.36L22.26 18.75C21.9 18.81 21.57 18.84 21.21 18.84H14.1C9.63 18.84 6 22.47 6 26.91V32.52C6 36.99 9.63 40.62 14.1 40.62H14.43V63H29.67V61.2H24.93V40.83L30.21 41.07C30.9 41.19 34.38 42.84 35.1 43.26L45.63 50.43L47.1 48.63V10.8L45.63 9L35.13 16.14ZM7.8 32.52V26.91C7.8 23.43 10.62 20.61 14.1 20.61H20.19V38.79H14.1C10.62 38.82 7.8 36 7.8 32.52ZM23.13 61.2H16.23V40.62H21.21C21.57 40.62 21.9 40.65 22.35 40.71L23.13 40.74V61.2ZM30.39 39.3L22.53 38.94C22.35 38.91 22.14 38.91 21.96 38.88V20.58C22.11 20.55 22.29 20.58 22.44 20.55L30.51 20.16C31.62 19.98 35.37 18.12 36.12 17.67L39.18 15.57V43.86L36.06 41.73C35.37 41.34 31.62 39.48 30.39 39.3ZM45.27 48.03L40.98 45.09V14.34L45.27 11.4L45.3 48L45.27 48.03Z" fill="#0066FF"/>
<path d="M17.5802 24.4497H11.4902V26.2497H17.5802V24.4497Z" fill="#0066FF"/>
<path d="M17.5802 28.8303H11.4902V30.6303H17.5802V28.8303Z" fill="#0066FF"/>
<path d="M17.5802 33.2102H11.4902V35.0102H17.5802V33.2102Z" fill="#0066FF"/>
<path d="M65.9989 24.6602L59.9689 25.4702L55.6489 21.1802L54.5689 27.1502L49.1689 29.2202L54.5089 32.8202L55.4989 38.8202L59.9089 34.6202L65.9089 35.5502L63.2689 30.0602L65.9989 24.6602ZM62.7889 33.2702L59.2789 32.7302L56.6989 35.1902L56.1289 31.6802L53.0089 30.0002L56.1589 28.3802L56.7889 24.9002L59.3089 27.3902L62.8189 26.9102L61.2289 30.0902L62.7889 33.2702Z" fill="#0066FF"/>
<path d="M59.6706 12.8996L58.3506 11.6396L53.8506 16.3796L55.1406 17.6396L59.6706 12.8996Z" fill="#0066FF"/>
<path d="M53.8506 43.6196L58.3506 48.3596L59.6706 47.1296L55.1406 42.3896L53.8506 43.6196Z" fill="#0066FF"/>
<path d="M28.4689 19.6201H26.6689V40.1401H28.4689V19.6201Z" fill="#0066FF"/>
</svg>
