<svg width="72" height="72" viewBox="0 0 72 72" fill="none" xmlns="http://www.w3.org/2000/svg">
<path d="M35.8404 65.9964L14.2056 53.5068L24.1167 47.7768L35.8641 54.5568L44.6859 49.4778L44.6694 39.3228L34.7778 33.6177V22.23L37.3116 23.6244L54.579 33.594L54.576 51.1218V55.4199L35.8404 65.9964ZM19.173 53.5068L35.8404 63.1236L52.0965 53.9196V35.0277L37.2615 26.4654V32.1831L47.1516 37.8879L47.1738 50.913L35.8614 57.4254L24.1167 50.6454L19.173 53.5068Z" fill="#0066FF"/>
<path d="M37.3062 49.83L34.7415 48.3936L17.4828 38.436V16.8153L36.2127 5.9964L37.6938 6.8916L57.9453 18.8595L47.1849 23.7573L36.2016 17.4441L27.4173 22.5411V32.7L37.3062 38.4273V49.83ZM19.9677 36.9858L20.2077 37.1211L34.8225 45.5718V39.8598L24.9324 34.1325V21.1104L36.1962 14.574L47.319 20.9682L52.5792 18.5724L36.1848 8.8824L19.9677 18.246V36.9858Z" fill="#0066FF"/>
</svg>
