<svg width="73" height="72" viewBox="0 0 73 72" fill="none" xmlns="http://www.w3.org/2000/svg">
<path d="M65.678 54.63C65.4234 54.63 65.1792 54.7311 64.9991 54.9112C64.8191 55.0912 64.718 55.3354 64.718 55.59V64.02H56.258C55.9954 64.02 55.7436 64.1243 55.5579 64.31C55.3723 64.4956 55.268 64.7474 55.268 65.01C55.268 65.2726 55.3723 65.5244 55.5579 65.71C55.7436 65.8957 55.9954 66 56.258 66H65.678C65.9405 66 66.1923 65.8957 66.378 65.71C66.5637 65.5244 66.668 65.2726 66.668 65.01V55.59C66.668 55.4614 66.6422 55.334 66.5921 55.2156C66.542 55.0971 66.4686 54.9899 66.3763 54.9003C66.2839 54.8108 66.1745 54.7407 66.0546 54.6943C65.9346 54.6478 65.8065 54.626 65.678 54.63Z" fill="white" fill-opacity="0.4"/>
<path d="M31.148 16.95C31.8447 16.9559 32.5274 16.7544 33.1092 16.371C33.691 15.9876 34.1455 15.4397 34.4149 14.7971C34.6843 14.1546 34.7563 13.4463 34.6219 12.7627C34.4874 12.079 34.1525 11.4509 33.6598 10.9582C33.1671 10.4655 32.5389 10.1306 31.8553 9.99612C31.1716 9.86165 30.4634 9.93368 29.8208 10.2031C29.1783 10.4724 28.6304 10.927 28.247 11.5087C27.8636 12.0905 27.662 12.7733 27.668 13.47C27.6834 14.3881 28.055 15.2643 28.7043 15.9137C29.3536 16.563 30.2298 16.9346 31.148 16.95ZM29.528 13.47C29.5811 13.0821 29.773 12.7265 30.0681 12.4691C30.3631 12.2118 30.7414 12.0699 31.133 12.0699C31.5245 12.0699 31.9028 12.2118 32.1979 12.4691C32.4929 12.7265 32.6848 13.0821 32.738 13.47C32.6848 13.8579 32.4929 14.2135 32.1979 14.4709C31.9028 14.7282 31.5245 14.8701 31.133 14.8701C30.7414 14.8701 30.3631 14.7282 30.0681 14.4709C29.773 14.2135 29.5811 13.8579 29.528 13.47Z" fill="white" fill-opacity="0.4"/>
<path d="M59.648 36.45C61.538 36.45 63.038 34.32 63.038 31.59C63.038 28.86 61.538 26.73 59.648 26.73C57.758 26.73 56.228 28.86 56.228 31.59C56.228 34.32 57.668 36.45 59.648 36.45ZM58.208 31.59C58.208 29.94 58.958 28.59 59.648 28.59C60.338 28.59 61.088 29.85 61.088 31.59C61.088 33.33 60.308 34.59 59.648 34.59C58.988 34.59 58.208 33.27 58.208 31.59Z" fill="white" fill-opacity="0.4"/>
<path d="M46.688 31.11C47.476 31.0867 48.2517 30.9084 48.9708 30.5851C49.6899 30.2619 50.3382 29.8001 50.8787 29.2261C51.4192 28.6522 51.8413 27.9774 52.1209 27.2402C52.4004 26.503 52.532 25.718 52.508 24.93C52.508 23.3864 51.8948 21.9061 50.8033 20.8146C49.7119 19.7232 48.2315 19.11 46.688 19.11C45.1444 19.11 43.6641 19.7232 42.5726 20.8146C41.4811 21.9061 40.868 23.3864 40.868 24.93C40.844 25.718 40.9755 26.503 41.2551 27.2402C41.5346 27.9774 41.9567 28.6522 42.4972 29.2261C43.0377 29.8001 43.6861 30.2619 44.4051 30.5851C45.1242 30.9084 45.8999 31.0867 46.688 31.11ZM42.818 24.93C42.7707 24.3952 42.8353 23.8564 43.0076 23.3478C43.1799 22.8393 43.4561 22.3722 43.8186 21.9762C44.1812 21.5802 44.6222 21.264 45.1136 21.0477C45.605 20.8313 46.1361 20.7196 46.673 20.7196C47.2099 20.7196 47.7409 20.8313 48.2323 21.0477C48.7237 21.264 49.1647 21.5802 49.5273 21.9762C49.8899 22.3722 50.1661 22.8393 50.3383 23.3478C50.5106 23.8564 50.5752 24.3952 50.528 24.93C50.5752 25.4648 50.5106 26.0036 50.3383 26.5122C50.1661 27.0207 49.8899 27.4878 49.5273 27.8838C49.1647 28.2798 48.7237 28.596 48.2323 28.8123C47.7409 29.0287 47.2099 29.1404 46.673 29.1404C46.1361 29.1404 45.605 29.0287 45.1136 28.8123C44.6222 28.596 44.1812 28.2798 43.8186 27.8838C43.4561 27.4878 43.1799 27.0207 43.0076 26.5122C42.8353 26.0036 42.7707 25.4648 42.818 24.93Z" fill="white" fill-opacity="0.4"/>
<path d="M65.678 6H56.258C56.1293 5.99994 56.002 6.02573 55.8835 6.07584C55.7651 6.12595 55.6579 6.19935 55.5683 6.2917C55.4788 6.38405 55.4087 6.49345 55.3623 6.6134C55.3158 6.73336 55.2939 6.86143 55.298 6.99C55.298 7.24461 55.3991 7.48879 55.5791 7.66882C55.7592 7.84886 56.0034 7.95 56.258 7.95H64.718V16.38C64.714 16.5086 64.7358 16.6366 64.7823 16.7566C64.8287 16.8766 64.8988 16.986 64.9883 17.0783C65.0779 17.1706 65.1851 17.2441 65.3035 17.2942C65.422 17.3443 65.5493 17.3701 65.678 17.37C65.9405 17.37 66.1923 17.2657 66.378 17.08C66.5637 16.8944 66.668 16.6426 66.668 16.38V6.99C66.668 6.72744 66.5637 6.47563 66.378 6.28996C66.1923 6.1043 65.9405 6 65.678 6Z" fill="white" fill-opacity="0.4"/>
<path d="M33.038 21.18C32.8033 21.568 32.6473 21.9984 32.5791 22.4467C32.5109 22.895 32.5317 23.3523 32.6404 23.7925C32.749 24.2328 32.9434 24.6473 33.2124 25.0123C33.4814 25.3774 33.8197 25.6858 34.208 25.92C34.5436 26.0852 34.914 26.1675 35.288 26.16C36.0172 26.159 36.7211 25.8923 37.268 25.41C37.9112 24.8877 38.4052 24.2049 38.7001 23.4306C38.9951 22.6563 39.0806 21.8179 38.948 21C38.8592 20.5603 38.673 20.1461 38.4031 19.7878C38.1331 19.4296 37.7862 19.1365 37.388 18.93C37.0111 18.7401 36.595 18.6412 36.173 18.6412C35.751 18.6412 35.3348 18.7401 34.958 18.93C34.0627 19.418 33.3791 20.2192 33.038 21.18ZM36.998 21.42C37.068 21.8782 37.0162 22.3468 36.8476 22.7787C36.6791 23.2105 36.3999 23.5903 36.038 23.88C35.9087 24.0137 35.7454 24.1095 35.5656 24.1571C35.3858 24.2047 35.1964 24.2023 35.018 24.15C34.8466 24.0359 34.7195 23.8665 34.658 23.67C34.4882 23.1117 34.542 22.5094 34.808 21.99C34.9255 21.6639 35.1254 21.3737 35.3883 21.1477C35.6511 20.9216 35.9679 20.7674 36.308 20.7C36.668 20.73 36.908 21 36.998 21.42Z" fill="white" fill-opacity="0.4"/>
<path d="M17.618 24.15C17.6171 24.7209 17.7082 25.2882 17.888 25.83V26.04C17.9656 26.3666 18.0658 26.6874 18.188 27C18.466 27.5103 18.8513 27.9542 19.3175 28.3012C19.7836 28.6482 20.3194 28.89 20.888 29.01H21.548C22.663 28.9182 23.7134 28.4491 24.526 27.6802C25.3386 26.9112 25.8648 25.8882 26.018 24.78C26.3319 23.5869 26.1653 22.3183 25.5538 21.2468C24.9423 20.1754 23.9349 19.3866 22.748 19.05C22.5189 19.0205 22.287 19.0205 22.058 19.05C20.9553 19.1403 19.9158 19.6018 19.1094 20.3593C18.3029 21.1167 17.7772 22.1252 17.618 23.22C17.5879 23.5293 17.5879 23.8407 17.618 24.15ZM21.668 27H21.248C20.5743 26.7548 20.0208 26.2596 19.7024 25.6173C19.384 24.9749 19.3251 24.2346 19.538 23.55C19.6275 22.9103 19.9211 22.3166 20.3752 21.8572C20.8292 21.3977 21.4194 21.0971 22.058 21C22.3298 21.0011 22.5979 21.0637 22.8421 21.1832C23.0864 21.3027 23.3003 21.476 23.468 21.69C23.7648 22.0835 23.9722 22.5369 24.0759 23.0188C24.1795 23.5006 24.1768 23.9993 24.068 24.48C23.9795 25.0974 23.7008 25.6719 23.2707 26.1235C22.8406 26.5752 22.2803 26.8816 21.668 27Z" fill="white" fill-opacity="0.4"/>
<path d="M7.65797 17.37C7.7866 17.3701 7.91394 17.3443 8.03241 17.2942C8.15088 17.2441 8.25807 17.1706 8.34762 17.0783C8.43717 16.986 8.50725 16.8766 8.55369 16.7566C8.60013 16.6366 8.62199 16.5086 8.61797 16.38V7.95H17.078C17.3326 7.95 17.5768 7.84886 17.7568 7.66882C17.9368 7.48879 18.038 7.24461 18.038 6.99C18.042 6.86143 18.0201 6.73336 17.9737 6.6134C17.9272 6.49345 17.8572 6.38405 17.7676 6.2917C17.6781 6.19935 17.5709 6.12595 17.4524 6.07584C17.3339 6.02573 17.2066 5.99994 17.078 6H7.65797C7.3954 6 7.14359 6.1043 6.95793 6.28996C6.77227 6.47563 6.66797 6.72744 6.66797 6.99V16.38C6.66797 16.6426 6.77227 16.8944 6.95793 17.08C7.14359 17.2657 7.3954 17.37 7.65797 17.37Z" fill="white" fill-opacity="0.4"/>
<path d="M36.218 33.48C35.9873 32.9828 35.6588 32.5371 35.2521 32.1697C34.8454 31.8022 34.3688 31.5204 33.8508 31.3412C33.3327 31.162 32.7839 31.089 32.2371 31.1266C31.6903 31.1642 31.1566 31.3116 30.668 31.56C29.6095 31.8793 28.6698 32.5058 27.968 33.36C27.6055 33.8169 27.3841 34.3695 27.3308 34.9503C27.2776 35.5311 27.3947 36.1148 27.668 36.63C28.0125 37.2376 28.5224 37.735 29.1385 38.0642C29.7545 38.3935 30.4513 38.5411 31.148 38.49C31.7704 38.4928 32.389 38.3914 32.978 38.19C34.098 37.8657 35.0857 37.1932 35.798 36.27C36.0914 35.8751 36.2832 35.414 36.3564 34.9275C36.4297 34.4409 36.3821 33.9438 36.218 33.48ZM34.358 34.08C34.568 34.77 33.788 35.85 32.288 36.33C31.7986 36.5562 31.2537 36.6341 30.7206 36.5541C30.1875 36.4742 29.6894 36.2398 29.288 35.88C29.048 35.52 29.108 35.07 29.498 34.56C29.876 34.1401 30.339 33.8053 30.8562 33.5777C31.3734 33.3502 31.933 33.2351 32.498 33.24C33.458 33.24 34.208 33.57 34.358 34.08Z" fill="white" fill-opacity="0.4"/>
<path d="M47.468 49.02C46.3703 49.02 45.2972 49.3455 44.3846 49.9553C43.4719 50.5652 42.7605 51.432 42.3404 52.4461C41.9204 53.4602 41.8105 54.5762 42.0246 55.6528C42.2388 56.7293 42.7673 57.7183 43.5435 58.4944C44.3197 59.2706 45.3086 59.7992 46.3852 60.0134C47.4618 60.2275 48.5777 60.1176 49.5919 59.6975C50.606 59.2775 51.4728 58.5661 52.0826 57.6534C52.6925 56.7407 53.018 55.6677 53.018 54.57C53.018 53.8412 52.8744 53.1195 52.5955 52.4461C52.3166 51.7728 51.9078 51.1609 51.3924 50.6456C50.877 50.1302 50.2652 49.7214 49.5919 49.4425C48.9185 49.1636 48.1968 49.02 47.468 49.02ZM51.068 54.57C51.0739 55.2833 50.8678 55.9822 50.4759 56.5782C50.084 57.1741 49.5238 57.6402 48.8665 57.9173C48.2093 58.1944 47.4845 58.2699 46.7842 58.1344C46.0839 57.9989 45.4397 57.6585 44.9332 57.1562C44.4267 56.654 44.0808 56.0126 43.9395 55.3134C43.7981 54.6143 43.8677 53.8889 44.1392 53.2294C44.4108 52.5698 44.8722 52.0058 45.4648 51.6089C46.0575 51.2119 46.7547 51 47.468 51C48.4176 51 49.3287 51.3751 50.003 52.0438C50.6773 52.7124 51.0601 53.6204 51.068 54.57Z" fill="white" fill-opacity="0.4"/>
<path d="M50.738 35.55C49.9859 35.4957 49.2349 35.6694 48.583 36.0485C47.9312 36.4275 47.4087 36.9943 47.0839 37.6748C46.759 38.3552 46.6469 39.1179 46.762 39.8631C46.8772 40.6083 47.2144 41.3014 47.7295 41.8521C48.2446 42.4028 48.9138 42.7853 49.6497 42.9499C50.3856 43.1144 51.154 43.0533 51.8546 42.7745C52.5552 42.4957 53.1555 42.0121 53.5771 41.387C53.9987 40.7618 54.222 40.024 54.218 39.27C54.2424 38.3172 53.8911 37.3931 53.24 36.6971C52.589 36.0011 51.6902 35.5891 50.738 35.55ZM52.268 39.27C52.3012 39.711 52.1592 40.1474 51.8728 40.4843C51.5863 40.8213 51.1786 41.0318 50.738 41.07C50.3754 41.125 50.0047 41.0679 49.6755 40.9065C49.3463 40.745 49.0742 40.4869 48.8957 40.1666C48.7172 39.8463 48.6408 39.4791 48.6767 39.1141C48.7126 38.7492 48.8591 38.404 49.0966 38.1246C49.3341 37.8452 49.6512 37.645 50.0056 37.5508C50.36 37.4566 50.7347 37.4728 51.0795 37.5974C51.4244 37.7219 51.723 37.9489 51.9354 38.2478C52.1478 38.5467 52.2638 38.9033 52.268 39.27Z" fill="white" fill-opacity="0.4"/>
<path d="M36.068 54.54C34.388 54.54 33.068 56.37 33.068 58.71C33.068 61.05 34.358 62.88 36.068 62.88C37.778 62.88 39.068 61.05 39.068 58.71C39.068 56.37 37.718 54.54 36.068 54.54ZM36.068 56.49C36.428 56.49 37.058 57.33 37.058 58.71C37.058 60.09 36.428 60.93 36.068 60.93C35.708 60.93 35.048 60.09 35.048 58.71C35.048 57.33 35.708 56.49 36.068 56.49Z" fill="white" fill-opacity="0.4"/>
<path d="M26.648 44.34C25.1686 44.2719 23.7198 44.7763 22.6025 45.7483C21.4852 46.7204 20.7852 48.0854 20.648 49.56C20.7855 51.0621 21.5067 52.4502 22.6566 53.4263C23.8066 54.4024 25.2935 54.8884 26.798 54.78C28.3056 54.8888 29.796 54.4037 30.9508 53.4283C32.1055 52.4529 32.8331 51.0646 32.978 49.56C32.9066 48.801 32.686 48.0637 32.3289 47.3902C31.9718 46.7166 31.4853 46.1203 30.8971 45.6353C30.309 45.1503 29.6309 44.7862 28.9017 44.5639C28.1725 44.3417 27.4066 44.2656 26.648 44.34ZM30.848 49.56C30.7061 50.5399 30.1884 51.4262 29.4044 52.031C28.6204 52.6357 27.6318 52.9116 26.648 52.8C25.6641 52.9116 24.6755 52.6357 23.8915 52.031C23.1075 51.4262 22.5898 50.5399 22.448 49.56C22.5898 48.5801 23.1075 47.6938 23.8915 47.089C24.6755 46.4843 25.6641 46.2084 26.648 46.32C27.6318 46.2084 28.6204 46.4843 29.4044 47.089C30.1884 47.6938 30.7061 48.5801 30.848 49.56Z" fill="white" fill-opacity="0.4"/>
<path d="M17.078 64.02H8.61797V55.59C8.61797 55.3354 8.51683 55.0912 8.33679 54.9112C8.15676 54.7311 7.91258 54.63 7.65797 54.63C7.5294 54.626 7.40133 54.6478 7.28137 54.6943C7.16142 54.7407 7.05201 54.8108 6.95967 54.9003C6.86732 54.9899 6.79391 55.0971 6.74381 55.2156C6.6937 55.334 6.66791 55.4614 6.66797 55.59V65.01C6.66797 65.2726 6.77227 65.5244 6.95793 65.71C7.14359 65.8957 7.3954 66 7.65797 66H17.078C17.3405 66 17.5923 65.8957 17.778 65.71C17.9637 65.5244 18.068 65.2726 18.068 65.01C18.068 64.7474 17.9637 64.4956 17.778 64.31C17.5923 64.1243 17.3405 64.02 17.078 64.02Z" fill="white" fill-opacity="0.4"/>
<path d="M55.058 12.45C54.5851 11.9061 53.9677 11.5074 53.2774 11.3003C52.587 11.0932 51.8521 11.0862 51.158 11.28C50.527 11.4354 49.9636 11.7914 49.5525 12.2946C49.1413 12.7977 48.9046 13.4208 48.878 14.07C48.8365 14.7864 49.0155 15.4982 49.391 16.1097C49.7664 16.7212 50.3203 17.2029 50.978 17.49C51.4843 17.7295 52.0379 17.8525 52.598 17.85C52.9364 17.8957 53.2795 17.8957 53.618 17.85C54.0523 17.727 54.4558 17.5139 54.8021 17.2244C55.1485 16.9349 55.4299 16.5756 55.628 16.17C55.9234 15.5657 56.0271 14.8856 55.9252 14.2208C55.8234 13.5559 55.5208 12.9381 55.058 12.45ZM53.588 15.45C53.3497 15.6616 53.0524 15.7951 52.7359 15.8327C52.4195 15.8702 52.0991 15.81 51.818 15.66C51.449 15.5182 51.1492 15.2391 50.9814 14.8812C50.8136 14.5233 50.7909 14.1143 50.918 13.74C51.0389 13.5156 51.2223 13.331 51.4459 13.2086C51.6695 13.0861 51.9237 13.0311 52.178 13.05C52.5223 13.0415 52.8612 13.1372 53.1503 13.3245C53.4394 13.5119 53.6651 13.7822 53.798 14.1C53.9232 14.3253 53.9705 14.5857 53.9325 14.8407C53.8945 15.0956 53.7734 15.3309 53.588 15.51V15.45Z" fill="white" fill-opacity="0.4"/>
<path d="M43.388 45.93C43.8628 44.9104 44.0167 43.7706 43.8292 42.6616C43.6416 41.5526 43.1216 40.5268 42.338 39.72C41.9573 39.3206 41.4856 39.0192 40.9632 38.8416C40.4408 38.664 39.8832 38.6154 39.338 38.7C38.817 38.803 38.3279 39.0279 37.9108 39.3565C37.4936 39.685 37.1602 40.1077 36.938 40.59C36.4593 41.6067 36.3006 42.7447 36.4827 43.8535C36.6648 44.9624 37.1793 45.9898 37.958 46.8C38.2694 47.1242 38.6416 47.3837 39.0534 47.5639C39.4653 47.7441 39.9086 47.8413 40.358 47.85H40.838C41.3889 47.7665 41.9104 47.5473 42.3555 47.2121C42.8007 46.877 43.1555 46.4364 43.388 45.93ZM38.798 41.49C38.8839 41.2505 39.0373 41.041 39.2395 40.8867C39.4418 40.7323 39.6843 40.6397 39.938 40.62H40.088C40.5825 40.7844 41.0173 41.0915 41.3376 41.5025C41.6579 41.9136 41.8494 42.4103 41.888 42.93C42.0179 43.6312 41.9235 44.3556 41.618 45C41.5278 45.2008 41.3954 45.3799 41.2297 45.5248C41.064 45.6698 40.869 45.7773 40.658 45.84H40.478C40.2164 45.8218 39.963 45.7416 39.7387 45.6059C39.5144 45.4703 39.3256 45.2831 39.188 45.06C38.8217 44.5486 38.5933 43.9514 38.525 43.3261C38.4567 42.7008 38.5507 42.0684 38.798 41.49Z" fill="white" fill-opacity="0.4"/>
<path d="M16.988 35.01C16.4329 34.9619 15.8739 35.0297 15.3464 35.2092C14.8189 35.3886 14.3345 35.6757 13.9239 36.0523C13.5133 36.4289 13.1854 36.8867 12.9611 37.3967C12.7368 37.9068 12.621 38.4578 12.621 39.015C12.621 39.5722 12.7368 40.1232 12.9611 40.6333C13.1854 41.1433 13.5133 41.6011 13.9239 41.9777C14.3345 42.3543 14.8189 42.6414 15.3464 42.8208C15.8739 43.0003 16.4329 43.0681 16.988 43.02C17.543 43.0681 18.1021 43.0003 18.6295 42.8208C19.157 42.6414 19.6414 42.3543 20.0521 41.9777C20.4627 41.6011 20.7905 41.1433 21.0148 40.6333C21.2391 40.1232 21.3549 39.5722 21.3549 39.015C21.3549 38.4578 21.2391 37.9068 21.0148 37.3967C20.7905 36.8867 20.4627 36.4289 20.0521 36.0523C19.6414 35.6757 19.157 35.3886 18.6295 35.2092C18.1021 35.0297 17.543 34.9619 16.988 35.01ZM19.268 39C19.2294 39.5703 18.9693 40.103 18.5433 40.4841C18.1172 40.8653 17.5591 41.0648 16.988 41.04C16.6908 41.0912 16.386 41.0768 16.095 40.9978C15.8039 40.9189 15.5336 40.7773 15.303 40.583C15.0724 40.3887 14.887 40.1463 14.7599 39.8729C14.6327 39.5995 14.5668 39.3016 14.5668 39C14.5668 38.6984 14.6327 38.4005 14.7599 38.1271C14.887 37.8537 15.0724 37.6113 15.303 37.417C15.5336 37.2227 15.8039 37.0811 16.095 37.0022C16.386 36.9232 16.6908 36.9088 16.988 36.96C17.2717 36.9438 17.5559 36.9838 17.8242 37.0776C18.0925 37.1714 18.3396 37.3173 18.5514 37.5068C18.7632 37.6963 18.9355 37.9257 19.0585 38.182C19.1815 38.4382 19.2526 38.7162 19.268 39Z" fill="white" fill-opacity="0.4"/>
</svg>
