<svg width="73" height="72" viewBox="0 0 73 72" fill="none" xmlns="http://www.w3.org/2000/svg">
<path d="M61.0565 51.24L59.7365 52.44L63.3365 56.4H16.8365V9.24L20.7665 12.93L21.9965 11.61L15.9965 6L9.8765 11.61L11.0765 12.93L15.0365 9.33V56.4H6.6665V58.2H15.0365V66H16.8365V58.2H63.4265L59.7365 62.16L61.0565 63.39L66.6665 57.39L61.0565 51.24Z" fill="white" fill-opacity="0.4"/>
<path d="M56.2864 45.4798V25.4698L39.8464 19.0498L23.3164 25.4698V45.4498L39.8464 52.1998L56.2864 45.4798ZM40.7464 49.8898V32.7898L54.4864 27.3898V44.2498L40.7464 49.8898ZM52.9264 26.0998L39.8464 31.2298L26.7064 26.0998L39.8464 20.9998L52.9264 26.0998ZM25.1164 27.4198L38.9464 32.8198V49.9198L25.1164 44.2798V27.4198Z" fill="white" fill-opacity="0.4"/>
</svg>
