<svg width="72" height="72" viewBox="0 0 72 72" fill="none" xmlns="http://www.w3.org/2000/svg">
<path d="M47.9701 43.41V36.93H51.0301V35.13H47.9701V29.4H51.0301V27.6H47.9701V22.02H51.0301V20.22H47.9701V14.61H51.0301V12.81H47.9701V11.1V11.04C47.8201 9.3 46.4101 6 42.0301 6C37.6501 6 36.2401 9.3 36.0901 11.1V43.41C32.3701 45.57 30.0601 49.53 30.0601 53.91C30.0601 60.57 35.4301 66 42.0301 66C48.6301 66 54.0001 60.57 54.0001 53.91C54.0001 49.53 51.7201 45.57 47.9701 43.41ZM42.0301 64.2C36.4201 64.2 31.8301 59.58 31.8301 53.91C31.8301 50.04 33.9601 46.53 37.3801 44.76L37.8601 44.52V11.19C37.8901 10.83 38.2801 7.8 42.0301 7.8C45.6901 7.8 46.1401 10.68 46.2001 11.16V44.52L46.6801 44.76C50.1001 46.53 52.2301 50.04 52.2301 53.91C52.2301 59.58 47.6401 64.2 42.0301 64.2Z" fill="#0066FF"/>
<path d="M42.9002 46.5002V11.2202H41.1302V46.5002C37.5002 46.9502 34.6802 50.0402 34.6802 53.8202C34.6802 57.9002 37.9802 61.2302 42.0302 61.2302C46.0802 61.2302 49.3802 57.9002 49.3802 53.8202C49.3802 50.0402 46.5302 46.9502 42.9002 46.5002ZM42.0302 59.4302C38.9702 59.4302 36.4502 56.9102 36.4502 53.8202C36.4502 50.7302 38.9402 48.2102 42.0302 48.2102C45.1202 48.2102 47.6102 50.7302 47.6102 53.8202C47.6102 56.9102 45.0902 59.4302 42.0302 59.4302Z" fill="#0066FF"/>
<path d="M32.4 27.4498C32.4 25.7098 31.77 24.5398 31.17 23.3998C30.57 22.3198 30 21.2698 30 19.5598C30 16.2898 32.13 14.0698 32.13 14.0398L30.87 12.7798C30.75 12.8998 28.23 15.5098 28.23 19.5598C28.23 21.7198 28.95 23.0698 29.61 24.2698C30.15 25.2898 30.63 26.1598 30.63 27.4498C30.63 28.7998 30.15 29.8798 29.58 31.1698C28.95 32.5798 28.23 34.1698 28.23 36.2398H30C30 34.5598 30.57 33.2698 31.17 31.8898C31.77 30.5698 32.4 29.1898 32.4 27.4498Z" fill="#0066FF"/>
<path d="M24.81 19.5598C24.81 16.2898 26.94 14.0698 26.94 14.0398L25.68 12.7798C25.56 12.8698 23.04 15.5098 23.04 19.5598C23.04 21.7198 23.76 23.0698 24.42 24.2698C24.96 25.2898 25.44 26.1598 25.44 27.4498C25.44 28.7998 24.96 29.8798 24.39 31.1698C23.76 32.5798 23.04 34.1698 23.04 36.2398H24.81C24.81 34.5598 25.38 33.2698 25.98 31.8898C26.58 30.5398 27.18 29.1598 27.18 27.4498C27.18 25.7098 26.55 24.5398 25.95 23.3998C25.38 22.3198 24.81 21.2698 24.81 19.5598Z" fill="#0066FF"/>
<path d="M19.77 19.5598C19.77 16.2898 21.9 14.0698 21.9 14.0398L20.64 12.7798C20.55 12.8698 18 15.5098 18 19.5598C18 21.7198 18.72 23.0698 19.38 24.2698C19.92 25.2898 20.4 26.1598 20.4 27.4498C20.4 28.7998 19.92 29.8798 19.35 31.1698C18.72 32.5798 18 34.1698 18 36.2698H19.77C19.77 34.5898 20.34 33.2998 20.94 31.9198C21.54 30.5698 22.14 29.1898 22.14 27.4798C22.14 25.7398 21.51 24.5698 20.91 23.4298C20.34 22.3198 19.77 21.2698 19.77 19.5598Z" fill="#0066FF"/>
</svg>
