<svg width="72" height="72" viewBox="0 0 72 72" fill="none" xmlns="http://www.w3.org/2000/svg">
<path d="M62.73 20.97L57 15.24L56.37 14.97H53.67L53.04 15.24L48.84 19.44V17.94V15.3L48.51 14.58L37.86 6.18L37.29 6H34.65L34.02 6.27L24.72 15.6L24.45 16.23V17.55V18.87V20.64L18.9 16.11L18.33 15.9H15.63L15 16.17L9.27 21.9L9 22.53V23.88V25.23V34.44H10.8V27.42L15 31.62L15.63 31.89H16.08V54.3L11.16 49.38L10.8 48.45V38.01H9V48.63L9.6 50.22L15.12 55.83L15.75 56.1H18.27L18.84 55.89L24.48 51.33V54.96L25.08 56.55L34.14 65.7L34.71 66H37.23L37.86 65.76L48.03 55.98L48.75 54.42V50.49L53.1 54.93L53.73 55.2H56.25L56.88 54.93L62.19 49.62L62.91 48.06L63 24.33V21.6L62.73 20.97ZM26.25 16.59L35.04 7.8H36.99L47.04 15.72V16.59V17.52L36.93 27.24H35.04L26.25 18.48V17.52V16.59ZM10.8 24.87V23.88V22.92L16.02 17.7H18.03L24.45 22.95V24.81L18.03 30.06H16.02L10.8 24.87ZM23.91 49.44L17.91 54.3H17.88V42.93L23.91 47.79V49.44ZM26.61 55.74L26.22 54.81V38.01H24.42V45.93L18.78 41.37L17.85 40.95V31.86H18.3L18.87 31.65L24.39 27.12V34.44H26.19V25.23V22.53V21.03L33.96 28.8L34.59 29.07H35.01V64.17L26.61 55.74ZM42.15 59.1L40.41 60.78V46.5L41.28 45.63L42.15 46.5V59.1ZM47.04 53.88L46.65 54.78L43.95 57.36V46.11L43.68 45.48L41.91 43.71H40.65L38.88 45.48L38.61 46.11V62.49L36.87 64.17V29.07H37.29L37.92 28.83L47.04 20.07V21.6V24.3V53.88ZM49.2 48.45L48.75 47.4L48.78 26.49L53.01 30.72L53.64 30.99H54.09V53.4L49.2 48.45ZM61.2 44.88L56.91 40.5L55.92 40.05V30.96H56.37L57 30.69L61.2 26.49V44.88ZM55.92 53.37V42.06L60.84 46.98L61.14 47.73L60.84 48.48L55.92 53.37ZM61.2 23.94L55.98 29.16H54.03L48.81 23.94V21.99L54.03 16.77H55.98L61.2 21.99V22.98V23.94Z" fill="#0066FF"/>
</svg>
