<svg width="72" height="72" viewBox="0 0 72 72" fill="none" xmlns="http://www.w3.org/2000/svg">
<path d="M36.5759 45.3746V17.9786H34.5719V45.3746C33.0565 45.6261 31.6911 46.4383 30.7468 47.6499C29.8025 48.8614 29.3484 50.3838 29.4745 51.9147C29.6007 53.4456 30.298 54.8731 31.4279 55.9137C32.5578 56.9544 34.0378 57.532 35.5739 57.532C37.11 57.532 38.5899 56.9544 39.7198 55.9137C40.8497 54.8731 41.547 53.4456 41.6732 51.9147C41.7994 50.3838 41.3452 48.8614 40.4009 47.6499C39.4566 46.4383 38.0912 45.6261 36.5759 45.3746ZM39.6902 51.3923C39.6902 52.2064 39.4488 53.0022 38.9965 53.6791C38.5443 54.3559 37.9015 54.8835 37.1495 55.1951C36.3974 55.5067 35.5698 55.5883 34.7714 55.4296C33.9729 55.2709 33.2395 54.879 32.6637 54.3035C32.088 53.728 31.6958 52.9947 31.5368 52.1963C31.3778 51.3979 31.4591 50.5703 31.7705 49.8181C32.0818 49.0659 32.6092 48.423 33.2859 47.9705C33.9626 47.518 34.7583 47.2763 35.5724 47.276C36.6638 47.2774 37.7101 47.7115 38.482 48.4831C39.2539 49.2547 39.6883 50.3009 39.6902 51.3923Z" fill="white" fill-opacity="0.4"/>
<path d="M42.5447 38.5232V13.0097C42.5423 11.1625 41.8075 9.39159 40.5015 8.08526C39.1954 6.77893 37.4247 6.04379 35.5775 6.04102H35.5718C34.6565 6.04086 33.7502 6.22099 32.9045 6.57113C32.0589 6.92126 31.2905 7.43454 30.6433 8.08166C29.996 8.72877 29.4826 9.49705 29.1323 10.3426C28.7819 11.1882 28.6016 12.0945 28.6016 13.0097V38.5247C25.8614 40.0065 23.6653 42.3237 22.3326 45.1394C21 47.9551 20.6002 51.1225 21.1914 54.181C21.7826 57.2395 23.334 60.0297 25.6201 62.1459C27.9061 64.2621 30.8076 65.5939 33.9026 65.9477C34.4651 66.0089 35.0305 66.0401 35.5964 66.041C38.852 66.036 42.0131 64.9462 44.58 62.9437C47.1469 60.9412 48.9732 58.1403 49.7702 54.9838C50.5672 51.8273 50.2895 48.4951 48.981 45.5141C47.6724 42.5331 45.4076 40.0731 42.5447 38.5232ZM41.1077 40.0346C43.68 41.2862 45.7521 43.3729 46.9855 45.954C48.2189 48.5351 48.5408 51.4581 47.8986 54.2458C47.2565 57.0335 45.6882 59.5211 43.4498 61.3024C41.2115 63.0838 38.4353 64.0536 35.5746 64.0536C32.7139 64.0536 29.9378 63.0838 27.6994 61.3024C25.4611 59.5211 23.8928 57.0335 23.2506 54.2458C22.6084 51.4581 22.9303 48.5351 24.1637 45.954C25.3971 43.3729 27.4692 41.2862 30.0416 40.0346C30.2104 39.9525 30.3526 39.8246 30.4521 39.6654C30.5516 39.5063 30.6043 39.3223 30.6041 39.1346V13.0097C30.6041 11.6919 31.1276 10.428 32.0594 9.49617C32.9913 8.56432 34.2551 8.04082 35.573 8.04082C36.8908 8.04082 38.1547 8.56432 39.0865 9.49617C40.0184 10.428 40.5419 11.6919 40.5419 13.0097V39.134C40.5425 39.322 40.5958 39.5061 40.6958 39.6653C40.7958 39.8245 40.9385 39.9525 41.1077 40.0346Z" fill="white" fill-opacity="0.4"/>
<path d="M51.0746 10.3013H44.807V12.3056H51.0746V10.3013Z" fill="white" fill-opacity="0.4"/>
<path d="M48.518 15.419H44.807V17.4233H48.518V15.419Z" fill="white" fill-opacity="0.4"/>
<path d="M51.0746 20.5367H44.807V22.541H51.0746V20.5367Z" fill="white" fill-opacity="0.4"/>
<path d="M48.518 25.6541H44.807V27.6584H48.518V25.6541Z" fill="white" fill-opacity="0.4"/>
<path d="M51.0746 30.7718H44.807V32.7761H51.0746V30.7718Z" fill="white" fill-opacity="0.4"/>
<path d="M48.518 35.8907H44.807V37.8935H48.518V35.8907Z" fill="white" fill-opacity="0.4"/>
</svg>
