<svg width="72" height="72" viewBox="0 0 72 72" fill="none" xmlns="http://www.w3.org/2000/svg">
<path d="M36 20.5959C32.9534 20.5959 29.9753 21.4994 27.4422 23.192C24.9091 24.8846 22.9348 27.2904 21.769 30.105C20.6031 32.9197 20.2981 36.0169 20.8925 39.0049C21.4869 41.9929 22.9539 44.7376 25.1082 46.8918C27.2624 49.0461 30.0071 50.5131 32.9951 51.1075C35.9831 51.7019 39.0803 51.3968 41.8949 50.231C44.7096 49.0652 47.1154 47.0909 48.808 44.5578C50.5006 42.0247 51.404 39.0465 51.4041 36C51.3994 31.916 49.775 28.0006 46.8872 25.1128C43.9994 22.225 40.084 20.6006 36 20.5959ZM36 48.8499C33.4584 48.8498 30.9739 48.0961 28.8607 46.684C26.7474 45.2719 25.1004 43.2649 24.1278 40.9167C23.1553 38.5686 22.9009 35.9847 23.3968 33.492C23.8927 30.9992 25.1167 28.7095 26.9139 26.9124C28.7112 25.1153 31.001 23.8915 33.4938 23.3957C35.9866 22.9 38.5704 23.1545 40.9185 24.1273C43.2666 25.1 45.2735 26.7472 46.6854 28.8605C48.0974 30.9738 48.8509 33.4584 48.8508 36C48.8468 39.4069 47.4916 42.6732 45.0824 45.0822C42.6733 47.4912 39.4069 48.8462 36 48.8499Z" fill="#0066FF"/>
<path d="M38.9346 26.9127L37.3314 28.9011C37.6748 29.1768 37.9241 29.5523 38.045 29.9758C38.1659 30.3992 38.1523 30.8498 38.0062 31.2652C37.8601 31.6806 37.5886 32.0404 37.2292 32.295C36.8699 32.5495 36.4404 32.6862 36 32.6862C35.5596 32.6862 35.1301 32.5495 34.7708 32.295C34.4114 32.0404 34.1399 31.6806 33.9938 31.2652C33.8477 30.8498 33.8341 30.3992 33.955 29.9758C34.0759 29.5523 34.3252 29.1768 34.6686 28.9011L33.0654 26.9127C32.3966 27.4508 31.8888 28.1625 31.5975 28.9699C31.3062 29.7773 31.2427 30.6492 31.4139 31.4903C31.585 32.3314 31.9843 33.1092 32.568 33.7385C33.1517 34.3679 33.8973 34.8244 34.7232 35.0583V45.0867H37.2765V35.0583C38.1024 34.8245 38.848 34.3679 39.4317 33.7386C40.0155 33.1093 40.4148 32.3315 40.586 31.4904C40.7572 30.6493 40.6937 29.7773 40.4024 28.9699C40.1112 28.1625 39.6034 27.4508 38.9346 26.9127Z" fill="#0066FF"/>
<path d="M66 42.054V29.9454H59.3964C58.8318 27.7678 57.9633 25.6806 56.8164 23.7453L61.494 19.0677L52.9323 10.506L48.2559 15.183C46.3204 14.0361 44.233 13.1676 42.0552 12.603V6H29.946V12.6042C27.7681 13.1684 25.6806 14.037 23.7453 15.1842L19.0677 10.5054L10.5066 19.0671L15.1842 23.7447C14.0368 25.6799 13.1682 27.7674 12.6042 29.9454H6V42.054H12.6051C13.1689 44.232 14.0375 46.3195 15.1851 48.2547L10.5069 52.9323L19.0677 61.494L23.7453 56.8164C25.6807 57.9635 27.7681 58.832 29.946 59.3964V66H42.0552V59.3952C44.2331 58.8306 46.3206 57.9621 48.2562 56.8152L52.9326 61.4928L61.4946 52.9311L56.8173 48.2535C57.9642 46.318 58.8327 44.2306 59.3973 42.0528L66 42.054ZM57.1362 40.5117C56.5874 43.0879 55.5675 45.5405 54.1278 47.7462L53.5644 48.6132L57.8844 52.9332L52.9326 57.8832L48.6156 53.5632L47.7477 54.126C45.5419 55.5653 43.0894 56.5851 40.5135 57.1341L39.5022 57.3486V63.4455H32.4993V57.3498L31.4883 57.1353C28.9124 56.5864 26.4599 55.5668 24.2541 54.1278L23.3865 53.5644L19.068 57.8844L14.118 52.9344L18.438 48.6144L17.8743 47.7471C16.4344 45.5419 15.4145 43.0895 14.8662 40.5135L14.6505 39.5019H8.5533V32.4999H14.6493L14.8653 31.488C15.4134 28.9116 16.4333 26.4587 17.8734 24.2532L18.4368 23.3859L14.1168 19.0659L19.0668 14.1159L23.3853 18.4359L24.2532 17.8725C26.459 16.4333 28.9115 15.4137 31.4874 14.8647L32.4984 14.6505V8.5533H39.501V14.6493L40.5123 14.8638C43.0882 15.4131 45.5406 16.4328 47.7465 17.8719L48.6144 18.435L52.9314 14.1165L57.8832 19.0665L53.5632 23.385L54.1266 24.2523C55.5663 26.458 56.5862 28.9106 57.135 31.4868L57.3507 32.4978H63.4455V39.4998H57.3519L57.1362 40.5117Z" fill="#0066FF"/>
</svg>
