<svg width="73" height="72" viewBox="0 0 73 72" fill="none" xmlns="http://www.w3.org/2000/svg">
<path d="M32.2476 50.5759C28.5574 50.5758 24.9501 49.4814 21.8818 47.4312C18.8136 45.3809 16.4222 42.4669 15.01 39.0576C13.5979 35.6483 13.2284 31.8967 13.9484 28.2774C14.6683 24.6581 16.4453 21.3336 19.0547 18.7242C21.664 16.1148 24.9885 14.3377 28.6078 13.6177C32.2271 12.8978 35.9786 13.2672 39.388 14.6792C42.7973 16.0913 45.7114 18.4827 47.7617 21.5509C49.812 24.6191 50.9064 28.2264 50.9066 31.9166C50.9007 36.8635 48.933 41.6061 45.435 45.1041C41.9371 48.6021 37.1945 50.5699 32.2476 50.5759ZM32.2476 15.2736C28.9557 15.2737 25.7378 16.25 23.0008 18.079C20.2638 19.908 18.1306 22.5075 16.871 25.5488C15.6114 28.5902 15.2819 31.9367 15.9242 35.1653C16.5666 38.3939 18.1519 41.3595 20.4797 43.6871C22.8076 46.0147 25.7733 47.5998 29.002 48.2418C32.2306 48.8839 35.5771 48.5541 38.6184 47.2942C41.6596 46.0343 44.2589 43.9009 46.0877 41.1637C47.9164 38.4265 48.8923 35.2085 48.8922 31.9166C48.8868 27.504 47.1315 23.2736 44.0111 20.1536C40.8908 17.0335 36.6602 15.2785 32.2476 15.2736Z" fill="white" fill-opacity="0.4"/>
<path d="M32.2488 57.8348C27.1229 57.8346 22.1121 56.3145 17.8501 53.4667C13.5882 50.6188 10.2664 46.5711 8.3048 41.8353C6.34324 37.0996 5.83002 31.8885 6.83005 26.8611C7.83007 21.8337 10.2984 17.2157 13.923 13.5911C17.5475 9.96656 22.1654 7.49816 27.1928 6.49807C32.2202 5.49799 37.4313 6.01115 42.1671 7.97265C46.9028 9.93415 50.9506 13.2559 53.7985 17.5179C56.6464 21.7798 58.1666 26.7905 58.1668 31.9165C58.1592 38.788 55.4261 45.376 50.5672 50.2349C45.7083 55.0939 39.1204 57.827 32.2488 57.8348ZM32.2488 8.01445C27.5212 8.01458 22.8999 9.41659 18.9691 12.0432C15.0384 14.6698 11.9748 18.403 10.1657 22.7708C8.35669 27.1385 7.88347 31.9446 8.80592 36.5813C9.72836 41.218 12.005 45.4771 15.348 48.8199C18.691 52.1626 22.9502 54.439 27.587 55.3612C32.2237 56.2833 37.0298 55.8098 41.3975 54.0005C45.7651 52.1912 49.4981 49.1273 52.1245 45.1964C54.7508 41.2655 56.1525 36.644 56.1523 31.9165C56.1452 25.5792 53.6245 19.5035 49.1432 15.0225C44.6619 10.5415 38.5861 8.02118 32.2488 8.01445Z" fill="white" fill-opacity="0.4"/>
<path d="M58.9184 65.9999L45.8945 52.973L47.3162 51.5513L58.9184 63.1536L63.4868 58.5852L51.8846 46.9829L53.3062 45.5613L66.3332 58.5852L58.9184 65.9999Z" fill="white" fill-opacity="0.4"/>
<path d="M30.0188 39.0417L22.3594 31.3822L23.7841 29.9575L30.0188 36.1922L40.7136 25.5037L42.1352 26.9284L30.0188 39.0417Z" fill="white" fill-opacity="0.4"/>
</svg>
