<svg width="72" height="72" viewBox="0 0 72 72" fill="none" xmlns="http://www.w3.org/2000/svg">
<path d="M57.709 61.5447H8.87744V6H57.709V27.0051H54.8941V8.8152H11.6941V58.8378H54.8941V50.0676H57.709V61.5447Z" fill="#0066FF"/>
<path d="M46.8817 54.8316C43.6695 54.8316 40.5295 53.879 37.8587 52.0945C35.1878 50.3099 33.1062 47.7733 31.8769 44.8057C30.6477 41.838 30.326 38.5725 30.9527 35.422C31.5794 32.2715 33.1262 29.3776 35.3975 27.1063C37.6689 24.8349 40.5628 23.2881 43.7132 22.6614C46.8637 22.0348 50.1293 22.3564 53.0969 23.5857C56.0646 24.8149 58.6011 26.8966 60.3857 29.5674C62.1703 32.2382 63.1228 35.3783 63.1228 38.5905C63.1257 40.7241 62.7076 42.8373 61.8924 44.8091C61.0773 46.7808 59.8811 48.5724 58.3724 50.0811C56.8637 51.5898 55.0721 52.786 53.1003 53.6012C51.1286 54.4163 49.0154 54.8345 46.8817 54.8316ZM46.8817 25.0563C44.2048 25.0562 41.588 25.85 39.3623 27.3371C37.1365 28.8243 35.4017 30.9381 34.3772 33.4112C33.3528 35.8843 33.0848 38.6057 33.607 41.2312C34.1292 43.8566 35.4182 46.2683 37.3111 48.1611C39.2039 50.054 41.6156 51.343 44.2411 51.8652C46.8665 52.3874 49.5879 52.1194 52.061 51.095C54.5341 50.0705 56.6479 48.3357 58.1351 46.11C59.6222 43.8842 60.416 41.2674 60.4159 38.5905C60.4147 35.0014 58.9883 31.5596 56.4504 29.0218C53.9126 26.4839 50.4708 25.0575 46.8817 25.0563Z" fill="#0066FF"/>
<path d="M19.3369 64.0863L35.3356 48.0873L37.2496 50.001L21.2506 66L19.3369 64.0863Z" fill="#0066FF"/>
<path d="M17.106 14.1207H49.59V16.8273H17.106V14.1207Z" fill="#0066FF"/>
<path d="M17.106 22.2411H32.0481V24.948H17.106V22.2411Z" fill="#0066FF"/>
</svg>
