<svg width="72" height="72" viewBox="0 0 72 72" fill="none" xmlns="http://www.w3.org/2000/svg">
<path d="M58.5261 40.1227V19.854L32.263 9L6 19.854V51.7562L31.8428 61.5908L43.7287 56.7035C45.7397 60.4214 49.6117 63 54.1439 63C60.6872 63 65.9998 57.6929 65.9998 51.1566C66.0298 46.1494 62.9083 41.8917 58.5261 40.1227ZM56.7252 39.583C55.8848 39.4031 55.0444 39.2832 54.1439 39.2832C50.1519 39.2832 46.6402 41.2621 44.5091 44.2904L33.1635 40.1827V36.4647H31.3626V40.2127L22.8984 43.6607V14.8168L31.3626 11.3087V31.5775H33.1635V11.3087L56.7252 21.0533V39.583ZM42.288 51.1266C42.288 51.6663 42.3781 52.176 42.4381 52.6857L24.3391 44.98L32.2931 41.7418L43.6087 45.8495C42.7983 47.4386 42.288 49.2077 42.288 51.1266ZM17.3756 45.8795V17.0955L21.0975 15.5664V44.3803L17.3756 45.8795ZM15.5748 17.8451V46.6291L7.80089 49.7773V21.0533L15.5748 17.8451ZM31.8428 59.6419L9.36167 51.0966L16.4752 48.1882L37.9058 57.1532L31.8428 59.6419ZM40.247 56.1938L18.8464 47.2288L21.9979 45.9395L42.8283 54.8145L42.8883 54.6946C42.9183 54.8145 42.9483 54.9345 43.0084 55.0544L40.247 56.1938ZM54.1739 61.171C48.6212 61.171 44.0889 56.6735 44.0889 51.1266C44.0889 45.5797 48.5911 41.0822 54.1739 41.0822C59.7267 41.0822 64.2289 45.5797 64.2289 51.1266C64.2289 56.6735 59.7267 61.171 54.1739 61.171Z" fill="#0066FF"/>
<path d="M59.0071 47.8284H50.8431L52.4639 46.2093L51.2032 44.95L47.3613 48.7879L51.1132 52.5358L52.3738 51.2765L50.753 49.6574H58.9471C59.3373 49.6874 60.5679 49.8973 60.5679 51.5463C60.5679 53.1954 59.3373 53.4053 59.0371 53.4353H51.9536V55.2343H59.0671C60.2077 55.1743 62.3388 54.3348 62.3388 51.5463C62.3688 48.6979 60.1777 47.8884 59.0071 47.8284Z" fill="#0066FF"/>
<path d="M37.3957 16.0764H35.5957V26.4206H37.3957V16.0764Z" fill="#0066FF"/>
<path d="M43.6682 35.955H41.8682V38.745H43.6682V35.955Z" fill="#0066FF"/>
<path d="M43.6682 27.7996H41.8682V34.306H43.6682V27.7996Z" fill="#0066FF"/>
<path d="M52.2522 21.2334H50.4521V37.4844H52.2522V21.2334Z" fill="#0066FF"/>
</svg>
