<svg width="72" height="72" viewBox="0 0 72 72" fill="none" xmlns="http://www.w3.org/2000/svg">
<path d="M45.6914 29.22C42.4327 29.2141 39.2454 30.175 36.533 31.9811C33.8206 33.7872 31.7049 36.3574 30.4537 39.3664C29.2026 42.3754 28.8721 45.6879 29.5042 48.8847C30.1363 52.0815 31.7026 55.019 34.0048 57.3254C36.3069 59.6318 39.2415 61.2034 42.4372 61.8413C45.6329 62.4792 48.946 62.1548 51.9573 60.9091C54.9685 59.6635 57.5425 57.5525 59.3536 54.8433C61.1647 52.1342 62.1314 48.9487 62.1314 45.69C62.1314 41.3271 60.4003 37.1424 57.3181 34.0545C54.2358 30.9667 50.0543 29.2279 45.6914 29.22ZM45.6914 60.18C42.8171 60.1859 40.0057 59.3386 37.6133 57.7454C35.2209 56.1523 33.3552 53.8848 32.2525 51.2304C31.1498 48.576 30.8597 45.6541 31.419 42.8347C31.9783 40.0153 33.3618 37.4253 35.3943 35.3928C37.4267 33.3604 40.0167 31.9769 42.8361 31.4176C45.6555 30.8583 48.5774 31.1483 51.2318 32.251C53.8862 33.3537 56.1537 35.2195 57.7469 37.6118C59.3401 40.0042 60.1873 42.8157 60.1814 45.69C60.1735 49.5305 58.6443 53.2115 55.9286 55.9272C53.2129 58.6429 49.532 60.1721 45.6914 60.18Z" fill="#0066FF"/>
<path d="M45.6908 40.83C45.0225 40.7774 44.3505 40.8636 43.7171 41.0832C43.0837 41.3028 42.5026 41.6511 42.0103 42.1061C41.518 42.5612 41.1252 43.1131 40.8566 43.7273C40.5879 44.3415 40.4492 45.0046 40.4492 45.675C40.4492 46.3454 40.5879 47.0085 40.8566 47.6227C41.1252 48.2369 41.518 48.7888 42.0103 49.2439C42.5026 49.6989 43.0837 50.0472 43.7171 50.2668C44.3505 50.4864 45.0225 50.5726 45.6908 50.52C46.9099 50.424 48.048 49.8719 48.8781 48.9739C49.7082 48.0759 50.1692 46.8979 50.1692 45.675C50.1692 44.4521 49.7082 43.2741 48.8781 42.3761C48.048 41.4781 46.9099 40.926 45.6908 40.83ZM45.6908 48.57C45.0974 48.57 44.5174 48.3941 44.0241 48.0644C43.5307 47.7348 43.1462 47.2662 42.9191 46.7181C42.6921 46.1699 42.6327 45.5667 42.7484 44.9847C42.8642 44.4028 43.1499 43.8682 43.5694 43.4487C43.989 43.0291 44.5235 42.7434 45.1055 42.6276C45.6874 42.5119 46.2906 42.5713 46.8388 42.7984C47.387 43.0254 47.8555 43.4099 48.1852 43.9033C48.5148 44.3966 48.6908 44.9767 48.6908 45.57C48.6908 45.964 48.6132 46.3541 48.4624 46.7181C48.3116 47.082 48.0907 47.4127 47.8121 47.6913C47.5335 47.9699 47.2028 48.1909 46.8388 48.3416C46.4748 48.4924 46.0847 48.57 45.6908 48.57Z" fill="#0066FF"/>
<path d="M45.6914 39C46.2847 39 46.8648 38.8241 47.3581 38.4944C47.8515 38.1648 48.236 37.6962 48.463 37.1481C48.6901 36.5999 48.7495 35.9967 48.6338 35.4147C48.518 34.8328 48.2323 34.2982 47.8127 33.8787C47.3932 33.4591 46.8586 33.1734 46.2767 33.0576C45.6947 32.9419 45.0915 33.0013 44.5434 33.2284C43.9952 33.4554 43.5266 33.8399 43.197 34.3333C42.8674 34.8266 42.6914 35.4067 42.6914 36C42.6914 36.7957 43.0075 37.5587 43.5701 38.1213C44.1327 38.6839 44.8958 39 45.6914 39ZM45.6914 35.13C45.8799 35.1359 46.0625 35.1972 46.2163 35.3062C46.3702 35.4152 46.4886 35.5671 46.5567 35.7429C46.6247 35.9188 46.6395 36.1108 46.5992 36.295C46.5588 36.4792 46.4651 36.6474 46.3297 36.7787C46.1943 36.91 46.0233 36.9985 45.8379 37.0332C45.6526 37.0678 45.4611 37.0472 45.2874 36.9737C45.1138 36.9002 44.9656 36.7773 44.8613 36.6201C44.7571 36.4629 44.7015 36.2786 44.7014 36.09C44.6885 35.954 44.7048 35.8168 44.7491 35.6876C44.7935 35.5584 44.8649 35.4402 44.9586 35.3408C45.0523 35.2414 45.1662 35.1632 45.2925 35.1113C45.4189 35.0594 45.5549 35.0351 45.6914 35.04V35.13Z" fill="#0066FF"/>
<path d="M38.8211 41.73C39.5192 41.7398 40.1989 41.5058 40.7431 41.0683C41.2873 40.6308 41.6618 40.0172 41.8021 39.3332C41.9424 38.6492 41.8397 37.9377 41.5118 37.3213C41.1839 36.7048 40.6512 36.2221 40.0055 35.9563C39.3599 35.6904 38.6417 35.6581 37.9748 35.8649C37.3079 36.0716 36.734 36.5046 36.352 37.089C35.9701 37.6735 35.8039 38.3729 35.8822 39.0668C35.9605 39.7606 36.2784 40.4054 36.7811 40.89C37.3297 41.4189 38.059 41.7193 38.8211 41.73ZM38.1611 38.16C38.2417 38.0639 38.3428 37.987 38.457 37.9351C38.5712 37.8832 38.6956 37.8575 38.8211 37.86C38.9512 37.8552 39.0807 37.8796 39.2002 37.9315C39.3196 37.9835 39.4258 38.0615 39.5111 38.16C39.6935 38.3323 39.8012 38.5692 39.8111 38.82C39.8058 39.0805 39.698 39.3284 39.5111 39.51C39.4242 39.6017 39.3195 39.6747 39.2034 39.7246C39.0874 39.7745 38.9624 39.8002 38.8361 39.8002C38.7097 39.8002 38.5847 39.7745 38.4687 39.7246C38.3526 39.6747 38.248 39.6017 38.1611 39.51C37.9741 39.3284 37.8664 39.0805 37.8611 38.82C37.8709 38.5692 37.9786 38.3323 38.1611 38.16Z" fill="#0066FF"/>
<path d="M39 45.69C39 45.0967 38.8241 44.5166 38.4944 44.0233C38.1648 43.5299 37.6962 43.1454 37.1481 42.9184C36.5999 42.6913 35.9967 42.6319 35.4147 42.7476C34.8328 42.8634 34.2982 43.1491 33.8787 43.5687C33.4591 43.9882 33.1734 44.5228 33.0576 45.1047C32.9419 45.6867 33.0013 46.2899 33.2284 46.8381C33.4554 47.3862 33.8399 47.8548 34.3333 48.1844C34.8266 48.5141 35.4067 48.69 36 48.69C36.7957 48.69 37.5587 48.3739 38.1213 47.8113C38.6839 47.2487 39 46.4857 39 45.69ZM35.13 45.69C35.13 45.5001 35.1863 45.3145 35.2918 45.1567C35.3973 44.9988 35.5472 44.8757 35.7226 44.8031C35.898 44.7304 36.0911 44.7114 36.2773 44.7485C36.4635 44.7855 36.6346 44.8769 36.7688 45.0112C36.9031 45.1454 36.9945 45.3165 37.0316 45.5027C37.0686 45.6889 37.0496 45.882 36.9769 46.0574C36.9043 46.2328 36.7812 46.3827 36.6234 46.4882C36.4655 46.5937 36.2799 46.65 36.09 46.65C35.9566 46.6626 35.822 46.6471 35.6949 46.6045C35.5679 46.5619 35.4511 46.4932 35.3522 46.4027C35.2533 46.3123 35.1744 46.2022 35.1207 46.0794C35.0669 45.9567 35.0394 45.824 35.04 45.69H35.13Z" fill="#0066FF"/>
<path d="M36.7814 50.46C36.2454 51.0161 35.9445 51.7576 35.9414 52.53C35.9414 53.3256 36.2575 54.0887 36.8201 54.6513C37.3827 55.2139 38.1458 55.53 38.9414 55.53C39.7138 55.5269 40.4553 55.226 41.0114 54.69C41.5404 54.1414 41.8407 53.412 41.8514 52.65C41.8483 51.8776 41.5474 51.1361 41.0114 50.58C40.455 50.0569 39.7201 49.7656 38.9564 49.7656C38.1927 49.7656 37.4578 50.0569 36.9014 50.58L36.7814 50.46ZM39.5114 53.19C39.4245 53.2817 39.3198 53.3547 39.2038 53.4046C39.0877 53.4545 38.9627 53.4803 38.8364 53.4803C38.7101 53.4803 38.5851 53.4545 38.469 53.4046C38.353 53.3547 38.2483 53.2817 38.1614 53.19C37.979 53.0177 37.8713 52.7808 37.8614 52.53C37.8667 52.2695 37.9745 52.0216 38.1614 51.84C38.3337 51.6576 38.5707 51.5499 38.8214 51.54C39.0816 51.5475 39.329 51.6543 39.5131 51.8383C39.6971 52.0224 39.8039 52.2698 39.8114 52.53C39.8015 52.7808 39.6938 53.0177 39.5114 53.19Z" fill="#0066FF"/>
<path d="M45.6914 52.44C45.0981 52.44 44.518 52.616 44.0247 52.9456C43.5313 53.2752 43.1468 53.7438 42.9198 54.292C42.6927 54.8401 42.6333 55.4433 42.7491 56.0253C42.8648 56.6072 43.1505 57.1418 43.5701 57.5613C43.9896 57.9809 44.5242 58.2666 45.1061 58.3824C45.6881 58.4981 46.2913 58.4387 46.8395 58.2116C47.3876 57.9846 47.8562 57.6001 48.1858 57.1067C48.5155 56.6134 48.6914 56.0333 48.6914 55.44C48.6914 54.6444 48.3753 53.8813 47.8127 53.3187C47.2501 52.7561 46.4871 52.44 45.6914 52.44ZM45.6914 56.31C45.5015 56.31 45.3159 56.2537 45.1581 56.1482C45.0002 56.0427 44.8771 55.8928 44.8045 55.7174C44.7318 55.542 44.7128 55.3489 44.7499 55.1627C44.7869 54.9765 44.8783 54.8054 45.0126 54.6712C45.1468 54.5369 45.3179 54.4455 45.5041 54.4084C45.6903 54.3714 45.8834 54.3904 46.0588 54.4631C46.2342 54.5357 46.3841 54.6588 46.4896 54.8167C46.5951 54.9745 46.6514 55.1601 46.6514 55.35C46.6514 55.6046 46.5503 55.8488 46.3702 56.0288C46.1902 56.2089 45.946 56.31 45.6914 56.31Z" fill="#0066FF"/>
<path d="M50.4611 50.46C49.925 51.0161 49.6242 51.7576 49.6211 52.53C49.6318 53.292 49.9321 54.0214 50.4611 54.57C51.0175 55.0931 51.7524 55.3844 52.5161 55.3844C53.2798 55.3844 54.0147 55.0931 54.5711 54.57C55.1 54.0214 55.4004 53.292 55.4111 52.53C55.408 51.7576 55.1071 51.0161 54.5711 50.46C54.0147 49.9369 53.2798 49.6456 52.5161 49.6456C51.7524 49.6456 51.0175 49.9369 50.4611 50.46ZM53.1911 53.19C53.1042 53.2817 52.9995 53.3547 52.8835 53.4046C52.7674 53.4545 52.6424 53.4803 52.5161 53.4803C52.3898 53.4803 52.2648 53.4545 52.1487 53.4046C52.0327 53.3547 51.928 53.2817 51.8411 53.19C51.6587 53.0177 51.551 52.7808 51.5411 52.53C51.5464 52.2695 51.6542 52.0216 51.8411 51.84C51.928 51.7483 52.0327 51.6753 52.1487 51.6254C52.2648 51.5755 52.3898 51.5497 52.5161 51.5497C52.6424 51.5497 52.7674 51.5755 52.8835 51.6254C52.9995 51.6753 53.1042 51.7483 53.1911 51.84C53.2895 51.9252 53.3676 52.0315 53.4195 52.1509C53.4715 52.2703 53.4959 52.3999 53.4911 52.53C53.4935 52.6554 53.4679 52.7798 53.416 52.894C53.364 53.0082 53.2872 53.1094 53.1911 53.19Z" fill="#0066FF"/>
<path d="M55.3516 42.78C54.7582 42.78 54.1782 42.956 53.6849 43.2856C53.1915 43.6153 52.807 44.0838 52.5799 44.632C52.3529 45.1802 52.2935 45.7834 52.4092 46.3653C52.525 46.9472 52.8107 47.4818 53.2302 47.9014C53.6498 48.3209 54.1843 48.6066 54.7663 48.7224C55.3482 48.8381 55.9514 48.7787 56.4996 48.5517C57.0478 48.3246 57.5163 47.9401 57.846 47.4467C58.1756 46.9534 58.3516 46.3734 58.3516 45.78C58.3516 44.9844 58.0355 44.2213 57.4729 43.6587C56.9103 43.0961 56.1472 42.78 55.3516 42.78ZM55.3516 46.65C55.1533 46.656 54.9579 46.6022 54.7906 46.4957C54.6232 46.3893 54.4917 46.235 54.4131 46.0529C54.3345 45.8709 54.3124 45.6694 54.3496 45.4746C54.3868 45.2798 54.4817 45.1007 54.622 44.9604C54.7622 44.8202 54.9413 44.7253 55.1361 44.6881C55.3309 44.6508 55.5324 44.673 55.7145 44.7516C55.8965 44.8302 56.0508 44.9617 56.1573 45.129C56.2637 45.2964 56.3175 45.4918 56.3116 45.69C56.3116 45.9446 56.2104 46.1888 56.0304 46.3689C55.8503 46.5489 55.6062 46.65 55.3516 46.65Z" fill="#0066FF"/>
<path d="M52.5311 41.73C53.2931 41.7193 54.0225 41.4189 54.5711 40.89C55.0942 40.3336 55.3855 39.5987 55.3855 38.835C55.3855 38.0713 55.0942 37.3364 54.5711 36.78C54.151 36.4177 53.6386 36.1791 53.091 36.0905C52.5434 36.002 51.9819 36.067 51.469 36.2784C50.9561 36.4898 50.5119 36.8392 50.1857 37.2879C49.8594 37.7366 49.664 38.2669 49.6211 38.82C49.6211 39.6156 49.9372 40.3787 50.4998 40.9413C51.0624 41.5039 51.8254 41.82 52.6211 41.82L52.5311 41.73ZM51.8411 38.16C51.9263 38.0615 52.0326 37.9835 52.152 37.9315C52.2714 37.8796 52.401 37.8552 52.5311 37.86C52.6604 37.8609 52.7881 37.888 52.9067 37.9396C53.0253 37.9911 53.1322 38.0661 53.2211 38.16C53.3073 38.2468 53.3755 38.3498 53.4219 38.4631C53.4682 38.5763 53.4917 38.6976 53.4911 38.82C53.494 38.9471 53.4717 39.0736 53.4253 39.1921C53.379 39.3105 53.3096 39.4186 53.2211 39.51C53.1316 39.6025 53.0244 39.6761 52.9058 39.7264C52.7873 39.7766 52.6598 39.8025 52.5311 39.8025C52.4023 39.8025 52.2749 39.7766 52.1564 39.7264C52.0378 39.6761 51.9306 39.6025 51.8411 39.51C51.6542 39.3284 51.5464 39.0805 51.5411 38.82C51.551 38.5692 51.6587 38.3323 51.8411 38.16Z" fill="#0066FF"/>
<path d="M45.69 25.35H44.7V15.69H46.65V9.87H35.04V6H17.61V9.87H6V15.69H7.95V44.7H6V50.52H25.95C26.8611 54.2167 28.7929 57.5829 31.525 60.2345C34.2572 62.8862 37.6797 64.7164 41.402 65.5165C45.1243 66.3166 48.9966 66.0542 52.577 64.7594C56.1574 63.4646 59.3017 61.1895 61.6513 58.1936C64.0009 55.1978 65.461 51.6018 65.8652 47.8159C66.2694 44.0301 65.6012 40.2069 63.9371 36.7826C62.2729 33.3582 59.6797 30.4705 56.4533 28.4491C53.2269 26.4276 49.4973 25.3538 45.69 25.35ZM42.69 25.59C41.4299 25.7804 40.1932 26.1022 39 26.55V15.69H42.87L42.69 25.59ZM19.56 15.69V44.7H15.69V15.69H19.56ZM21.48 15.69H25.35V44.7H21.48V15.69ZM27.3 15.69H31.17V31.47C29.5772 33.1119 28.2692 35.0079 27.3 37.08V15.69ZM33.09 15.69H36.96V27.33C35.55 27.9832 34.221 28.7988 33 29.76L33.09 15.69ZM19.56 7.95H33V9.87H19.56V7.95ZM7.95 11.82H44.7V13.74H7.95V11.82ZM9.87 15.69H13.74V44.7H9.87V15.69ZM7.95 48.69V46.77H25.41C25.41 47.43 25.41 48.06 25.59 48.69H7.95ZM45.69 64.17C42.0503 64.1759 38.4906 63.1017 35.4618 61.0832C32.433 59.0648 30.0712 56.193 28.6756 52.8314C27.28 49.4699 26.9133 45.7698 27.6219 42.1997C28.3306 38.6296 30.0826 35.35 32.6563 32.7763C35.23 30.2026 38.5096 28.4505 42.0797 27.7419C45.6498 27.0333 49.3499 27.4 52.7114 28.7956C56.073 30.1912 58.9448 32.553 60.9632 35.5818C62.9817 38.6106 64.0559 42.1703 64.05 45.81C64.0105 50.6561 62.0596 55.2907 58.6216 58.7063C55.1836 62.1218 50.5363 64.0423 45.69 64.05V64.17Z" fill="#0066FF"/>
</svg>
