<svg width="73" height="72" viewBox="0 0 73 72" fill="none" xmlns="http://www.w3.org/2000/svg">
<path d="M51.0937 26.7803L57.1537 18.4749L55.7137 17.3955L50.2837 24.8314L46.8937 21.1434L45.5737 22.3428L49.7137 26.8702L51.0937 26.7803Z" fill="white" fill-opacity="0.4"/>
<path d="M62.7639 49.208C62.1639 47.6788 60.6039 46.6294 58.9239 46.6294H16.6539C13.5939 46.6294 10.7739 48.4284 9.51391 51.2168L6.69391 57.3035C6.12391 58.5628 6.21391 59.972 6.96391 61.1413C7.71391 62.3107 8.97391 63.0003 10.3539 63.0003H62.2239C63.6039 63.0003 64.8939 62.3407 65.6439 61.2013C66.3939 60.1219 66.5439 58.7726 66.0639 57.5433L62.7639 49.208ZM30.6939 48.4284H30.7239C29.7939 49.178 28.9539 50.0775 28.4439 51.2168L26.1639 56.1641L23.8839 51.2168C23.3739 50.0775 22.5339 49.178 21.6039 48.4284H30.6939ZM22.6839 61.1713H10.3539C9.57391 61.1713 8.91391 60.8115 8.49391 60.1519C8.07391 59.4922 8.01391 58.7427 8.34391 58.053L11.1639 51.9664C12.1539 49.8076 14.3439 48.4284 16.7139 48.4284C19.0839 48.4284 21.2739 49.8076 22.2639 51.9664L25.0839 58.053C25.4139 58.7427 25.3539 59.5222 24.9339 60.1519C24.5139 60.7815 23.8539 61.1713 23.0739 61.1713H22.7139H22.6839ZM29.2839 61.1713C28.5039 61.1713 27.8439 60.8115 27.4239 60.1519C27.0039 59.5222 26.9439 58.7427 27.2739 58.053L30.0939 51.9664C31.0839 49.8076 33.2739 48.4284 35.6439 48.4284C38.0139 48.4284 40.2039 49.8076 41.1939 51.9664L44.0139 58.053C44.3439 58.7427 44.2839 59.5222 43.8639 60.1519C43.4439 60.7815 42.7839 61.1713 42.0039 61.1713H29.3139H29.2839ZM64.1739 60.1519C63.7539 60.7815 63.0039 61.1713 62.2239 61.1713H45.3039C45.3039 61.1713 45.3039 61.1713 45.3339 61.1113C46.0839 59.972 46.1739 58.5328 45.6039 57.2735L42.7839 51.1869C42.2739 50.0475 41.4339 49.148 40.5039 48.3984H58.9239C59.8839 48.3984 60.7539 48.9681 61.0839 49.8376L64.3839 58.173C64.6539 58.8326 64.5639 59.5522 64.1739 60.1519Z" fill="white" fill-opacity="0.4"/>
<path d="M53.794 53.2554H51.064V55.0554H53.794V53.2554Z" fill="white" fill-opacity="0.4"/>
<path d="M51.8428 57.6328H49.1128V59.4328H51.8428V57.6328Z" fill="white" fill-opacity="0.4"/>
<path d="M57.9629 57.6328H55.2329V59.4328H57.9629V57.6328Z" fill="white" fill-opacity="0.4"/>
<path d="M10.3539 44.7701H56.4639V42.9711H45.3039C45.3039 42.9711 45.3039 42.9711 45.3339 42.9111C46.0839 41.7418 46.1739 40.3326 45.6039 39.0733L42.7839 32.9867C42.2739 31.8473 41.4339 30.9478 40.5039 30.1982H45.2739C46.5939 31.5774 48.2739 32.7468 50.4339 33.4964C50.5239 33.5264 50.6139 33.5563 50.7339 33.5563H51.1839C51.1839 33.5563 51.3939 33.5563 51.4839 33.4964C53.6439 32.7468 55.3239 31.5774 56.6439 30.1982H58.9239C59.8839 30.1982 60.7539 30.7679 61.0839 31.6374L64.3839 39.9728C64.6539 40.6324 64.5639 41.352 64.1739 41.9517C63.7539 42.5813 63.0039 42.9711 62.2239 42.9711H58.7739V44.7701H62.2239C63.6039 44.7701 64.8939 44.1105 65.6439 42.9711C66.3939 41.8917 66.5439 40.5425 66.0639 39.3131L62.7639 30.9778C62.1639 29.4486 60.6039 28.3992 58.9239 28.3992H58.0539C61.8939 22.7324 61.4139 15.0566 61.3539 14.6069C61.3539 14.2771 61.1439 14.0072 60.8439 13.8573L51.0939 9.08995C50.8239 8.97002 50.5539 8.97002 50.2839 9.08995L40.9839 13.8573C40.7139 14.0072 40.5339 14.2771 40.5039 14.5769C40.4739 15.0266 39.9939 22.7024 43.8039 28.3692H16.6539C13.5939 28.3692 10.7739 30.1682 9.51391 32.9567L6.69391 39.0433C6.12391 40.3026 6.21391 41.7118 6.96391 42.8812C7.71391 44.0505 8.97391 44.7401 10.3539 44.7401V44.7701ZM42.2739 15.2665L50.7039 10.9489L59.5839 15.2665C59.6439 17.7551 59.4039 28.759 51.0039 31.7573H50.8539C42.4539 28.729 42.2139 17.7251 42.2739 15.2665ZM41.1339 33.7662L43.9539 39.8528C44.2839 40.5425 44.2239 41.322 43.8039 41.9517C43.3839 42.5813 42.7239 42.9711 41.9439 42.9711H29.2539C28.4739 42.9711 27.8139 42.6113 27.3939 41.9517C26.9739 41.292 26.9139 40.5425 27.2439 39.8528L30.0639 33.7662C31.0539 31.6074 33.2439 30.2282 35.6139 30.2282C37.9839 30.2282 40.1739 31.6074 41.1639 33.7662H41.1339ZM30.6639 30.2282H30.6939C29.7639 30.9778 28.9239 31.8773 28.4139 33.0166L26.1339 37.9639L23.8539 33.0166C23.3439 31.8773 22.5039 30.9778 21.5739 30.2282H30.6639ZM8.34391 39.8528L11.1639 33.7662C12.1539 31.6074 14.3439 30.2282 16.7139 30.2282C19.0839 30.2282 21.2739 31.6074 22.2639 33.7662L25.0839 39.8528C25.4139 40.5425 25.3539 41.322 24.9339 41.9517C24.5139 42.5813 23.8539 42.9711 23.0739 42.9711H10.3539C9.57391 42.9711 8.91391 42.6113 8.49391 41.9517C8.07391 41.292 8.01391 40.5425 8.34391 39.8528Z" fill="white" fill-opacity="0.4"/>
<path d="M58.7744 35.1152H56.0444V36.9152H58.7744V35.1152Z" fill="white" fill-opacity="0.4"/>
<path d="M51.8428 39.4028H49.1128V41.2028H51.8428V39.4028Z" fill="white" fill-opacity="0.4"/>
<path d="M61.5049 39.4028H58.7749V41.2028H61.5049V39.4028Z" fill="white" fill-opacity="0.4"/>
</svg>
