<svg width="72" height="72" viewBox="0 0 72 72" fill="none" xmlns="http://www.w3.org/2000/svg">
<path d="M66 30.5103H62.64V28.2003L62.28 27.9303C55.92 23.0403 39.27 22.8003 36 22.8003C32.73 22.8003 16.08 23.0403 9.72 27.9303L9.36 28.2003V30.5103H6V37.8603H9.36V43.1403H15.3L18.84 49.2003H26.7V44.7303C28.17 44.2203 32.25 42.9903 36 42.9903C39.75 42.9903 43.83 44.2503 45.3 44.7303V49.2003H53.19L56.73 43.1403H62.67V37.8603H66V30.5103ZM11.61 28.8603L23.04 41.7003L11.16 35.7303V29.1003C11.28 29.0103 11.46 28.9503 11.61 28.8603ZM13.23 27.9903C14.94 27.2403 17.07 26.6103 19.41 26.1303L29.79 42.0003C28.47 42.3003 27.3 42.6603 26.55 42.9003L13.23 27.9903ZM21.33 25.7703C23.19 25.4403 25.14 25.2003 27.09 25.0203L34.62 41.2503C33.6 41.3103 32.64 41.4303 31.68 41.6103L21.33 25.7703ZM36.9 24.6003C38.85 24.6303 40.89 24.6903 42.99 24.8403L36.9 38.0103V24.6003ZM35.1 38.0103L29.01 24.8403C31.11 24.6903 33.15 24.6303 35.1 24.6003V38.0103ZM44.91 25.0203C46.86 25.2003 48.81 25.4403 50.67 25.7703L40.32 41.6103C39.36 41.4303 38.4 41.3103 37.38 41.2503L44.91 25.0203ZM52.59 26.1303C54.93 26.6103 57.06 27.2103 58.77 27.9903L45.48 42.9003C44.7 42.6603 43.56 42.3003 42.24 42.0003L52.59 26.1303ZM60.39 28.8603C60.54 28.9503 60.72 29.0103 60.84 29.1003V35.7003L49.02 41.6103L60.39 28.8603ZM7.8 36.0603V32.3103H9.36V36.0603H7.8ZM19.83 47.4003L16.29 41.3403H11.16V37.7103L24.9 44.6103V47.3703H19.83V47.4003ZM55.68 41.3703L52.14 47.4303H47.1V44.6403L60.84 37.7703V41.4003H55.68V41.3703ZM64.2 36.0603H62.64V32.3103H64.2V36.0603Z" fill="#0066FF"/>
</svg>
