<svg width="73" height="72" viewBox="0 0 73 72" fill="none" xmlns="http://www.w3.org/2000/svg">
<path d="M63.2944 28.0009L50.0687 6.93029C49.319 5.69967 47.2197 5.69967 46.4699 6.93029L33.2443 28.0009C32.8544 28.6012 32.8245 29.3516 33.1843 29.9819C33.5442 30.6422 34.264 31.0624 35.0437 31.0624H42.3913C42.7512 33.5237 42.8111 36.255 42.7812 38.116C41.4616 36.3751 39.1524 34.6943 35.2536 34.6943C31.3549 34.6943 29.2856 36.225 28.026 37.9059C28.026 33.6737 28.8058 23.5286 35.4936 19.7167H35.5236L36.3333 18.8163V16.0549H34.5339V18.0059C31.295 18.4561 19.5089 20.4971 14.8304 27.3105C9.55216 34.9644 9.64213 41.8979 9.67212 42.168L11.4715 42.3181C11.5015 42.078 12.6111 36.4952 18.999 36.4952C25.3869 36.4952 26.2566 42.048 26.2866 42.2881L28.086 42.228C28.086 41.9879 28.6858 36.9754 34.5639 36.5552V61.1976C34.5639 61.4977 34.4439 64.1991 31.7448 64.1991C30.4252 64.1991 28.9257 63.7789 28.9257 60.5973H27.1263C27.1263 65.2796 30.0354 66 31.7448 66C35.4036 66 36.3633 62.8484 36.3633 61.1976V36.5852C41.9414 37.1855 42.7812 42.048 42.8111 42.2581L44.6106 42.198C44.6106 41.9579 45.2703 36.3751 52.7079 36.3751C55.257 36.3751 57.0864 37.0054 58.226 38.2661C59.2457 39.4066 59.4256 40.8474 59.4256 41.5677C59.4256 41.8679 59.4256 42.048 59.4256 42.078L61.225 42.2581C61.225 42.2581 61.225 41.9879 61.225 41.6578C61.255 40.0369 61.1651 35.2345 59.0058 31.0624H61.5549C62.3347 31.0624 63.0544 30.6422 63.4143 29.9819C63.7742 29.3516 63.7442 28.6012 63.3543 28.0009H63.2944ZM18.9391 34.6943C15.6701 34.6943 13.5108 35.9249 12.1313 37.3656C12.7611 34.8743 13.9907 31.6627 16.2699 28.3311C19.5688 23.5286 27.1863 21.2775 31.7748 20.317C26.7665 25.4196 26.1667 34.0639 26.1667 37.9359C24.8471 36.255 22.6578 34.6642 18.9391 34.6642V34.6943ZM58.9158 36.5252C57.4463 35.2645 55.347 34.6042 52.6479 34.6042C48.3593 34.6042 45.9601 36.225 44.5506 37.9659C44.5506 36.135 44.4906 33.5237 44.1607 31.0624H56.8765C57.9261 32.8033 58.5559 34.7543 58.9158 36.5252ZM61.495 29.2615H35.0137C34.8338 29.2615 34.7438 29.1415 34.7438 28.9614L47.9694 7.89077C48.1194 7.65065 48.3593 7.65065 48.5093 7.89077L61.7649 29.1114C61.7649 29.1114 61.6749 29.2615 61.495 29.2615Z" fill="white" fill-opacity="0.4"/>
<path d="M50.5462 20.3778V18.5769H48.327V16.0557H46.5276V18.5769H44.2783V20.3778H46.5276V24.2498C46.5276 24.2498 46.4376 25.5104 47.2173 26.4109C47.5772 26.8311 48.297 27.3113 49.5266 27.3113C50.6062 27.3113 51.236 26.8611 51.5959 26.5009C52.5256 25.5104 52.4356 23.9796 52.4056 23.3193H51.5059L50.6062 23.5294C50.6062 23.8596 50.6962 24.8501 50.2763 25.2703C50.2164 25.3303 50.0364 25.5104 49.5266 25.5104C49.0767 25.5104 48.7468 25.4204 48.5669 25.2103C48.297 24.9101 48.327 24.4299 48.327 24.3398V20.3778H50.5462Z" fill="white" fill-opacity="0.4"/>
</svg>
