<svg width="72" height="72" viewBox="0 0 72 72" fill="none" xmlns="http://www.w3.org/2000/svg">
<path d="M59.79 31.2001V37.5001H57.72V31.2901H50.19L47.19 21.9601H41.19V19.8901H47.4V13.6801H20.4V19.8901H26.7V21.9601H20.7L18.75 27.1501H14.28V33.3601H12.21V26.7601L6 28.4101V52.7701L12.21 54.3601V47.8201H14.28V54.0001H22.95L25.02 58.1401H57.72V51.9601H59.79V58.3201L66 57.0001V32.5501L59.79 31.2001ZM22.56 15.7501H45.3V17.8201H22.56V15.7501ZM28.77 19.8901H39V21.9601H28.77V19.8901ZM10.14 51.6901L8.07 51.1501V30.0001L10.14 29.4601V51.6901ZM12.21 45.6901V35.4301H14.28V45.7501L12.21 45.6901ZM55.65 56.1001H26.31L24.21 51.9601H16.35V29.2201H20.16L22.23 24.0001H45.6L48.6 33.3301H55.56L55.65 56.1001ZM57.72 49.8901V39.5701H59.79V49.8901H57.72ZM63.93 55.2901L61.86 55.8301V33.6301L63.93 34.1701V55.2901ZM38.73 36.0001L41.73 29.1001H33.36L28.68 41.6401H32.79L31.8 52.6201L43.59 36.1501L38.73 36.0001ZM35.34 39.4501H31.8L34.8 31.1701H38.55L35.7 38.0701H39.66L34.38 45.4201L35.34 39.4501Z" fill="white" fill-opacity="0.4"/>
</svg>
