<svg width="24" height="24" viewBox="0 0 24 24" fill="none" xmlns="http://www.w3.org/2000/svg">
<path d="M22 4.99988H2V18.3334H22V4.99988Z" fill="#D80027"/>
<path d="M15.7681 9.94789H13.3534C13.5025 9.79179 13.5942 9.5805 13.5942 9.34757C13.5942 8.8673 13.2049 8.478 12.7246 8.478C12.4221 8.478 12.1558 8.63257 12 8.86699C11.8442 8.63261 11.5779 8.478 11.2754 8.478C10.7951 8.478 10.4058 8.8673 10.4058 9.34757C10.4058 9.5805 10.4975 9.79179 10.6466 9.94789H8.23187C8.23187 10.5882 8.78961 11.1073 9.42992 11.1073H9.39133C9.39133 11.7476 9.91043 12.2667 10.5508 12.2667C10.5508 12.4741 10.6054 12.6686 10.7009 12.8368L9.73918 13.7986L10.477 14.5364L11.5236 13.4898C11.5646 13.5048 11.6071 13.5168 11.6509 13.525L11.0184 14.953L12 16.0143L12.9816 14.953L12.3492 13.525C12.393 13.5168 12.4354 13.5048 12.4764 13.4898L13.523 14.5364L14.2609 13.7986L13.2991 12.8368C13.3945 12.6685 13.4492 12.4741 13.4492 12.2667C14.0895 12.2667 14.6086 11.7476 14.6086 11.1073H14.57C15.2104 11.1073 15.7681 10.5882 15.7681 9.94789Z" fill="black"/>
</svg>
