<svg width="24" height="24" viewBox="0 0 24 24" fill="none" xmlns="http://www.w3.org/2000/svg">
<path d="M22 5H2V18.333H22V5Z" fill="#496E2D"/>
<path d="M22 5H12V18.3335H22V5Z" fill="#F0F0F0"/>
<path d="M13.4328 10.3875L12.8858 11.1412L12 10.8539L12.5478 11.6071L12.0009 12.3608L12.8864 12.0725L13.4343 12.8256L13.4337 11.8943L14.3193 11.606L13.4334 11.3187L13.4328 10.3875Z" fill="#D80027"/>
<path d="M12.5532 13.5504C11.5127 13.5504 10.6692 12.7069 10.6692 11.6664C10.6692 10.6258 11.5127 9.7823 12.5532 9.7823C12.8777 9.7823 13.1829 9.86433 13.4495 10.0087C13.0313 9.59988 12.4595 9.34753 11.8286 9.34753C10.5479 9.34753 9.50977 10.3857 9.50977 11.6664C9.50977 12.947 10.5479 13.9852 11.8286 13.9852C12.4595 13.9852 13.0313 13.7328 13.4495 13.324C13.1829 13.4684 12.8777 13.5504 12.5532 13.5504Z" fill="#D80027"/>
</svg>
