<svg width="24" height="24" viewBox="0 0 24 24" fill="none" xmlns="http://www.w3.org/2000/svg">
<path d="M22 5.00032H2.02172V18.3189H22V5.00032Z" fill="#6DA544"/>
<path d="M2 13.9759H21.9783V5.0002H2" fill="#A2001D"/>
<path d="M5.90879 5.0002H2V18.319H21.9783H5.90879V5.0002Z" fill="#F0F0F0"/>
<path d="M4.67828 11.177L3.95441 9.86379L4.67828 8.57118L5.40207 9.86379L4.67828 11.177Z" fill="#A2001D"/>
<path d="M3.23055 11.177L2.50672 9.86379L3.23055 8.57118L3.95441 9.86379L3.23055 11.177Z" fill="#A2001D"/>
<path d="M4.67828 14.748L3.95441 13.4348L4.67828 12.1422L5.40207 13.4348L4.67828 14.748Z" fill="#A2001D"/>
<path d="M3.23055 14.748L2.50672 13.4348L3.23055 12.1422L3.95441 13.4348L3.23055 14.748Z" fill="#A2001D"/>
<path d="M4.67828 18.319L3.95441 17.0058L4.67828 15.7131L5.40207 17.0058L4.67828 18.319Z" fill="#A2001D"/>
<path d="M3.23055 18.319L2.50672 17.0058L3.23055 15.7131L3.95441 17.0058L3.23055 18.319Z" fill="#A2001D"/>
<path d="M4.67828 7.60606L3.95441 6.29282L4.67828 5.00012L5.40207 6.29282L4.67828 7.60606Z" fill="#A2001D"/>
<path d="M3.23055 7.60606L2.50672 6.29282L3.23055 5.00012L3.95441 6.29282L3.23055 7.60606Z" fill="#A2001D"/>
</svg>
