<svg width="24" height="24" viewBox="0 0 24 24" fill="none" xmlns="http://www.w3.org/2000/svg">
<path d="M22 5.00023H2V18.3337H22V5.00023Z" fill="#0052B4"/>
<path d="M5.90254 5.00003H19.2359V18.3334" fill="#FFDA44"/>
<path d="M3.42816 5.59831L4.00797 5.17616L4.58871 5.5978L4.39422 5.00007H3.62207L3.42816 5.59831Z" fill="#F0F0F0"/>
<path d="M5.45047 5.71499L5.22848 5.03249L5.00691 5.71499L4.28953 5.71546L4.87027 6.13718L4.64914 6.81925L5.22895 6.39714L5.80965 6.81882L5.58762 6.13624L6.16785 5.71456L5.45047 5.71499Z" fill="#F0F0F0"/>
<path d="M6.67148 6.93601L6.44945 6.25343L6.22785 6.93601L5.51047 6.93644L6.09121 7.35812L5.87008 8.04023L6.44992 7.61808L7.03062 8.0398L6.80855 7.35722L7.38887 6.93558L6.67148 6.93601Z" fill="#F0F0F0"/>
<path d="M7.89242 8.15694L7.67043 7.47441L7.44883 8.15694L6.73148 8.15737L7.31219 8.57909L7.09105 9.26116L7.67086 8.83905L8.25156 9.26073L8.02957 8.57816L8.60984 8.15651L7.89242 8.15694Z" fill="#F0F0F0"/>
<path d="M9.1134 9.37792L8.89141 8.69534L8.66984 9.37792L7.95242 9.37835L8.53313 9.80003L8.31203 10.4821L8.89184 10.06L9.47254 10.4817L9.25051 9.79917L9.83078 9.37749L9.1134 9.37792Z" fill="#F0F0F0"/>
<path d="M10.3343 10.5989L10.1123 9.91636L9.89078 10.5989L9.1734 10.5993L9.7541 11.021L9.53301 11.7031L10.1128 11.281L10.6935 11.7026L10.4715 11.0201L11.0518 10.5984L10.3343 10.5989Z" fill="#F0F0F0"/>
<path d="M11.5553 11.8198L11.3333 11.1373L11.1118 11.8198L10.3943 11.8203L10.9751 12.242L10.7539 12.9241L11.3338 12.5019L11.9145 12.9236L11.6924 12.2411L12.2727 11.8194L11.5553 11.8198Z" fill="#F0F0F0"/>
<path d="M12.7762 13.0408L12.5543 12.3583L12.3327 13.0408L11.6153 13.0412L12.1961 13.463L11.9749 14.145L12.5547 13.7229L13.1354 14.1446L12.9134 13.462L13.4936 13.0404L12.7762 13.0408Z" fill="#F0F0F0"/>
<path d="M13.9973 14.2618L13.7753 13.5792L13.5536 14.2618L12.8363 14.2622L13.417 14.6839L13.1959 15.366L13.7757 14.9439L14.3564 15.3656L14.1344 14.683L14.7146 14.2614L13.9973 14.2618Z" fill="#F0F0F0"/>
<path d="M15.2182 15.4827L14.9962 14.8002L14.7746 15.4827L14.0573 15.4832L14.638 15.9049L14.4168 16.587L14.9966 16.1648L15.5773 16.5865L15.3554 15.904L15.9356 15.4823L15.2182 15.4827Z" fill="#F0F0F0"/>
<path d="M16.4392 16.7037L16.2172 16.0212L15.9956 16.7037L15.2782 16.7042L15.8589 17.1258L15.6378 17.808L16.2176 17.3858L16.7983 17.8075L16.5763 17.125L17.1566 16.7033L16.4392 16.7037Z" fill="#F0F0F0"/>
<path d="M17.4381 17.2421L17.2166 17.9246L16.4992 17.9251L17.0614 18.3334H17.8145L18.3775 17.9242L17.6601 17.9246L17.4381 17.2421Z" fill="#F0F0F0"/>
</svg>
