<svg width="50" height="61" viewBox="0 0 50 61" fill="none" xmlns="http://www.w3.org/2000/svg">
<rect x="5.50781" y="15.2535" width="19.0247" height="49.2481" rx="9.51233" transform="rotate(-29.8364 5.50781 15.2535)" fill="black"/>
<path d="M19.0791 41.3195L16.8615 40.5958L16.5562 40.0681L17.7484 39.3714C17.7484 39.3714 5.58134 17.9873 5.57612 16.7989C5.5709 15.6106 4.71082 12.6732 5.9927 11.0358C7.27458 9.39845 11.5391 6.62669 11.5391 6.62669C11.5391 6.62669 16.0619 4.30121 18.1212 4.00114C20.179 3.70072 22.3025 5.90499 23.3316 6.4999C24.3606 7.0948 36.8887 28.269 36.8887 28.269L37.993 27.6185L38.389 28.3028L37.9177 30.3927C37.9177 30.3927 39.2521 33.036 39.7496 33.9979C40.2476 34.9607 43.88 39.7645 45.5109 43.4065C47.1418 47.0486 42.1577 50.8333 42.4492 51.4391C42.7406 52.0449 39.0965 54.119 39.0965 54.119C39.0965 54.119 35.4878 56.2521 35.106 55.6986C34.7242 55.1451 28.9651 57.5925 26.6117 54.3696C24.2592 51.1461 21.8896 45.6083 21.3018 44.6987C20.7134 43.7881 19.0782 41.32 19.0782 41.32L19.0791 41.3195ZM12.6769 23.425C11.9995 23.401 11.2779 24.2366 11.2779 24.2366L19.5812 38.5471C19.5812 38.5471 19.3502 34.093 18.5097 32.853C17.6691 31.6129 13.3547 23.4498 12.6774 23.4259L12.6769 23.425ZM9.12942 9.61375C9.12942 9.61375 6.85943 11.2481 6.36893 11.8904C5.87843 12.5327 6.29255 15.192 6.29255 15.192C6.29255 15.192 6.60242 15.1716 6.74444 14.9306C6.88647 14.6896 6.62554 12.855 6.82299 12.2234C7.02007 11.5931 9.10931 10.3413 9.35412 10C9.59943 9.65955 9.13031 9.61323 9.13031 9.61323L9.12942 9.61375ZM10.5373 20.9824L14.1781 21.572L23.6277 16.0904L24.6397 13.1201C24.6397 13.1201 20.6753 9.24884 14.9675 12.5331C9.41981 15.7259 10.5377 20.981 10.5377 20.981L10.5373 20.9824ZM18.7211 4.72514C17.9198 4.83243 15.3744 5.99072 15.3744 5.99072C15.3744 5.99072 15.1807 6.42043 15.5982 6.37749C16.0156 6.33455 18.1393 5.14228 18.7853 5.28368C19.4303 5.4256 20.8949 6.56274 21.1742 6.55888C21.4539 6.5559 21.6261 6.29747 21.6261 6.29747C21.6261 6.29747 19.5224 4.61786 18.7211 4.72514ZM26.9596 15.1406C26.9596 15.1406 25.8756 15.3519 25.5607 15.9522C25.2452 16.5517 30.1909 24.3484 30.8512 25.6939C31.5115 27.0394 35.2639 29.4507 35.2639 29.4507L26.9605 15.1401L26.9596 15.1406ZM41.7509 49.4803C44.5488 47.0231 44.0254 44.9433 44.0254 44.9433C43.9867 44.4984 43.8566 44.4452 43.388 44.3998C42.9194 44.3544 42.5975 45.2554 41.6693 46.7068C40.7425 48.1586 41.75 49.4808 41.75 49.4808L41.7509 49.4803ZM30.6653 38.9294C34.9428 36.5274 36.2732 33.1345 36.2732 33.1345C31.4439 27.2373 31.2253 28.0388 31.2253 28.0388C28.3981 31.0688 20.2971 34.2986 20.0303 34.5324C19.7634 34.7662 22.2802 41.2513 22.2802 41.2513C22.2802 41.2513 26.3887 41.3309 30.6662 38.9289L30.6653 38.9294ZM28.4092 54.0013C28.4092 54.0013 29.955 55.4874 33.4778 54.2788C33.4778 54.2788 32.831 52.7481 31.109 52.832C29.3885 52.9162 28.4456 52.7481 28.2533 53.1781C28.0596 53.6079 28.0423 53.7475 28.4092 54.0013Z" fill="#198DE0"/>
</svg>
