<svg width="25" height="24" viewBox="0 0 25 24" fill="none" xmlns="http://www.w3.org/2000/svg">
<g clip-path="url(#clip0_125_62331)">
<path d="M0.5 4.12866H24.5V19.8712H0.5V4.12866Z" fill="#D80027"/>
<path d="M7.03477 7.41674L5.07877 7.41899L5.07352 7.42199L5.07652 7.41674L4.47877 5.47949L3.94777 7.41899L2.00977 7.41674L3.61927 8.55449H3.62902L3.61027 8.56799L2.95552 10.4962L4.51927 9.28574L4.52227 9.27674L4.52527 9.28574L6.08752 10.4962L5.43277 8.56799L5.41552 8.55449H5.42152L7.03477 7.41674Z" fill="#FFDA44"/>
<path d="M10.3639 10.5286H9.96339L9.84114 10.1333L9.73239 10.5286H9.33789L9.66639 10.7618H9.66864L9.66489 10.7648L9.53064 11.1586L9.84939 10.9118L9.85014 10.9096L9.85089 10.9118L10.1704 11.1586L10.0354 10.7648L10.0316 10.7618H10.0339L10.3639 10.5286Z" fill="#FFDA44"/>
<path d="M8.15228 12.5805L8.14103 12.165L7.92953 12.513L7.55078 12.3968L7.80428 12.7163L7.80503 12.717L7.80128 12.7178L7.56728 13.0568L7.93928 12.9143L7.94078 12.912V12.9143L8.17928 13.2443L8.15753 12.8273L8.15678 12.8258L8.53553 12.6975L8.15228 12.5805Z" fill="#FFDA44"/>
<path d="M9.70898 8.48713L10.105 8.46763L10.1072 8.46613L10.1065 8.46913L10.24 8.85988L10.3375 8.45413L10.336 8.45038L10.3375 8.45113L10.735 8.45038L10.402 8.21863H10.4005L10.402 8.21713L10.5107 7.81738L10.21 8.08288L9.88223 7.85263L10.0315 8.23738H10.0292L9.70898 8.48713Z" fill="#FFDA44"/>
<path d="M9.30433 6.09455L9.30733 6.0953L9.68608 5.97305L9.30433 5.8523L9.30283 5.85305L9.30433 5.8508L9.29758 5.4353L9.08308 5.7818L8.70508 5.6603L8.95483 5.98205L8.95783 5.9828L8.95183 5.98505L8.71558 6.31955L9.08833 6.1808L9.08983 6.17855V6.1808L9.32533 6.51605L9.30733 6.0983L9.30433 6.09455Z" fill="#FFDA44"/>
</g>
<defs>
<clipPath id="clip0_125_62331">
<rect width="24" height="24" fill="white" transform="translate(0.5)"/>
</clipPath>
</defs>
</svg>
