<svg width="48" height="48" viewBox="0 0 48 48" fill="none" xmlns="http://www.w3.org/2000/svg">
<g clip-path="url(#clip0_5178_15625)">
<g filter="url(#filter0_f_5178_15625)">
<path d="M37.2973 41.618C24.5107 41.618 12.0884 42.064 11.1426 41.9921L21.6045 34.2856L47.9997 38.6626L37.2973 41.618Z" fill="url(#paint0_linear_5178_15625)" fill-opacity="0.9"/>
</g>
<path d="M7.71387 7.69744C7.71387 5.33976 9.65064 3.42847 12.0398 3.42847H24.8567L40.2853 15.4285V40.3023C40.2853 42.66 38.3485 44.5713 35.9594 44.5713H12.0398C9.65064 44.5713 7.71387 42.66 7.71387 40.3024V7.69744Z" fill="#388E3C"/>
<path d="M40.2853 15.4285L24.8567 3.42847V10.8402C24.8567 13.7676 27.9285 15.4283 30.5097 15.4284C33.7683 15.4285 37.0268 15.4285 40.2853 15.4285Z" fill="#79C37C"/>
<g filter="url(#filter1_d_5178_15625)">
<path d="M40.286 15.4285L24.8574 3.42847V10.8402C24.8574 13.7676 27.9292 15.4283 30.5104 15.4284C33.7689 15.4285 37.0275 15.4285 40.286 15.4285Z" fill="#79C37C"/>
</g>
<path d="M18.1701 25.2268V22.2856H20.4412V30.689H18.1701V30.1488C17.7773 30.621 17.229 30.8571 16.5251 30.8571C15.6985 30.8571 15.0233 30.557 14.4995 29.9567C13.9758 29.3645 13.7139 28.6082 13.7139 27.6878C13.7139 26.7674 13.9758 26.0111 14.4995 25.4189C15.0233 24.8187 15.6985 24.5185 16.5251 24.5185C17.229 24.5185 17.7773 24.7546 18.1701 25.2268ZM16.2796 28.4921C16.4924 28.7082 16.7584 28.8163 17.0776 28.8163C17.4049 28.8163 17.6668 28.7082 17.8632 28.4921C18.0678 28.276 18.1701 28.0079 18.1701 27.6878C18.1701 27.3677 18.0678 27.0996 17.8632 26.8835C17.6668 26.6674 17.4049 26.5594 17.0776 26.5594C16.7584 26.5594 16.4924 26.6674 16.2796 26.8835C16.0832 27.0996 15.985 27.3677 15.985 27.6878C15.985 28.0079 16.0832 28.276 16.2796 28.4921Z" fill="white"/>
<path d="M24.4371 30.8571C23.5204 30.8571 22.7389 30.553 22.0923 29.9447C21.4539 29.3365 21.1348 28.5842 21.1348 27.6878C21.1348 26.7914 21.4539 26.0391 22.0923 25.4309C22.7225 24.8227 23.5041 24.5185 24.4371 24.5185C25.3701 24.5185 26.1516 24.8227 26.7818 25.4309C27.4202 26.0471 27.7394 26.7994 27.7394 27.6878C27.7394 28.5842 27.4202 29.3365 26.7818 29.9447C26.1516 30.553 25.3701 30.8571 24.4371 30.8571ZM23.6882 28.4561C23.8846 28.6482 24.1343 28.7442 24.4371 28.7442C24.7399 28.7442 24.9854 28.6482 25.1736 28.4561C25.3701 28.248 25.4683 27.9919 25.4683 27.6878C25.4683 27.3757 25.3701 27.1236 25.1736 26.9315C24.9936 26.7314 24.7481 26.6314 24.4371 26.6314C24.1343 26.6314 23.8846 26.7314 23.6882 26.9315C23.5 27.1316 23.4059 27.3837 23.4059 27.6878C23.4059 27.9919 23.5 28.248 23.6882 28.4561Z" fill="white"/>
<path d="M31.4618 30.8571C30.5206 30.8571 29.739 30.557 29.117 29.9567C28.495 29.3485 28.184 28.5922 28.184 27.6878C28.184 26.7834 28.495 26.0311 29.117 25.4309C29.739 24.8227 30.5206 24.5185 31.4618 24.5185C32.0674 24.5185 32.6198 24.6626 33.1191 24.9507C33.6265 25.2308 34.0152 25.611 34.2853 26.0912L32.3702 27.1596C32.1656 26.8235 31.8628 26.6554 31.4618 26.6554C31.1753 26.6554 30.9339 26.7554 30.7375 26.9555C30.5492 27.1476 30.4551 27.3917 30.4551 27.6878C30.4551 27.9839 30.5492 28.232 30.7375 28.4321C30.9339 28.6242 31.1753 28.7202 31.4618 28.7202C31.8873 28.7202 32.1901 28.5481 32.3702 28.204L34.2853 29.2844C34.0152 29.7726 33.6265 30.1568 33.1191 30.4369C32.6198 30.717 32.0674 30.8571 31.4618 30.8571Z" fill="white"/>
<rect width="48" height="48" fill="black" fill-opacity="0.2"/>
</g>
<defs>
<filter id="filter0_f_5178_15625" x="-35.8574" y="-12.7144" width="130.857" height="101.714" filterUnits="userSpaceOnUse" color-interpolation-filters="sRGB">
<feFlood flood-opacity="0" result="BackgroundImageFix"/>
<feBlend mode="normal" in="SourceGraphic" in2="BackgroundImageFix" result="shape"/>
<feGaussianBlur stdDeviation="23.5" result="effect1_foregroundBlur_5178_15625"/>
</filter>
<filter id="filter1_d_5178_15625" x="-1.14258" y="-16.5715" width="63.4287" height="60" filterUnits="userSpaceOnUse" color-interpolation-filters="sRGB">
<feFlood flood-opacity="0" result="BackgroundImageFix"/>
<feColorMatrix in="SourceAlpha" type="matrix" values="0 0 0 0 0 0 0 0 0 0 0 0 0 0 0 0 0 0 127 0" result="hardAlpha"/>
<feOffset dx="-2" dy="4"/>
<feGaussianBlur stdDeviation="12"/>
<feComposite in2="hardAlpha" operator="out"/>
<feColorMatrix type="matrix" values="0 0 0 0 0 0 0 0 0 0 0 0 0 0 0 0 0 0 0.15 0"/>
<feBlend mode="normal" in2="BackgroundImageFix" result="effect1_dropShadow_5178_15625"/>
<feBlend mode="normal" in="SourceGraphic" in2="effect1_dropShadow_5178_15625" result="shape"/>
</filter>
<linearGradient id="paint0_linear_5178_15625" x1="1.13964" y1="39.3089" x2="67.2891" y2="23.365" gradientUnits="userSpaceOnUse">
<stop offset="0.179663" stop-color="#B1B1B1" stop-opacity="0"/>
<stop offset="0.460097" stop-color="#858585"/>
<stop offset="0.697692" stop-color="#C4C4C4" stop-opacity="0"/>
</linearGradient>
<clipPath id="clip0_5178_15625">
<rect width="48" height="48" fill="white"/>
</clipPath>
</defs>
</svg>
