<svg width="25" height="24" viewBox="0 0 25 24" fill="none" xmlns="http://www.w3.org/2000/svg">
<g clip-path="url(#clip0_125_62321)">
<path d="M24.5 4.00024H0.5V19.9999H24.5V4.00024Z" fill="#F0F0F0"/>
<path d="M24.5 4.00024H0.5V9.33345H24.5V4.00024Z" fill="#FF9811"/>
<path d="M24.5 14.6665H0.5V19.9997H24.5V14.6665Z" fill="#6DA544"/>
<path d="M12.499 14.0576C13.6354 14.0576 14.5567 13.1364 14.5567 12C14.5567 10.8636 13.6354 9.94238 12.499 9.94238C11.3626 9.94238 10.4414 10.8636 10.4414 12C10.4414 13.1364 11.3626 14.0576 12.499 14.0576Z" fill="#0052B4"/>
<path d="M12.5008 13.286C13.211 13.286 13.7868 12.7103 13.7868 12.0001C13.7868 11.2899 13.211 10.7141 12.5008 10.7141C11.7906 10.7141 11.2148 11.2899 11.2148 12.0001C11.2148 12.7103 11.7906 13.286 12.5008 13.286Z" fill="#F0F0F0"/>
<path d="M12.4993 10.4131L12.8961 11.3129L13.8737 11.2065L13.2928 12L13.8737 12.7934L12.8961 12.6871L12.4993 13.5869L12.1026 12.6871L11.125 12.7934L11.7059 12L11.125 11.2065L12.1026 11.3129L12.4993 10.4131Z" fill="#0052B4"/>
</g>
<defs>
<clipPath id="clip0_125_62321">
<rect width="24" height="24" fill="white" transform="translate(0.5)"/>
</clipPath>
</defs>
</svg>
