<svg width="24" height="24" viewBox="0 0 24 24" fill="none" xmlns="http://www.w3.org/2000/svg">
<path d="M22 5H2V18.3335H22V5Z" fill="#338AF3"/>
<path d="M15.75 12.0481H8.25C8.25 12.5659 8.70094 12.9856 9.21871 12.9856H9.1875C9.1875 13.5034 9.60719 13.9231 10.125 13.9231C10.125 14.4409 10.5447 14.8607 11.0626 14.8607H12.9376C13.4554 14.8607 13.8751 14.441 13.8751 13.9231C14.3929 13.9231 14.8127 13.5034 14.8127 12.9856H14.7814C15.299 12.9856 15.75 12.5659 15.75 12.0481Z" fill="#FFDA44"/>
<path d="M14.5963 10.8224C14.5963 12.2561 13.4339 13.4185 12.0001 13.4185C10.5663 13.4185 9.40393 12.2562 9.40393 10.8224" fill="#338AF3"/>
<path d="M14.5738 10.5792L13.5222 11.0049L14.0822 11.8815L12.9403 11.6935L12.7956 12.6863L12.0003 11.9561L11.2049 12.6863L11.0602 11.6935L9.91836 11.8815L10.4783 11.0049L9.42676 10.5792L10.4783 10.1534L9.91836 9.27692L11.0602 9.46493L11.2049 8.47208L12.0003 9.20231L12.7957 8.47208L12.9403 9.46493L14.0822 9.27692L13.5223 10.1535L14.5738 10.5792Z" fill="#FFDA44"/>
</svg>
