<svg width="24" height="24" viewBox="0 0 24 24" fill="none" xmlns="http://www.w3.org/2000/svg">
<path d="M22 4.99988H2V18.3334H22V4.99988Z" fill="#FCFCFC"/>
<path d="M15.75 10.8026C15.5481 10.8026 15.2981 10.8026 14.8846 10.8026C14.8846 12.3957 13.5931 13.6872 12 13.6872C10.4068 13.6872 9.11539 12.3957 9.11539 10.8026C8.83656 10.8026 8.52883 10.8026 8.25 10.8026C8.25 12.5186 9.4027 13.9654 10.9761 14.411C10.8036 14.7387 10.8298 15.1513 11.0762 15.4588C11.3998 15.1994 11.735 14.9309 12.0192 14.7031C12.3035 14.9309 12.6386 15.1994 12.9622 15.4588C13.2111 15.1482 13.2356 14.7304 13.0573 14.4012C14.6135 13.9447 15.75 12.5065 15.75 10.8026Z" fill="#6DA544"/>
<path d="M9.69231 10.5142C9.69231 10.5142 9.6923 11.9565 11.1346 11.9565L11.4231 12.245H12C12 12.245 12.2885 11.3796 12.8654 11.3796C12.8654 11.3796 12.8654 10.8027 13.4423 10.8027C14.0192 10.8027 14.3077 10.8027 14.3077 10.8027C14.3077 10.8027 14.0192 9.64882 15.4615 8.78343L14.8846 8.49496C14.8846 8.49496 12.8654 9.93726 11.4231 9.64878V10.2257H10.8462L10.5577 9.93722L9.69231 10.5142Z" fill="#FFDA44"/>
</svg>
