<svg width="24" height="24" viewBox="0 0 24 24" fill="none" xmlns="http://www.w3.org/2000/svg">
<path d="M22 4.99989H2V18.3334H22V4.99989Z" fill="#0052B4"/>
<path d="M8.26168 9.05774L8.40562 9.5006H8.87121L8.49453 9.77431L8.63844 10.2171L8.26168 9.94345L7.88496 10.2171L8.02887 9.77431L7.65219 9.5006H8.11777L8.26168 9.05774Z" fill="#F0F0F0"/>
<path d="M9.71094 8.62294L9.85488 9.06583H10.3205L9.94379 9.3395L10.0877 9.78235L9.71094 9.50864L9.33422 9.78235L9.47812 9.3395L9.10145 9.06583H9.56703L9.71094 8.62294Z" fill="#F0F0F0"/>
<path d="M11.1603 8.18817L11.3041 8.63103H11.7697L11.393 8.90474L11.537 9.34755L11.1603 9.07388L10.7835 9.34755L10.9274 8.90474L10.5507 8.63103H11.0163L11.1603 8.18817Z" fill="#F0F0F0"/>
<path d="M15.7383 9.05774L15.5944 9.5006H15.1288L15.5055 9.77431L15.3616 10.2171L15.7383 9.94345L16.115 10.2171L15.9711 9.77431L16.3478 9.5006H15.8822L15.7383 9.05774Z" fill="#F0F0F0"/>
<path d="M14.2891 8.62294L14.1451 9.06583H13.6795L14.0562 9.3395L13.9123 9.78235L14.2891 9.50864L14.6658 9.78235L14.5219 9.3395L14.8986 9.06583H14.433L14.2891 8.62294Z" fill="#F0F0F0"/>
<path d="M12.8397 8.18817L12.6959 8.63103H12.2303L12.607 8.90474L12.463 9.34755L12.8397 9.07388L13.2165 9.34755L13.0726 8.90474L13.4493 8.63103H12.9836L12.8397 8.18817Z" fill="#F0F0F0"/>
<path d="M13.1595 11.9563L12 10.507L11.4203 10.7968V11.3765L10.5507 11.9562H9.97105V12.7051C10.8207 13.0492 11.4203 13.8817 11.4203 14.8547H12V14.275L12.5797 13.6954L13.1594 14.275L13.7391 13.6954V13.1157L14.3188 12.2461L13.1595 11.9563Z" fill="#FFDA44"/>
</svg>
