<svg width="24" height="24" viewBox="0 0 24 24" fill="none" xmlns="http://www.w3.org/2000/svg">
<path d="M2.005 5H21.9944V18.125H2.005V5Z" fill="#E83434"/>
<path d="M2.005 11.345H21.9944V18.125H2.005V11.345Z" fill="#43AF50"/>
<path d="M2 9.0625H22V14.0625H2V9.0625Z" fill="#28292B"/>
<path d="M14.3369 11.2294L13.6819 11.4137L13.2981 10.8087L13.2675 11.5306L12.6294 11.7106L13.25 11.9562L13.2194 12.6663L13.6488 12.1144L14.285 12.3662L13.9113 11.7769L14.3369 11.2294Z" fill="white"/>
<path d="M11.8369 13.1162C11.4438 13.0985 11.0727 12.9298 10.8008 12.6453C10.5289 12.3609 10.3772 11.9825 10.3772 11.5891C10.3772 11.1956 10.5289 10.8172 10.8008 10.5328C11.0727 10.2483 11.4438 10.0797 11.8369 10.0619C12.0816 10.0461 12.3256 10.1029 12.5382 10.2252C12.7507 10.3475 12.9225 10.5299 13.0319 10.7494C12.9166 10.4276 12.7016 10.1511 12.4182 9.96011C12.1347 9.7691 11.7977 9.67359 11.4562 9.6875C10.959 9.6875 10.4821 9.88504 10.1304 10.2367C9.77879 10.5883 9.58125 11.0652 9.58125 11.5625C9.58125 12.0598 9.77879 12.5367 10.1304 12.8883C10.4821 13.24 10.959 13.4375 11.4562 13.4375C11.7426 13.4615 12.0295 13.3994 12.2803 13.2592C12.5311 13.119 12.7342 12.9071 12.8637 12.6506C12.7522 12.8154 12.5972 12.9461 12.416 13.0283C12.2348 13.1105 12.0343 13.1409 11.8369 13.1162Z" fill="white"/>
</svg>
