<svg width="242" height="84" viewBox="0 0 242 84" fill="none" xmlns="http://www.w3.org/2000/svg">
<path fill-rule="evenodd" clip-rule="evenodd" d="M37.0759 2.6311L49.9172 10.0414L66.6448 19.7932H59.4034L37.3655 7.07248L15.3034 19.769C15.3034 29.0139 15.3034 38.2587 15.3034 47.5035L24.331 52.7173L8.7862 61.6483L37.3414 78.1104L54.9621 67.9725H62.1552L37.5586 82.5277L1.93103 61.4552L17.2828 52.6932L11.4172 49.0725V33.5277V17.4277L24.2586 10.0173L37.0759 2.6311Z" fill="white"/>
<path fill-rule="evenodd" clip-rule="evenodd" d="M55.831 62.7103H239.448V58.7758H61.0931H56.1448V40.7448L55.2276 40.2137L38.2103 30.3896L37.462 29.9793V39.2241L48.131 45.3793L48.1551 57.8827L37.2931 64.1344L25.5379 57.3517L24.6207 56.8206L23.7034 57.3517L16.6069 61.4551L36.3517 72.8482L37.2689 73.3793L38.1862 72.8482L55.831 62.7103ZM211.641 33.1896V37.1965H212.8C214.079 37.1965 214.369 37.7275 215.383 38.9344L219.607 43.8586L216.565 47.1413C214.972 48.8793 214.297 49.1931 213.041 49.1931H211.665V53.1758H223.517V49.1931C223.059 49.1206 222.528 49 222.528 48.6379C222.528 48.3965 222.745 48.131 222.89 47.9862L224.29 46.4413H224.603L225.786 47.7689C225.979 48.0103 226.317 48.4689 226.341 48.6379C226.341 48.9034 226.1 49.1206 225.376 49.1689V53.1758L239.448 53.1517V49.1448H238.072C237.131 49.1448 236.528 48.6862 235.224 47.2137L230.759 42.0724L233.317 39.2724C234.862 37.6068 235.417 37.1724 236.672 37.1965H237.903V33.1896H227.041V37.1724L227.548 37.1965C227.645 37.1965 227.862 37.1965 227.862 37.4862C227.862 37.5586 227.79 37.7034 227.403 38.1379L226.1 39.5379H225.859L224.603 38.0896C224.459 37.9448 224.241 37.7758 224.265 37.6069C224.265 37.462 224.265 37.1724 224.748 37.1724H224.941V33.1896H211.641ZM197.231 37.3655C198.728 37.3655 200.297 37.6069 200.297 42.2896V44.1241C200.297 46.5862 200.007 49 197.231 49.0241C194.479 49.0241 194.19 46.5862 194.19 44.1241V42.2896C194.19 37.6069 195.759 37.3655 197.231 37.3655ZM197.231 32.6827C194.503 32.6827 190.159 33.2379 187.141 36.3517C184.824 38.6931 184.341 41.4206 184.341 43.2069C184.341 44.2689 184.486 47.6482 186.972 50.2069C190.255 53.6103 195.879 53.7069 197.231 53.731C198.583 53.731 204.207 53.6103 207.49 50.2069C209.976 47.6724 210.121 44.2931 210.121 43.231C210.121 41.4689 209.638 38.7172 207.321 36.3758C204.303 33.262 199.959 32.6827 197.231 32.6827ZM160.855 53.2H182.265L182.459 45.8137H178.476C177.945 48.1793 177.921 48.4931 175.459 48.4931H171.572V38.2586C171.572 37.3172 171.741 37.1724 172.755 37.1724H174.179V33.1655H160.855V37.1482H161.965C163.438 37.1482 163.341 37.7034 163.317 38.2827V48.0103C163.317 48.5655 163.414 49.1448 161.941 49.1448H160.831L160.855 53.2ZM136.548 53.2241L157.959 53.2L158.152 45.8379H154.169C153.662 48.2275 153.614 48.5413 151.176 48.5413H147.265V38.3069C147.265 37.3655 147.434 37.2206 148.472 37.2206H149.872V33.2379H136.548L136.572 37.2448H137.683C139.179 37.2448 139.059 37.8241 139.059 38.4034V48.131C139.059 48.6862 139.155 49.2655 137.683 49.2655H136.572L136.548 53.2241ZM112.917 53.2H134.014L134.207 46.3448H130.2L129.838 47.431C129.5 48.5413 127.907 48.5172 127.207 48.5172H123.634V45.4034H128.993V40.7206H123.659V37.8724H127.4C128.414 37.8724 129.331 37.8724 129.524 38.7172L129.814 39.9482H133.845V33.1896H112.917V37.1965H114.1C115.065 37.1965 115.428 37.2931 115.428 38.331V48.0586C115.403 49.2172 114.897 49.1931 114.028 49.1931H112.917V53.2ZM92.5931 53.2H106.593V49.1931H105.097C104.059 49.1931 103.697 49.0724 103.672 48.0586V37.8724L105.072 37.8965C106.786 37.8724 106.979 38.1137 107.197 38.8862L107.607 40.5758H111.614L111.421 33.1896H87.6931L87.4758 40.5758L91.4827 40.5517L91.9172 38.8862C92.1345 38.1137 92.3276 37.8724 94.0413 37.8724H95.4413V48.0586C95.4413 48.7103 95.5138 49.2172 94.0655 49.2172H92.5448L92.5931 53.2ZM62.4689 47.5275C62.6138 53.2 69.2034 53.7068 74.0793 53.6827C84.7724 53.6586 86.2689 49.2413 86.2689 46.7793C86.2689 42.2172 80.5482 41.131 75.6724 40.0448C74.1276 39.7069 72.5586 39.4896 72.5586 38.2586C72.5586 37.2689 74.0069 37.1965 74.8517 37.1965C76.0345 37.1965 77.7241 37.3172 77.4345 38.862H86.1482C85.9069 33.4793 80.9103 32.6586 75.5517 32.6586C66.2103 32.6586 63.0965 35.2655 63.0965 38.862C63.0965 43.231 68.0207 44.5103 72.5586 45.9344C73.6931 46.2724 76.7586 46.9482 76.7586 48.2275C76.7586 49.1931 75.1896 49.1689 74.1034 49.1931C72.462 49.1931 71.4241 48.9517 71.2793 47.5517L62.4689 47.5275ZM49.5793 27.8551H239.448V23.9206H58.2207L38.5724 12.3103L37.6551 11.7551L36.7379 12.2862L19.7207 22.1103L18.8034 22.6413V44.4137L19.7448 44.9448L36.7379 54.7689L37.5103 55.2034V45.9586L26.8414 39.7793V27.2758L37.6551 21L49.5793 27.8551Z" fill="white"/>
</svg>
