<svg width="25" height="24" viewBox="0 0 25 24" fill="none" xmlns="http://www.w3.org/2000/svg">
<g clip-path="url(#clip0_125_62285)">
<path d="M0.5 4.125H24.5V19.875H0.5V4.125Z" fill="#C0001A"/>
<path d="M20.9 19.875H24.5L12.5 12L20.9 19.875ZM0.5 4.125L12.5 12L4.1 4.125H0.5Z" fill="#F8E72A"/>
<path d="M11.3008 19.875H13.7008L12.5008 12L11.3008 19.875ZM11.3008 4.125L12.5008 12L13.7008 4.125H11.3008Z" fill="#F8E72A"/>
<path d="M0.5 19.875H4.1L12.5 12L0.5 19.875ZM20.9 4.125L12.5 12L24.5 4.125H20.9Z" fill="#F8E72A"/>
<path d="M0.5 13.575L12.5 12L0.5 10.425V13.575ZM12.5 12L24.5 13.575V10.425L12.5 12Z" fill="#F8E72A"/>
<path d="M12.5006 9.18823C13.2043 9.23153 13.8623 9.55154 14.3308 10.0784C14.7993 10.6052 15.0403 11.296 15.0011 12C15.0405 12.7041 14.7997 13.3952 14.3311 13.9223C13.8626 14.4495 13.2045 14.7697 12.5006 14.8132C11.797 14.7692 11.1392 14.4487 10.6708 13.9217C10.2024 13.3948 9.96135 12.704 10.0001 12C9.96156 11.2962 10.2028 10.6057 10.6712 10.079C11.1396 9.55229 11.7972 9.23211 12.5006 9.18823Z" fill="#C0001A"/>
<path d="M12.5 9.94434C12.9063 9.94567 13.3031 10.0674 13.6403 10.2941C13.9774 10.5208 14.2399 10.8423 14.3944 11.2181C14.549 11.5938 14.5887 12.0069 14.5087 12.4053C14.4286 12.8036 14.2323 13.1693 13.9445 13.4561C13.6567 13.7429 13.2904 13.9381 12.8918 14.0168C12.4932 14.0956 12.0802 14.0545 11.705 13.8987C11.3297 13.7429 11.0091 13.4794 10.7835 13.1415C10.5579 12.8036 10.4375 12.4064 10.4375 12.0001C10.4378 11.7296 10.4914 11.4619 10.5952 11.2122C10.6991 10.9625 10.8511 10.7357 11.0427 10.5447C11.2342 10.3538 11.4615 10.2025 11.7116 10.0995C11.9616 9.99647 12.2295 9.94375 12.5 9.94434Z" fill="#F8E72A"/>
</g>
<defs>
<clipPath id="clip0_125_62285">
<rect width="24" height="24" fill="white" transform="translate(0.5)"/>
</clipPath>
</defs>
</svg>
