<svg width="24" height="24" viewBox="0 0 24 24" fill="none" xmlns="http://www.w3.org/2000/svg">
<path d="M22 5.00024H2V18.3337H22V5.00024Z" fill="#FFDA44"/>
<path d="M16.9951 18.3334L12 11.5218L13.0479 18.3334H16.9951Z" fill="#D80027"/>
<path d="M7.21729 5L11.9999 11.5217L10.9965 5H7.21729Z" fill="#D80027"/>
<path d="M10.952 18.3334L12 11.5218L7.00488 18.3334H10.952Z" fill="#D80027"/>
<path d="M2 5V9.9832L12 11.5217L3.10676 5H2Z" fill="#D80027"/>
<path d="M2 18.3334H2.71141L12 11.5218L2 13.0603V18.3334Z" fill="#D80027"/>
<path d="M12 11.5217L22 9.9832V5H20.8933L12 11.5217Z" fill="#D80027"/>
<path d="M13.0034 5L12 11.5217L16.7826 5H13.0034Z" fill="#D80027"/>
<path d="M22 18.3334V13.0603L12 11.5218L21.2886 18.3334H22Z" fill="#D80027"/>
<path d="M12.0002 13.8405C13.2808 13.8405 14.3189 12.8024 14.3189 11.5218C14.3189 10.2412 13.2808 9.20309 12.0002 9.20309C10.7196 9.20309 9.68152 10.2412 9.68152 11.5218C9.68152 12.8024 10.7196 13.8405 12.0002 13.8405Z" fill="#D80027"/>
<path d="M12 13.261C12.9605 13.261 13.7391 12.4824 13.7391 11.5219C13.7391 10.5614 12.9605 9.78271 12 9.78271C11.0395 9.78271 10.2609 10.5614 10.2609 11.5219C10.2609 12.4824 11.0395 13.261 12 13.261Z" fill="#FFDA44"/>
</svg>
