<svg width="24" height="24" viewBox="0 0 24 24" fill="none" xmlns="http://www.w3.org/2000/svg">
<path d="M12 2C10.1569 2.00214 8.3899 2.73526 7.08663 4.03853C5.78336 5.3418 5.05024 7.1088 5.0481 8.9519C5.0481 13.77 12.0068 22 12.0068 22C12.0068 22 18.9519 13.533 18.9519 8.9519C18.9498 7.1088 18.2166 5.3418 16.9134 4.03853C15.6101 2.73526 13.8431 2.00214 12 2ZM14.0975 10.9874C13.6827 11.4023 13.1541 11.6848 12.5787 11.7993C12.0032 11.9138 11.4068 11.8551 10.8647 11.6306C10.3226 11.4061 9.85934 11.0259 9.53337 10.538C9.20741 10.0502 9.03342 9.47666 9.03342 8.88995C9.03342 8.30324 9.20741 7.7297 9.53337 7.24187C9.85934 6.75404 10.3226 6.37383 10.8647 6.14932C11.4068 5.92481 12.0032 5.86609 12.5787 5.98057C13.1541 6.09506 13.6827 6.37761 14.0975 6.7925C14.374 7.06733 14.5935 7.39412 14.7432 7.75409C14.893 8.11405 14.9701 8.50008 14.9701 8.88995C14.9701 9.27982 14.893 9.66585 14.7432 10.0258C14.5935 10.3858 14.374 10.7126 14.0975 10.9874Z" fill="black" fill-opacity="0.4"/>
</svg>
