<svg width="24" height="24" viewBox="0 0 24 24" fill="none" xmlns="http://www.w3.org/2000/svg">
<path d="M22 4.99989H2V18.3329H22V4.99989Z" fill="#FFDA44"/>
<path d="M22 4.99989H14.8987V18.3334L22 18.3329V4.99989Z" fill="#D80027"/>
<path d="M9.10129 4.99989H2V18.3329L9.10129 18.3334V4.99989Z" fill="#0052B4"/>
<path d="M14.3188 10.245H12.7246C12.7246 9.84489 12.4002 9.5204 12 9.5204C11.5997 9.5204 11.2753 9.84485 11.2753 10.245H9.68109C9.68109 10.6391 10.0243 10.9585 10.4184 10.9585H10.3946C10.3946 11.3526 10.714 11.672 11.1081 11.672C11.1081 12.0209 11.3586 12.3108 11.6896 12.3728L11.1273 13.6421C11.3967 13.7516 11.6912 13.8125 11.9999 13.8125C12.3087 13.8125 12.6031 13.7516 12.8725 13.6421L12.3103 12.3728C12.6412 12.3108 12.8918 12.0209 12.8918 11.672C13.2859 11.672 13.6053 11.3525 13.6053 10.9585H13.5815C13.9756 10.9585 14.3188 10.639 14.3188 10.245Z" fill="#FF9811"/>
<path d="M12 11.2317L11.058 11.6664V12.536L12 13.1157L12.942 12.536V11.6664L12 11.2317Z" fill="#0052B4"/>
<path d="M12.9417 10.7969H11.0578L11.058 11.6664H12.942L12.9417 10.7969Z" fill="#D80027"/>
</svg>
