<svg width="24" height="24" viewBox="0 0 24 24" fill="none" xmlns="http://www.w3.org/2000/svg">
<path d="M12.51 9.59984C11.8117 9.7995 11.1797 10.1828 10.68 10.7098C10.6578 10.7352 10.6306 10.7557 10.6 10.7698C9 11.7698 8.06 10.9698 8.02 10.9398C7.72164 10.5772 7.55686 10.123 7.55322 9.65338C7.54958 9.18376 7.7073 8.72712 8 8.35984C8.28156 7.84589 8.61677 7.36319 9 6.91984H5.66L4 12.3698C6.30709 14.8482 8.85647 17.0893 11.61 19.0598C11.7012 19.14 11.8185 19.1842 11.94 19.1842C12.0615 19.1842 12.1788 19.14 12.27 19.0598C12.3665 18.9609 12.4205 18.8281 12.4205 18.6898C12.4205 18.5516 12.3665 18.4188 12.27 18.3198L10.37 16.4198C10.3298 16.3799 10.2979 16.3324 10.2761 16.28C10.2543 16.2277 10.2431 16.1715 10.2431 16.1148C10.2431 16.0582 10.2543 16.002 10.2761 15.9497C10.2979 15.8973 10.3298 15.8498 10.37 15.8098C10.4091 15.7699 10.4558 15.7382 10.5073 15.7166C10.5588 15.6949 10.6141 15.6838 10.67 15.6838C10.7259 15.6838 10.7812 15.6949 10.8327 15.7166C10.8842 15.7382 10.9309 15.7699 10.97 15.8098L13.38 18.2098C13.4417 18.2755 13.5158 18.3284 13.5979 18.3654C13.6801 18.4025 13.7687 18.423 13.8588 18.4257C13.9489 18.4285 14.0386 18.4135 14.1229 18.3816C14.2072 18.3497 14.2843 18.3016 14.35 18.2398C14.4157 18.1781 14.4685 18.1041 14.5056 18.0219C14.5426 17.9398 14.5631 17.8511 14.5659 17.7611C14.5687 17.671 14.5537 17.5812 14.5218 17.497C14.4899 17.4127 14.4417 17.3355 14.38 17.2698L12.19 14.9998C12.1112 14.9179 12.0671 14.8086 12.0671 14.6948C12.0671 14.5811 12.1112 14.4718 12.19 14.3898C12.23 14.3496 12.2775 14.3177 12.3298 14.2959C12.3822 14.2742 12.4383 14.263 12.495 14.263C12.5517 14.263 12.6078 14.2742 12.6602 14.2959C12.7125 14.3177 12.76 14.3496 12.8 14.3898L13.14 14.7298L14.92 16.5798L15.4 17.0698C15.4652 17.1364 15.543 17.1892 15.6288 17.2253C15.7147 17.2614 15.8069 17.2799 15.9 17.2799C15.9931 17.2799 16.0853 17.2614 16.1712 17.2253C16.257 17.1892 16.3348 17.1364 16.4 17.0698C16.4747 17.0074 16.5348 16.9294 16.5762 16.8413C16.6177 16.7532 16.6394 16.6572 16.64 16.5598C16.6421 16.4626 16.6235 16.3659 16.5856 16.2763C16.5477 16.1867 16.4913 16.1061 16.42 16.0398L14.83 14.4998L13.78 13.4998C13.7012 13.4179 13.6571 13.3086 13.6571 13.1948C13.6571 13.0811 13.7012 12.9718 13.78 12.8898C13.82 12.8496 13.8675 12.8177 13.9198 12.7959C13.9722 12.7742 14.0283 12.763 14.085 12.763C14.1417 12.763 14.1978 12.7742 14.2502 12.7959C14.3025 12.8177 14.35 12.8496 14.39 12.8898L17.47 15.8898C17.5304 15.9503 17.6021 15.9983 17.681 16.031C17.7599 16.0638 17.8446 16.0806 17.93 16.0806C18.0154 16.0806 18.1001 16.0638 18.179 16.031C18.2579 15.9983 18.3296 15.9503 18.39 15.8898C18.4554 15.829 18.5064 15.7544 18.5393 15.6713C18.5721 15.5883 18.5861 15.4989 18.58 15.4098C18.5807 15.321 18.5623 15.2331 18.5261 15.152C18.4899 15.0709 18.4366 14.9986 18.37 14.9398L12.51 9.59984Z" fill="white"/>
<path d="M13.24 5.99984C12.7931 5.82526 12.2969 5.82526 11.85 5.99984C10.5007 6.54253 9.38064 7.53535 8.68 8.80984C8.68 8.80984 8.07 9.80984 8.6 10.2998C8.6 10.2998 9.11 10.6998 10.09 10.0798C10.8063 9.31608 11.7699 8.83071 12.81 8.70984L18.92 14.3098C19.3326 14.1824 19.6868 13.9132 19.92 13.5498L17.8 7.81984L13.24 5.99984Z" fill="white"/>
<path d="M22 5.93984C20.7501 5.99005 19.5228 6.28923 18.39 6.81984V6.87984L21.07 14.1698C21.1077 14.2638 21.1726 14.3444 21.2563 14.4014C21.34 14.4584 21.4387 14.4892 21.54 14.4898C21.6567 14.4898 21.7686 14.4435 21.8511 14.361C21.9336 14.2785 21.98 14.1665 21.98 14.0498L22 5.93984Z" fill="white"/>
<path d="M5.08 5.70984C4.15227 5.14351 3.08693 4.84258 2 4.83984V12.9998C2 13.1165 2.04636 13.2285 2.12887 13.311C2.21139 13.3935 2.3233 13.4398 2.44 13.4398C2.55894 13.4378 2.67287 13.3916 2.75971 13.3103C2.84655 13.229 2.90011 13.1184 2.91 12.9998L5.11 5.73984C5.10399 5.72652 5.09332 5.71586 5.08 5.70984Z" fill="white"/>
</svg>
