<svg width="24" height="24" viewBox="0 0 24 24" fill="none" xmlns="http://www.w3.org/2000/svg">
<path d="M11.1737 2V7.25L2.08368 10.5542V22H21.9161V5.6L11.1737 2ZM6.21568 20.3473H3.73658V16.2156H6.21568V20.3473ZM6.21568 15.3893H3.73658V11.2576H6.21568V15.3893ZM10.3473 20.3473H7.86828V16.2156H10.3473V20.3473ZM10.3473 15.3893H7.86828V11.2576H10.3473V15.3893ZM16.1317 20.3473H13.6527V16.2156H16.1317V20.3473ZM16.1317 15.3893H13.6527V11.2576H16.1317V15.3893ZM16.1317 10.4312H13.6527V6.3H16.1317V10.4312ZM19.4371 20.3473H16.958V16.2156H19.4371V20.3473ZM19.4371 15.3893H16.958V11.2576H19.4371V15.3893ZM19.4371 10.4312H16.958V6.3H19.4371V10.4312Z" fill="#0066FF"/>
</svg>
