<svg width="72" height="72" viewBox="0 0 72 72" fill="none" xmlns="http://www.w3.org/2000/svg">
<path d="M36 6C30.4707 6.00643 25.1697 8.20579 21.2599 12.1156C17.3501 16.0254 15.1507 21.3264 15.1443 26.8557C15.1443 41.31 36.0204 66 36.0204 66C36.0204 66 56.8557 40.599 56.8557 26.8557C56.8493 21.3264 54.6499 16.0254 50.7401 12.1156C46.8303 8.20579 41.5293 6.00643 36 6ZM42.2925 32.9622C41.0479 34.2068 39.4622 35.0544 37.736 35.3977C36.0097 35.7411 34.2204 35.5649 32.5942 34.8913C30.9681 34.2178 29.5782 33.0772 28.6004 31.6137C27.6225 30.1502 27.1006 28.4296 27.1006 26.6695C27.1006 24.9094 27.6225 23.1889 28.6004 21.7254C29.5782 20.2619 30.9681 19.1213 32.5942 18.4478C34.2204 17.7742 36.0097 17.598 37.736 17.9414C39.4622 18.2847 41.0479 19.1323 42.2925 20.3769C43.1188 21.1981 43.7753 22.1741 44.2245 23.249C44.6736 24.324 44.9067 25.4769 44.9103 26.6419C44.9139 27.8069 44.6879 28.9612 44.2454 30.0389C43.8029 31.1166 43.1525 32.0966 42.3312 32.9229L42.2925 32.9622Z" fill="#0065B0"/>
<path d="M36 42.6804C44.8423 42.6804 52.0104 35.5123 52.0104 26.67C52.0104 17.8277 44.8423 10.6596 36 10.6596C27.1577 10.6596 19.9896 17.8277 19.9896 26.67C19.9896 35.5123 27.1577 42.6804 36 42.6804Z" fill="white"/>
<path d="M28.7037 32.5476C33.5004 32.5476 35.9109 30.7581 35.9109 28.6455C35.9109 24.3834 27.3492 25.539 27.3492 24.1473C27.3492 23.7495 27.834 23.4141 29.3622 23.4141C30.8394 23.4387 32.3001 23.7292 33.6744 24.2715L35.2401 21.4515C33.3751 20.7478 31.393 20.4059 29.4 20.4441C24.6033 20.4441 22.1925 22.1964 22.1925 24.3462C22.1925 28.6581 30.7545 27.4899 30.7545 28.9437C30.7545 29.3415 30.2202 29.5776 28.7412 29.5776C26.9861 29.5634 25.2508 29.2045 23.634 28.5213L21.9564 31.3545C24.1051 32.1928 26.3979 32.5982 28.7037 32.5476ZM43.0566 20.7177H35.6004V32.2866H40.8204V29.4408H43.0572C47.3691 29.4408 50.1153 27.7509 50.1153 25.0791C50.1144 22.395 47.3685 20.7177 43.0566 20.7177ZM42.72 26.4336H40.8189V23.7249H42.72C44.1615 23.7249 44.8449 24.2349 44.8449 25.0791C44.8449 25.9233 44.1621 26.4336 42.72 26.4336Z" fill="#0065B0"/>
</svg>
