<svg width="72" height="72" viewBox="0 0 72 72" fill="none" xmlns="http://www.w3.org/2000/svg">
<path d="M36 6C30.4707 6.00643 25.1697 8.20579 21.2599 12.1156C17.3501 16.0254 15.1507 21.3264 15.1443 26.8557C15.1443 41.31 36.0204 66 36.0204 66C36.0204 66 56.8557 40.599 56.8557 26.8557C56.8493 21.3264 54.6499 16.0254 50.7401 12.1156C46.8303 8.20579 41.5293 6.00643 36 6ZM42.2925 32.9622C41.0479 34.2068 39.4622 35.0544 37.736 35.3977C36.0097 35.7411 34.2203 35.5649 32.5942 34.8913C30.9681 34.2178 29.5782 33.0772 28.6004 31.6137C27.6225 30.1502 27.1006 28.4296 27.1006 26.6695C27.1006 24.9094 27.6225 23.1889 28.6004 21.7254C29.5782 20.2619 30.9681 19.1213 32.5942 18.4478C34.2203 17.7742 36.0097 17.598 37.736 17.9414C39.4622 18.2847 41.0479 19.1323 42.2925 20.3769C43.1188 21.1981 43.7753 22.1741 44.2245 23.249C44.6736 24.324 44.9067 25.4769 44.9102 26.6419C44.9138 27.8069 44.6879 28.9612 44.2454 30.0389C43.8029 31.1166 43.1524 32.0966 42.3312 32.9229L42.2925 32.9622Z" fill="#0066FF"/>
<path d="M36 42.6804C44.8423 42.6804 52.0104 35.5123 52.0104 26.67C52.0104 17.8277 44.8423 10.6596 36 10.6596C27.1577 10.6596 19.9896 17.8277 19.9896 26.67C19.9896 35.5123 27.1577 42.6804 36 42.6804Z" fill="white"/>
<path d="M48.5019 29.9592L35.0769 33.8847C34.8317 33.5333 34.5091 33.2428 34.1341 33.0355C33.7591 32.8281 33.3416 32.7095 32.9136 32.6886L27.5487 13.8018L22.9887 15.0657L23.5002 16.7202L26.2575 15.918L31.2006 33.1827C30.8081 33.4535 30.4912 33.8201 30.2802 34.2478C30.0692 34.6754 29.971 35.1499 29.995 35.6262C30.0189 36.1025 30.1642 36.5647 30.417 36.9691C30.6699 37.3734 31.0219 37.7064 31.4396 37.9365C31.8573 38.1665 32.3269 38.286 32.8038 38.2835C33.2807 38.281 33.749 38.1567 34.1643 37.9223C34.5796 37.6879 34.9281 37.3512 35.1767 36.9443C35.4254 36.5373 35.5658 36.0736 35.5848 35.5971L49.0095 31.6713L48.5019 29.9592ZM32.7774 36.4992C32.5776 36.4992 32.3823 36.4399 32.2162 36.329C32.0501 36.218 31.9207 36.0602 31.8442 35.8756C31.7677 35.6911 31.7477 35.488 31.7867 35.292C31.8257 35.0961 31.9219 34.9161 32.0632 34.7748C32.2044 34.6336 32.3844 34.5374 32.5803 34.4984C32.7763 34.4594 32.9794 34.4794 33.164 34.5559C33.3485 34.6323 33.5063 34.7618 33.6173 34.9279C33.7283 35.094 33.7875 35.2893 33.7875 35.4891C33.7877 35.6218 33.7617 35.7533 33.711 35.8759C33.6603 35.9986 33.5859 36.11 33.4921 36.2039C33.3983 36.2977 33.2869 36.3722 33.1642 36.4229C33.0416 36.4736 32.9101 36.4993 32.7774 36.4992Z" fill="#0066FF"/>
<path d="M30.879 21.9714L33.6942 31.965L45.7581 28.5408L42.9429 18.5472L30.879 21.9714Z" fill="#0066FF"/>
</svg>
