<svg width="24" height="24" viewBox="0 0 24 24" fill="none" xmlns="http://www.w3.org/2000/svg">
<path d="M11.1735 2V7.25L2.0835 10.5542V22H21.9159V5.6L11.1735 2ZM6.2155 20.3473H3.7364V16.2156H6.2155V20.3473ZM6.2155 15.3893H3.7364V11.2576H6.2155V15.3893ZM10.3471 20.3473H7.8681V16.2156H10.3471V20.3473ZM10.3471 15.3893H7.8681V11.2576H10.3471V15.3893ZM16.1315 20.3473H13.6525V16.2156H16.1315V20.3473ZM16.1315 15.3893H13.6525V11.2576H16.1315V15.3893ZM16.1315 10.4312H13.6525V6.3H16.1315V10.4312ZM19.4369 20.3473H16.9578V16.2156H19.4369V20.3473ZM19.4369 15.3893H16.9578V11.2576H19.4369V15.3893ZM19.4369 10.4312H16.9578V6.3H19.4369V10.4312Z" fill="white" fill-opacity="0.64"/>
</svg>
