<svg width="24" height="24" viewBox="0 0 24 24" fill="none" xmlns="http://www.w3.org/2000/svg">
<path d="M21.6091 15.01L11.2905 18.0277C11.102 17.7575 10.8542 17.5341 10.5659 17.3746C10.2777 17.2152 9.95672 17.1238 9.6277 17.1077L5.5043 2.59151L2 3.56311L2.3931 4.83471L4.5125 4.21821L8.3117 17.4882C8.01022 17.6964 7.76694 17.9782 7.60496 18.3068C7.44298 18.6355 7.36767 19 7.38618 19.366C7.40469 19.7319 7.5164 20.087 7.71072 20.3976C7.90503 20.7082 8.1755 20.964 8.49645 21.1407C8.8174 21.3175 9.17819 21.4092 9.54457 21.4073C9.91095 21.4054 10.2708 21.3099 10.5899 21.1299C10.909 20.9499 11.1768 20.6913 11.3679 20.3787C11.559 20.0661 11.667 19.7098 11.6817 19.3437L22 16.3263L21.6091 15.01ZM9.5231 20.0374C9.36953 20.0374 9.21941 19.9919 9.09172 19.9066C8.96402 19.8213 8.8645 19.7 8.80572 19.5582C8.74694 19.4163 8.73156 19.2602 8.76151 19.1096C8.79147 18.9589 8.86541 18.8206 8.974 18.712C9.08259 18.6034 9.22094 18.5295 9.37156 18.4995C9.52217 18.4696 9.67829 18.4849 9.82016 18.5437C9.96203 18.6025 10.0833 18.702 10.1686 18.8297C10.2539 18.9574 10.2994 19.1075 10.2994 19.2611C10.2995 19.3631 10.2795 19.4641 10.2405 19.5583C10.2015 19.6525 10.1444 19.7382 10.0723 19.8103C10.0002 19.8824 9.91453 19.9396 9.8203 19.9785C9.72607 20.0175 9.62507 20.0375 9.5231 20.0374Z" fill="black" fill-opacity="0.4"/>
<path d="M8.0639 8.87091L10.2278 16.552L19.5 13.92L17.3363 6.23901L8.0639 8.87091Z" fill="black" fill-opacity="0.4"/>
</svg>
