<svg width="72" height="72" viewBox="0 0 72 72" fill="none" xmlns="http://www.w3.org/2000/svg">
<path d="M36 6C30.4707 6.00643 25.1697 8.20579 21.2599 12.1156C17.3501 16.0254 15.1507 21.3264 15.1443 26.8557C15.1443 41.31 36.0204 66 36.0204 66C36.0204 66 56.8557 40.599 56.8557 26.8557C56.8493 21.3264 54.6499 16.0254 50.7401 12.1156C46.8303 8.20579 41.5293 6.00643 36 6ZM42.2925 32.9622C41.0479 34.2068 39.4622 35.0544 37.736 35.3977C36.0097 35.7411 34.2204 35.5649 32.5942 34.8913C30.9681 34.2178 29.5782 33.0772 28.6004 31.6137C27.6225 30.1502 27.1006 28.4296 27.1006 26.6695C27.1006 24.9094 27.6225 23.1889 28.6004 21.7254C29.5782 20.2619 30.9681 19.1213 32.5942 18.4478C34.2204 17.7742 36.0097 17.598 37.736 17.9414C39.4622 18.2847 41.0479 19.1323 42.2925 20.3769C43.1188 21.1981 43.7753 22.1741 44.2245 23.249C44.6736 24.324 44.9067 25.4769 44.9103 26.6419C44.9139 27.8069 44.6879 28.9612 44.2454 30.0389C43.8029 31.1166 43.1525 32.0966 42.3312 32.9229L42.2925 32.9622Z" fill="black"/>
<path d="M36 42.6804C44.8423 42.6804 52.0104 35.5123 52.0104 26.67C52.0104 17.8277 44.8423 10.6596 36 10.6596C27.1577 10.6596 19.9896 17.8277 19.9896 26.67C19.9896 35.5123 27.1577 42.6804 36 42.6804Z" fill="white"/>
<path fill-rule="evenodd" clip-rule="evenodd" d="M37.752 25.392V37.635H33.6V25.413H21.915V21.345H50.085V25.392H37.752Z" fill="#000003"/>
</svg>
