<svg width="48" height="48" viewBox="0 0 48 48" fill="none" xmlns="http://www.w3.org/2000/svg">
<g clip-path="url(#clip0_5178_15626)">
<g filter="url(#filter0_f_5178_15626)">
<path d="M37.2973 41.618C24.5107 41.618 12.0884 42.064 11.1426 41.9921L21.6045 34.2856L47.9997 38.6626L37.2973 41.618Z" fill="url(#paint0_linear_5178_15626)" fill-opacity="0.9"/>
</g>
<path d="M7.71387 7.69744C7.71387 5.33976 9.65064 3.42847 12.0398 3.42847H24.8567L40.2853 15.4285V40.3023C40.2853 42.66 38.3485 44.5713 35.9594 44.5713H12.0398C9.65064 44.5713 7.71387 42.66 7.71387 40.3024V7.69744Z" fill="#D32F2F"/>
<path d="M40.2853 15.4285L24.8567 3.42847V10.8402C24.8567 13.7676 27.9285 15.4283 30.5097 15.4284C33.7683 15.4285 37.0268 15.4285 40.2853 15.4285Z" fill="#FF4B4B"/>
<g filter="url(#filter1_d_5178_15626)">
<path d="M40.286 15.4285L24.8574 3.42847V10.8402C24.8574 13.7676 27.9292 15.4283 30.5104 15.4284C33.7689 15.4285 37.0275 15.4285 40.286 15.4285Z" fill="#FF4B4B"/>
</g>
<path d="M18.5859 23.2154C19.4549 23.2154 20.1805 23.5474 20.7627 24.2113C21.3536 24.8752 21.649 25.6964 21.649 26.6748C21.649 27.6532 21.3536 28.4788 20.7627 29.1514C20.1718 29.8066 19.4462 30.1342 18.5859 30.1342C17.7952 30.1342 17.1782 29.8722 16.735 29.348V32.5715H14.5713V23.3989H16.735V24.0017C17.1782 23.4775 17.7952 23.2154 18.5859 23.2154ZM17.113 27.71C17.365 27.9721 17.6952 28.1031 18.1036 28.1031C18.5121 28.1031 18.8423 27.9721 19.0943 27.71C19.3463 27.4392 19.4723 27.0941 19.4723 26.6748C19.4723 26.2555 19.3463 25.9104 19.0943 25.6396C18.8423 25.3776 18.5121 25.2465 18.1036 25.2465C17.6952 25.2465 17.365 25.3776 17.113 25.6396C16.861 25.9104 16.735 26.2555 16.735 26.6748C16.735 27.0941 16.861 27.4392 17.113 27.71Z" fill="white"/>
<path d="M27.1917 24.0017V20.7781H29.3555V29.9508H27.1917V29.348C26.7486 29.8722 26.1316 30.1342 25.3408 30.1342C24.4632 30.1342 23.7333 29.8066 23.151 29.1514C22.5688 28.4875 22.2777 27.662 22.2777 26.6748C22.2777 25.6789 22.5688 24.8578 23.151 24.2113C23.7333 23.5474 24.4632 23.2154 25.3408 23.2154C26.1316 23.2154 26.7486 23.4775 27.1917 24.0017ZM24.8325 27.71C25.0758 27.9721 25.406 28.1031 25.8231 28.1031C26.2402 28.1031 26.5704 27.9721 26.8137 27.71C27.0657 27.4392 27.1917 27.0941 27.1917 26.6748C27.1917 26.2555 27.0657 25.9104 26.8137 25.6396C26.5704 25.3776 26.2402 25.2465 25.8231 25.2465C25.406 25.2465 25.0758 25.3776 24.8325 25.6396C24.5805 25.9104 24.4545 26.2555 24.4545 26.6748C24.4545 27.0941 24.5805 27.4392 24.8325 27.71Z" fill="white"/>
<path d="M34.2856 20.5816V22.5995C33.5383 22.5471 33.1646 22.8136 33.1646 23.3989H34.2856V25.4824H33.1646V29.9508H31.0009V25.4824H30.1797V23.3989H31.0009C31.0009 22.4467 31.2789 21.726 31.8351 21.2368C32.3912 20.7388 33.2081 20.5204 34.2856 20.5816Z" fill="white"/>
<path d="M0 0H48V48H0V0Z" fill="black" fill-opacity="0.2"/>
</g>
<defs>
<filter id="filter0_f_5178_15626" x="-35.8574" y="-12.7144" width="130.857" height="101.714" filterUnits="userSpaceOnUse" color-interpolation-filters="sRGB">
<feFlood flood-opacity="0" result="BackgroundImageFix"/>
<feBlend mode="normal" in="SourceGraphic" in2="BackgroundImageFix" result="shape"/>
<feGaussianBlur stdDeviation="23.5" result="effect1_foregroundBlur_5178_15626"/>
</filter>
<filter id="filter1_d_5178_15626" x="-1.14258" y="-16.5715" width="63.4287" height="60" filterUnits="userSpaceOnUse" color-interpolation-filters="sRGB">
<feFlood flood-opacity="0" result="BackgroundImageFix"/>
<feColorMatrix in="SourceAlpha" type="matrix" values="0 0 0 0 0 0 0 0 0 0 0 0 0 0 0 0 0 0 127 0" result="hardAlpha"/>
<feOffset dx="-2" dy="4"/>
<feGaussianBlur stdDeviation="12"/>
<feComposite in2="hardAlpha" operator="out"/>
<feColorMatrix type="matrix" values="0 0 0 0 0 0 0 0 0 0 0 0 0 0 0 0 0 0 0.15 0"/>
<feBlend mode="normal" in2="BackgroundImageFix" result="effect1_dropShadow_5178_15626"/>
<feBlend mode="normal" in="SourceGraphic" in2="effect1_dropShadow_5178_15626" result="shape"/>
</filter>
<linearGradient id="paint0_linear_5178_15626" x1="1.13964" y1="39.3089" x2="67.2891" y2="23.365" gradientUnits="userSpaceOnUse">
<stop offset="0.179663" stop-color="#B1B1B1" stop-opacity="0"/>
<stop offset="0.460097" stop-color="#858585"/>
<stop offset="0.697692" stop-color="#C4C4C4" stop-opacity="0"/>
</linearGradient>
<clipPath id="clip0_5178_15626">
<rect width="48" height="48" fill="white"/>
</clipPath>
</defs>
</svg>
