<svg width="96" height="97" viewBox="0 0 96 97" fill="none" xmlns="http://www.w3.org/2000/svg">
<path fill-rule="evenodd" clip-rule="evenodd" d="M66.5014 50.1444L52.755 58.0808L39.0086 66.0172L36.159 67.6624V29.3376L39.0086 30.9828L52.755 38.9192L66.5014 46.8556L69.3494 48.5L66.5014 50.1444ZM48.0006 8.50003C38.7464 8.49991 29.7784 11.7086 22.6247 17.5793C15.4711 23.45 10.5743 31.6196 8.76875 40.6959C6.96323 49.7723 8.36068 59.1939 12.723 67.3555C17.0853 75.517 24.1426 81.9135 32.6923 85.455C41.242 88.9966 50.7553 89.464 59.611 86.7778C68.4668 84.0915 76.1172 78.4177 81.2586 70.7232C86.4001 63.0287 88.7145 53.7894 87.8075 44.5798C86.9005 35.3701 82.8283 26.7598 76.2846 20.216C72.5745 16.4961 68.1657 13.546 63.3118 11.5354C58.4579 9.52478 53.2545 8.49323 48.0006 8.50003ZM73.5914 22.9092C67.6708 16.9883 59.8803 13.3034 51.5474 12.4824C43.2145 11.6615 34.8547 13.7553 27.8925 18.407C20.9303 23.0588 15.7964 29.9807 13.3656 37.9934C10.9348 46.0061 11.3576 54.6137 14.5617 62.3496C17.7659 70.0856 23.5533 76.4711 30.9379 80.4184C38.3224 84.3656 46.8471 85.6302 55.0595 83.9967C63.2718 82.3632 70.6638 77.9327 75.9757 71.4601C81.2877 64.9875 84.191 56.8733 84.191 48.5C84.1971 43.7465 83.2638 39.0387 81.4448 34.6469C79.6258 30.2552 76.9569 26.2663 73.5914 22.9092Z" fill="white"/>
</svg>
