<svg width="20" height="20" viewBox="0 0 20 20" fill="none" xmlns="http://www.w3.org/2000/svg">
<path d="M14.3405 13.2C15.4715 11.7801 16.0165 9.98128 15.8635 8.17241C15.7105 6.36353 14.8712 4.68174 13.5177 3.47197C12.1642 2.26219 10.3992 1.61613 8.58453 1.66629C6.76988 1.71645 5.04321 2.45902 3.75862 3.74171C3.09885 4.37879 2.5737 5.14185 2.21429 5.98565C1.85488 6.82944 1.66853 7.73681 1.66629 8.65396C1.65798 9.60729 1.83848 10.5528 2.19739 11.4361C2.5563 12.3193 3.08651 13.1227 3.75746 13.8C4.98725 15.0416 6.63336 15.7837 8.37809 15.883C10.1228 15.9823 11.8425 15.4318 13.2052 14.3377L17.1977 18.3334L18.333 17.197L14.3405 13.2ZM12.6689 12.664C11.8992 13.4328 10.9189 13.9563 9.85181 14.1681C8.78473 14.3799 7.6788 14.2706 6.67382 13.854C5.66883 13.4375 4.80992 12.7323 4.20563 11.8276C3.60134 10.923 3.27881 9.85953 3.27881 8.77163C3.27881 7.68373 3.60134 6.62025 4.20563 5.71561C4.80992 4.81098 5.66883 4.1058 6.67382 3.68922C7.6788 3.27264 8.78473 3.16335 9.85181 3.37518C10.9189 3.587 11.8992 4.11043 12.6689 4.8793C13.6987 5.91301 14.2769 7.31268 14.2769 8.7718C14.2769 10.2309 13.6987 11.6302 12.6689 12.664Z" fill="black" fill-opacity="0.4"/>
</svg>
