<svg width="24" height="24" viewBox="0 0 24 24" fill="none" xmlns="http://www.w3.org/2000/svg">
<path d="M22 5H2V18.3335H22V5Z" fill="#0052B4"/>
<path d="M22 5H2V9.44434H22V5Z" fill="#D80027"/>
<path d="M22 13.8885H2V18.3329H22V13.8885Z" fill="#F0F0F0"/>
<path d="M7.05701 8.7679V12.0935C7.05701 13.9853 9.52837 14.5649 9.52837 14.5649C9.52837 14.5649 11.9997 13.9852 11.9997 12.0935V8.7679H7.05701Z" fill="#D80027"/>
<path d="M8.0802 9.34774H10.9787V8.18833L10.399 8.47817L9.52938 7.60864L8.65989 8.47817L8.0802 8.18833V9.34774Z" fill="#FFDA44"/>
<path d="M11.421 12.5566L9.53698 10.6726L7.65295 12.5566L8.26784 13.1715L9.53698 11.9023L10.8061 13.1715L11.421 12.5566Z" fill="#FFDA44"/>
<path d="M11.4208 10.7968H10.5417C10.5911 10.7115 10.6199 10.6127 10.6199 10.5071C10.6199 10.1869 10.3603 9.92737 10.0402 9.92737C9.81896 9.92737 9.62685 10.0513 9.52912 10.2335C9.43138 10.0513 9.23923 9.92737 9.01806 9.92737C8.69794 9.92737 8.43837 10.1869 8.43837 10.5071C8.43837 10.6128 8.46712 10.7115 8.51654 10.7968H7.65271C7.65271 11.117 7.93158 11.3765 8.25169 11.3765H8.2324C8.2324 11.6967 8.49193 11.9562 8.81209 11.9562C8.81209 12.2397 9.01564 12.4752 9.28451 12.5256L8.82771 13.5569C9.04658 13.6458 9.2858 13.6953 9.53666 13.6953C9.78751 13.6953 10.0267 13.6458 10.2456 13.5569L9.7888 12.5256C10.0577 12.4752 10.2612 12.2397 10.2612 11.9562C10.5814 11.9562 10.8409 11.6967 10.8409 11.3765H10.8216C11.1419 11.3765 11.4208 11.117 11.4208 10.7968Z" fill="#F0F0F0"/>
</svg>
