<svg display="none" xmlns="http://www.w3.org/2000/svg">

    <symbol id="mapIcon" viewBox="0 0 25 24">
        <path d="M12.5 2C10.6569 2.00214 8.8899 2.73526 7.58663 4.03853C6.28336 5.3418 5.55024 7.1088 5.5481 8.9519C5.5481 13.77 12.5068 22 12.5068 22C12.5068 22 19.4519 13.533 19.4519 8.9519C19.4498 7.1088 18.7166 5.3418 17.4134 4.03853C16.1101 2.73526 14.3431 2.00214 12.5 2ZM14.5975 10.9874C14.1827 11.4023 13.6541 11.6848 13.0787 11.7993C12.5032 11.9138 11.9068 11.8551 11.3647 11.6306C10.8226 11.4061 10.3593 11.0259 10.0334 10.538C9.70741 10.0502 9.53342 9.47666 9.53342 8.88995C9.53342 8.30324 9.70741 7.7297 10.0334 7.24187C10.3593 6.75405 10.8226 6.37383 11.3647 6.14932C11.9068 5.92481 12.5032 5.86609 13.0787 5.98057C13.6541 6.09506 14.1827 6.37761 14.5975 6.7925C14.874 7.06733 15.0935 7.39412 15.2432 7.75409C15.393 8.11405 15.4701 8.50008 15.4701 8.88995C15.4701 9.27982 15.393 9.66585 15.2432 10.0258C15.0935 10.3858 14.874 10.7126 14.5975 10.9874Z" fill="white" />
    </symbol>
    <symbol id="techDocIcon" viewBox="0 0 25 24">
        <path d="M14.5 10V3H2.5V22H21.5V10H14.5Z" fill="white" />
        <path d="M22.5 2H16.5V8H22.5V2Z" fill="white" />
    </symbol>
    <symbol id="arrowNext" viewBox="0 0 24 24">
        <path d="M14 4L12.6 5.4L18.2 11H2V13H18.2L12.6 18.6L14 20L22 12L14 4Z"/>
    </symbol>
    <symbol id="arrowPrev" viewBox="0 0 24 24">
        <path d="M2 12L10 20L11.4 18.6L5.8 13H22V11H5.8L11.4 5.4L10 4L2 12Z"/>
    </symbol>
    <symbol id="carIcon" viewBox="0 0 24 24">
        <path d="M20.3201 10.9291L17.7901 10.5591C17.7697 10.5565 17.7496 10.552 17.7301 10.5458C17.7224 10.5393 17.7133 10.5348 17.7035 10.5325L13.2695 8.39896C13.1594 8.34982 13.0401 8.32479 12.9195 8.32556H11.0627C11.0407 8.32117 11.0181 8.32117 10.9961 8.32556H7.79249C7.41852 8.32552 7.04935 8.40985 6.71249 8.57226L3.32559 10.2223C3.03309 10.3638 2.78123 10.5772 2.59352 10.8424C2.40581 11.1076 2.28838 11.4161 2.25219 11.7391L2.00549 13.8691C1.99219 13.9838 2.00312 14.1 2.03757 14.2103C2.07202 14.3205 2.12923 14.4223 2.20549 14.5091C2.28366 14.595 2.37887 14.6636 2.48505 14.7107C2.59123 14.7577 2.70605 14.7821 2.82219 14.7824H3.35559C3.27956 14.5681 3.23903 14.3429 3.23559 14.1157V14.089C3.23559 13.5395 3.45387 13.0125 3.8424 12.624C4.23094 12.2354 4.75791 12.0172 5.30739 12.0172C5.85686 12.0172 6.38383 12.2354 6.77237 12.624C7.16091 13.0125 7.37919 13.5395 7.37919 14.089V14.1157C7.37565 14.3429 7.33512 14.5681 7.25919 14.7824H16.7401C16.6641 14.5681 16.6236 14.3429 16.6201 14.1157V14.089C16.6201 13.5395 16.8384 13.0125 17.2269 12.624C17.6154 12.2354 18.1424 12.0172 18.6919 12.0172C19.2414 12.0172 19.7683 12.2354 20.1569 12.624C20.5454 13.0125 20.7637 13.5395 20.7637 14.089V14.1157C20.7603 14.3429 20.7197 14.5681 20.6437 14.7824H21.1771C21.3943 14.7827 21.6029 14.6971 21.7571 14.5441C21.9114 14.3911 21.9987 14.1832 22.0001 13.966V12.8693C22.003 12.3971 21.8342 11.94 21.5252 11.583C21.2161 11.2261 20.7878 10.9937 20.3201 10.9291ZM10.6961 10.4191L7.48259 10.3758L8.57259 8.99236H10.696L10.6961 10.4191ZM12.3961 11.5525H12.3895L11.5995 11.5392C11.5274 11.5378 11.4589 11.5079 11.4088 11.456C11.3588 11.4041 11.3315 11.3345 11.3328 11.2625C11.3329 11.1994 11.3567 11.1388 11.3995 11.0925C11.426 11.0628 11.4583 11.0389 11.4944 11.0223C11.5306 11.0056 11.5697 10.9966 11.6095 10.9958L12.3995 11.0092C12.4386 11.0099 12.4771 11.0193 12.5122 11.0366C12.5474 11.0539 12.5783 11.0786 12.6028 11.1092C12.6451 11.1581 12.6676 11.2211 12.6662 11.2858C12.666 11.321 12.6588 11.3559 12.6452 11.3884C12.6315 11.4209 12.6115 11.4503 12.5864 11.4751C12.5613 11.4999 12.5316 11.5195 12.499 11.5327C12.4663 11.546 12.4313 11.5527 12.3961 11.5525ZM11.3628 10.4258V8.99236H12.9195C12.9435 8.99128 12.9675 8.99583 12.9895 9.00566L16.0795 10.4891L11.3628 10.4258Z"/>
        <path d="M6.894 14.0893C6.894 13.7751 6.80083 13.468 6.62626 13.2067C6.4517 12.9455 6.20359 12.7419 5.91331 12.6216C5.62302 12.5014 5.3036 12.47 4.99544 12.5313C4.68728 12.5926 4.40422 12.7439 4.18205 12.9661C3.95989 13.1882 3.8086 13.4713 3.74731 13.7795C3.68602 14.0876 3.7175 14.4071 3.83775 14.6973C3.958 14.9876 4.16163 15.2357 4.42289 15.4103C4.68415 15.5848 4.9913 15.678 5.3055 15.6779C5.72654 15.677 6.13007 15.5094 6.42778 15.2116C6.72549 14.9139 6.89313 14.5104 6.894 14.0893ZM4.8855 14.0893C4.8855 13.9779 4.92975 13.8711 5.00851 13.7923C5.08728 13.7136 5.19411 13.6693 5.3055 13.6693C5.41689 13.6693 5.52372 13.7136 5.60248 13.7923C5.68125 13.8711 5.7255 13.9779 5.7255 14.0893C5.7255 14.2007 5.68125 14.3076 5.60248 14.3863C5.52372 14.4651 5.41689 14.5093 5.3055 14.5093C5.19411 14.5093 5.08728 14.4651 5.00851 14.3863C4.92975 14.3076 4.8855 14.2007 4.8855 14.0893Z"/>
        <path d="M18.693 15.6779C19.0072 15.678 19.3143 15.5848 19.5756 15.4103C19.8369 15.2357 20.0405 14.9876 20.1607 14.6973C20.281 14.4071 20.3125 14.0876 20.2512 13.7795C20.1899 13.4713 20.0386 13.1882 19.8164 12.9661C19.5943 12.7439 19.3112 12.5926 19.003 12.5313C18.6949 12.47 18.3755 12.5014 18.0852 12.6216C17.7949 12.7419 17.5468 12.9455 17.3722 13.2067C17.1977 13.468 17.1045 13.7751 17.1045 14.0893C17.1054 14.5104 17.273 14.9139 17.5707 15.2116C17.8684 15.5093 18.272 15.677 18.693 15.6779ZM18.693 13.6693C18.8044 13.6693 18.9112 13.7136 18.99 13.7923C19.0687 13.8711 19.113 13.9779 19.113 14.0893C19.113 14.2007 19.0687 14.3076 18.99 14.3863C18.9112 14.4651 18.8044 14.5093 18.693 14.5093C18.5816 14.5093 18.4748 14.4651 18.396 14.3863C18.3172 14.3076 18.273 14.2007 18.273 14.0893C18.273 13.9779 18.3172 13.8711 18.396 13.7923C18.4748 13.7136 18.5816 13.6693 18.693 13.6693Z"/>
    </symbol>
    <symbol id="carIcon2" viewBox="0 0 24 24">
        <path d="M15.648 6.29761H2V13.974H15.648V6.29761Z"/>
        <path d="M21.9999 11.7872L20.5969 8.6499H16.2599V14.5528H3.64746V15.8947H5.05066C5.03868 15.9718 5.03237 16.0497 5.03176 16.1277C5.03011 16.3339 5.0693 16.5384 5.14707 16.7294C5.22484 16.9204 5.33966 17.0941 5.48489 17.2405C5.63012 17.3869 5.8029 17.5031 5.99326 17.5824C6.18362 17.6617 6.3878 17.7025 6.59401 17.7025C6.80023 17.7025 7.0044 17.6617 7.19476 17.5824C7.38512 17.5031 7.5579 17.3869 7.70313 17.2405C7.84837 17.0941 7.96318 16.9204 8.04095 16.7294C8.11872 16.5384 8.15791 16.3339 8.15626 16.1277C8.15562 16.0497 8.14927 15.9718 8.13726 15.8947H9.71496C9.70295 15.9718 9.6966 16.0497 9.69596 16.1277C9.69431 16.3339 9.7335 16.5384 9.81127 16.7294C9.88904 16.9204 10.0039 17.0941 10.1491 17.2405C10.2943 17.3869 10.4671 17.5031 10.6575 17.5824C10.8478 17.6617 11.052 17.7025 11.2582 17.7025C11.4644 17.7025 11.6686 17.6617 11.859 17.5824C12.0493 17.5031 12.2221 17.3869 12.3673 17.2405C12.5126 17.0941 12.6274 16.9204 12.7051 16.7294C12.7829 16.5384 12.8221 16.3339 12.8205 16.1277C12.8199 16.0497 12.8135 15.9718 12.8016 15.8947H16.567C16.5549 15.9718 16.5486 16.0497 16.548 16.1277C16.5463 16.3339 16.5855 16.5384 16.6633 16.7294C16.741 16.9204 16.8559 17.0941 17.0011 17.2405C17.1463 17.3869 17.3191 17.5031 17.5095 17.5824C17.6998 17.6617 17.904 17.7025 18.1102 17.7025C18.3164 17.7025 18.5206 17.6617 18.711 17.5824C18.9013 17.5031 19.0741 17.3869 19.2193 17.2405C19.3646 17.0941 19.4794 16.9204 19.5571 16.7294C19.6349 16.5384 19.6741 16.3339 19.6725 16.1277C19.6719 16.0497 19.6655 15.9718 19.6536 15.8947H21.9999V11.7872ZM6.59396 16.7438C6.47168 16.7449 6.35182 16.7097 6.24961 16.6425C6.1474 16.5754 6.06745 16.4794 6.0199 16.3667C5.97236 16.254 5.95937 16.1298 5.98258 16.0097C6.00579 15.8897 6.06416 15.7792 6.15027 15.6924C6.23638 15.6055 6.34635 15.5462 6.46622 15.522C6.58609 15.4978 6.71045 15.5098 6.82351 15.5564C6.93657 15.603 7.03323 15.6822 7.10122 15.7838C7.16921 15.8855 7.20546 16.005 7.20536 16.1273C7.20603 16.2901 7.14199 16.4466 7.02733 16.5622C6.91267 16.6778 6.75679 16.7431 6.59396 16.7438ZM11.2582 16.7438C11.1359 16.7449 11.0161 16.7096 10.914 16.6425C10.8118 16.5753 10.732 16.4794 10.6844 16.3667C10.6369 16.2541 10.624 16.1299 10.6472 16.0099C10.6704 15.8899 10.7287 15.7795 10.8148 15.6927C10.9009 15.6059 11.0108 15.5466 11.1306 15.5224C11.2504 15.4982 11.3747 15.5102 11.4877 15.5567C11.6008 15.6033 11.6974 15.6824 11.7654 15.784C11.8334 15.8856 11.8696 16.0051 11.8696 16.1273C11.8702 16.2901 11.8062 16.4466 11.6915 16.5622C11.5769 16.6778 11.421 16.7431 11.2582 16.7438ZM18.11 16.7438C17.9877 16.7449 17.868 16.7096 17.7658 16.6424C17.6637 16.5753 17.5838 16.4793 17.5363 16.3667C17.4888 16.254 17.4759 16.1298 17.4991 16.0098C17.5223 15.8898 17.5807 15.7794 17.6667 15.6927C17.7528 15.6059 17.8627 15.5466 17.9825 15.5224C18.1024 15.4982 18.2267 15.5102 18.3397 15.5568C18.4527 15.6033 18.5493 15.6824 18.6173 15.784C18.6853 15.8856 18.7215 16.0051 18.7215 16.1273C18.7218 16.2079 18.7062 16.2879 18.6757 16.3625C18.6451 16.4371 18.6002 16.505 18.5434 16.5622C18.4866 16.6195 18.419 16.665 18.3447 16.6961C18.2703 16.7273 18.1906 16.7435 18.11 16.7438ZM17.2925 11.7282C17.2869 11.7282 17.2814 11.7271 17.2762 11.725C17.2711 11.7228 17.2664 11.7197 17.2624 11.7157C17.2585 11.7118 17.2554 11.7071 17.2533 11.702C17.2511 11.6968 17.25 11.6913 17.2501 11.6857V9.5659C17.2501 9.55466 17.2545 9.54387 17.2625 9.53592C17.2704 9.52797 17.2812 9.5235 17.2925 9.5235H19.9625C19.99 9.52345 20.017 9.53146 20.0401 9.54655C20.0632 9.56163 20.0814 9.58313 20.0925 9.6084L21.0187 11.7284L17.2925 11.7282Z"/>
    </symbol>
    <symbol id="arrowRight" viewBox="0 0 16 16">
        <path fill-rule="evenodd" clip-rule="evenodd" d="M5.16748 1.33337L11.8341 8.00004L5.16748 14.6667L4.16602 13.6652L9.83122 8.00004L4.16602 2.33484L5.16748 1.33337Z"/>
    </symbol>
    <symbol id="arrowLeft" viewBox="0 0 12 12">
        <path fill-rule="evenodd" clip-rule="evenodd" d="M8.87555 1.7511L4.62665 6L8.87555 10.2489L8.12445 11L3.12445 6L8.12445 1L8.87555 1.7511Z"/>
    </symbol>
    <symbol id="burgerIcon" viewBox="0 0 24 24">
        <rect y="19" width="24" height="2"/>
        <rect y="11" width="24" height="2"/>
        <rect y="3" width="24" height="2"/>
    </symbol>
    <symbol id="burgerIcon2" viewBox="0 0 24 24">
        <rect x="4.22192" y="3" width="24" height="2" transform="rotate(45 4.22192 3)"/>
        <rect x="2.80762" y="20" width="24" height="2" transform="rotate(-45 2.80762 20)"/>
    </symbol>
    <symbol id="filterIcon" viewBox="0 0 18 19">
        <path d="M16.5 15.53H8.25C8.12494 15.8947 7.88904 16.2112 7.57528 16.4354C7.26152 16.6595 6.88557 16.7799 6.49999 16.7799C6.11441 16.7799 5.73846 16.6595 5.4247 16.4354C5.11093 16.2112 4.87504 15.8947 4.74998 15.53H1.5V14.28H4.74998C4.87504 13.9153 5.11093 13.5987 5.4247 13.3746C5.73846 13.1505 6.11441 13.03 6.49999 13.03C6.88557 13.03 7.26152 13.1505 7.57528 13.3746C7.88904 13.5987 8.12494 13.9153 8.25 14.28H16.5V15.53ZM16.5 8.65501H13.25C13.125 8.29028 12.8891 7.97373 12.5753 7.74962C12.2615 7.5255 11.8856 7.40503 11.5 7.40503C11.1144 7.40503 10.7385 7.5255 10.4247 7.74962C10.111 7.97373 9.87506 8.29028 9.75 8.65501H1.5V9.90496H9.75C9.87506 10.2697 10.111 10.5862 10.4247 10.8104C10.7385 11.0345 11.1144 11.1549 11.5 11.1549C11.8856 11.1549 12.2615 11.0345 12.5753 10.8104C12.8891 10.5862 13.125 10.2697 13.25 9.90496H16.5V8.65501ZM1.5 4.27996H4.74998C4.87504 4.6447 5.11093 4.96125 5.4247 5.18536C5.73846 5.40947 6.11441 5.52995 6.49999 5.52995C6.88557 5.52995 7.26152 5.40947 7.57528 5.18536C7.88904 4.96125 8.12494 4.6447 8.25 4.27996H16.5V3.03001H8.25C8.12494 2.66528 7.88904 2.34873 7.57528 2.12462C7.26152 1.90051 6.88557 1.78003 6.49999 1.78003C6.11441 1.78003 5.73846 1.90051 5.4247 2.12462C5.11093 2.34873 4.87504 2.66528 4.74998 3.03001H1.5V4.27996Z"/>
    </symbol>
    <symbol id="arrowBottom" viewBox="0 0 20 20">
        <path fill-rule="evenodd" clip-rule="evenodd" d="M4.33447 6.16602L9.99967 11.8312L15.6649 6.16602L16.6663 7.16748L9.99967 13.8341L3.33301 7.16748L4.33447 6.16602Z"/>
    </symbol>
    <symbol id="searchIcon" viewBox="0 0 20 20">
        <path d="M14.3405 13.2C15.4715 11.7801 16.0165 9.98128 15.8635 8.17241C15.7105 6.36353 14.8712 4.68174 13.5177 3.47197C12.1642 2.26219 10.3992 1.61613 8.58453 1.66629C6.76988 1.71645 5.04321 2.45902 3.75862 3.74171C3.09885 4.37879 2.5737 5.14185 2.21429 5.98565C1.85488 6.82944 1.66853 7.73681 1.66629 8.65396C1.65798 9.60729 1.83848 10.5528 2.19739 11.4361C2.5563 12.3193 3.08651 13.1227 3.75746 13.8C4.98725 15.0416 6.63336 15.7837 8.37809 15.883C10.1228 15.9823 11.8425 15.4318 13.2052 14.3377L17.1977 18.3334L18.333 17.197L14.3405 13.2ZM12.6689 12.664C11.8992 13.4328 10.9189 13.9563 9.85181 14.1681C8.78473 14.3799 7.6788 14.2706 6.67382 13.854C5.66883 13.4375 4.80992 12.7323 4.20563 11.8276C3.60134 10.923 3.27881 9.85953 3.27881 8.77163C3.27881 7.68373 3.60134 6.62025 4.20563 5.71561C4.80992 4.81098 5.66883 4.1058 6.67382 3.68922C7.6788 3.27264 8.78473 3.16335 9.85181 3.37518C10.9189 3.587 11.8992 4.11043 12.6689 4.8793C13.6987 5.91301 14.2769 7.31268 14.2769 8.7718C14.2769 10.2309 13.6987 11.6302 12.6689 12.664Z"/>
    </symbol>
    <symbol id="sortIcon" viewBox="0 0 12 12">
        <path fill-rule="evenodd" clip-rule="evenodd" d="M8.70297 9.53189V1.60224H7.87432V9.53189L6.25847 8.10999L5.71112 8.73219L8.28877 11.0004L10.8664 8.73219L10.319 8.10999L8.70297 9.53189ZM3.29772 2.46914V10.3988H4.12662V2.46914L5.74242 3.89099L6.28997 3.26874L3.71217 1.00049L1.13452 3.26874L1.68192 3.89099L3.29772 2.46914Z"/>
    </symbol>
    <symbol id="sortIcon2" viewBox="0 0 24 24">
        <path d="M22 5.30103H2V6.98943H22V5.30103Z" />
        <path d="M14.9412 11.1558H2V12.8442H14.9412V11.1558Z" />
        <path d="M9.0588 17.0106H2V18.699H9.0588V17.0106Z" />
    </symbol>
    <symbol id="uploadIcon" viewBox="0 0 16 16">
        <path d="M8.52634 1.55333C8.4575 1.48359 8.3755 1.42821 8.28509 1.39042C8.19468 1.35262 8.09767 1.33316 7.99967 1.33316C7.90168 1.33316 7.80467 1.35262 7.71426 1.39042C7.62385 1.42821 7.54184 1.48359 7.47301 1.55333L4.33301 4.66666L5.37967 5.74L7.25967 3.86V11.7067H8.73967V3.86L10.6197 5.74L11.6663 4.66666L8.52634 1.55333Z"/>
        <path d="M13.1863 10.22V13.1867H2.81301V10.22H1.33301V13.1867C1.33476 13.5786 1.49125 13.9541 1.76843 14.2312C2.0456 14.5084 2.42103 14.6649 2.81301 14.6667H13.1863C13.5783 14.6649 13.9537 14.5084 14.2309 14.2312C14.5081 13.9541 14.6646 13.5786 14.6663 13.1867V10.22H13.1863Z"/>
    </symbol>
    <symbol id="closeIcon" viewBox="0 0 12 12">
        <path d="M11 1.7855L10.2145 1L6 5.2145L1.7855 1L1 1.7855L5.2145 6L1 10.2145L1.7855 11L6 6.7855L10.2145 11L11 10.2145L6.7855 6L11 1.7855Z"/>
    </symbol>
</svg>
