<svg width="72" height="72" viewBox="0 0 72 72" fill="none" xmlns="http://www.w3.org/2000/svg">
<path d="M50.34 25.7314L37.17 29.7789C38.76 27.8901 39.72 25.4316 39.72 22.8232C39.72 16.857 34.86 12 28.92 12C22.95 12 18.12 16.857 18.12 22.8232C18.12 24.0525 18.33 25.2217 18.72 26.331L6 31.188V34.1262V35.6252H7.8V34.1262V32.4172L19.44 28.01C19.77 28.6096 20.13 29.1493 20.55 29.659V53.4641L7.8 57.5415V53.7939V52.2948H6V53.7939V60L21.57 55.0231L36 59.7002L50.43 55.0231L66 60V30.9481L50.34 25.7314ZM64.2 42.431C62.88 41.3217 60.75 39.9725 57.84 39.4928C55.77 39.223 53.61 39.8226 51.45 40.8719V28.01L64.2 32.2673V42.431ZM49.65 53.3741L36.9 57.5115V52.5946C38.88 51.935 41.28 50.1062 43.98 48.0075C45.81 46.5984 47.73 45.1293 49.65 43.9V53.3741ZM35.1 51.0955C33.78 51.1255 32.73 50.7957 31.89 49.9862C29.67 47.8875 29.82 43.4803 29.82 43.4503L28.02 43.3604C28.02 43.5702 27.81 48.6071 30.66 51.2754C31.8 52.3548 33.24 52.8944 34.95 52.8944C35.01 52.8944 35.07 52.8944 35.1 52.8944V57.5115L22.35 53.4041V32.2673L28.92 42.1311L29.67 40.9619C31.41 38.2036 33.78 34.4859 35.07 32.4472V51.0955H35.1ZM42.87 46.5984C40.65 48.3073 38.52 49.9563 36.9 50.6758V31.7277L49.65 27.8001V41.8014C47.34 43.1805 45.03 44.9494 42.87 46.5984ZM28.92 13.8289C33.9 13.8289 37.92 17.8763 37.92 22.8532C37.92 27.1405 34.89 30.8582 30.69 31.6977L31.05 33.4666C31.59 33.3466 32.1 33.1967 32.61 33.0169C31.77 34.336 30.6 36.1949 28.92 38.8332L24.96 32.9269C25.5 33.1368 26.04 33.3167 26.58 33.4366L26.97 31.6677C22.89 30.7383 19.92 27.0206 19.92 22.8532C19.92 17.8763 23.94 13.8289 28.92 13.8289ZM51.45 53.4641V42.8507C53.58 41.7114 55.65 40.9919 57.57 41.2617C61.26 41.8613 63.57 44.1699 64.2 44.8894V57.5415L51.45 53.4641Z" fill="white" fill-opacity="0.4"/>
<path d="M7.8 38.9531H6V42.2831H7.8V38.9531Z" fill="white" fill-opacity="0.4"/>
<path d="M7.8 45.6389H6V48.9689H7.8V45.6389Z" fill="white" fill-opacity="0.4"/>
<path d="M28.9199 30.1384C32.9399 30.1384 36.2099 26.8705 36.2099 22.853C36.2099 22.1335 36.1199 21.4139 35.9099 20.7543C35.7899 20.3346 35.6099 19.9148 35.4299 19.5551L33.8099 20.3646C33.9599 20.6644 34.0799 20.9642 34.1699 21.264C34.3199 21.7737 34.4099 22.3133 34.4099 22.853C34.4099 25.8811 31.9499 28.3396 28.9199 28.3396C25.8899 28.3396 23.4299 25.8811 23.4299 22.853C23.4299 19.8249 25.8899 17.3664 28.9199 17.3664C29.4899 17.3664 30.0299 17.4564 30.5699 17.6063C31.0199 17.7562 31.4699 17.9661 31.8899 18.2059L32.8499 16.6769C32.3099 16.3471 31.7399 16.0473 31.1099 15.8674C30.3899 15.6575 29.6699 15.5376 28.9199 15.5376C24.8999 15.5376 21.6299 18.8055 21.6299 22.823C21.6299 26.8405 24.8999 30.1384 28.9199 30.1384Z" fill="white" fill-opacity="0.4"/>
</svg>
