<svg width="80" height="80" viewBox="0 0 80 80" fill="none" xmlns="http://www.w3.org/2000/svg">
<path d="M53.9848 71.1808H8.82778V8.81942H37.8564V24.9477H53.9848V26.9424H56.1371V23.4254L39.3788 6.66675H6.67578V73.3334H56.1371V60.4334H53.9848V71.1808ZM40.0084 10.3417L52.4625 22.7954H40.0084V10.3417Z" fill="white" fill-opacity="0.4"/>
<path d="M18.8144 31.7194L14.2084 36.3254L12.8174 34.9334L11.2951 36.4557L14.2084 39.3691L20.3368 33.2284L18.8144 31.7194Z" fill="white" fill-opacity="0.4"/>
<path d="M18.8144 45.6954L14.2084 50.3017L12.8174 48.9107L11.2951 50.4331L14.2084 53.3464L20.3368 47.2178L18.8144 45.6954Z" fill="white" fill-opacity="0.4"/>
<path d="M12.8174 62.9001L11.2951 64.4091L14.2084 67.3228L20.3368 61.1941L18.8144 59.6718L14.2084 64.2911L12.8174 62.9001Z" fill="white" fill-opacity="0.4"/>
<path d="M22.8041 34.6194H47.5281V36.7717H22.8041V34.6194Z" fill="white" fill-opacity="0.4"/>
<path d="M18.8144 16.5684L14.2084 21.1747L12.8174 19.7837L11.2951 21.3061L14.2084 24.2194L20.3368 18.0777L18.8144 16.5684Z" fill="white" fill-opacity="0.4"/>
<path d="M22.8041 19.4807H34.1994V21.6211H22.8041V19.4807Z" fill="white" fill-opacity="0.4"/>
<path d="M22.8041 49.6717H42.1608V51.8241H22.8041V49.6717Z" fill="white" fill-opacity="0.4"/>
<path d="M22.8041 64.7241H38.9328V66.8764H22.8041V64.7241Z" fill="white" fill-opacity="0.4"/>
<path d="M73.2891 29.0027C73.2185 28.5841 73.0649 28.1838 72.8372 27.8254C72.6095 27.4671 72.3124 27.1579 71.9635 26.9161L68.4465 24.4494C68.0993 24.2049 67.7073 24.0315 67.2929 23.9392C66.8784 23.8469 66.4499 23.8374 66.0318 23.9114C65.6132 23.9819 65.2129 24.1355 64.8546 24.3632C64.4963 24.5908 64.1872 24.8878 63.9455 25.2367L62.7121 27.0084L59.1951 24.5417L51.7935 35.1061L53.5521 36.3394L59.7188 27.5338L61.4771 28.7671L42.8291 55.4071L41.0704 67.2967L51.6478 61.5751L72.7631 31.4177C73.0057 31.0698 73.177 30.6774 73.2671 30.2629C73.3572 29.8485 73.3653 29.42 73.2891 29.0027ZM43.8275 63.3594L44.6661 57.6901L48.8661 60.6298L43.8275 63.3594ZM50.6384 59.2517L45.3498 55.5518L50.2831 48.5044L55.5718 52.2044L50.6384 59.2517ZM56.8051 50.4331L51.5164 46.7331L63.2368 30.0001L68.5255 33.7001L56.8051 50.4331ZM70.9911 30.1838L69.7578 31.9424L64.4691 28.2424L65.7025 26.4837C65.7834 26.3683 65.8864 26.2699 66.0054 26.1942C66.1244 26.1185 66.2572 26.067 66.3961 26.0426C66.535 26.0183 66.6774 26.0215 66.8151 26.0522C66.9527 26.0829 67.083 26.1404 67.1984 26.2214L70.7154 28.6881C70.9503 28.8519 71.1107 29.102 71.1618 29.3837C71.1928 29.5215 71.1936 29.6644 71.1642 29.8025C71.1347 29.9406 71.0757 30.0707 70.9911 30.1838Z" fill="white" fill-opacity="0.4"/>
</svg>
