<svg width="80" height="80" viewBox="0 0 80 80" fill="none" xmlns="http://www.w3.org/2000/svg">
<path d="M71.3413 62.1202L57.3993 48.1666L55.8823 49.6832L53.4823 47.2702C57.2415 41.9742 58.8735 35.4591 58.055 29.0164C57.2364 22.5737 54.0271 16.6737 49.063 12.486C44.099 8.29827 37.7427 6.12852 31.2542 6.40687C24.7657 6.68522 18.6186 9.39134 14.0314 13.9888C9.44428 18.5863 6.75197 24.7394 6.48818 31.2286C6.2244 37.7177 8.40841 44.0691 12.6073 49.0237C16.8061 53.9783 22.7133 57.1744 29.1578 57.9785C35.6024 58.7826 42.1138 57.1359 47.4013 53.3649L49.8013 55.7782L48.2847 57.2949L62.2253 71.2496C63.4451 72.4371 65.0803 73.1015 66.7827 73.1015C68.485 73.1015 70.1202 72.4371 71.34 71.2496C71.9426 70.652 72.4209 69.941 72.7473 69.1577C73.0738 68.3743 73.2418 67.534 73.2418 66.6854C73.2418 65.8367 73.0738 64.9965 72.7473 64.2131C72.4209 63.4297 71.9439 62.7178 71.3413 62.1202ZM32.456 56.0252C27.7667 56.0306 23.1812 54.6449 19.2796 52.0435C15.378 49.4422 12.3356 45.742 10.5374 41.4112C8.73918 37.0804 8.26594 32.3135 9.17752 27.7136C10.0891 23.1138 12.3446 18.8877 15.6585 15.57C18.9725 12.2523 23.1961 9.99206 27.7949 9.0753C32.3937 8.15853 37.1611 8.62641 41.494 10.4197C45.8268 12.2131 49.5304 15.2513 52.1362 19.1499C54.7419 23.0486 56.1327 27.6326 56.1327 32.3219C56.1301 38.6029 53.6357 44.6263 49.197 49.0702C44.7582 53.5141 38.737 56.0154 32.456 56.0252ZM49.1133 52.0402C50.2089 51.1121 51.2236 50.0927 52.1467 48.9929L54.3527 51.1992L51.3193 54.2466L49.1133 52.0402ZM51.3333 57.2939L57.4143 51.2129L69.066 62.8796L62.985 68.9606L51.3333 57.2939ZM69.8247 69.7332C69.142 70.3846 68.268 70.7992 67.3317 70.9159C66.3954 71.0327 65.4464 70.8453 64.6247 70.3816L70.4713 64.5212C71.0025 65.3245 71.2292 66.2912 71.1104 67.247C70.9915 68.2027 70.5364 69.0844 69.8247 69.7332Z" fill="white" fill-opacity="0.4"/>
<path d="M32.4556 12.9207C28.6176 12.9155 24.8642 14.0488 21.6704 16.1774C18.4766 18.3059 15.986 21.3339 14.5136 24.8783C13.0412 28.4228 12.6533 32.3243 13.3989 36.0893C14.1444 39.8542 15.99 43.3134 18.7021 46.0292C21.4142 48.745 24.8709 50.5953 28.6349 51.346C32.3988 52.0966 36.3008 51.714 39.8473 50.2464C43.3937 48.7789 46.4251 46.2923 48.558 43.1015C50.6908 39.9106 51.8293 36.1588 51.8293 32.3207C51.828 27.1804 49.7873 22.2507 46.155 18.6136C42.5228 14.9764 37.5959 12.929 32.4556 12.9207ZM32.4556 49.572C29.0432 49.5748 25.7067 48.5654 22.868 46.6716C20.0294 44.7778 17.8162 42.0846 16.5084 38.9327C15.2006 35.7809 14.857 32.3119 15.5211 28.9648C16.1851 25.6176 17.827 22.5426 20.239 20.1287C22.651 17.7148 25.7247 16.0705 29.0713 15.4038C32.418 14.7371 35.8872 15.0779 39.0401 16.3832C42.1929 17.6885 44.8879 19.8995 46.784 22.7367C48.68 25.5738 49.692 28.9096 49.692 32.322C49.6884 36.8935 47.8718 41.277 44.6405 44.5109C41.4092 47.7447 37.0272 49.5649 32.4556 49.572Z" fill="white" fill-opacity="0.4"/>
<path d="M42.0526 23.7036C41.1972 23.7047 40.3771 24.045 39.7722 24.6499C39.1673 25.2547 38.827 26.0748 38.826 26.9303C38.8296 27.4076 38.9378 27.8783 39.143 28.3093L34.5513 32.8999L29.1873 27.5233L23.051 33.6733C22.6223 33.4615 22.1501 33.3529 21.672 33.3559C21.0338 33.3559 20.41 33.5452 19.8793 33.8997C19.3487 34.2543 18.9351 34.7582 18.6909 35.3478C18.4467 35.9374 18.3828 36.5862 18.5073 37.2121C18.6318 37.838 18.9391 38.413 19.3904 38.8642C19.8416 39.3155 20.4166 39.6228 21.0425 39.7473C21.6684 39.8718 22.3172 39.8079 22.9068 39.5637C23.4964 39.3194 24.0003 38.9059 24.3549 38.3753C24.7094 37.8446 24.8986 37.2208 24.8986 36.5826C24.895 36.1053 24.7868 35.6346 24.5816 35.2036L29.201 30.5843L34.5653 35.9623L40.674 29.8536C41.1027 30.0651 41.5749 30.1736 42.053 30.1706C42.9105 30.1706 43.7329 29.83 44.3393 29.2236C44.9457 28.6172 45.2863 27.7948 45.2863 26.9373C45.2863 26.0797 44.9457 25.2573 44.3393 24.651C43.7329 24.0446 42.9102 23.7036 42.0526 23.7036ZM21.672 37.6583C21.4592 37.6583 21.2513 37.5952 21.0744 37.477C20.8975 37.3588 20.7596 37.1908 20.6782 36.9943C20.5968 36.7977 20.5755 36.5814 20.617 36.3728C20.6585 36.1641 20.7609 35.9724 20.9114 35.822C21.0618 35.6716 21.2535 35.5691 21.4621 35.5276C21.6708 35.4861 21.8871 35.5074 22.0836 35.5888C22.2802 35.6702 22.4482 35.8081 22.5664 35.985C22.6846 36.1619 22.7476 36.3699 22.7476 36.5826C22.7473 36.8678 22.6339 37.1412 22.4322 37.3428C22.2306 37.5445 21.9572 37.6579 21.672 37.6583ZM42.0526 28.0059C41.8399 28.006 41.6319 27.943 41.4549 27.8248C41.278 27.7067 41.1401 27.5387 41.0586 27.3422C40.9772 27.1456 40.9558 26.9293 40.9973 26.7206C41.0387 26.512 41.1412 26.3203 41.2916 26.1698C41.442 26.0193 41.6337 25.9168 41.8423 25.8753C42.051 25.8338 42.2673 25.8551 42.4639 25.9365C42.6604 26.0179 42.8285 26.1557 42.9467 26.3326C43.0649 26.5095 43.128 26.7175 43.128 26.9303C43.1276 27.2154 43.0142 27.4887 42.8127 27.6904C42.6111 27.892 42.3378 28.0055 42.0526 28.0059Z" fill="white" fill-opacity="0.4"/>
</svg>
