<svg width="72" height="72" viewBox="0 0 72 72" fill="none" xmlns="http://www.w3.org/2000/svg">
<path d="M56.7597 49.3499C55.4697 49.3499 54.3896 50.3999 54.3896 51.7199C54.3896 53.0099 55.4397 54.0899 56.7597 54.0899C58.0497 54.0899 59.1296 53.0399 59.1296 51.7199C59.0996 50.3999 58.0497 49.3499 56.7597 49.3499ZM56.1896 51.7199C56.1896 51.4199 56.4297 51.1498 56.7597 51.1498C57.0597 51.1498 57.3297 51.3899 57.3297 51.7199C57.2997 52.3199 56.1896 52.3199 56.1896 51.7199Z" fill="white" fill-opacity="0.4"/>
<path d="M28.2011 49.3499C26.9111 49.3499 25.8311 50.3999 25.8311 51.7199C25.8311 53.0099 26.8811 54.0899 28.2011 54.0899C29.4911 54.0899 30.5711 53.0399 30.5711 51.7199C30.5411 50.3999 29.4911 49.3499 28.2011 49.3499ZM27.6311 51.7199C27.6311 51.4199 27.8711 51.1498 28.2011 51.1498C28.5011 51.1498 28.7711 51.3899 28.7711 51.7199C28.7711 52.3199 27.6311 52.3199 27.6311 51.7199Z" fill="white" fill-opacity="0.4"/>
<path d="M20.7904 19.3499H18.9904V24.0299L16.8604 27.0599L18.3304 28.0799L20.7904 24.5999V19.3499Z" fill="white" fill-opacity="0.4"/>
<path d="M66 40.98L60.66 33.93L57.87 32.85L48.9 32.79V27.6L45.57 23.25H29.1C28.56 18.6 24.66 15 19.89 15C14.73 15 10.56 19.17 10.56 24.33C10.56 27.75 12.42 30.72 15.18 32.34H6V34.14H16.68V36.36H11.64V38.16H16.68V40.53H6V42.33H16.68V46.29L13.53 49.11V52.65H23.01C23.43 55.11 25.59 57 28.2 57C30.81 57 32.97 55.11 33.39 52.62H51.54C51.96 55.11 54.12 57 56.73 57C59.34 57 61.5 55.11 61.92 52.62H66V40.98ZM12.36 24.33C12.36 20.19 15.75 16.8 19.89 16.8C24.03 16.8 27.42 20.16 27.42 24.33C27.42 28.5 24.03 31.86 19.89 31.86C15.72 31.83 12.36 28.47 12.36 24.33ZM18.48 40.5V38.13H25.98V36.33H18.48V34.11H31.59V32.31H24.57C27.12 30.81 28.89 28.14 29.13 25.02H44.7L47.1 28.2V46.08H18.48V42.3H21.21V40.5H18.48ZM22.98 50.82H15.33V49.89L17.61 47.85V47.88H24.57C23.76 48.66 23.19 49.68 22.98 50.82ZM28.2 55.2C26.28 55.2 24.72 53.64 24.72 51.72C24.72 49.8 26.28 48.24 28.2 48.24C30.12 48.24 31.68 49.8 31.68 51.72C31.68 53.64 30.12 55.2 28.2 55.2ZM31.83 47.88H47.1V50.82H33.39C33.18 49.68 32.64 48.66 31.83 47.88ZM56.76 55.2C54.84 55.2 53.28 53.64 53.28 51.72C53.28 49.8 54.84 48.24 56.76 48.24C58.68 48.24 60.24 49.8 60.24 51.72C60.24 53.64 58.68 55.2 56.76 55.2ZM64.2 50.82H61.95C61.53 48.33 59.37 46.44 56.76 46.44C54.15 46.44 51.99 48.33 51.57 50.82H48.9V34.59H57.39L59.55 35.4L64.2 41.55V50.82Z" fill="white" fill-opacity="0.4"/>
<path d="M53.6396 36.1501V44.1001H61.6496V41.1001L57.8996 36.1501H53.6396ZM59.8497 42.3001H55.4396V37.9501H56.9997L59.8497 41.7001V42.3001Z" fill="white" fill-opacity="0.4"/>
</svg>
