<svg width="72" height="72" viewBox="0 0 72 72" fill="none" xmlns="http://www.w3.org/2000/svg">
<path d="M8.90399 45.726L13.743 47.661V45.918L8.90399 43.983V45.726Z" fill="white" fill-opacity="0.4"/>
<path d="M8.90399 42.726L13.743 44.661V42.918L8.90399 40.983V42.726Z" fill="white" fill-opacity="0.4"/>
<path d="M37.8756 8.8557L6 25.7886V48.2961L6.5781 48.5466L6.5805 48.549L35.613 61.1295H35.619L36.0852 61.3314L41.3733 57.9858C43.2395 60.5772 46.0249 62.358 49.1603 62.9642C52.2957 63.5704 55.5442 62.9562 58.2418 61.2471C60.9395 59.538 62.8825 56.8632 63.6737 53.7693C64.4649 50.6755 64.0446 47.3962 62.4987 44.6019L66 42.3873V19.9047L37.8756 8.8557ZM7.9356 27.7992L18.5805 32.0574V37.983C18.5803 38.1766 18.6381 38.3658 18.7464 38.5262C18.8548 38.6866 19.0087 38.8109 19.1883 38.883L24.027 40.8183C24.1415 40.864 24.2637 40.8874 24.387 40.8873C24.6437 40.8873 24.8898 40.7853 25.0713 40.6038C25.2528 40.4223 25.3548 40.1762 25.3548 39.9195V34.767L35.0322 38.637V58.767L7.9356 47.0256V27.7992ZM62.8479 20.7459L35.9148 36.9057L26.5278 33.15L52.8828 16.83L62.8479 20.7459ZM20.5161 32.8335L23.4195 33.9948V38.49L20.5161 37.3287V32.8335ZM50.6328 15.9465L24.2928 32.2566L21.69 31.2159L48.0102 14.9163L50.6328 15.9465ZM36.9678 58.4832V38.5332L64.0647 22.275V41.3232L61.4547 42.9732C59.5675 40.445 56.7954 38.7224 53.6929 38.1501C50.5904 37.5778 47.3861 38.1979 44.7211 39.8864C42.0561 41.5748 40.1267 44.2072 39.319 47.257C38.5113 50.3067 38.8848 53.549 40.3647 56.3352L36.9678 58.4832ZM37.9965 10.9821L45.7614 14.0328L19.4559 30.3228L9.2655 26.2461L37.9965 10.9821ZM51.4839 61.2087C49.3785 61.2085 47.3205 60.584 45.57 59.4142C43.8195 58.2444 42.4552 56.5818 41.6497 54.6366C40.8441 52.6914 40.6334 50.5511 41.0443 48.4862C41.4551 46.4213 42.469 44.5246 43.9578 43.0359C45.4466 41.5472 47.3434 40.5335 49.4084 40.1228C51.4733 39.7121 53.6136 39.923 55.5587 40.7287C57.5039 41.5344 59.1664 42.8989 60.336 44.6494C61.5057 46.4 62.13 48.4581 62.13 50.5635C62.13 51.9615 61.8546 53.3459 61.3196 54.6374C60.7846 55.929 60.0004 57.1026 59.0118 58.0911C58.0232 59.0796 56.8496 59.8637 55.5579 60.3986C54.2663 60.9336 52.8819 61.2088 51.4839 61.2087Z" fill="white" fill-opacity="0.4"/>
<path d="M58.0233 50.9526C57.9867 50.8233 57.9654 50.6901 57.9195 50.5626H57.9024C57.5054 49.4332 56.7681 48.4546 55.792 47.7615C54.8158 47.0685 53.6489 46.695 52.4517 46.6926H48.9813L52.8513 42.8226L51.483 41.4543L45.276 47.6613L51.483 53.8683L52.8513 52.5L48.9813 48.63H52.4517C53.1785 48.6337 53.8894 48.8432 54.5022 49.2342C55.1149 49.6251 55.6044 50.1816 55.914 50.8392C55.9677 50.9511 56.0136 51.0651 56.0562 51.1812C56.2189 51.5961 56.3077 52.0362 56.3187 52.4817L56.3217 52.5051C56.3208 53.5309 55.9127 54.5144 55.187 55.2395C54.4614 55.9645 53.4775 56.3718 52.4517 56.3718H46.6452V58.3074H52.4517C53.2143 58.3074 53.9694 58.1571 54.6739 57.8652C55.3784 57.5734 56.0186 57.1456 56.5577 56.6063C57.0969 56.067 57.5246 55.4268 57.8164 54.7223C58.1082 54.0177 58.2583 53.2626 58.2582 52.5C58.2567 52.1399 58.2205 51.7807 58.1502 51.4275C58.1196 51.2634 58.0671 51.1104 58.0233 50.9526Z" fill="white" fill-opacity="0.4"/>
</svg>
