<svg width="72" height="72" viewBox="0 0 72 72" fill="none" xmlns="http://www.w3.org/2000/svg">
<path d="M36.7195 42.39H33.2695V44.19H36.7195V42.39Z" fill="white" fill-opacity="0.4"/>
<path d="M25.8299 42.39H22.3799V44.19H25.8299V42.39Z" fill="white" fill-opacity="0.4"/>
<path d="M20.91 53.16H17.46V54.96H20.91V53.16Z" fill="white" fill-opacity="0.4"/>
<path d="M31.7703 53.16H28.3203V54.96H31.7703V53.16Z" fill="white" fill-opacity="0.4"/>
<path d="M47.5202 15.72H24.4502V17.52H47.5202V15.72Z" fill="white" fill-opacity="0.4"/>
<path d="M42.5096 53.16H39.0596V54.96H42.5096V53.16Z" fill="white" fill-opacity="0.4"/>
<path d="M66 14.7H53.4V12H31.77V13.8H51.6V19.47H19.98V13.8H29.1V12H18.18V14.7H6V21.24H8.01V60H64.08V21.24H66V14.7ZM8.01 19.47H7.8V16.5H18.18V19.44H8.97H8.01V19.47ZM14.67 48.99H16.71V52.29H21.72V48.99H23.79V58.2H14.67V48.99ZM23.4 38.22H24.81V39.72H23.4V38.22ZM26.61 41.49V38.19H28.53V47.19H19.56V38.19H21.6V41.49H26.61ZM34.29 38.22H35.7V39.72H34.29V38.22ZM37.5 41.49V38.19H39.33V47.19H30.36V38.19H32.49V41.49H37.5ZM45.36 58.2H36.33V48.99H38.28V52.26H43.29V48.99H45.36V58.2ZM27.54 48.99V52.26H32.55V48.99H34.53V58.2H25.59V48.99H27.54ZM29.34 48.99H30.75V50.49H29.34V48.99ZM41.49 50.49H40.08V48.99H41.49V50.49ZM18.48 48.99H19.89V50.49H18.48V48.99ZM57.63 48.66H51.15V45.87H57.63V48.66ZM51.12 50.46H57.6V53.37H51.12V50.46ZM51.12 55.17H57.6V58.2H51.12V55.17ZM62.28 58.2H59.4V39.06H57.6V44.07H49.32V58.2H47.16V47.19H41.13V36.39H17.79V47.19H14.67V27.33H57.63V36.3H59.43V25.53H12.87V58.2H9.81V21.24H62.28V58.2ZM64.2 19.47H64.08H63.06H53.4V16.5H64.2V19.47Z" fill="white" fill-opacity="0.4"/>
</svg>
