<svg width="72" height="72" viewBox="0 0 72 72" fill="none" xmlns="http://www.w3.org/2000/svg">
<path d="M66.0001 39.03H56.2801V6H13.8301V31.08H6.00006V61.41C6.00006 61.5 5.97006 63.39 7.26006 64.74C8.07006 65.55 9.18006 65.97 10.5301 66H51.4801C54.1201 66 56.2801 63.84 56.2801 61.2V58.41H66.0001V39.03ZM7.80006 61.44V32.88H13.8301V61.74C13.8001 61.98 13.4401 64.2 10.5901 64.2C9.72006 64.2 9.03006 63.96 8.55006 63.48C7.80006 62.7 7.80006 61.47 7.80006 61.44ZM54.4801 61.2C54.4801 62.85 53.1301 64.2 51.4801 64.2H14.6101C15.2401 63.39 15.5401 62.49 15.6001 61.8V7.8H54.4801V39.03H52.4101V40.92H50.1301L46.8601 37.65C46.8001 36.87 46.8601 34.26 46.9501 32.04L46.9801 31.14L46.0801 31.11C46.0201 31.11 43.6801 31.05 42.1501 32.55C41.2801 33.42 40.8301 34.56 40.8301 36V40.53H34.5901C32.7901 40.53 31.3201 42 31.3201 43.8V55.17C31.3201 56.97 32.7901 58.44 34.5901 58.44H45.5101L49.7701 56.22H52.4401V58.44H54.5101V61.2H54.4801ZM52.4101 54.42H49.5001L45.0301 56.64H34.5301C33.7201 56.64 33.0601 55.98 33.0601 55.17V54.3H40.6501V52.5H33.0601V50.46H40.6501V48.66H33.0601V46.59H40.6501V44.79H33.0601V43.8C33.0601 42.99 33.7201 42.33 34.5301 42.33H42.5701V36C42.5701 35.07 42.8101 34.35 43.3501 33.84C43.8601 33.33 44.5201 33.12 45.0601 33C44.8501 38.22 45.0601 38.43 45.3601 38.73L49.3501 42.72H52.3501V54.42H52.4101ZM64.2001 56.61H54.2101V40.83H64.2001V56.61Z" fill="white" fill-opacity="0.4"/>
<path d="M27.2115 35.3699V34.5899H17.3115V44.5199H27.2415V37.8899L30.3315 34.8899L29.0415 33.5999L27.2115 35.3699ZM25.4115 42.7199H19.1115V36.3899H25.4415V37.1399L22.6815 39.8099L21.4815 38.6699L20.2215 39.9599L22.6515 42.3299L25.3815 39.6599V42.7199H25.4115Z" fill="white" fill-opacity="0.4"/>
<path d="M29.0415 45.5398L27.2115 47.3098V46.5298H17.3115V56.4598H27.2415V49.8298L30.3315 46.8298L29.0415 45.5398ZM25.4115 54.6598H19.1115V48.3298H25.4415V49.0798L22.6815 51.7498L21.4815 50.6098L20.2515 51.8998L22.6815 54.2698L25.4115 51.5998V54.6598Z" fill="white" fill-opacity="0.4"/>
<path d="M33.7207 28.5598L34.7107 28.6198L34.8607 28.5598C42.9607 25.7398 42.6007 21.3298 42.6007 21.2398V12.4798L41.7907 12.4198C37.1407 11.9998 36.0607 10.7398 36.0607 10.7398L35.7907 10.3198H34.3207L33.4507 10.2898V10.3198H33.3007L32.8207 10.2898L32.5507 10.7098C32.5507 10.7098 31.4707 11.9998 26.7907 12.4198L25.9807 12.4798V21.2098C25.9807 21.3898 25.8307 25.7998 33.7207 28.5598ZM40.7707 14.0998V21.2998C40.7707 21.3298 40.8007 24.1798 35.1607 26.4598C35.1607 21.5098 35.1607 14.9398 35.1607 12.3598C35.9707 12.9298 37.5907 13.7398 40.7707 14.0998ZM27.7807 14.0998C30.9607 13.7098 32.5807 12.9298 33.3607 12.3598C33.3607 15.4798 33.3607 23.8198 33.3607 26.4598C27.8707 24.2398 27.7807 21.2998 27.7807 21.2398V14.0998Z" fill="white" fill-opacity="0.4"/>
</svg>
