<svg width="72" height="72" viewBox="0 0 72 72" fill="none" xmlns="http://www.w3.org/2000/svg">
<path d="M36 6C30.0666 6 24.2664 7.75947 19.3329 11.0559C14.3994 14.3524 10.5542 19.0377 8.28361 24.5195C6.01298 30.0013 5.41888 36.0333 6.57644 41.8527C7.734 47.6721 10.5912 53.0176 14.7868 57.2132C18.9824 61.4088 24.3279 64.266 30.1473 65.4236C35.9667 66.5811 41.9987 65.987 47.4805 63.7164C52.9623 61.4458 57.6476 57.6006 60.9441 52.6671C64.2405 47.7336 66 41.9334 66 36C65.9912 28.0462 62.8277 20.4207 57.2035 14.7965C51.5793 9.17235 43.9538 6.00881 36 6ZM36 64.0644C30.4494 64.0644 25.0234 62.4185 20.4083 59.3347C15.7931 56.2509 12.196 51.8679 10.0719 46.7398C7.94775 41.6117 7.39198 35.9689 8.47485 30.5249C9.55772 25.0809 12.2306 20.0803 16.1555 16.1555C20.0803 12.2306 25.0809 9.55772 30.5249 8.47485C35.9689 7.39198 41.6117 7.94775 46.7398 10.0719C51.8679 12.196 56.2509 15.7931 59.3347 20.4083C62.4185 25.0234 64.0644 30.4494 64.0644 36C64.0558 43.4405 61.0963 50.5738 55.8351 55.8351C50.5738 61.0963 43.4405 64.0558 36 64.0644Z" fill="white" fill-opacity="0.4"/>
<path d="M36 9.3348C30.7261 9.3348 25.5707 10.8987 21.1856 13.8287C16.8005 16.7587 13.3828 20.9232 11.3646 25.7957C9.34634 30.6681 8.81828 36.0296 9.84716 41.2021C10.876 46.3747 13.4157 51.1259 17.1449 54.8551C20.874 58.5843 25.6253 61.1239 30.7979 62.1528C35.9704 63.1817 41.3319 62.6537 46.2043 60.6354C51.0768 58.6172 55.2413 55.1995 58.1713 50.8144C61.1013 46.4293 62.6652 41.2739 62.6652 36C62.6574 28.9303 59.8456 22.1525 54.8465 17.1535C49.8475 12.1544 43.0697 9.34258 36 9.3348ZM60.6813 36.9678C60.4559 42.8487 58.13 48.4541 54.1257 52.767L51.0774 49.7187L49.7091 51.087L52.7574 54.1356C48.4439 58.1366 42.8392 60.459 36.96 60.6813V56.37H35.0244V60.6822C29.1468 60.4546 23.5452 58.1289 19.2348 54.1266L22.2735 51.087L20.9031 49.7187L17.8644 52.7556C13.8663 48.4441 11.5443 42.8434 11.3187 36.9678H15.6213V35.0322H11.3187C11.5433 29.1564 13.8655 23.5554 17.8644 19.2444L20.9031 22.2813L22.2717 20.913L19.233 17.8743C23.5432 13.8717 29.1449 11.5459 35.0226 11.3187V15.63H36.9582V11.3187C42.8374 11.541 48.4421 13.8634 52.7556 17.8644L49.707 20.913L51.0756 22.2813L54.1239 19.233C58.129 23.5455 60.4549 29.1511 60.6795 35.0322H56.3574V36.9678H60.6813Z" fill="white" fill-opacity="0.4"/>
<path d="M36.9678 32.0865V23.6961H35.0322V32.0865C34.2678 32.2726 33.5746 32.6784 33.0382 33.254C32.5018 33.8295 32.1456 34.5495 32.0137 35.3251C31.8818 36.1007 31.9799 36.8979 32.2958 37.6184C32.6118 38.3389 33.1318 38.9511 33.7917 39.3795L27.6774 53.8005L29.46 54.5574L35.6283 40.0074C35.7522 40.0191 35.8722 40.0443 36 40.0443C36.9875 40.0459 37.9414 39.6855 38.6811 39.0314C39.4209 38.3772 39.8952 37.4746 40.0144 36.4943C40.1337 35.514 39.8894 34.524 39.328 33.7116C38.7666 32.8992 37.9269 32.3216 36.9678 32.0865ZM36 38.1078C35.5831 38.1078 35.1756 37.9842 34.829 37.7526C34.4823 37.521 34.2122 37.1918 34.0526 36.8066C33.8931 36.4215 33.8514 35.9977 33.9327 35.5888C34.014 35.1799 34.2148 34.8043 34.5096 34.5096C34.8043 34.2148 35.1799 34.014 35.5888 33.9327C35.9977 33.8514 36.4215 33.8931 36.8066 34.0526C37.1918 34.2122 37.521 34.4823 37.7526 34.829C37.9842 35.1756 38.1078 35.5831 38.1078 36C38.1072 36.5588 37.8849 37.0946 37.4897 37.4897C37.0946 37.8849 36.5588 38.1072 36 38.1078Z" fill="white" fill-opacity="0.4"/>
</svg>
