<svg width="72" height="72" viewBox="0 0 72 72" fill="none" xmlns="http://www.w3.org/2000/svg">
<path d="M25.53 44.0697H10.7616V45.9483H25.53V44.0697Z" fill="white" fill-opacity="0.4"/>
<path d="M25.53 38.4462H10.7616V40.3248H25.53V38.4462Z" fill="white" fill-opacity="0.4"/>
<path d="M37.6203 32.8227H10.7616V34.7013H37.6203V32.8227Z" fill="white" fill-opacity="0.4"/>
<path d="M43.3167 27.1995H10.7616V29.0781H43.3167V27.1995Z" fill="white" fill-opacity="0.4"/>
<path d="M10.7544 62.9046H46.1745V55.3899H10.7544V62.9046ZM12.6186 57.27H44.31V61.026H12.6186V57.27Z" fill="white" fill-opacity="0.4"/>
<path d="M66.0939 24.1947L60.8955 18.8658L50.8353 28.9866V14.715L42.7131 6.78003H6.09387V66.78H50.8353V39.5715L66.0939 24.1947ZM37.65 44.9058L40.2777 47.5539L39.0873 48.7539L36.0921 49.4268L36.4956 46.0698L37.65 44.9058ZM41.5959 46.2258L38.9682 43.578L56.9049 25.5027L59.5326 28.1505L41.5959 46.2258ZM63.492 24.1602L60.8505 26.8221L58.2231 24.1743L60.8631 21.5124L63.492 24.1602ZM43.3782 9.96153L47.6364 14.1765H43.3782V9.96153ZM48.9711 64.9005H7.95777V8.65803H41.514V16.0551H48.9711V30.8622L34.7067 45.2121L34.1802 49.6929H10.7616V51.5715H35.01C35.0782 51.5715 35.1462 51.5639 35.2128 51.549L40.0227 50.469L42.2292 48.2454L42.2676 48.2295L42.2835 48.1905L48.9735 41.4501L48.9711 64.9005Z" fill="white" fill-opacity="0.4"/>
<path d="M38.6667 13.14H11.6916V23.4549H38.6667V13.14ZM36.8025 21.5751H13.5558V15.0198H36.8025V21.5751Z" fill="white" fill-opacity="0.4"/>
</svg>
