<svg width="80" height="80" viewBox="0 0 80 80" fill="none" xmlns="http://www.w3.org/2000/svg">
<path d="M25.7448 55.3281C24.2834 55.328 22.8548 55.7612 21.6397 56.573C20.4246 57.3848 19.4774 58.5387 18.9181 59.8888C18.3588 61.2389 18.2123 62.7245 18.4974 64.1578C18.7824 65.5911 19.486 66.9077 20.5193 67.9411C21.5526 68.9745 22.8692 69.6783 24.3024 69.9634C25.7357 70.2486 27.2214 70.1023 28.5715 69.5431C29.9216 68.9839 31.0756 68.0369 31.8875 66.8218C32.6994 65.6067 33.1328 64.1782 33.1328 62.7168C33.1309 60.7579 32.3519 58.8798 30.9668 57.4946C29.5817 56.1094 27.7037 55.3302 25.7448 55.3281ZM25.7448 67.9661C24.7092 67.9661 23.6968 67.659 22.8357 67.0836C21.9745 66.5083 21.3034 65.6905 20.9071 64.7337C20.5107 63.7768 20.407 62.724 20.6091 61.7082C20.8111 60.6925 21.3098 59.7595 22.0422 59.0271C22.7745 58.2948 23.7075 57.7961 24.7232 57.5941C25.739 57.392 26.7918 57.4957 27.7487 57.8921C28.7055 58.2884 29.5233 58.9595 30.0987 59.8206C30.674 60.6818 30.9811 61.6941 30.9811 62.7298C30.9797 64.1182 30.4276 65.4493 29.4459 66.4311C28.4643 67.4129 27.1332 67.9645 25.7448 67.9661Z" fill="white" fill-opacity="0.4"/>
<path d="M47.8442 6.66675H15.1016V73.3334H64.5636V23.4001L47.8442 6.66675ZM48.4742 10.3414L60.9022 22.7691H48.4742V10.3414ZM17.2539 50.6301L18.3826 51.4568L18.9862 51.1024C20.0194 50.4952 21.1325 50.0359 22.2932 49.7378L22.9756 49.5538L23.7499 44.4487H27.7262L28.4992 49.5538L29.1816 49.7378C30.3414 50.0383 31.4543 50.4975 32.4886 51.1024L33.0922 51.4568L37.2526 48.3857L40.0739 51.2074L37.0032 55.3674L37.3576 55.9711C37.9623 57.0008 38.4216 58.1094 38.7222 59.2651L38.9059 59.9478L44.0109 60.7217V64.7114L38.9059 65.4858L38.7222 66.1681C38.4217 67.328 37.9625 68.4408 37.3576 69.4751L37.0032 70.0921L37.8169 71.1944H17.2539V50.6301ZM40.4952 71.1811L39.5636 69.9214C39.9873 69.1159 40.3343 68.2723 40.6002 67.4018L46.1646 66.5618V58.8848L40.6002 58.0448C40.3287 57.1763 39.9818 56.3332 39.5636 55.5251L42.8969 50.9974L37.4769 45.5641L32.9492 48.8974C32.1437 48.4736 31.3001 48.1265 30.4296 47.8608L29.5899 42.2967H21.9126L21.0726 47.8611C20.2041 48.1326 19.361 48.4795 18.5529 48.8978L17.2799 47.9528V8.81908H46.3482V24.9081H62.4506V71.1811H40.4952Z" fill="white" fill-opacity="0.4"/>
<path d="M21.5586 12.0474H31.2306V14.2H21.5586V12.0474Z" fill="white" fill-opacity="0.4"/>
<path d="M21.5586 17.4148H41.9919V19.5668H21.5586V17.4148Z" fill="white" fill-opacity="0.4"/>
<path d="M21.5586 22.769H41.9919V24.9214H21.5586V22.769Z" fill="white" fill-opacity="0.4"/>
<path d="M21.5586 28.1235H58.1203V30.2759H21.5586V28.1235Z" fill="white" fill-opacity="0.4"/>
<path d="M21.5586 33.4778H58.1203V35.6301H21.5586V33.4778Z" fill="white" fill-opacity="0.4"/>
<path d="M54.8906 38.9241H57.043V41.0761H54.8906V38.9241Z" fill="white" fill-opacity="0.4"/>
<path d="M50.5879 38.9241H52.7399V41.0761H50.5879V38.9241Z" fill="white" fill-opacity="0.4"/>
<path d="M46.2832 38.9241H48.4355V41.0761H46.2832V38.9241Z" fill="white" fill-opacity="0.4"/>
</svg>
