<svg width="80" height="80" viewBox="0 0 80 80" fill="none" xmlns="http://www.w3.org/2000/svg">
<path d="M58.5 29.339C56.7272 29.3391 54.9981 29.8896 53.5514 30.9143L46.9754 28.289C47.1303 27.8203 47.1212 27.3129 46.9494 26.8501C46.7777 26.3873 46.4536 25.9968 46.0304 25.7427L54.0504 11.8553L44.783 6.5L36.763 20.3873C36.5205 20.2456 36.2523 20.1535 35.9739 20.1164C35.6954 20.0792 35.4124 20.0979 35.1413 20.1711C34.8701 20.2444 34.6162 20.3708 34.3944 20.5431C34.1725 20.7154 33.9872 20.9301 33.849 21.1747L25.829 35.062C25.6842 35.3048 25.5896 35.5742 25.5508 35.8542C25.512 36.1342 25.5299 36.4192 25.6034 36.6922C25.6769 36.9652 25.8044 37.2207 25.9785 37.4434C26.1525 37.6662 26.3696 37.8517 26.6167 37.989L24.4774 41.6907L33.731 47.0333L35.8704 43.3333C36.1125 43.4763 36.3809 43.5694 36.6596 43.6072C36.9382 43.645 37.2217 43.6266 37.4932 43.5533C37.7647 43.4799 38.0187 43.353 38.2405 43.18C38.4622 43.0071 38.6471 42.7915 38.7844 42.546L43.3787 34.5917L49.9677 37.256C49.8643 38.3952 49.9987 39.5435 50.3625 40.628C50.7263 41.7125 51.3115 42.7096 52.081 43.556L44.3104 63.5597H29.6227V60.357H33.9017C34.4691 60.3569 35.0132 60.1315 35.4143 59.7303C35.8155 59.3291 36.0409 58.785 36.041 58.2177V53.937H16.8V58.2163C16.8002 58.7837 17.0257 59.3278 17.4269 59.729C17.8282 60.1302 18.3723 60.3556 18.9397 60.3557H23.217V63.5583H13.5957V68.9C13.6877 70.7 14.829 72.3917 17.8747 72.1027V73.166H20.0144V72.1027H52.094V73.166H54.2334V72.1027C57.1604 72.431 58.5124 70.659 58.5124 68.9V63.5583H53.0524L59.799 46.3503C61.9335 46.0267 63.8667 44.908 65.2108 43.2185C66.5549 41.529 67.2104 39.3938 67.0459 37.2412C66.8814 35.0886 65.9091 33.0778 64.3239 31.6121C62.7387 30.1465 60.6589 29.3345 58.5 29.339ZM18.938 58.2163V56.0767H33.9017V58.2163H27.483V63.5583H25.3567V58.2163H18.938ZM45.5574 9.427L51.1097 12.6297L49.5097 15.4127L43.9574 12.2097L45.5574 9.427ZM42.893 14.0473L48.445 17.2633L44.1667 24.6667L40.229 22.396L38.6144 21.4627L42.893 14.0473ZM34.0067 42.255L32.9434 44.1057L27.391 40.903L28.4544 39.0523L34.0067 42.255ZM36.9337 41.4807L27.68 36.1383L35.7 22.251L44.9537 27.5933L36.9337 41.4807ZM56.36 65.698V68.9C56.3592 69.1817 56.2469 69.4516 56.0477 69.6508C55.8486 69.85 55.5787 69.9624 55.297 69.9633H16.8C16.5183 69.9625 16.2483 69.8501 16.0491 69.6509C15.8499 69.4517 15.7376 69.1817 15.7367 68.9V65.6973L56.36 65.698ZM58.2634 44.329L50.73 63.5583H46.6077L54.5744 43.0163C53.5264 42.1922 52.7516 41.071 52.3511 39.7994C51.9506 38.5278 51.9432 37.1649 52.3297 35.889L44.4937 32.7257L45.9244 30.166L53.891 33.3557C55.1299 32.1797 56.7642 31.51 58.472 31.4787C59.3236 31.4805 60.1664 31.6517 60.9513 31.9821C61.7362 32.3125 62.4476 32.7956 63.0442 33.4033C63.6407 34.011 64.1105 34.7313 64.4263 35.5222C64.7421 36.3131 64.8976 37.1588 64.8837 38.0103C64.8698 38.8618 64.6868 39.7021 64.3453 40.4822C64.0038 41.2624 63.5107 41.9669 62.8946 42.5548C62.2785 43.1427 61.5517 43.6023 60.7564 43.9069C59.9611 44.2115 59.1146 44.355 58.2634 44.329Z" fill="white" fill-opacity="0.4"/>
<path d="M58.4997 33.6184C57.6534 33.6184 56.8261 33.8694 56.1224 34.3396C55.4187 34.8097 54.8703 35.478 54.5464 36.2599C54.2226 37.0418 54.1378 37.9022 54.3029 38.7322C54.468 39.5622 54.8756 40.3247 55.474 40.9231C56.0724 41.5215 56.8349 41.9291 57.6649 42.0942C58.495 42.2593 59.3553 42.1746 60.1372 41.8507C60.9191 41.5268 61.5874 40.9784 62.0576 40.2747C62.5277 39.571 62.7787 38.7437 62.7787 37.8974C62.7785 36.7626 62.3277 35.6743 61.5252 34.8719C60.7228 34.0695 59.6345 33.6186 58.4997 33.6184ZM58.4997 40.0367C58.0765 40.0368 57.6628 39.9114 57.3108 39.6763C56.9589 39.4412 56.6846 39.107 56.5226 38.716C56.3607 38.3251 56.3183 37.8948 56.4008 37.4797C56.4833 37.0646 56.6871 36.6834 56.9864 36.3841C57.2857 36.0848 57.6669 35.8811 58.082 35.7985C58.4971 35.716 58.9274 35.7584 59.3183 35.9203C59.7093 36.0823 60.0435 36.3566 60.2786 36.7085C60.5137 37.0605 60.6391 37.4742 60.639 37.8974C60.6389 38.4647 60.4134 39.0088 60.0122 39.41C59.6111 39.8111 59.067 40.0366 58.4997 40.0367Z" fill="white" fill-opacity="0.4"/>
<path d="M36.9844 28.5436L38.054 26.6909L39.9067 27.7606L38.837 29.6136L36.9844 28.5436Z" fill="white" fill-opacity="0.4"/>
<path d="M36.6889 33.3287L34.8359 32.259L35.9056 30.406L37.7586 31.4757L36.6889 33.3287Z" fill="white" fill-opacity="0.4"/>
<path d="M34.5561 37.0224L32.7031 35.9528L33.7731 34.1001L35.6258 35.1698L34.5561 37.0224Z" fill="white" fill-opacity="0.4"/>
</svg>
