<svg width="72" height="72" viewBox="0 0 72 72" fill="none" xmlns="http://www.w3.org/2000/svg">
<path d="M55.9029 54.12H66L65.9787 14.07L57.8814 6.33899H27.6933V12.4062L16.3428 14.34L17.0979 18.741C13.2462 20.0508 6 22.593 6 22.593L12.8745 41.673L14.6892 41.0181L8.4741 23.745C11.3754 22.7076 14.3889 21.6888 17.4279 20.6658L24.0999 59.562L41.1858 56.6376L22.6929 63.285L16.0227 44.73L14.208 45.3852L21.498 65.6613L52.0707 54.7749L55.9029 54.12ZM62.874 13.7487H57.8658L57.8574 8.96459L62.874 13.7487ZM18.5763 15.9282L27.6933 14.3652V31.6413H29.6238V8.26949H55.9248L55.9353 15.6795H64.0695V52.1895H29.6238V35.3346H27.6933V54.12H44.4837L25.677 57.3426L18.5763 15.9282Z" fill="white" fill-opacity="0.4"/>
<path d="M60.4197 18.972H33.6243V20.9025H60.4197V18.972Z" fill="white" fill-opacity="0.4"/>
<path d="M60.4197 25.1508H33.6243V27.0813H60.4197V25.1508Z" fill="white" fill-opacity="0.4"/>
<path d="M60.4197 31.3284H33.6243V33.2589H60.4197V31.3284Z" fill="white" fill-opacity="0.4"/>
<path d="M60.4197 37.5057H33.6243V39.4362H60.4197V37.5057Z" fill="white" fill-opacity="0.4"/>
<path d="M60.4197 43.686H33.6243V45.6165H60.4197V43.686Z" fill="white" fill-opacity="0.4"/>
</svg>
