<svg width="72" height="72" viewBox="0 0 72 72" fill="none" xmlns="http://www.w3.org/2000/svg">
<path d="M54.27 29.0702V27.3902L50.46 24.2702L48.36 24.8402L47.67 27.1202H46.11V23.1602H38.34L34.35 19.1702H28.05V16.2902H33.06V14.4902H21.24V16.2902H26.25V19.1702H18.18L15.81 22.0502H10.98V30.4802H7.8V23.7302H6V39.0302H7.8V32.2802H10.98V40.6202H14.85L15.81 42.6602L15 44.5802L11.73 45.7502V50.6702L15 51.8402L15.81 53.7602L14.31 56.9102L17.79 60.3902L20.94 58.8902L22.86 59.7002L24.03 63.0002H28.95L30.12 59.7002L32.04 58.8902L35.19 60.3902L38.67 56.9102L37.17 53.7602L37.98 51.8402L41.25 50.6702V45.7502L37.98 44.5802L37.77 44.1002C39.9 44.1002 42.39 44.1002 43.5 44.1002V58.2902C43.5 61.3802 49.17 63.0002 54.75 63.0002C60.33 63.0002 66 61.3802 66 58.2902V33.7202C66 30.5102 60.06 28.9802 54.27 29.0702ZM39.48 47.0102V49.4102L36.63 50.4302L35.22 53.8202L36.51 56.5502L34.83 58.2302L32.1 56.9402L28.71 58.3502L27.69 61.2002H25.29L24.3 58.3502L20.91 56.9402L18.18 58.2302L16.5 56.5502L17.79 53.8202L16.38 50.4002L13.53 49.3802V46.9802L16.38 45.9602L17.79 42.5402L16.5 39.8102L18.18 38.1302L20.91 39.4202L24.3 38.0102L25.32 35.1602H27.72L28.74 38.0102L32.13 39.4202L34.86 38.1302L36.54 39.8102L35.25 42.5402L36.66 45.9302L39.48 47.0102ZM37.35 42.3002L38.67 39.5102L35.19 36.0002L32.04 37.5002L30.12 36.6902L28.95 33.4202H24.03L22.86 36.6902L20.94 37.5002L17.79 36.0002L14.94 38.8502V38.7902H12.78V23.8502H16.68L19.05 20.9702H33.57L37.56 24.9602H44.28V28.8902H48.96L49.77 26.2802L50.04 26.2202L52.47 28.2302V29.1302C47.7 29.4902 43.5 31.0202 43.5 33.6902V42.2702C42.66 42.2702 40.92 42.2702 37.35 42.3002ZM45.3 40.1702C45.78 40.4702 46.32 40.7702 46.98 41.0102V56.2502C45.9 55.7402 45.3 55.2002 45.3 54.7202V40.1702ZM58.98 57.3002V41.9102C59.55 41.8202 60.06 41.7302 60.6 41.5802V56.9402C60.09 57.0902 59.55 57.2102 58.98 57.3002ZM57.18 57.5402C56.64 57.6002 56.1 57.6002 55.5 57.6302V42.2102C56.07 42.2102 56.61 42.1802 57.18 42.1202V57.5402ZM53.7 57.6302C53.16 57.6002 52.62 57.5702 52.11 57.5402V42.1502C52.62 42.2102 53.16 42.2402 53.7 42.2402V57.6302ZM50.34 57.2702C49.77 57.1802 49.26 57.0602 48.78 56.9102V41.5802C49.29 41.7002 49.8 41.7902 50.34 41.8802V57.2702ZM54.75 61.2002C48.99 61.2002 45.3 59.4602 45.3 58.2902V57.3902C47.4 58.7402 51.09 59.4602 54.75 59.4602C58.41 59.4602 62.1 58.7402 64.2 57.3902V58.2902C64.2 59.4602 60.51 61.2002 54.75 61.2002ZM62.4 56.3402V41.1002C63.09 40.8302 63.69 40.5302 64.2 40.2002V54.7502C64.2 55.2302 63.54 55.8002 62.4 56.3402ZM54.75 40.4402C48.99 40.4402 45.3 38.7002 45.3 37.5302V36.3602C47.4 37.7102 51.09 38.4302 54.75 38.4302C58.41 38.4302 62.1 37.7102 64.2 36.3602V37.5302C64.2 38.7302 60.51 40.4402 54.75 40.4402ZM54.75 36.6302C48.99 36.6302 45.3 34.8902 45.3 33.7202C45.3 32.5502 48.99 30.8102 54.75 30.8102C60.51 30.8102 64.2 32.5502 64.2 33.7202C64.2 34.8902 60.51 36.6302 54.75 36.6302Z" fill="white" fill-opacity="0.4"/>
<path d="M49.9512 33.5098C49.9512 35.1298 52.3512 35.8498 54.7512 35.8498C57.1512 35.8498 59.5512 35.1298 59.5512 33.5098C59.5512 30.2998 49.9512 30.2998 49.9512 33.5098ZM54.7512 34.0498C53.3112 34.0498 52.3212 33.7498 51.9012 33.5098C52.3212 33.2698 53.3112 32.9698 54.7512 32.9698C56.1912 32.9698 57.1812 33.2698 57.6012 33.5098C57.1812 33.7498 56.1912 34.0498 54.7512 34.0498Z" fill="white" fill-opacity="0.4"/>
<path d="M26.4895 40.7402C22.3795 40.7402 19.0195 44.1002 19.0195 48.2102C19.0195 52.3202 22.3795 55.6802 26.4895 55.6802C30.5995 55.6802 33.9595 52.3202 33.9595 48.2102C33.9595 44.1002 30.6295 40.7402 26.4895 40.7402ZM26.4895 53.8802C23.3695 53.8802 20.8195 51.3302 20.8195 48.2102C20.8195 45.0902 23.3695 42.5402 26.4895 42.5402C29.6095 42.5402 32.1595 45.0902 32.1595 48.2102C32.1595 51.3302 29.6095 53.8802 26.4895 53.8802Z" fill="white" fill-opacity="0.4"/>
<path d="M64.5006 13.5H62.2206C61.8906 12.72 61.1106 12.18 60.2106 12.18H55.1106V9H50.3406V10.32H47.3406V11.55H41.2506C39.9006 11.55 38.7906 12.66 38.7906 14.01V14.64H37.8006V16.44H38.7906V16.95H37.2306C37.0506 16.95 36.9006 16.77 36.9006 16.56V14.64H35.1006V16.56C35.1006 17.76 36.0606 18.75 37.2306 18.75H39.4806C39.9306 19.23 40.5606 19.53 41.2506 19.53H47.3406V20.76H50.3406V22.08H55.1106V18.87H60.2106C61.1106 18.87 61.8906 18.33 62.2206 17.55H64.5006C65.3106 17.55 66.0006 16.89 66.0006 16.08V14.97C66.0006 14.16 65.3406 13.5 64.5006 13.5ZM44.5206 13.35V17.7H43.5006V13.35H44.5206ZM40.5906 17.04V14.01C40.5906 13.65 40.8906 13.35 41.2506 13.35H41.7006V17.7H41.2506C40.8906 17.7 40.5906 17.43 40.5906 17.04ZM46.3206 17.7V13.35H47.3406V17.7H46.3206ZM49.1406 18.93V12.12H50.3406V18.93H49.1406ZM53.3106 20.25H52.1406V10.8H53.3106V20.25ZM60.6006 16.74C60.6006 16.92 60.4206 17.07 60.2106 17.07H55.1106V13.98H60.2106C60.4206 13.98 60.6006 14.13 60.6006 14.31V16.74ZM64.2006 15.75H62.4006V15.3H64.2006V15.75Z" fill="white" fill-opacity="0.4"/>
</svg>
