<svg width="72" height="72" viewBox="0 0 72 72" fill="none" xmlns="http://www.w3.org/2000/svg">
<path d="M20.6027 21.4625L17.7598 24.3047L19.0324 25.5776L21.8753 22.7355L20.6027 21.4625Z" fill="white" fill-opacity="0.4"/>
<path d="M21.15 30.87L30.27 21.78L35.01 26.52L45.72 15.87L48.78 19.23L51.57 6L38.07 8.4L40.89 11.25L35.25 16.86L30.15 11.94L21.69 20.37L22.95 21.63L30.15 14.43L35.22 19.35L43.41 11.25L41.73 9.57L49.2 8.25L47.67 15.45L45.72 13.29L35.01 24L30.27 19.26L10.92 38.55L8.55 36.15L17.94 26.7L16.68 25.41L6 36.09L10.89 41.04L12.66 39.27V44.4H10.17C7.89 44.4 6 46.29 6 48.57C6 49.89 6.63 51.06 7.62 51.84C6.66 52.62 6 53.79 6 55.11C6 56.49 6.69 57.72 7.71 58.47C6.69 59.22 6 60.45 6 61.83C6 64.14 7.89 66 10.17 66H25.32C25.92 66 26.49 65.88 27 65.64V66H66V30.87H21.15ZM14.49 37.5L19.35 32.67H64.23V59.73H28.89C28.59 59.25 28.23 58.83 27.75 58.5C28.23 58.17 28.59 57.72 28.89 57.21H58.02L57.99 56.28C57.99 56.28 57.99 55.26 58.53 54.54C58.95 54 60.09 53.76 60.48 53.73L61.29 53.64V38.67L60.48 38.58C60.09 38.55 58.95 38.31 58.53 37.77C57.99 37.05 57.99 36.03 57.99 36.03L58.02 35.1H20.1L20.13 36.03C20.13 36.03 20.13 37.05 19.59 37.77C19.17 38.31 18.03 38.55 17.64 38.58L16.83 38.67V44.43H14.49V37.5ZM25.32 44.4H18.66V40.23C19.41 40.05 20.43 39.66 21.06 38.85C21.54 38.19 21.78 37.47 21.87 36.9H56.31C56.4 37.47 56.64 38.19 57.12 38.85C57.75 39.66 58.77 40.05 59.52 40.23V52.05C58.77 52.23 57.75 52.62 57.12 53.43C56.64 54.09 56.4 54.81 56.31 55.38H29.46C29.46 55.29 29.49 55.2 29.49 55.11C29.49 53.79 28.86 52.62 27.87 51.84C28.83 51.09 29.49 49.89 29.49 48.57C29.49 46.29 27.63 44.4 25.32 44.4ZM7.8 48.57C7.8 47.28 8.85 46.2 10.17 46.2H25.32C26.61 46.2 27.69 47.25 27.69 48.57C27.69 49.86 26.64 50.94 25.32 50.94H10.17C8.88 50.94 7.8 49.89 7.8 48.57ZM25.32 52.74C26.61 52.74 27.69 53.79 27.69 55.11C27.69 56.43 26.64 57.48 25.32 57.48H10.17C8.88 57.48 7.8 56.43 7.8 55.11C7.8 53.79 8.85 52.74 10.17 52.74H25.32ZM25.32 64.2H10.17C8.88 64.2 7.8 63.15 7.8 61.83C7.8 60.51 8.85 59.46 10.17 59.46H25.32C26.61 59.46 27.69 60.51 27.69 61.83C27.69 63.15 26.64 64.2 25.32 64.2ZM28.74 64.2C29.22 63.54 29.49 62.7 29.49 61.83C29.49 61.71 29.46 61.62 29.46 61.5H64.2V64.2H28.74Z" fill="white" fill-opacity="0.4"/>
<path d="M39.1514 52.5003C42.5714 52.5003 45.3614 49.7103 45.3614 46.2903C45.3614 42.8703 42.5714 40.0803 39.1514 40.0803C35.7314 40.0803 32.9414 42.8703 32.9414 46.2903C32.9414 49.7103 35.7314 52.5003 39.1514 52.5003ZM39.1514 41.8803C41.5814 41.8803 43.5614 43.8603 43.5614 46.2903C43.5614 48.7203 41.5814 50.7003 39.1514 50.7003C36.7214 50.7003 34.7414 48.7203 34.7414 46.2903C34.7414 43.8603 36.7214 41.8803 39.1514 41.8803Z" fill="white" fill-opacity="0.4"/>
<path d="M53.6092 45.3896H49.4092V47.1896H53.6092V45.3896Z" fill="white" fill-opacity="0.4"/>
</svg>
