<svg width="72" height="72" viewBox="0 0 72 72" fill="none" xmlns="http://www.w3.org/2000/svg">
<path d="M65.9994 44.5203H50.0994V33.2703H38.9994C36.3294 33.2703 33.8694 34.8303 32.7294 37.2603L28.7094 45.8703L28.6494 58.2003H31.7994C32.0094 60.8703 34.2294 63.0003 36.9594 63.0003C39.6894 63.0003 41.9394 60.8703 42.1194 58.2003H52.4394C52.6494 60.8703 54.8694 63.0003 57.5994 63.0003C60.3294 63.0003 62.5794 60.8703 62.7594 58.2003H65.9994V44.5203ZM30.5094 46.3203H32.0994C32.0994 46.3203 32.0994 46.3503 32.0994 46.3803V48.2103C32.0994 48.2403 32.0994 48.2403 32.0994 48.2703H30.4494V46.4403L30.5094 46.3203ZM36.9894 61.2003C35.0994 61.2003 33.5694 59.6703 33.5694 57.8103C33.5694 55.9503 35.0994 54.4203 36.9894 54.4203C38.8794 54.4203 40.4094 55.9503 40.4094 57.8103C40.4094 59.6703 38.8494 61.2003 36.9894 61.2003ZM57.6294 61.2003C55.7394 61.2003 54.2094 59.6703 54.2094 57.8103C54.2094 55.9503 55.7394 54.4203 57.6294 54.4203C59.5194 54.4203 61.0494 55.9503 61.0494 57.8103C61.0494 59.6703 59.5194 61.2003 57.6294 61.2003ZM62.6094 56.4003C61.9794 54.2103 59.9994 52.6203 57.6294 52.6203C55.2594 52.6203 53.2494 54.2403 52.6494 56.4003H41.9694C41.3394 54.2103 39.3594 52.6203 36.9894 52.6203C34.6194 52.6203 32.6094 54.2403 32.0094 56.4003H30.4794V50.0703H32.4894C33.2994 50.0703 33.9294 49.2903 33.9294 48.2103V46.3803C33.9294 45.3303 33.2994 44.5203 32.4894 44.5203H31.3794L34.4394 37.9803C35.2794 36.1803 37.0794 35.0403 39.0594 35.0403H48.3294V46.2903H64.2294V56.4003H62.6094Z" fill="white" fill-opacity="0.4"/>
<path d="M36.8106 39.5101L35.1006 43.1701L36.5406 44.8801H45.0006V37.5601H39.9006C38.5806 37.5601 37.3806 38.3401 36.8106 39.5101ZM43.2006 43.1101H37.4106L37.2306 42.9001L38.4606 40.2901C38.7306 39.7201 39.2706 39.3901 39.9006 39.3901H43.2006V43.1101Z" fill="white" fill-opacity="0.4"/>
<path d="M17.1292 15.9298C17.1292 14.0698 15.6292 12.5698 13.7692 12.5698C11.9092 12.5698 10.4092 14.0698 10.4092 15.9298C10.4092 17.7898 11.9092 19.2898 13.7692 19.2898C15.6292 19.2898 17.1292 17.7898 17.1292 15.9298ZM12.2092 15.9298C12.2092 15.0598 12.8992 14.3698 13.7692 14.3698C14.6392 14.3698 15.3292 15.0598 15.3292 15.9298C15.3292 16.7998 14.6392 17.4898 13.7692 17.4898C12.8992 17.4898 12.2092 16.7998 12.2092 15.9298Z" fill="white" fill-opacity="0.4"/>
<path d="M24.0299 49.95C22.4999 49.95 21.2399 51 20.8499 52.41H14.0399C13.1699 52.41 12.4499 51.93 12.1199 51.15C11.7599 50.37 11.9099 49.53 12.4799 48.9L38.1599 20.58C39.2099 19.41 39.4799 17.82 38.8199 16.38C38.1899 14.94 36.8099 14.07 35.2499 14.07H27.4199L28.9799 12.57L27.6899 11.25L23.9099 14.97L27.6899 18.66L28.9499 17.37L27.3899 15.87H35.2799C36.1499 15.87 36.8399 16.35 37.1999 17.13C37.5599 17.91 37.4099 18.75 36.8399 19.41L11.1599 47.7C10.1099 48.87 9.83987 50.46 10.4699 51.9C11.0999 53.34 12.4799 54.21 14.0399 54.21H20.8499C21.2399 55.62 22.4999 56.67 24.0299 56.67C25.8899 56.67 27.3899 55.17 27.3899 53.31C27.3899 51.48 25.8899 49.95 24.0299 49.95ZM24.0299 54.9C23.1599 54.9 22.4699 54.21 22.4699 53.34C22.4699 52.47 23.1599 51.78 24.0299 51.78C24.8999 51.78 25.5899 52.47 25.5899 53.34C25.5899 54.18 24.8999 54.9 24.0299 54.9Z" fill="white" fill-opacity="0.4"/>
<path d="M21.99 29.5197C21.99 28.0797 20.82 26.7597 18.75 25.9497L18.12 27.6297C19.41 28.1397 20.22 28.8597 20.22 29.5197C20.22 30.7497 17.58 32.1297 14.01 32.1297C10.44 32.1297 7.8 30.7497 7.8 29.5197C7.8 28.8597 8.61 28.1397 9.9 27.6297L9.27 25.9497C7.17 26.7597 6 28.0497 6 29.5197C6 32.0397 9.45 33.9297 14.01 33.9297C18.57 33.9297 21.99 32.0397 21.99 29.5197Z" fill="white" fill-opacity="0.4"/>
<path d="M63.9891 26.4602H51.5391V43.1702H63.9891V26.4602ZM62.1891 28.2602V30.1502H53.3691V28.2602H62.1891ZM53.3391 41.3402V31.9202H62.1591V41.3402H53.3391Z" fill="white" fill-opacity="0.4"/>
<path d="M13.1409 30.93H14.4009L14.6709 30.51C14.9109 30.12 20.5809 21.03 20.5809 15.42C20.5809 10.41 16.4409 9.03003 14.2509 9.03003H13.2909C11.1009 9.03003 6.96094 10.41 6.96094 15.39C6.96094 21.03 12.6009 30.12 12.8409 30.48L13.1409 30.93ZM13.3209 10.8H14.1909C14.6709 10.8 18.7509 11.01 18.7509 15.39C18.7509 19.47 15.2109 25.98 13.7409 28.5C12.3009 25.98 8.76094 19.47 8.76094 15.39C8.76094 11.04 12.8409 10.8 13.3209 10.8Z" fill="white" fill-opacity="0.4"/>
<path d="M61.7093 33.2703H57.7793V35.0703H61.7093V33.2703Z" fill="white" fill-opacity="0.4"/>
<path d="M61.7093 36.2102H57.7793V38.0102H61.7093V36.2102Z" fill="white" fill-opacity="0.4"/>
</svg>
