<svg width="25" height="24" viewBox="0 0 25 24" fill="none" xmlns="http://www.w3.org/2000/svg">
<g clip-path="url(#clip0_125_62314)">
<path d="M24.5 4.00024H0.5V19.9999H24.5V4.00024Z" fill="#D80027"/>
<path d="M12.0865 10.1619L12.9113 11.2984L14.2469 10.8653L13.4209 12.0008L14.2455 13.1373L12.9103 12.7025L12.0843 13.8381L12.0852 12.4339L10.75 11.9992L12.0857 11.5661L12.0865 10.1619Z" fill="#F0F0F0"/>
<path d="M9.83683 14.8406C8.26797 14.8406 6.99611 13.5688 6.99611 11.9999C6.99611 10.4311 8.26797 9.15921 9.83683 9.15921C10.326 9.15921 10.7862 9.28291 11.1881 9.50065C10.5577 8.88415 9.69559 8.50366 8.74427 8.50366C6.81334 8.50366 5.24805 10.069 5.24805 11.9999C5.24805 13.9308 6.81339 15.4961 8.74427 15.4961C9.69559 15.4961 10.5577 15.1156 11.1881 14.4991C10.7863 14.7169 10.326 14.8406 9.83683 14.8406Z" fill="#F0F0F0"/>
</g>
<defs>
<clipPath id="clip0_125_62314">
<rect width="24" height="24" fill="white" transform="translate(0.5)"/>
</clipPath>
</defs>
</svg>
